999
dxfrw 0.6.3
  0
SECTION
  2
HEADER
  9
$ACADVER
  1
AC1021
  9
$DWGCODEPAGE
  3
ANSI_1252
  9
$INSBASE
 10
0
 20
0
 30
0
  9
$EXTMIN
 10
-10740.21801281016
 20
-13801.73032060422
 30
0
  9
$EXTMAX
 10
7827.444324852197
 20
4455.932017058119
 30
0
  9
$LIMMIN
 10
0
 20
0
  9
$LIMMAX
 10
420
 20
297
  9
$ORTHOMODE
 70
    0
  9
$REGENMODE
 70
    1
  9
$FILLMODE
 70
    1
  9
$QTEXTMODE
 70
    0
  9
$MIRRTEXT
 70
    0
  9
$LTSCALE
 40
1
  9
$ATTMODE
 70
    2
  9
$TEXTSIZE
 40
300
  9
$TRACEWID
 40
1
  9
$TEXTSTYLE
  7
Standard
  9
$CLAYER
  8
0
  9
$CELTYPE
  6
ByLayer
  9
$CECOLOR
 62
  256
  9
$CELTSCALE
 40
1
  9
$DISPSILH
 70
    0
  9
$DIMSCALE
 40
100
  9
$DIMASZ
 40
2
  9
$DIMEXO
 40
1.5
  9
$DIMDLI
 40
0.38
  9
$DIMRND
 40
0
  9
$DIMDLE
 40
0
  9
$DIMEXE
 40
0.75
  9
$DIMTP
 40
0
  9
$DIMTM
 40
0
  9
$DIMTXT
 40
2
  9
$DIMCEN
 40
0.09
  9
$DIMTSZ
 40
0
  9
$DIMTOL
 70
    0
  9
$DIMLIM
 70
    0
  9
$DIMTIH
 70
    0
  9
$DIMTOH
 70
    0
  9
$DIMSE1
 70
    0
  9
$DIMSE2
 70
    0
  9
$DIMTAD
 70
    1
  9
$DIMZIN
 70
    0
  9
$DIMBLK
  1
ArchTick
  9
$DIMASO
 70
    1
  9
$DIMSHO
 70
    1
  9
$DIMPOST
  1

  9
$DIMAPOST
  1

  9
$DIMALT
 70
    0
  9
$DIMALTD
 70
    2
  9
$DIMALTF
 40
25.4
  9
$DIMLFAC
 40
1
  9
$DIMTOFL
 70
    1
  9
$DIMTVP
 40
0
  9
$DIMTIX
 70
    0
  9
$DIMSOXD
 70
    0
  9
$DIMSAH
 70
    0
  9
$DIMBLK1
  1

  9
$DIMBLK2
  1

  9
$DIMSTYLE
  2
DIM 100 ARCH
  9
$DIMCLRD
 70
    8
  9
$DIMCLRE
 70
    8
  9
$DIMCLRT
 70
    7
  9
$DIMTFAC
 40
1
  9
$DIMGAP
 40
1
  9
$DIMJUST
 70
    0
  9
$DIMSD1
 70
    0
  9
$DIMSD2
 70
    0
  9
$DIMTOLJ
 70
    1
  9
$DIMTZIN
 70
    0
  9
$DIMALTZ
 70
    0
  9
$DIMALTTZ
 70
    0
  9
$DIMUPT
 70
    0
  9
$DIMDEC
 70
    0
  9
$DIMTDEC
 70
    0
  9
$DIMALTU
 70
    2
  9
$DIMALTTD
 70
    2
  9
$DIMTXSTY
  7
Standard
  9
$DIMAUNIT
 70
    0
  9
$DIMADEC
 70
    0
  9
$DIMALTRND
 40
0
  9
$DIMAZIN
 70
    0
  9
$DIMDSEP
 70
   46
  9
$DIMATFIT
 70
    1
  9
$DIMFRAC
 70
    0
  9
$DIMLDRBLK
  1

  9
$DIMLUNIT
 70
    2
  9
$DIMLWD
 70
   -2
  9
$DIMLWE
 70
   -2
  9
$DIMTMOVE
 70
    0
  9
$DIMFXL
 40
1
  9
$DIMFXLON
 70
    0
  9
$DIMJOGANG
 40
0.7854
  9
$DIMTFILL
 70
    0
  9
$DIMTFILLCLR
 70
    0
  9
$DIMARCSYM
 70
    0
  9
$DIMLTYPE
  6

  9
$DIMLTEX1
  6

  9
$DIMLTEX2
  6

  9
$LUNITS
 70
    2
  9
$LUPREC
 70
    4
  9
$SKETCHINC
 40
1
  9
$FILLETRAD
 40
0
  9
$AUNITS
 70
    0
  9
$AUPREC
 70
    0
  9
$MENU
  1
.
  9
$ELEVATION
 40
0
  9
$PELEVATION
 40
0
  9
$THICKNESS
 40
0
  9
$LIMCHECK
 70
    0
  9
$CHAMFERA
 40
300
  9
$CHAMFERB
 40
300
  9
$CHAMFERC
 40
20
  9
$CHAMFERD
 40
0
  9
$SKPOLY
 70
    0
  9
$USRTIMER
 70
    1
  9
$ANGBASE
 50
0
  9
$ANGDIR
 70
    0
  9
$PDMODE
 70
    0
  9
$PDSIZE
 40
0
  9
$PLINEWID
 40
0
  9
$SPLFRAME
 70
    0
  9
$SPLINETYPE
 70
    6
  9
$SPLINESEGS
 70
    8
  9
$HANDSEED
  5
20000
  9
$SURFTAB1
 70
    6
  9
$SURFTAB2
 70
    6
  9
$SURFTYPE
 70
    6
  9
$SURFU
 70
    6
  9
$SURFV
 70
    6
  9
$UCSBASE
  2

  9
$UCSNAME
  2

  9
$UCSORG
 10
0
 20
0
 30
0
  9
$UCSXDIR
 10
1
 20
0
 30
0
  9
$UCSYDIR
 10
0
 20
1
 30
0
  9
$UCSORTHOREF
  2

  9
$UCSORTHOVIEW
 70
    0
  9
$UCSORGTOP
 10
0
 20
0
 30
0
  9
$UCSORGBOTTOM
 10
0
 20
0
 30
0
  9
$UCSORGLEFT
 10
0
 20
0
 30
0
  9
$UCSORGRIGHT
 10
0
 20
0
 30
0
  9
$UCSORGFRONT
 10
0
 20
0
 30
0
  9
$UCSORGBACK
 10
0
 20
0
 30
0
  9
$PUCSBASE
  2

  9
$PUCSNAME
  2

  9
$PUCSORG
 10
0
 20
0
 30
0
  9
$PUCSXDIR
 10
1
 20
0
 30
0
  9
$PUCSYDIR
 10
0
 20
1
 30
0
  9
$PUCSORTHOREF
  2

  9
$PUCSORTHOVIEW
 70
    0
  9
$PUCSORGTOP
 10
0
 20
0
 30
0
  9
$PUCSORGBOTTOM
 10
0
 20
0
 30
0
  9
$PUCSORGLEFT
 10
0
 20
0
 30
0
  9
$PUCSORGRIGHT
 10
0
 20
0
 30
0
  9
$PUCSORGFRONT
 10
0
 20
0
 30
0
  9
$PUCSORGBACK
 10
0
 20
0
 30
0
  9
$USERI1
 70
    0
  9
$USERI2
 70
    0
  9
$USERI3
 70
    0
  9
$USERI4
 70
    0
  9
$USERI5
 70
    0
  9
$USERR1
 40
0
  9
$USERR2
 40
0
  9
$USERR3
 40
0
  9
$USERR4
 40
0
  9
$USERR5
 40
10
  9
$WORLDVIEW
 70
    1
  9
$SHADEDGE
 70
    3
  9
$SHADEDIF
 70
   70
  9
$TILEMODE
 70
    0
  9
$MAXACTVP
 70
   64
  9
$PINSBASE
 10
0
 20
0
 30
0
  9
$PLIMCHECK
 70
    0
  9
$PEXTMIN
 10
-0.524036025137093
 20
-0.5173015549083857
 30
-0.0015258207003583
  9
$PEXTMAX
 10
403.5439571203781
 20
281.9535541410681
 30
3.49246037e-08
  9
$GRIDMODE
 70
    0
  9
$SNAPSTYLE
 70
    0
  9
$PLIMMIN
 10
0
 20
0
  9
$PLIMMAX
 10
420
 20
297
  9
$UNITMODE
 70
    0
  9
$VISRETAIN
 70
    1
  9
$PLINEGEN
 70
    0
  9
$PSLTSCALE
 70
    1
  9
$TREEDEPTH
 70
 3020
  9
$CMLSTYLE
  2
Standard
  9
$CMLJUST
 70
    0
  9
$CMLSCALE
 40
20
  9
$PROXYGRAPHICS
 70
    1
  9
$MEASUREMENT
 70
    1
  9
$CELWEIGHT
370
   -1
  9
$ENDCAPS
280
    0
  9
$JOINSTYLE
280
    0
  9
$LWDISPLAY
290
    0
  9
$INSUNITS
 70
    4
  9
$HYPERLINKBASE
  1

  9
$STYLESHEET
  1
xe-Struct.ctb
  9
$XEDIT
290
    1
  9
$CEPSNTYPE
380
    0
  9
$PSTYLEMODE
290
    1
  9
$EXTNAMES
290
    1
  9
$PSVPSCALE
 40
0
  9
$OLESTARTUP
290
    0
  9
$SORTENTS
280
  127
  9
$INDEXCTL
280
    0
  9
$HIDETEXT
280
    0
  9
$XCLIPFRAME
290
    0
  9
$HALOGAP
280
    0
  9
$OBSCOLOR
 70
  257
  9
$OBSLTYPE
280
    0
  9
$INTERSECTIONDISPLAY
280
    0
  9
$INTERSECTIONCOLOR
 70
  257
  9
$DIMASSOC
280
    2
  9
$PROJECTNAME
  1

  9
$CAMERADISPLAY
290
    0
  9
$LENSLENGTH
 40
50
  9
$CAMERAHEIGHT
 40
0
  9
$STEPSPERSEC
 40
2
  9
$STEPSIZE
 40
50
  9
$3DDWFPREC
 40
2
  9
$PSOLWIDTH
 40
5
  9
$PSOLHEIGHT
 40
80
  9
$LOFTANG1
 40
1.570796326794897
  9
$LOFTANG2
 40
1.570796326794897
  9
$LOFTMAG1
 40
0
  9
$LOFTMAG2
 40
0
  9
$LOFTPARAM
 70
    7
  9
$LOFTNORMALS
280
    1
  9
$LATITUDE
 40
1
  9
$LONGITUDE
 40
1
  9
$NORTHDIRECTION
 40
0
  9
$TIMEZONE
 70
-8000
  9
$LIGHTGLYPHDISPLAY
280
    1
  9
$TILEMODELIGHTSYNCH
280
    1
  9
$SOLIDHIST
280
    1
  9
$SHOWHIST
280
    1
  9
$DWFFRAME
280
    2
  9
$DGNFRAME
280
    0
  9
$REALWORLDSCALE
290
    1
  9
$INTERFERECOLOR
 62
    1
  9
$CSHADOW
280
    0
  9
$SHADOWPLANELOCATION
 40
0
  0
ENDSEC
  0
SECTION
  2
CLASSES
  0
ENDSEC
  0
SECTION
  2
TABLES
  0
TABLE
  2
VPORT
  5
8
330
0
100
AcDbSymbolTable
 70
    1
  0
VPORT
  5
31
330
2
100
AcDbSymbolTableRecord
100
AcDbViewportTableRecord
  2
*ACTIVE
 70
    0
 10
0
 20
0
 11
1
 21
1
 12
7990.529972493136
 22
2309.401726154086
 13
0
 23
0
 14
10
 24
10
 15
10
 25
10
 16
0
 26
0
 36
1
 17
0
 27
0
 37
0
 40
18475.21380923269
 41
1.64625
 42
50
 43
0
 44
0
 50
0
 51
0
 71
    0
 72
  100
 73
    1
 74
    3
 75
    0
 76
    0
 77
    0
 78
    0
281
    0
 65
    1
110
0
120
0
130
0
111
1
121
0
131
0
112
0
122
1
132
0
 79
    0
146
0
348
10020
 60
    7
 61
    5
292
1
282
    1
141
0
142
0
 63
  250
421
3358443
  0
ENDTAB
  0
TABLE
  2
LTYPE
  5
5
330
0
100
AcDbSymbolTable
 70
    4
  0
LTYPE
  5
14
330
5
100
AcDbSymbolTableRecord
100
AcDbLinetypeTableRecord
  2
ByBlock
 70
    0
  3

 72
   65
 73
    0
 40
0
  0
LTYPE
  5
15
330
5
100
AcDbSymbolTableRecord
100
AcDbLinetypeTableRecord
  2
ByLayer
 70
    0
  3

 72
   65
 73
    0
 40
0
  0
LTYPE
  5
16
330
5
100
AcDbSymbolTableRecord
100
AcDbLinetypeTableRecord
  2
Continuous
 70
    0
  3
Solid line
 72
   65
 73
    0
 40
0
  0
LTYPE
  5
32
330
5
100
AcDbSymbolTableRecord
100
AcDbLinetypeTableRecord
  2
DOT
 70
    0
  3
Dot . . . . . . . . . . . . . . . . . . . . . .
 72
   65
 73
    2
 40
6.35
 49
0
 74
    0
 49
-6.35
 74
    0
  0
LTYPE
  5
33
330
5
100
AcDbSymbolTableRecord
100
AcDbLinetypeTableRecord
  2
DOTTINY
 70
    0
  3
Dot (.15x) .....................................
 72
   65
 73
    2
 40
0.9525
 49
0
 74
    0
 49
-0.9525
 74
    0
  0
LTYPE
  5
34
330
5
100
AcDbSymbolTableRecord
100
AcDbLinetypeTableRecord
  2
DOT2
 70
    0
  3
Dot (.5x) .....................................
 72
   65
 73
    2
 40
3.175
 49
0
 74
    0
 49
-3.175
 74
    0
  0
LTYPE
  5
35
330
5
100
AcDbSymbolTableRecord
100
AcDbLinetypeTableRecord
  2
DOTX2
 70
    0
  3
Dot (2x) .  .  .  .  .  .  .  .  .  .  .  .  .
 72
   65
 73
    2
 40
12.7
 49
0
 74
    0
 49
-12.7
 74
    0
  0
LTYPE
  5
36
330
5
100
AcDbSymbolTableRecord
100
AcDbLinetypeTableRecord
  2
DASHED
 70
    0
  3
Dashed _ _ _ _ _ _ _ _ _ _ _ _ _ _ _ _ _
 72
   65
 73
    2
 40
19.05
 49
12.7
 74
    0
 49
-6.35
 74
    0
  0
LTYPE
  5
37
330
5
100
AcDbSymbolTableRecord
100
AcDbLinetypeTableRecord
  2
DASHEDTINY
 70
    0
  3
Dashed (.15x) _ _ _ _ _ _ _ _ _ _ _ _ _ _ _ _ _
 72
   65
 73
    2
 40
2.8575
 49
1.905
 74
    0
 49
-0.9525
 74
    0
  0
LTYPE
  5
38
330
5
100
AcDbSymbolTableRecord
100
AcDbLinetypeTableRecord
  2
DASHED2
 70
    0
  3
Dashed (.5x) _ _ _ _ _ _ _ _ _ _ _ _ _ _ _ _ _
 72
   65
 73
    2
 40
9.524999999999999
 49
6.35
 74
    0
 49
-3.175
 74
    0
  0
LTYPE
  5
39
330
5
100
AcDbSymbolTableRecord
100
AcDbLinetypeTableRecord
  2
DASHEDX2
 70
    0
  3
Dashed (2x) ____  ____  ____  ____  ____  ___
 72
   65
 73
    2
 40
38.09999999999999
 49
25.4
 74
    0
 49
-12.7
 74
    0
  0
LTYPE
  5
3A
330
5
100
AcDbSymbolTableRecord
100
AcDbLinetypeTableRecord
  2
DASHDOT
 70
    0
  3
Dash dot __ . __ . __ . __ . __ . __ . __ . __
 72
   65
 73
    4
 40
25.4
 49
12.7
 74
    0
 49
-6.35
 74
    0
 49
0
 74
    0
 49
-6.35
 74
    0
  0
LTYPE
  5
3B
330
5
100
AcDbSymbolTableRecord
100
AcDbLinetypeTableRecord
  2
DASHDOTTINY
 70
    0
  3
Dash dot (.15x) _._._._._._._._._._._._._._._.
 72
   65
 73
    4
 40
3.81
 49
1.905
 74
    0
 49
-0.9525
 74
    0
 49
0
 74
    0
 49
-0.9525
 74
    0
  0
LTYPE
  5
3C
330
5
100
AcDbSymbolTableRecord
100
AcDbLinetypeTableRecord
  2
DASHDOT2
 70
    0
  3
Dash dot (.5x) _._._._._._._._._._._._._._._.
 72
   65
 73
    4
 40
12.7
 49
6.35
 74
    0
 49
-3.175
 74
    0
 49
0
 74
    0
 49
-3.175
 74
    0
  0
LTYPE
  5
3D
330
5
100
AcDbSymbolTableRecord
100
AcDbLinetypeTableRecord
  2
DASHDOTX2
 70
    0
  3
Dash dot (2x) ____  .  ____  .  ____  .  ___
 72
   65
 73
    4
 40
50.8
 49
25.4
 74
    0
 49
-12.7
 74
    0
 49
0
 74
    0
 49
-12.7
 74
    0
  0
LTYPE
  5
3E
330
5
100
AcDbSymbolTableRecord
100
AcDbLinetypeTableRecord
  2
DIVIDE
 70
    0
  3
Divide ____ . . ____ . . ____ . . ____ . . ____
 72
   65
 73
    6
 40
31.75
 49
12.7
 74
    0
 49
-6.35
 74
    0
 49
0
 74
    0
 49
-6.35
 74
    0
 49
0
 74
    0
 49
-6.35
 74
    0
  0
LTYPE
  5
3F
330
5
100
AcDbSymbolTableRecord
100
AcDbLinetypeTableRecord
  2
DIVIDETINY
 70
    0
  3
Divide (.15x) __..__..__..__..__..__..__..__.._
 72
   65
 73
    6
 40
4.7625
 49
1.905
 74
    0
 49
-0.9525
 74
    0
 49
0
 74
    0
 49
-0.9525
 74
    0
 49
0
 74
    0
 49
-0.9525
 74
    0
  0
LTYPE
  5
40
330
5
100
AcDbSymbolTableRecord
100
AcDbLinetypeTableRecord
  2
DIVIDE2
 70
    0
  3
Divide (.5x) __..__..__..__..__..__..__..__.._
 72
   65
 73
    6
 40
15.875
 49
6.35
 74
    0
 49
-3.175
 74
    0
 49
0
 74
    0
 49
-3.175
 74
    0
 49
0
 74
    0
 49
-3.175
 74
    0
  0
LTYPE
  5
41
330
5
100
AcDbSymbolTableRecord
100
AcDbLinetypeTableRecord
  2
DIVIDEX2
 70
    0
  3
Divide (2x) ________  .  .  ________  .  .  _
 72
   65
 73
    6
 40
63.5
 49
25.4
 74
    0
 49
-12.7
 74
    0
 49
0
 74
    0
 49
-12.7
 74
    0
 49
0
 74
    0
 49
-12.7
 74
    0
  0
LTYPE
  5
42
330
5
100
AcDbSymbolTableRecord
100
AcDbLinetypeTableRecord
  2
BORDER
 70
    0
  3
Border __ __ . __ __ . __ __ . __ __ . __ __ .
 72
   65
 73
    6
 40
44.45
 49
12.7
 74
    0
 49
-6.35
 74
    0
 49
12.7
 74
    0
 49
-6.35
 74
    0
 49
0
 74
    0
 49
-6.35
 74
    0
  0
LTYPE
  5
43
330
5
100
AcDbSymbolTableRecord
100
AcDbLinetypeTableRecord
  2
BORDERTINY
 70
    0
  3
Border (.15x) __.__.__.__.__.__.__.__.__.__.__.
 72
   65
 73
    6
 40
6.6675
 49
1.905
 74
    0
 49
-0.9525
 74
    0
 49
1.905
 74
    0
 49
-0.9525
 74
    0
 49
0
 74
    0
 49
-0.9525
 74
    0
  0
LTYPE
  5
44
330
5
100
AcDbSymbolTableRecord
100
AcDbLinetypeTableRecord
  2
BORDER2
 70
    0
  3
Border (.5x) __.__.__.__.__.__.__.__.__.__.__.
 72
   65
 73
    6
 40
22.225
 49
6.35
 74
    0
 49
-3.175
 74
    0
 49
6.35
 74
    0
 49
-3.175
 74
    0
 49
0
 74
    0
 49
-3.175
 74
    0
  0
LTYPE
  5
45
330
5
100
AcDbSymbolTableRecord
100
AcDbLinetypeTableRecord
  2
BORDERX2
 70
    0
  3
Border (2x) ____  ____  .  ____  ____  .  ___
 72
   65
 73
    6
 40
88.89999999999999
 49
25.4
 74
    0
 49
-12.7
 74
    0
 49
25.4
 74
    0
 49
-12.7
 74
    0
 49
0
 74
    0
 49
-12.7
 74
    0
  0
LTYPE
  5
46
330
5
100
AcDbSymbolTableRecord
100
AcDbLinetypeTableRecord
  2
CENTER
 70
    0
  3
Center ____ _ ____ _ ____ _ ____ _ ____ _ ____
 72
   65
 73
    4
 40
50.8
 49
31.75
 74
    0
 49
-6.35
 74
    0
 49
6.35
 74
    0
 49
-6.35
 74
    0
  0
LTYPE
  5
47
330
5
100
AcDbSymbolTableRecord
100
AcDbLinetypeTableRecord
  2
CENTERTINY
 70
    0
  3
Center (.15x) ___ _ ___ _ ___ _ ___ _ ___ _ ___
 72
   65
 73
    4
 40
7.619999999999999
 49
4.7625
 74
    0
 49
-0.9525
 74
    0
 49
0.9525
 74
    0
 49
-0.9525
 74
    0
  0
LTYPE
  5
48
330
5
100
AcDbSymbolTableRecord
100
AcDbLinetypeTableRecord
  2
CENTER2
 70
    0
  3
Center (.5x) ___ _ ___ _ ___ _ ___ _ ___ _ ___
 72
   65
 73
    4
 40
28.575
 49
19.05
 74
    0
 49
-3.175
 74
    0
 49
3.175
 74
    0
 49
-3.175
 74
    0
  0
LTYPE
  5
49
330
5
100
AcDbSymbolTableRecord
100
AcDbLinetypeTableRecord
  2
CENTERX2
 70
    0
  3
Center (2x) ________  __  ________  __  _____
 72
   65
 73
    4
 40
101.6
 49
63.5
 74
    0
 49
-12.7
 74
    0
 49
12.7
 74
    0
 49
-12.7
 74
    0
  0
ENDTAB
  0
TABLE
  2
LAYER
  5
2
330
0
100
AcDbSymbolTable
 70
    1
  0
LAYER
  5
10
330
2
100
AcDbSymbolTableRecord
100
AcDbLayerTableRecord
  2
0
 70
    0
 62
    7
  6
CONTINUOUS
370
   25
390
F
  0
LAYER
  5
4A
330
2
100
AcDbSymbolTableRecord
100
AcDbLayerTableRecord
  2
DIM
 70
    0
 62
    8
  6
CONTINUOUS
370
   18
390
F
  0
LAYER
  5
4B
330
2
100
AcDbSymbolTableRecord
100
AcDbLayerTableRecord
  2
DOORS
 70
    0
 62
    7
  6
CONTINUOUS
370
   -3
390
F
  0
LAYER
  5
4C
330
2
100
AcDbSymbolTableRecord
100
AcDbLayerTableRecord
  2
WALLS
 70
    0
 62
    7
  6
CONTINUOUS
370
   -3
390
F
  0
LAYER
  5
4D
330
2
100
AcDbSymbolTableRecord
100
AcDbLayerTableRecord
  2
WINDOWS
 70
    0
 62
    7
  6
CONTINUOUS
370
   -3
390
F
  0
ENDTAB
  0
TABLE
  2
STYLE
  5
3
330
0
100
AcDbSymbolTable
 70
    3
  0
STYLE
  5
4E
330
2
100
AcDbSymbolTableRecord
100
AcDbTextStyleTableRecord
  2
Standard
 70
    0
 40
0
 41
1
 50
0
 71
    0
 42
1
  3
txt
  4

  0
ENDTAB
  0
TABLE
  2
VIEW
  5
6
330
0
100
AcDbSymbolTable
 70
    0
  0
ENDTAB
  0
TABLE
  2
UCS
  5
7
330
0
100
AcDbSymbolTable
 70
    0
  0
ENDTAB
  0
TABLE
  2
APPID
  5
9
330
0
100
AcDbSymbolTable
 70
    1
  0
APPID
  5
12
330
9
100
AcDbSymbolTableRecord
100
AcDbRegAppTableRecord
  2
ACAD
 70
    0
  0
APPID
  5
4F
330
9
100
AcDbSymbolTableRecord
100
AcDbRegAppTableRecord
  2
LibreCad
 70
    0
  0
ENDTAB
  0
TABLE
  2
DIMSTYLE
  5
A
330
0
100
AcDbSymbolTable
 70
    1
100
AcDbDimStyleTable
 71
    1
  0
DIMSTYLE
105
50
330
A
100
AcDbSymbolTableRecord
100
AcDbDimStyleTableRecord
  2
Standard
 70
    0
 40
100
 41
2
 42
1.5
 43
0.38
 44
0.75
 45
0
 46
0
 47
0
 48
0
 49
1
140
2
141
0.09
142
0
143
25.4
144
1
145
0
146
1
147
1
148
0
 71
    0
 72
    0
 73
    0
 74
    1
 75
    0
 76
    0
 77
    0
 78
    0
 79
    0
170
    0
171
    2
172
    0
173
    0
174
    0
175
    0
176
    8
177
    8
178
    7
179
    0
271
    0
272
    4
273
    2
274
    2
275
    0
276
    0
277
    2
278
   46
279
    0
280
    0
281
    0
282
    0
283
    1
284
    0
285
    0
286
    0
288
    0
289
    3
340
4E
  0
ENDTAB
  0
TABLE
  2
BLOCK_RECORD
  5
1
330
0
100
AcDbSymbolTable
 70
    2
  0
BLOCK_RECORD
  5
1F
330
1
100
AcDbSymbolTableRecord
100
AcDbBlockTableRecord
  2
*Model_Space
 70
    0
280
    1
281
    0
  0
BLOCK_RECORD
  5
1E
330
1
100
AcDbSymbolTableRecord
100
AcDbBlockTableRecord
  2
*Paper_Space
 70
    0
280
    1
281
    0
  0
BLOCK_RECORD
  5
51
330
1
100
AcDbSymbolTableRecord
100
AcDbBlockTableRecord
  2
*D24
 70
    0
280
    1
281
    0
  0
BLOCK_RECORD
  5
54
330
1
100
AcDbSymbolTableRecord
100
AcDbBlockTableRecord
  2
*D11
 70
    0
280
    1
281
    0
  0
BLOCK_RECORD
  5
57
330
1
100
AcDbSymbolTableRecord
100
AcDbBlockTableRecord
  2
*D35
 70
    0
280
    1
281
    0
  0
BLOCK_RECORD
  5
5A
330
1
100
AcDbSymbolTableRecord
100
AcDbBlockTableRecord
  2
*D39
 70
    0
280
    1
281
    0
  0
BLOCK_RECORD
  5
5D
330
1
100
AcDbSymbolTableRecord
100
AcDbBlockTableRecord
  2
*D25
 70
    0
280
    1
281
    0
  0
BLOCK_RECORD
  5
60
330
1
100
AcDbSymbolTableRecord
100
AcDbBlockTableRecord
  2
*D40
 70
    0
280
    1
281
    0
  0
BLOCK_RECORD
  5
63
330
1
100
AcDbSymbolTableRecord
100
AcDbBlockTableRecord
  2
*D33
 70
    0
280
    1
281
    0
  0
BLOCK_RECORD
  5
66
330
1
100
AcDbSymbolTableRecord
100
AcDbBlockTableRecord
  2
*D44
 70
    0
280
    1
281
    0
  0
BLOCK_RECORD
  5
69
330
1
100
AcDbSymbolTableRecord
100
AcDbBlockTableRecord
  2
*D7
 70
    0
280
    1
281
    0
  0
BLOCK_RECORD
  5
6C
330
1
100
AcDbSymbolTableRecord
100
AcDbBlockTableRecord
  2
*D3
 70
    0
280
    1
281
    0
  0
BLOCK_RECORD
  5
6F
330
1
100
AcDbSymbolTableRecord
100
AcDbBlockTableRecord
  2
*D1
 70
    0
280
    1
281
    0
  0
BLOCK_RECORD
  5
72
330
1
100
AcDbSymbolTableRecord
100
AcDbBlockTableRecord
  2
*D36
 70
    0
280
    1
281
    0
  0
BLOCK_RECORD
  5
75
330
1
100
AcDbSymbolTableRecord
100
AcDbBlockTableRecord
  2
*D29
 70
    0
280
    1
281
    0
  0
BLOCK_RECORD
  5
78
330
1
100
AcDbSymbolTableRecord
100
AcDbBlockTableRecord
  2
*D46
 70
    0
280
    1
281
    0
  0
BLOCK_RECORD
  5
7B
330
1
100
AcDbSymbolTableRecord
100
AcDbBlockTableRecord
  2
*D34
 70
    0
280
    1
281
    0
  0
BLOCK_RECORD
  5
7E
330
1
100
AcDbSymbolTableRecord
100
AcDbBlockTableRecord
  2
*D37
 70
    0
280
    1
281
    0
  0
BLOCK_RECORD
  5
81
330
1
100
AcDbSymbolTableRecord
100
AcDbBlockTableRecord
  2
*D45
 70
    0
280
    1
281
    0
  0
BLOCK_RECORD
  5
84
330
1
100
AcDbSymbolTableRecord
100
AcDbBlockTableRecord
  2
*D4
 70
    0
280
    1
281
    0
  0
BLOCK_RECORD
  5
87
330
1
100
AcDbSymbolTableRecord
100
AcDbBlockTableRecord
  2
*D2
 70
    0
280
    1
281
    0
  0
BLOCK_RECORD
  5
8A
330
1
100
AcDbSymbolTableRecord
100
AcDbBlockTableRecord
  2
*D31
 70
    0
280
    1
281
    0
  0
BLOCK_RECORD
  5
8D
330
1
100
AcDbSymbolTableRecord
100
AcDbBlockTableRecord
  2
*D17
 70
    0
280
    1
281
    0
  0
BLOCK_RECORD
  5
90
330
1
100
AcDbSymbolTableRecord
100
AcDbBlockTableRecord
  2
*D32
 70
    0
280
    1
281
    0
  0
BLOCK_RECORD
  5
93
330
1
100
AcDbSymbolTableRecord
100
AcDbBlockTableRecord
  2
*D28
 70
    0
280
    1
281
    0
  0
BLOCK_RECORD
  5
96
330
1
100
AcDbSymbolTableRecord
100
AcDbBlockTableRecord
  2
*D12
 70
    0
280
    1
281
    0
  0
BLOCK_RECORD
  5
99
330
1
100
AcDbSymbolTableRecord
100
AcDbBlockTableRecord
  2
*D16
 70
    0
280
    1
281
    0
  0
BLOCK_RECORD
  5
9C
330
1
100
AcDbSymbolTableRecord
100
AcDbBlockTableRecord
  2
*D20
 70
    0
280
    1
281
    0
  0
BLOCK_RECORD
  5
9F
330
1
100
AcDbSymbolTableRecord
100
AcDbBlockTableRecord
  2
*D42
 70
    0
280
    1
281
    0
  0
BLOCK_RECORD
  5
A2
330
1
100
AcDbSymbolTableRecord
100
AcDbBlockTableRecord
  2
*D43
 70
    0
280
    1
281
    0
  0
BLOCK_RECORD
  5
A5
330
1
100
AcDbSymbolTableRecord
100
AcDbBlockTableRecord
  2
*D8
 70
    0
280
    1
281
    0
  0
BLOCK_RECORD
  5
A8
330
1
100
AcDbSymbolTableRecord
100
AcDbBlockTableRecord
  2
*D27
 70
    0
280
    1
281
    0
  0
BLOCK_RECORD
  5
AB
330
1
100
AcDbSymbolTableRecord
100
AcDbBlockTableRecord
  2
*D10
 70
    0
280
    1
281
    0
  0
BLOCK_RECORD
  5
AE
330
1
100
AcDbSymbolTableRecord
100
AcDbBlockTableRecord
  2
*D41
 70
    0
280
    1
281
    0
  0
BLOCK_RECORD
  5
B1
330
1
100
AcDbSymbolTableRecord
100
AcDbBlockTableRecord
  2
*D23
 70
    0
280
    1
281
    0
  0
BLOCK_RECORD
  5
B4
330
1
100
AcDbSymbolTableRecord
100
AcDbBlockTableRecord
  2
*D9
 70
    0
280
    1
281
    0
  0
BLOCK_RECORD
  5
B7
330
1
100
AcDbSymbolTableRecord
100
AcDbBlockTableRecord
  2
*D30
 70
    0
280
    1
281
    0
  0
BLOCK_RECORD
  5
BA
330
1
100
AcDbSymbolTableRecord
100
AcDbBlockTableRecord
  2
*D21
 70
    0
280
    1
281
    0
  0
BLOCK_RECORD
  5
BD
330
1
100
AcDbSymbolTableRecord
100
AcDbBlockTableRecord
  2
*D15
 70
    0
280
    1
281
    0
  0
BLOCK_RECORD
  5
C0
330
1
100
AcDbSymbolTableRecord
100
AcDbBlockTableRecord
  2
*D6
 70
    0
280
    1
281
    0
  0
BLOCK_RECORD
  5
C3
330
1
100
AcDbSymbolTableRecord
100
AcDbBlockTableRecord
  2
*D5
 70
    0
280
    1
281
    0
  0
BLOCK_RECORD
  5
C6
330
1
100
AcDbSymbolTableRecord
100
AcDbBlockTableRecord
  2
*D26
 70
    0
280
    1
281
    0
  0
BLOCK_RECORD
  5
C9
330
1
100
AcDbSymbolTableRecord
100
AcDbBlockTableRecord
  2
*D22
 70
    0
280
    1
281
    0
  0
BLOCK_RECORD
  5
CC
330
1
100
AcDbSymbolTableRecord
100
AcDbBlockTableRecord
  2
*D48
 70
    0
280
    1
281
    0
  0
BLOCK_RECORD
  5
CF
330
1
100
AcDbSymbolTableRecord
100
AcDbBlockTableRecord
  2
*D18
 70
    0
280
    1
281
    0
  0
BLOCK_RECORD
  5
D2
330
1
100
AcDbSymbolTableRecord
100
AcDbBlockTableRecord
  2
*D14
 70
    0
280
    1
281
    0
  0
BLOCK_RECORD
  5
D5
330
1
100
AcDbSymbolTableRecord
100
AcDbBlockTableRecord
  2
*D38
 70
    0
280
    1
281
    0
  0
BLOCK_RECORD
  5
D8
330
1
100
AcDbSymbolTableRecord
100
AcDbBlockTableRecord
  2
*D49
 70
    0
280
    1
281
    0
  0
BLOCK_RECORD
  5
DB
330
1
100
AcDbSymbolTableRecord
100
AcDbBlockTableRecord
  2
*D47
 70
    0
280
    1
281
    0
  0
BLOCK_RECORD
  5
DE
330
1
100
AcDbSymbolTableRecord
100
AcDbBlockTableRecord
  2
*D13
 70
    0
280
    1
281
    0
  0
BLOCK_RECORD
  5
E1
330
1
100
AcDbSymbolTableRecord
100
AcDbBlockTableRecord
  2
*D19
 70
    0
280
    1
281
    0
  0
BLOCK_RECORD
  5
E4
330
1
100
AcDbSymbolTableRecord
100
AcDbBlockTableRecord
  2
BLOCK_DOOR
 70
    0
280
    1
281
    0
  0
BLOCK_RECORD
  5
E7
330
1
100
AcDbSymbolTableRecord
100
AcDbBlockTableRecord
  2
BLOCK_WINDOW_1
 70
    0
280
    1
281
    0
  0
BLOCK_RECORD
  5
EA
330
1
100
AcDbSymbolTableRecord
100
AcDbBlockTableRecord
  2
BLOCK_WINDOW_2
 70
    0
280
    1
281
    0
  0
BLOCK_RECORD
  5
ED
330
1
100
AcDbSymbolTableRecord
100
AcDbBlockTableRecord
  2
BLOCK_WINDOW_3
 70
    0
280
    1
281
    0
  0
BLOCK_RECORD
  5
F0
330
1
100
AcDbSymbolTableRecord
100
AcDbBlockTableRecord
  2
BLOCK_WINDOW_4
 70
    0
280
    1
281
    0
  0
ENDTAB
  0
ENDSEC
  0
SECTION
  2
BLOCKS
  0
BLOCK
  5
20
330
1F
100
AcDbEntity
  8
0
100
AcDbBlockBegin
  2
*Model_Space
 70
    0
 10
0
 20
0
 30
0
  3
*Model_Space
  1

  0
ENDBLK
  5
21
330
1F
100
AcDbEntity
  8
0
100
AcDbBlockEnd
  0
BLOCK
  5
1C
330
1B
100
AcDbEntity
  8
0
100
AcDbBlockBegin
  2
*Paper_Space
 70
    0
 10
0
 20
0
 30
0
  3
*Paper_Space
  1

  0
ENDBLK
  5
1D
330
1F
100
AcDbEntity
  8
0
100
AcDbBlockEnd
  0
BLOCK
  5
52
330
51
100
AcDbEntity
  8
0
100
AcDbBlockBegin
  2
*D24
 70
    1
 10
0
 20
0
  3
*D24
  1

  0
LINE
  5
F3
100
AcDbEntity
  8
DIM
  6
ByBlock
 62
    8
370
   -2
100
AcDbLine
 10
-8037.555675147825
 20
-396.7303206042184
 11
-8037.555675147825
 21
653.2696793957821
  0
MTEXT
  5
F4
100
AcDbEntity
  8
DIM
  6
CONTINUOUS
 62
    7
370
   -2
100
AcDbMText
 10
-8240.347882940032
 20
1364.503445629556
 30
0
 40
200
 41
400.0000000000124
 71
    5
 72
    1
  1
250
  7
Standard
210
0
220
0
230
1
 50
90
 73
    2
 44
1
  0
SOLID
  5
F5
100
AcDbEntity
  8
DIM
  6
ByBlock
 62
    8
370
   -2
100
AcDbTrace
 10
-8037.555675147825
 20
3.269679395781651
 30
0
 11
-8004.252902525998
 21
-196.7303206042183
 31
0
 12
-8070.858447769652
 22
-196.7303206042183
 32
0
 13
-8070.858447769652
 23
-196.7303206042183
 33
0
  0
SOLID
  5
F6
100
AcDbEntity
  8
DIM
  6
ByBlock
 62
    8
370
   -2
100
AcDbTrace
 10
-8037.555675147825
 20
253.2696793957821
 30
0
 11
-8070.858447769652
 21
453.2696793957821
 31
0
 12
-8004.252902525998
 22
453.2696793957821
 32
0
 13
-8004.252902525998
 23
453.2696793957821
 33
0
  0
LINE
  5
F7
100
AcDbEntity
  8
DIM
  6
ByBlock
 62
    8
370
   -2
100
AcDbLine
 10
-4437.555675147821
 20
3.269679395781641
 11
-8112.555675147825
 21
3.26967939578166
  0
LINE
  5
F8
100
AcDbEntity
  8
DIM
  6
ByBlock
 62
    8
370
   -2
100
AcDbLine
 10
-4687.555675147821
 20
253.2696793957821
 11
-8112.555675147825
 21
253.2696793957821
  0
ENDBLK
  5
53
330
51
100
AcDbEntity
  8
0
100
AcDbBlockEnd
  0
BLOCK
  5
55
330
54
100
AcDbEntity
  8
0
100
AcDbBlockBegin
  2
*D11
 70
    1
 10
0
 20
0
  3
*D11
  1

  0
LINE
  5
F9
100
AcDbEntity
  8
DIM
  6
ByBlock
 62
    8
370
   -2
100
AcDbLine
 10
7752.444324852197
 20
253.2696793957821
 11
7752.444324852197
 21
-9826.73032060422
  0
MTEXT
  5
FA
100
AcDbEntity
  8
DIM
  6
CONTINUOUS
 62
    7
370
   -2
100
AcDbMText
 10
7549.781987189855
 20
-4786.730320604222
 30
0
 40
200
 41
666.6666666666665
 71
    5
 72
    1
  1
10080
  7
Standard
210
0
220
0
230
1
 50
90
 73
    2
 44
1
  0
SOLID
  5
FB
100
AcDbEntity
  8
DIM
  6
ByBlock
 62
    8
370
   -2
100
AcDbTrace
 10
7752.444324852197
 20
253.2696793957821
 30
0
 11
7785.747097474024
 21
53.26967939578208
 31
0
 12
7719.14155223037
 22
53.26967939578208
 32
0
 13
7719.14155223037
 23
53.26967939578208
 33
0
  0
SOLID
  5
FC
100
AcDbEntity
  8
DIM
  6
ByBlock
 62
    8
370
   -2
100
AcDbTrace
 10
7752.444324852197
 20
-9826.73032060422
 30
0
 11
7719.14155223037
 21
-9626.73032060422
 31
0
 12
7785.747097474024
 22
-9626.73032060422
 32
0
 13
7785.747097474024
 23
-9626.73032060422
 33
0
  0
LINE
  5
FD
100
AcDbEntity
  8
DIM
  6
ByBlock
 62
    8
370
   -2
100
AcDbLine
 10
4002.444324852179
 20
253.2696793957814
 11
7827.444324852197
 21
253.2696793957821
  0
LINE
  5
FE
100
AcDbEntity
  8
DIM
  6
ByBlock
 62
    8
370
   -2
100
AcDbLine
 10
4002.444324852178
 20
-9826.73032060422
 11
7827.444324852197
 21
-9826.73032060422
  0
ENDBLK
  5
56
330
54
100
AcDbEntity
  8
0
100
AcDbBlockEnd
  0
BLOCK
  5
58
330
57
100
AcDbEntity
  8
0
100
AcDbBlockBegin
  2
*D35
 70
    1
 10
0
 20
0
  3
*D35
  1

  0
LINE
  5
FF
100
AcDbEntity
  8
DIM
  6
ByBlock
 62
    8
370
   -2
100
AcDbLine
 10
-5887.555675147821
 20
-11326.73032060422
 11
-6937.555675147822
 21
-11326.73032060422
  0
MTEXT
  5
100
100
AcDbEntity
  8
DIM
  6
CONTINUOUS
 62
    7
370
   -2
100
AcDbMText
 10
-6798.78944138158
 20
-11123.93811281201
 30
0
 40
200
 41
400.0000000000124
 71
    5
 72
    1
  1
250
  7
Standard
210
0
220
0
230
1
 50
0
 73
    2
 44
1
  0
SOLID
  5
101
100
AcDbEntity
  8
DIM
  6
ByBlock
 62
    8
370
   -2
100
AcDbTrace
 10
-6287.555675147821
 20
-11326.73032060422
 30
0
 11
-6087.555675147821
 21
-11293.42754798239
 31
0
 12
-6087.555675147821
 22
-11360.03309322605
 32
0
 13
-6087.555675147821
 23
-11360.03309322605
 33
0
  0
SOLID
  5
102
100
AcDbEntity
  8
DIM
  6
ByBlock
 62
    8
370
   -2
100
AcDbTrace
 10
-6537.555675147822
 20
-11326.73032060422
 30
0
 11
-6737.555675147822
 21
-11360.03309322605
 31
0
 12
-6737.555675147822
 22
-11293.42754798239
 32
0
 13
-6737.555675147822
 23
-11293.42754798239
 33
0
  0
LINE
  5
103
100
AcDbEntity
  8
DIM
  6
ByBlock
 62
    8
370
   -2
100
AcDbLine
 10
-6287.555675147821
 20
-9726.73032060422
 11
-6287.555675147821
 21
-11401.73032060422
  0
LINE
  5
104
100
AcDbEntity
  8
DIM
  6
ByBlock
 62
    8
370
   -2
100
AcDbLine
 10
-6537.555675147822
 20
-9976.73032060422
 11
-6537.555675147822
 21
-11401.73032060422
  0
ENDBLK
  5
59
330
57
100
AcDbEntity
  8
0
100
AcDbBlockEnd
  0
BLOCK
  5
5B
330
5A
100
AcDbEntity
  8
0
100
AcDbBlockBegin
  2
*D39
 70
    1
 10
0
 20
0
  3
*D39
  1

  0
LINE
  5
105
100
AcDbEntity
  8
DIM
  6
ByBlock
 62
    8
370
   -2
100
AcDbLine
 10
3202.444324852178
 20
-11326.73032060422
 11
4252.444324852178
 21
-11326.73032060422
  0
MTEXT
  5
106
100
AcDbEntity
  8
DIM
  6
CONTINUOUS
 62
    7
370
   -2
100
AcDbMText
 10
4412.457311865172
 20
-11657.31473618863
 30
0
 40
200
 41
400.0000000000124
 71
    5
 72
    1
  1
250
  7
Standard
210
0
220
0
230
1
 50
0
 73
    2
 44
1
  0
SOLID
  5
107
100
AcDbEntity
  8
DIM
  6
ByBlock
 62
    8
370
   -2
100
AcDbTrace
 10
3602.444324852178
 20
-11326.73032060422
 30
0
 11
3402.444324852178
 21
-11360.03309322605
 31
0
 12
3402.444324852178
 22
-11293.42754798239
 32
0
 13
3402.444324852178
 23
-11293.42754798239
 33
0
  0
SOLID
  5
108
100
AcDbEntity
  8
DIM
  6
ByBlock
 62
    8
370
   -2
100
AcDbTrace
 10
3852.444324852179
 20
-11326.73032060422
 30
0
 11
4052.444324852179
 21
-11293.42754798239
 31
0
 12
4052.444324852179
 22
-11360.03309322605
 32
0
 13
4052.444324852179
 23
-11360.03309322605
 33
0
  0
LINE
  5
109
100
AcDbEntity
  8
DIM
  6
ByBlock
 62
    8
370
   -2
100
AcDbLine
 10
3602.444324852178
 20
-9726.73032060422
 11
3602.444324852178
 21
-11401.73032060422
  0
LINE
  5
10A
100
AcDbEntity
  8
DIM
  6
ByBlock
 62
    8
370
   -2
100
AcDbLine
 10
3852.444324852179
 20
-9976.73032060422
 11
3852.444324852179
 21
-11401.73032060422
  0
ENDBLK
  5
5C
330
5A
100
AcDbEntity
  8
0
100
AcDbBlockEnd
  0
BLOCK
  5
5E
330
5D
100
AcDbEntity
  8
0
100
AcDbBlockBegin
  2
*D25
 70
    1
 10
0
 20
0
  3
*D25
  1

  0
LINE
  5
10B
100
AcDbEntity
  8
DIM
  6
ByBlock
 62
    8
370
   -2
100
AcDbLine
 10
-8037.555675147832
 20
3.269679395781623
 11
-8037.555675147832
 21
-3686.73032060422
  0
MTEXT
  5
10C
100
AcDbEntity
  8
DIM
  6
CONTINUOUS
 62
    7
370
   -2
100
AcDbMText
 10
-8240.218012810168
 20
-1841.730320604218
 30
0
 40
200
 41
555.5555555555927
 71
    5
 72
    1
  1
3690
  7
Standard
210
0
220
0
230
1
 50
90
 73
    2
 44
1
  0
SOLID
  5
10D
100
AcDbEntity
  8
DIM
  6
ByBlock
 62
    8
370
   -2
100
AcDbTrace
 10
-8037.555675147832
 20
3.269679395781623
 30
0
 11
-8004.252902526005
 21
-196.7303206042184
 31
0
 12
-8070.858447769659
 22
-196.7303206042184
 32
0
 13
-8070.858447769659
 23
-196.7303206042184
 33
0
  0
SOLID
  5
10E
100
AcDbEntity
  8
DIM
  6
ByBlock
 62
    8
370
   -2
100
AcDbTrace
 10
-8037.555675147832
 20
-3686.73032060422
 30
0
 11
-8070.858447769659
 21
-3486.73032060422
 31
0
 12
-8004.252902526005
 22
-3486.73032060422
 32
0
 13
-8004.252902526005
 23
-3486.73032060422
 33
0
  0
LINE
  5
10F
100
AcDbEntity
  8
DIM
  6
ByBlock
 62
    8
370
   -2
100
AcDbLine
 10
-4437.555675147821
 20
3.269679395781641
 11
-8112.555675147832
 21
3.269679395781632
  0
LINE
  5
110
100
AcDbEntity
  8
DIM
  6
ByBlock
 62
    8
370
   -2
100
AcDbLine
 10
-4437.55567514782
 20
-3686.73032060422
 11
-8112.555675147832
 21
-3686.73032060422
  0
ENDBLK
  5
5F
330
5D
100
AcDbEntity
  8
0
100
AcDbBlockEnd
  0
BLOCK
  5
61
330
60
100
AcDbEntity
  8
0
100
AcDbBlockBegin
  2
*D40
 70
    1
 10
0
 20
0
  3
*D40
  1

  0
LINE
  5
111
100
AcDbEntity
  8
DIM
  6
ByBlock
 62
    8
370
   -2
100
AcDbLine
 10
-6537.555675147822
 20
-12526.73032060422
 11
-5687.555675147822
 21
-12526.73032060422
  0
MTEXT
  5
112
100
AcDbEntity
  8
DIM
  6
CONTINUOUS
 62
    7
370
   -2
100
AcDbMText
 10
-6112.555675147822
 20
-12324.06798294188
 30
0
 40
200
 41
400.0000000000124
 71
    5
 72
    1
  1
850
  7
Standard
210
0
220
0
230
1
 50
0
 73
    2
 44
1
  0
SOLID
  5
113
100
AcDbEntity
  8
DIM
  6
ByBlock
 62
    8
370
   -2
100
AcDbTrace
 10
-6537.555675147822
 20
-12526.73032060422
 30
0
 11
-6337.555675147822
 21
-12493.42754798239
 31
0
 12
-6337.555675147822
 22
-12560.03309322605
 32
0
 13
-6337.555675147822
 23
-12560.03309322605
 33
0
  0
SOLID
  5
114
100
AcDbEntity
  8
DIM
  6
ByBlock
 62
    8
370
   -2
100
AcDbTrace
 10
-5687.555675147822
 20
-12526.73032060422
 30
0
 11
-5887.555675147822
 21
-12560.03309322605
 31
0
 12
-5887.555675147822
 22
-12493.42754798239
 32
0
 13
-5887.555675147822
 23
-12493.42754798239
 33
0
  0
LINE
  5
115
100
AcDbEntity
  8
DIM
  6
ByBlock
 62
    8
370
   -2
100
AcDbLine
 10
-6537.555675147822
 20
-9976.73032060422
 11
-6537.555675147822
 21
-12601.73032060422
  0
LINE
  5
116
100
AcDbEntity
  8
DIM
  6
ByBlock
 62
    8
370
   -2
100
AcDbLine
 10
-5687.555675147822
 20
-10026.73032060422
 11
-5687.555675147822
 21
-12601.73032060422
  0
ENDBLK
  5
62
330
60
100
AcDbEntity
  8
0
100
AcDbBlockEnd
  0
BLOCK
  5
64
330
63
100
AcDbEntity
  8
0
100
AcDbBlockBegin
  2
*D33
 70
    1
 10
0
 20
0
  3
*D33
  1

  0
LINE
  5
117
100
AcDbEntity
  8
DIM
  6
ByBlock
 62
    8
370
   -2
100
AcDbLine
 10
-9237.555675147863
 20
-7986.73032060422
 11
-9237.555675147863
 21
-9826.73032060422
  0
MTEXT
  5
118
100
AcDbEntity
  8
DIM
  6
CONTINUOUS
 62
    7
370
   -2
100
AcDbMText
 10
-9440.218012810201
 20
-8906.73032060422
 30
0
 40
200
 41
533.3333333333333
 71
    5
 72
    1
  1
1840
  7
Standard
210
0
220
0
230
1
 50
90
 73
    2
 44
1
  0
SOLID
  5
119
100
AcDbEntity
  8
DIM
  6
ByBlock
 62
    8
370
   -2
100
AcDbTrace
 10
-9237.555675147863
 20
-7986.73032060422
 30
0
 11
-9204.252902526036
 21
-8186.73032060422
 31
0
 12
-9270.858447769691
 22
-8186.73032060422
 32
0
 13
-9270.858447769691
 23
-8186.73032060422
 33
0
  0
SOLID
  5
11A
100
AcDbEntity
  8
DIM
  6
ByBlock
 62
    8
370
   -2
100
AcDbTrace
 10
-9237.555675147863
 20
-9826.73032060422
 30
0
 11
-9270.858447769691
 21
-9626.73032060422
 31
0
 12
-9204.252902526036
 22
-9626.73032060422
 32
0
 13
-9204.252902526036
 23
-9626.73032060422
 33
0
  0
LINE
  5
11B
100
AcDbEntity
  8
DIM
  6
ByBlock
 62
    8
370
   -2
100
AcDbLine
 10
-6737.55567514782
 20
-7986.73032060422
 11
-9312.555675147863
 21
-7986.73032060422
  0
LINE
  5
11C
100
AcDbEntity
  8
DIM
  6
ByBlock
 62
    8
370
   -2
100
AcDbLine
 10
-6687.555675147822
 20
-9826.73032060422
 11
-9312.555675147863
 21
-9826.73032060422
  0
ENDBLK
  5
65
330
63
100
AcDbEntity
  8
0
100
AcDbBlockEnd
  0
BLOCK
  5
67
330
66
100
AcDbEntity
  8
0
100
AcDbBlockBegin
  2
*D44
 70
    1
 10
0
 20
0
  3
*D44
  1

  0
LINE
  5
11D
100
AcDbEntity
  8
DIM
  6
ByBlock
 62
    8
370
   -2
100
AcDbLine
 10
-2017.555675147822
 20
-12526.73032060422
 11
-787.5556751478221
 21
-12526.73032060422
  0
MTEXT
  5
11E
100
AcDbEntity
  8
DIM
  6
CONTINUOUS
 62
    7
370
   -2
100
AcDbMText
 10
-1142.776454368601
 20
-12856.79525566915
 30
0
 40
200
 41
422.2222222222347
 71
    5
 72
    1
  1
430
  7
Standard
210
0
220
0
230
1
 50
0
 73
    2
 44
1
  0
SOLID
  5
11F
100
AcDbEntity
  8
DIM
  6
ByBlock
 62
    8
370
   -2
100
AcDbTrace
 10
-1617.555675147822
 20
-12526.73032060422
 30
0
 11
-1817.555675147822
 21
-12560.03309322605
 31
0
 12
-1817.555675147822
 22
-12493.42754798239
 32
0
 13
-1817.555675147822
 23
-12493.42754798239
 33
0
  0
SOLID
  5
120
100
AcDbEntity
  8
DIM
  6
ByBlock
 62
    8
370
   -2
100
AcDbTrace
 10
-1187.555675147822
 20
-12526.73032060422
 30
0
 11
-987.5556751478221
 21
-12493.42754798239
 31
0
 12
-987.5556751478221
 22
-12560.03309322605
 32
0
 13
-987.5556751478221
 23
-12560.03309322605
 33
0
  0
LINE
  5
121
100
AcDbEntity
  8
DIM
  6
ByBlock
 62
    8
370
   -2
100
AcDbLine
 10
-1617.555675147822
 20
-10026.73032060422
 11
-1617.555675147822
 21
-12601.73032060422
  0
LINE
  5
122
100
AcDbEntity
  8
DIM
  6
ByBlock
 62
    8
370
   -2
100
AcDbLine
 10
-1187.555675147822
 20
-9976.730320604222
 11
-1187.555675147822
 21
-12601.73032060422
  0
ENDBLK
  5
68
330
66
100
AcDbEntity
  8
0
100
AcDbBlockEnd
  0
BLOCK
  5
6A
330
69
100
AcDbEntity
  8
0
100
AcDbBlockBegin
  2
*D7
 70
    1
 10
0
 20
0
  3
*D7
  1

  0
LINE
  5
123
100
AcDbEntity
  8
DIM
  6
ByBlock
 62
    8
370
   -2
100
AcDbLine
 10
5352.444324852211
 20
-9176.73032060422
 11
5352.444324852211
 21
-10226.73032060422
  0
MTEXT
  5
124
100
AcDbEntity
  8
DIM
  6
CONTINUOUS
 62
    7
370
   -2
100
AcDbMText
 10
5352.444324852208
 20
-9767.273801366095
 30
0
 40
200
 41
400.0000000000124
 71
    5
 72
    1
  1
250
  7
Standard
210
0
220
0
230
1
 50
90
 73
    2
 44
1
  0
SOLID
  5
125
100
AcDbEntity
  8
DIM
  6
ByBlock
 62
    8
370
   -2
100
AcDbTrace
 10
5352.444324852211
 20
-9576.73032060422
 30
0
 11
5319.141552230384
 21
-9376.73032060422
 31
0
 12
5385.747097474038
 22
-9376.73032060422
 32
0
 13
5385.747097474038
 23
-9376.73032060422
 33
0
  0
SOLID
  5
126
100
AcDbEntity
  8
DIM
  6
ByBlock
 62
    8
370
   -2
100
AcDbTrace
 10
5352.444324852211
 20
-9826.73032060422
 30
0
 11
5385.747097474038
 21
-10026.73032060422
 31
0
 12
5319.141552230384
 22
-10026.73032060422
 32
0
 13
5319.141552230384
 23
-10026.73032060422
 33
0
  0
LINE
  5
127
100
AcDbEntity
  8
DIM
  6
ByBlock
 62
    8
370
   -2
100
AcDbLine
 10
3752.444324852178
 20
-9576.73032060422
 11
5427.444324852211
 21
-9576.73032060422
  0
LINE
  5
128
100
AcDbEntity
  8
DIM
  6
ByBlock
 62
    8
370
   -2
100
AcDbLine
 10
4002.444324852179
 20
-9826.73032060422
 11
5427.444324852211
 21
-9826.73032060422
  0
ENDBLK
  5
6B
330
69
100
AcDbEntity
  8
0
100
AcDbBlockEnd
  0
BLOCK
  5
6D
330
6C
100
AcDbEntity
  8
0
100
AcDbBlockBegin
  2
*D3
 70
    1
 10
0
 20
0
  3
*D3
  1

  0
LINE
  5
129
100
AcDbEntity
  8
DIM
  6
ByBlock
 62
    8
370
   -2
100
AcDbLine
 10
5352.444324852194
 20
-3196.730320604219
 11
5352.444324852194
 21
-4086.730320604219
  0
MTEXT
  5
12A
100
AcDbEntity
  8
DIM
  6
CONTINUOUS
 62
    7
370
   -2
100
AcDbMText
 10
5352.444324852192
 20
-3374.508098381986
 30
0
 40
200
 41
244.4444444444692
 71
    5
 72
    1
  1
90
  7
Standard
210
0
220
0
230
1
 50
90
 73
    2
 44
1
  0
SOLID
  5
12B
100
AcDbEntity
  8
DIM
  6
ByBlock
 62
    8
370
   -2
100
AcDbTrace
 10
5352.444324852194
 20
-3596.730320604219
 30
0
 11
5319.141552230367
 21
-3396.730320604219
 31
0
 12
5385.747097474021
 22
-3396.730320604219
 32
0
 13
5385.747097474021
 23
-3396.730320604219
 33
0
  0
SOLID
  5
12C
100
AcDbEntity
  8
DIM
  6
ByBlock
 62
    8
370
   -2
100
AcDbTrace
 10
5352.444324852194
 20
-3686.730320604219
 30
0
 11
5385.747097474021
 21
-3886.730320604219
 31
0
 12
5319.141552230367
 22
-3886.730320604219
 32
0
 13
5319.141552230367
 23
-3886.730320604219
 33
0
  0
LINE
  5
12D
100
AcDbEntity
  8
DIM
  6
ByBlock
 62
    8
370
   -2
100
AcDbLine
 10
3752.444324852179
 20
-3596.730320604219
 11
5427.444324852194
 21
-3596.730320604219
  0
LINE
  5
12E
100
AcDbEntity
  8
DIM
  6
ByBlock
 62
    8
370
   -2
100
AcDbLine
 10
3752.444324852179
 20
-3686.730320604219
 11
5427.444324852194
 21
-3686.730320604219
  0
ENDBLK
  5
6E
330
6C
100
AcDbEntity
  8
0
100
AcDbBlockEnd
  0
BLOCK
  5
70
330
6F
100
AcDbEntity
  8
0
100
AcDbBlockBegin
  2
*D1
 70
    1
 10
0
 20
0
  3
*D1
  1

  0
LINE
  5
12F
100
AcDbEntity
  8
DIM
  6
ByBlock
 62
    8
370
   -2
100
AcDbLine
 10
5352.444324852184
 20
-396.7303206042186
 11
5352.444324852184
 21
653.2696793957814
  0
MTEXT
  5
130
100
AcDbEntity
  8
DIM
  6
CONTINUOUS
 62
    7
370
   -2
100
AcDbMText
 10
5149.652117059975
 20
1364.503445629553
 30
0
 40
200
 41
400.0000000000124
 71
    5
 72
    1
  1
250
  7
Standard
210
0
220
0
230
1
 50
90
 73
    2
 44
1
  0
SOLID
  5
131
100
AcDbEntity
  8
DIM
  6
ByBlock
 62
    8
370
   -2
100
AcDbTrace
 10
5352.444324852184
 20
3.269679395781367
 30
0
 11
5385.747097474011
 21
-196.7303206042186
 31
0
 12
5319.141552230357
 22
-196.7303206042186
 32
0
 13
5319.141552230357
 23
-196.7303206042186
 33
0
  0
SOLID
  5
132
100
AcDbEntity
  8
DIM
  6
ByBlock
 62
    8
370
   -2
100
AcDbTrace
 10
5352.444324852184
 20
253.2696793957814
 30
0
 11
5319.141552230357
 21
453.2696793957814
 31
0
 12
5385.747097474011
 22
453.2696793957814
 32
0
 13
5385.747097474011
 23
453.2696793957814
 33
0
  0
LINE
  5
133
100
AcDbEntity
  8
DIM
  6
ByBlock
 62
    8
370
   -2
100
AcDbLine
 10
3752.444324852179
 20
3.269679395781395
 11
5427.444324852184
 21
3.269679395781367
  0
LINE
  5
134
100
AcDbEntity
  8
DIM
  6
ByBlock
 62
    8
370
   -2
100
AcDbLine
 10
4002.444324852179
 20
253.2696793957814
 11
5427.444324852184
 21
253.2696793957814
  0
ENDBLK
  5
71
330
6F
100
AcDbEntity
  8
0
100
AcDbBlockEnd
  0
BLOCK
  5
73
330
72
100
AcDbEntity
  8
0
100
AcDbBlockBegin
  2
*D36
 70
    1
 10
0
 20
0
  3
*D36
  1

  0
LINE
  5
135
100
AcDbEntity
  8
DIM
  6
ByBlock
 62
    8
370
   -2
100
AcDbLine
 10
-6287.55567514782
 20
-11326.73032060422
 11
-87.5556751478216
 21
-11326.73032060422
  0
MTEXT
  5
136
100
AcDbEntity
  8
DIM
  6
CONTINUOUS
 62
    7
370
   -2
100
AcDbMText
 10
-3187.555675147821
 20
-11123.93811281201
 30
0
 40
200
 41
555.5555555555679
 71
    5
 72
    1
  1
6200
  7
Standard
210
0
220
0
230
1
 50
0
 73
    2
 44
1
  0
SOLID
  5
137
100
AcDbEntity
  8
DIM
  6
ByBlock
 62
    8
370
   -2
100
AcDbTrace
 10
-6287.55567514782
 20
-11326.73032060422
 30
0
 11
-6087.55567514782
 21
-11293.42754798239
 31
0
 12
-6087.55567514782
 22
-11360.03309322605
 32
0
 13
-6087.55567514782
 23
-11360.03309322605
 33
0
  0
SOLID
  5
138
100
AcDbEntity
  8
DIM
  6
ByBlock
 62
    8
370
   -2
100
AcDbTrace
 10
-87.5556751478216
 20
-11326.73032060422
 30
0
 11
-287.5556751478216
 21
-11360.03309322605
 31
0
 12
-287.5556751478216
 22
-11293.42754798239
 32
0
 13
-287.5556751478216
 23
-11293.42754798239
 33
0
  0
LINE
  5
139
100
AcDbEntity
  8
DIM
  6
ByBlock
 62
    8
370
   -2
100
AcDbLine
 10
-6287.555675147821
 20
-9726.73032060422
 11
-6287.55567514782
 21
-11401.73032060422
  0
LINE
  5
13A
100
AcDbEntity
  8
DIM
  6
ByBlock
 62
    8
370
   -2
100
AcDbLine
 10
-87.55567514782163
 20
-9726.730320604218
 11
-87.55567514782162
 21
-11401.73032060422
  0
ENDBLK
  5
74
330
72
100
AcDbEntity
  8
0
100
AcDbBlockEnd
  0
BLOCK
  5
76
330
75
100
AcDbEntity
  8
0
100
AcDbBlockBegin
  2
*D29
 70
    1
 10
0
 20
0
  3
*D29
  1

  0
LINE
  5
13B
100
AcDbEntity
  8
DIM
  6
ByBlock
 62
    8
370
   -2
100
AcDbLine
 10
-9237.555675147836
 20
-2026.73032060422
 11
-9237.555675147836
 21
-3236.73032060422
  0
MTEXT
  5
13C
100
AcDbEntity
  8
DIM
  6
CONTINUOUS
 62
    7
370
   -2
100
AcDbMText
 10
-9440.347882940043
 20
-2631.730320604219
 30
0
 40
200
 41
466.6666666666666
 71
    5
 72
    1
  1
1210
  7
Standard
210
0
220
0
230
1
 50
90
 73
    2
 44
1
  0
SOLID
  5
13D
100
AcDbEntity
  8
DIM
  6
ByBlock
 62
    8
370
   -2
100
AcDbTrace
 10
-9237.555675147836
 20
-2026.73032060422
 30
0
 11
-9204.252902526008
 21
-2226.73032060422
 31
0
 12
-9270.858447769664
 22
-2226.73032060422
 32
0
 13
-9270.858447769664
 23
-2226.73032060422
 33
0
  0
SOLID
  5
13E
100
AcDbEntity
  8
DIM
  6
ByBlock
 62
    8
370
   -2
100
AcDbTrace
 10
-9237.555675147836
 20
-3236.73032060422
 30
0
 11
-9270.858447769664
 21
-3036.73032060422
 31
0
 12
-9204.252902526008
 22
-3036.73032060422
 32
0
 13
-9204.252902526008
 23
-3036.73032060422
 33
0
  0
LINE
  5
13F
100
AcDbEntity
  8
DIM
  6
ByBlock
 62
    8
370
   -2
100
AcDbLine
 10
-4737.55567514782
 20
-2026.73032060422
 11
-9312.555675147836
 21
-2026.73032060422
  0
LINE
  5
140
100
AcDbEntity
  8
DIM
  6
ByBlock
 62
    8
370
   -2
100
AcDbLine
 10
-4737.55567514782
 20
-3236.73032060422
 11
-9312.555675147836
 21
-3236.73032060422
  0
ENDBLK
  5
77
330
75
100
AcDbEntity
  8
0
100
AcDbBlockEnd
  0
BLOCK
  5
79
330
78
100
AcDbEntity
  8
0
100
AcDbBlockBegin
  2
*D46
 70
    1
 10
0
 20
0
  3
*D46
  1

  0
LINE
  5
141
100
AcDbEntity
  8
DIM
  6
ByBlock
 62
    8
370
   -2
100
AcDbLine
 10
-287.5556751478217
 20
-12526.73032060422
 11
897.4443248521793
 21
-12526.73032060422
  0
MTEXT
  5
142
100
AcDbEntity
  8
DIM
  6
CONTINUOUS
 62
    7
370
   -2
100
AcDbMText
 10
304.9443248521787
 20
-12324.06798294188
 30
0
 40
200
 41
466.666666666679
 71
    5
 72
    1
  1
1185
  7
Standard
210
0
220
0
230
1
 50
0
 73
    2
 44
1
  0
SOLID
  5
143
100
AcDbEntity
  8
DIM
  6
ByBlock
 62
    8
370
   -2
100
AcDbTrace
 10
-287.5556751478217
 20
-12526.73032060422
 30
0
 11
-87.55567514782172
 21
-12493.42754798239
 31
0
 12
-87.55567514782172
 22
-12560.03309322605
 32
0
 13
-87.55567514782172
 23
-12560.03309322605
 33
0
  0
SOLID
  5
144
100
AcDbEntity
  8
DIM
  6
ByBlock
 62
    8
370
   -2
100
AcDbTrace
 10
897.4443248521793
 20
-12526.73032060422
 30
0
 11
697.4443248521793
 21
-12560.03309322605
 31
0
 12
697.4443248521793
 22
-12493.42754798239
 32
0
 13
697.4443248521793
 23
-12493.42754798239
 33
0
  0
LINE
  5
145
100
AcDbEntity
  8
DIM
  6
ByBlock
 62
    8
370
   -2
100
AcDbLine
 10
-287.5556751478216
 20
-9976.730320604222
 11
-287.5556751478217
 21
-12601.73032060422
  0
LINE
  5
146
100
AcDbEntity
  8
DIM
  6
ByBlock
 62
    8
370
   -2
100
AcDbLine
 10
897.4443248521793
 20
-10026.73032060422
 11
897.4443248521793
 21
-12601.73032060422
  0
ENDBLK
  5
7A
330
78
100
AcDbEntity
  8
0
100
AcDbBlockEnd
  0
BLOCK
  5
7C
330
7B
100
AcDbEntity
  8
0
100
AcDbBlockBegin
  2
*D34
 70
    1
 10
0
 20
0
  3
*D34
  1

  0
LINE
  5
147
100
AcDbEntity
  8
DIM
  6
ByBlock
 62
    8
370
   -2
100
AcDbLine
 10
-10437.55567514783
 20
-9826.73032060422
 11
-10437.55567514783
 21
253.2696793957821
  0
MTEXT
  5
148
100
AcDbEntity
  8
DIM
  6
CONTINUOUS
 62
    7
370
   -2
100
AcDbMText
 10
-10640.21801281016
 20
-4786.730320604217
 30
0
 40
200
 41
666.6666666666665
 71
    5
 72
    1
  1
10080
  7
Standard
210
0
220
0
230
1
 50
90
 73
    2
 44
1
  0
SOLID
  5
149
100
AcDbEntity
  8
DIM
  6
ByBlock
 62
    8
370
   -2
100
AcDbTrace
 10
-10437.55567514783
 20
-9826.73032060422
 30
0
 11
-10470.85844776966
 21
-9626.73032060422
 31
0
 12
-10404.252902526
 22
-9626.73032060422
 32
0
 13
-10404.252902526
 23
-9626.73032060422
 33
0
  0
SOLID
  5
14A
100
AcDbEntity
  8
DIM
  6
ByBlock
 62
    8
370
   -2
100
AcDbTrace
 10
-10437.55567514783
 20
253.2696793957821
 30
0
 11
-10404.252902526
 21
53.26967939578211
 31
0
 12
-10470.85844776966
 22
53.26967939578211
 32
0
 13
-10470.85844776966
 23
53.26967939578211
 33
0
  0
LINE
  5
14B
100
AcDbEntity
  8
DIM
  6
ByBlock
 62
    8
370
   -2
100
AcDbLine
 10
-6687.555675147822
 20
-9826.73032060422
 11
-10512.55567514783
 21
-9826.73032060422
  0
LINE
  5
14C
100
AcDbEntity
  8
DIM
  6
ByBlock
 62
    8
370
   -2
100
AcDbLine
 10
-4687.555675147821
 20
253.2696793957821
 11
-10512.55567514783
 21
253.2696793957821
  0
ENDBLK
  5
7D
330
7B
100
AcDbEntity
  8
0
100
AcDbBlockEnd
  0
BLOCK
  5
7F
330
7E
100
AcDbEntity
  8
0
100
AcDbBlockBegin
  2
*D37
 70
    1
 10
0
 20
0
  3
*D37
  1

  0
LINE
  5
14D
100
AcDbEntity
  8
DIM
  6
ByBlock
 62
    8
370
   -2
100
AcDbLine
 10
-487.5556751478216
 20
-11326.73032060422
 11
402.4443248521784
 21
-11326.73032060422
  0
MTEXT
  5
14E
100
AcDbEntity
  8
DIM
  6
CONTINUOUS
 62
    7
370
   -2
100
AcDbMText
 10
484.5626509705168
 20
-11657.05499592889
 30
0
 40
200
 41
244.4444444444692
 71
    5
 72
    1
  1
90
  7
Standard
210
0
220
0
230
1
 50
0
 73
    2
 44
1
  0
SOLID
  5
14F
100
AcDbEntity
  8
DIM
  6
ByBlock
 62
    8
370
   -2
100
AcDbTrace
 10
-87.55567514782162
 20
-11326.73032060422
 30
0
 11
-287.5556751478216
 21
-11360.03309322605
 31
0
 12
-287.5556751478216
 22
-11293.42754798239
 32
0
 13
-287.5556751478216
 23
-11293.42754798239
 33
0
  0
SOLID
  5
150
100
AcDbEntity
  8
DIM
  6
ByBlock
 62
    8
370
   -2
100
AcDbTrace
 10
2.444324852178397
 20
-11326.73032060422
 30
0
 11
202.4443248521784
 21
-11293.42754798239
 31
0
 12
202.4443248521784
 22
-11360.03309322605
 32
0
 13
202.4443248521784
 23
-11360.03309322605
 33
0
  0
LINE
  5
151
100
AcDbEntity
  8
DIM
  6
ByBlock
 62
    8
370
   -2
100
AcDbLine
 10
-87.55567514782163
 20
-9726.730320604218
 11
-87.55567514782163
 21
-11401.73032060422
  0
LINE
  5
152
100
AcDbEntity
  8
DIM
  6
ByBlock
 62
    8
370
   -2
100
AcDbLine
 10
2.44432485217837
 20
-9726.730320604218
 11
2.444324852178383
 21
-11401.73032060422
  0
ENDBLK
  5
80
330
7E
100
AcDbEntity
  8
0
100
AcDbBlockEnd
  0
BLOCK
  5
82
330
81
100
AcDbEntity
  8
0
100
AcDbBlockBegin
  2
*D45
 70
    1
 10
0
 20
0
  3
*D45
  1

  0
LINE
  5
153
100
AcDbEntity
  8
DIM
  6
ByBlock
 62
    8
370
   -2
100
AcDbLine
 10
-1187.555675147822
 20
-12526.73032060422
 11
-287.5556751478216
 21
-12526.73032060422
  0
MTEXT
  5
154
100
AcDbEntity
  8
DIM
  6
CONTINUOUS
 62
    7
370
   -2
100
AcDbMText
 10
-737.5556751478218
 20
-12324.06798294188
 30
0
 40
200
 41
400.0000000000248
 71
    5
 72
    1
  1
900
  7
Standard
210
0
220
0
230
1
 50
0
 73
    2
 44
1
  0
SOLID
  5
155
100
AcDbEntity
  8
DIM
  6
ByBlock
 62
    8
370
   -2
100
AcDbTrace
 10
-1187.555675147822
 20
-12526.73032060422
 30
0
 11
-987.5556751478221
 21
-12493.42754798239
 31
0
 12
-987.5556751478221
 22
-12560.03309322605
 32
0
 13
-987.5556751478221
 23
-12560.03309322605
 33
0
  0
SOLID
  5
156
100
AcDbEntity
  8
DIM
  6
ByBlock
 62
    8
370
   -2
100
AcDbTrace
 10
-287.5556751478216
 20
-12526.73032060422
 30
0
 11
-487.5556751478216
 21
-12560.03309322605
 31
0
 12
-487.5556751478216
 22
-12493.42754798239
 32
0
 13
-487.5556751478216
 23
-12493.42754798239
 33
0
  0
LINE
  5
157
100
AcDbEntity
  8
DIM
  6
ByBlock
 62
    8
370
   -2
100
AcDbLine
 10
-1187.555675147822
 20
-9976.730320604222
 11
-1187.555675147822
 21
-12601.73032060422
  0
LINE
  5
158
100
AcDbEntity
  8
DIM
  6
ByBlock
 62
    8
370
   -2
100
AcDbLine
 10
-287.5556751478216
 20
-9976.730320604222
 11
-287.5556751478216
 21
-12601.73032060422
  0
ENDBLK
  5
83
330
81
100
AcDbEntity
  8
0
100
AcDbBlockEnd
  0
BLOCK
  5
85
330
84
100
AcDbEntity
  8
0
100
AcDbBlockBegin
  2
*D4
 70
    1
 10
0
 20
0
  3
*D4
  1

  0
LINE
  5
159
100
AcDbEntity
  8
DIM
  6
ByBlock
 62
    8
370
   -2
100
AcDbLine
 10
5352.444324852196
 20
-3686.730320604219
 11
5352.444324852196
 21
-5886.730320604219
  0
MTEXT
  5
15A
100
AcDbEntity
  8
DIM
  6
CONTINUOUS
 62
    7
370
   -2
100
AcDbMText
 10
5149.652117059986
 20
-4786.730320604221
 30
0
 40
200
 41
555.5555555555554
 71
    5
 72
    1
  1
2200
  7
Standard
210
0
220
0
230
1
 50
90
 73
    2
 44
1
  0
SOLID
  5
15B
100
AcDbEntity
  8
DIM
  6
ByBlock
 62
    8
370
   -2
100
AcDbTrace
 10
5352.444324852196
 20
-3686.730320604219
 30
0
 11
5385.747097474023
 21
-3886.730320604219
 31
0
 12
5319.141552230369
 22
-3886.730320604219
 32
0
 13
5319.141552230369
 23
-3886.730320604219
 33
0
  0
SOLID
  5
15C
100
AcDbEntity
  8
DIM
  6
ByBlock
 62
    8
370
   -2
100
AcDbTrace
 10
5352.444324852196
 20
-5886.730320604219
 30
0
 11
5319.141552230369
 21
-5686.730320604219
 31
0
 12
5385.747097474023
 22
-5686.730320604219
 32
0
 13
5385.747097474023
 23
-5686.730320604219
 33
0
  0
LINE
  5
15D
100
AcDbEntity
  8
DIM
  6
ByBlock
 62
    8
370
   -2
100
AcDbLine
 10
3752.444324852179
 20
-3686.730320604219
 11
5427.444324852196
 21
-3686.730320604219
  0
LINE
  5
15E
100
AcDbEntity
  8
DIM
  6
ByBlock
 62
    8
370
   -2
100
AcDbLine
 10
3752.44432485218
 20
-5886.730320604219
 11
5427.444324852196
 21
-5886.730320604219
  0
ENDBLK
  5
86
330
84
100
AcDbEntity
  8
0
100
AcDbBlockEnd
  0
BLOCK
  5
88
330
87
100
AcDbEntity
  8
0
100
AcDbBlockBegin
  2
*D2
 70
    1
 10
0
 20
0
  3
*D2
  1

  0
LINE
  5
15F
100
AcDbEntity
  8
DIM
  6
ByBlock
 62
    8
370
   -2
100
AcDbLine
 10
5352.44432485219
 20
3.269679395781168
 11
5352.44432485219
 21
-3596.730320604219
  0
MTEXT
  5
160
100
AcDbEntity
  8
DIM
  6
CONTINUOUS
 62
    7
370
   -2
100
AcDbMText
 10
5149.781987189851
 20
-1796.73032060422
 30
0
 40
200
 41
555.5555555555802
 71
    5
 72
    1
  1
3600
  7
Standard
210
0
220
0
230
1
 50
90
 73
    2
 44
1
  0
SOLID
  5
161
100
AcDbEntity
  8
DIM
  6
ByBlock
 62
    8
370
   -2
100
AcDbTrace
 10
5352.44432485219
 20
3.269679395781168
 30
0
 11
5385.747097474017
 21
-196.7303206042188
 31
0
 12
5319.141552230363
 22
-196.7303206042188
 32
0
 13
5319.141552230363
 23
-196.7303206042188
 33
0
  0
SOLID
  5
162
100
AcDbEntity
  8
DIM
  6
ByBlock
 62
    8
370
   -2
100
AcDbTrace
 10
5352.44432485219
 20
-3596.730320604219
 30
0
 11
5319.141552230363
 21
-3396.730320604219
 31
0
 12
5385.747097474017
 22
-3396.730320604219
 32
0
 13
5385.747097474017
 23
-3396.730320604219
 33
0
  0
LINE
  5
163
100
AcDbEntity
  8
DIM
  6
ByBlock
 62
    8
370
   -2
100
AcDbLine
 10
3752.444324852179
 20
3.269679395781395
 11
5427.44432485219
 21
3.269679395781168
  0
LINE
  5
164
100
AcDbEntity
  8
DIM
  6
ByBlock
 62
    8
370
   -2
100
AcDbLine
 10
3752.444324852179
 20
-3596.730320604219
 11
5427.44432485219
 21
-3596.730320604219
  0
ENDBLK
  5
89
330
87
100
AcDbEntity
  8
0
100
AcDbBlockEnd
  0
BLOCK
  5
8B
330
8A
100
AcDbEntity
  8
0
100
AcDbBlockBegin
  2
*D31
 70
    1
 10
0
 20
0
  3
*D31
  1

  0
LINE
  5
165
100
AcDbEntity
  8
DIM
  6
ByBlock
 62
    8
370
   -2
100
AcDbLine
 10
-9237.555675147849
 20
-3436.73032060422
 11
-9237.555675147849
 21
-5276.73032060422
  0
MTEXT
  5
166
100
AcDbEntity
  8
DIM
  6
CONTINUOUS
 62
    7
370
   -2
100
AcDbMText
 10
-9440.218012810186
 20
-4356.730320604218
 30
0
 40
200
 41
533.3333333333333
 71
    5
 72
    1
  1
1840
  7
Standard
210
0
220
0
230
1
 50
90
 73
    2
 44
1
  0
SOLID
  5
167
100
AcDbEntity
  8
DIM
  6
ByBlock
 62
    8
370
   -2
100
AcDbTrace
 10
-9237.555675147849
 20
-3436.73032060422
 30
0
 11
-9204.252902526021
 21
-3636.73032060422
 31
0
 12
-9270.858447769677
 22
-3636.73032060422
 32
0
 13
-9270.858447769677
 23
-3636.73032060422
 33
0
  0
SOLID
  5
168
100
AcDbEntity
  8
DIM
  6
ByBlock
 62
    8
370
   -2
100
AcDbTrace
 10
-9237.555675147849
 20
-5276.73032060422
 30
0
 11
-9270.858447769677
 21
-5076.73032060422
 31
0
 12
-9204.252902526021
 22
-5076.73032060422
 32
0
 13
-9204.252902526021
 23
-5076.73032060422
 33
0
  0
LINE
  5
169
100
AcDbEntity
  8
DIM
  6
ByBlock
 62
    8
370
   -2
100
AcDbLine
 10
-6687.55567514782
 20
-3436.73032060422
 11
-9312.555675147849
 21
-3436.73032060422
  0
LINE
  5
16A
100
AcDbEntity
  8
DIM
  6
ByBlock
 62
    8
370
   -2
100
AcDbLine
 10
-6737.55567514782
 20
-5276.73032060422
 11
-9312.555675147849
 21
-5276.73032060422
  0
ENDBLK
  5
8C
330
8A
100
AcDbEntity
  8
0
100
AcDbBlockEnd
  0
BLOCK
  5
8E
330
8D
100
AcDbEntity
  8
0
100
AcDbBlockBegin
  2
*D17
 70
    1
 10
0
 20
0
  3
*D17
  1

  0
LINE
  5
16B
100
AcDbEntity
  8
DIM
  6
ByBlock
 62
    8
370
   -2
100
AcDbLine
 10
3202.444324852179
 20
2953.269679395781
 11
4252.444324852178
 21
2953.269679395781
  0
MTEXT
  5
16C
100
AcDbEntity
  8
DIM
  6
CONTINUOUS
 62
    7
370
   -2
100
AcDbMText
 10
4963.678091085952
 20
3156.061887187989
 30
0
 40
200
 41
400.0000000000124
 71
    5
 72
    1
  1
250
  7
Standard
210
0
220
0
230
1
 50
0
 73
    2
 44
1
  0
SOLID
  5
16D
100
AcDbEntity
  8
DIM
  6
ByBlock
 62
    8
370
   -2
100
AcDbTrace
 10
3602.444324852179
 20
2953.269679395781
 30
0
 11
3402.444324852179
 21
2919.966906773954
 31
0
 12
3402.444324852179
 22
2986.572452017609
 32
0
 13
3402.444324852179
 23
2986.572452017609
 33
0
  0
SOLID
  5
16E
100
AcDbEntity
  8
DIM
  6
ByBlock
 62
    8
370
   -2
100
AcDbTrace
 10
3852.444324852179
 20
2953.269679395781
 30
0
 11
4052.444324852179
 21
2986.572452017608
 31
0
 12
4052.444324852179
 22
2919.966906773954
 32
0
 13
4052.444324852179
 23
2919.966906773954
 33
0
  0
LINE
  5
16F
100
AcDbEntity
  8
DIM
  6
ByBlock
 62
    8
370
   -2
100
AcDbLine
 10
3602.444324852179
 20
153.2696793957814
 11
3602.444324852179
 21
3028.269679395781
  0
LINE
  5
170
100
AcDbEntity
  8
DIM
  6
ByBlock
 62
    8
370
   -2
100
AcDbLine
 10
3852.444324852179
 20
403.2696793957814
 11
3852.444324852179
 21
3028.269679395781
  0
ENDBLK
  5
8F
330
8D
100
AcDbEntity
  8
0
100
AcDbBlockEnd
  0
BLOCK
  5
91
330
90
100
AcDbEntity
  8
0
100
AcDbBlockBegin
  2
*D32
 70
    1
 10
0
 20
0
  3
*D32
  1

  0
LINE
  5
171
100
AcDbEntity
  8
DIM
  6
ByBlock
 62
    8
370
   -2
100
AcDbLine
 10
-9237.555675147856
 20
-5276.73032060422
 11
-9237.555675147856
 21
-7986.73032060422
  0
MTEXT
  5
172
100
AcDbEntity
  8
DIM
  6
CONTINUOUS
 62
    7
370
   -2
100
AcDbMText
 10
-9440.347882940065
 20
-6631.730320604219
 30
0
 40
200
 41
511.1111111111111
 71
    5
 72
    1
  1
2710
  7
Standard
210
0
220
0
230
1
 50
90
 73
    2
 44
1
  0
SOLID
  5
173
100
AcDbEntity
  8
DIM
  6
ByBlock
 62
    8
370
   -2
100
AcDbTrace
 10
-9237.555675147856
 20
-5276.73032060422
 30
0
 11
-9204.252902526028
 21
-5476.73032060422
 31
0
 12
-9270.858447769684
 22
-5476.73032060422
 32
0
 13
-9270.858447769684
 23
-5476.73032060422
 33
0
  0
SOLID
  5
174
100
AcDbEntity
  8
DIM
  6
ByBlock
 62
    8
370
   -2
100
AcDbTrace
 10
-9237.555675147856
 20
-7986.73032060422
 30
0
 11
-9270.858447769684
 21
-7786.73032060422
 31
0
 12
-9204.252902526028
 22
-7786.73032060422
 32
0
 13
-9204.252902526028
 23
-7786.73032060422
 33
0
  0
LINE
  5
175
100
AcDbEntity
  8
DIM
  6
ByBlock
 62
    8
370
   -2
100
AcDbLine
 10
-6737.55567514782
 20
-5276.73032060422
 11
-9312.555675147856
 21
-5276.73032060422
  0
LINE
  5
176
100
AcDbEntity
  8
DIM
  6
ByBlock
 62
    8
370
   -2
100
AcDbLine
 10
-6737.55567514782
 20
-7986.73032060422
 11
-9312.555675147856
 21
-7986.73032060422
  0
ENDBLK
  5
92
330
90
100
AcDbEntity
  8
0
100
AcDbBlockEnd
  0
BLOCK
  5
94
330
93
100
AcDbEntity
  8
0
100
AcDbBlockBegin
  2
*D28
 70
    1
 10
0
 20
0
  3
*D28
  1

  0
LINE
  5
177
100
AcDbEntity
  8
DIM
  6
ByBlock
 62
    8
370
   -2
100
AcDbLine
 10
-9237.555675147829
 20
253.2696793957821
 11
-9237.555675147829
 21
-2026.73032060422
  0
MTEXT
  5
178
100
AcDbEntity
  8
DIM
  6
CONTINUOUS
 62
    7
370
   -2
100
AcDbMText
 10
-9440.347882940036
 20
-886.7303206042172
 30
0
 40
200
 41
555.5555555555554
 71
    5
 72
    1
  1
2280
  7
Standard
210
0
220
0
230
1
 50
90
 73
    2
 44
1
  0
SOLID
  5
179
100
AcDbEntity
  8
DIM
  6
ByBlock
 62
    8
370
   -2
100
AcDbTrace
 10
-9237.555675147829
 20
253.2696793957821
 30
0
 11
-9204.252902526001
 21
53.26967939578208
 31
0
 12
-9270.858447769657
 22
53.26967939578208
 32
0
 13
-9270.858447769657
 23
53.26967939578208
 33
0
  0
SOLID
  5
17A
100
AcDbEntity
  8
DIM
  6
ByBlock
 62
    8
370
   -2
100
AcDbTrace
 10
-9237.555675147829
 20
-2026.73032060422
 30
0
 11
-9270.858447769657
 21
-1826.73032060422
 31
0
 12
-9204.252902526001
 22
-1826.73032060422
 32
0
 13
-9204.252902526001
 23
-1826.73032060422
 33
0
  0
LINE
  5
17B
100
AcDbEntity
  8
DIM
  6
ByBlock
 62
    8
370
   -2
100
AcDbLine
 10
-4687.555675147821
 20
253.2696793957821
 11
-9312.555675147829
 21
253.2696793957821
  0
LINE
  5
17C
100
AcDbEntity
  8
DIM
  6
ByBlock
 62
    8
370
   -2
100
AcDbLine
 10
-4737.55567514782
 20
-2026.73032060422
 11
-9312.555675147829
 21
-2026.73032060422
  0
ENDBLK
  5
95
330
93
100
AcDbEntity
  8
0
100
AcDbBlockEnd
  0
BLOCK
  5
97
330
96
100
AcDbEntity
  8
0
100
AcDbBlockBegin
  2
*D12
 70
    1
 10
0
 20
0
  3
*D12
  1

  0
LINE
  5
17D
100
AcDbEntity
  8
DIM
  6
ByBlock
 62
    8
370
   -2
100
AcDbLine
 10
3202.444324852179
 20
1753.269679395781
 11
4252.44432485218
 21
1753.269679395781
  0
MTEXT
  5
17E
100
AcDbEntity
  8
DIM
  6
CONTINUOUS
 62
    7
370
   -2
100
AcDbMText
 10
4963.678091085953
 20
1956.061887187989
 30
0
 40
200
 41
400.0000000000124
 71
    5
 72
    1
  1
250
  7
Standard
210
0
220
0
230
1
 50
0
 73
    2
 44
1
  0
SOLID
  5
17F
100
AcDbEntity
  8
DIM
  6
ByBlock
 62
    8
370
   -2
100
AcDbTrace
 10
3602.444324852179
 20
1753.269679395781
 30
0
 11
3402.444324852179
 21
1719.966906773954
 31
0
 12
3402.444324852179
 22
1786.572452017608
 32
0
 13
3402.444324852179
 23
1786.572452017608
 33
0
  0
SOLID
  5
180
100
AcDbEntity
  8
DIM
  6
ByBlock
 62
    8
370
   -2
100
AcDbTrace
 10
3852.44432485218
 20
1753.269679395781
 30
0
 11
4052.44432485218
 21
1786.572452017608
 31
0
 12
4052.44432485218
 22
1719.966906773954
 32
0
 13
4052.44432485218
 23
1719.966906773954
 33
0
  0
LINE
  5
181
100
AcDbEntity
  8
DIM
  6
ByBlock
 62
    8
370
   -2
100
AcDbLine
 10
3602.444324852179
 20
153.2696793957814
 11
3602.444324852179
 21
1828.269679395781
  0
LINE
  5
182
100
AcDbEntity
  8
DIM
  6
ByBlock
 62
    8
370
   -2
100
AcDbLine
 10
3852.44432485218
 20
403.2696793957814
 11
3852.44432485218
 21
1828.269679395781
  0
ENDBLK
  5
98
330
96
100
AcDbEntity
  8
0
100
AcDbBlockEnd
  0
BLOCK
  5
9A
330
99
100
AcDbEntity
  8
0
100
AcDbBlockBegin
  2
*D16
 70
    1
 10
0
 20
0
  3
*D16
  1

  0
LINE
  5
183
100
AcDbEntity
  8
DIM
  6
ByBlock
 62
    8
370
   -2
100
AcDbLine
 10
402.4443248521798
 20
1753.269679395781
 11
-487.5556751478202
 21
1753.269679395781
  0
MTEXT
  5
184
100
AcDbEntity
  8
DIM
  6
CONTINUOUS
 62
    7
370
   -2
100
AcDbMText
 10
422.965248373116
 20
2283.594354720457
 30
0
 40
200
 41
244.4444444444692
 71
    5
 72
    1
  1
90
  7
Standard
210
0
220
0
230
1
 50
0
 73
    2
 44
1
  0
SOLID
  5
185
100
AcDbEntity
  8
DIM
  6
ByBlock
 62
    8
370
   -2
100
AcDbTrace
 10
2.444324852179747
 20
1753.269679395781
 30
0
 11
202.4443248521798
 21
1786.572452017608
 31
0
 12
202.4443248521798
 22
1719.966906773954
 32
0
 13
202.4443248521798
 23
1719.966906773954
 33
0
  0
SOLID
  5
186
100
AcDbEntity
  8
DIM
  6
ByBlock
 62
    8
370
   -2
100
AcDbTrace
 10
-87.55567514782022
 20
1753.269679395781
 30
0
 11
-287.5556751478202
 21
1719.966906773954
 31
0
 12
-287.5556751478202
 22
1786.572452017608
 32
0
 13
-287.5556751478202
 23
1786.572452017608
 33
0
  0
LINE
  5
187
100
AcDbEntity
  8
DIM
  6
ByBlock
 62
    8
370
   -2
100
AcDbLine
 10
2.44432485217977
 20
-3446.730320604219
 11
2.444324852179752
 21
1828.269679395781
  0
LINE
  5
188
100
AcDbEntity
  8
DIM
  6
ByBlock
 62
    8
370
   -2
100
AcDbLine
 10
-87.55567514782021
 20
-3536.730320604219
 11
-87.55567514782022
 21
1828.269679395781
  0
ENDBLK
  5
9B
330
99
100
AcDbEntity
  8
0
100
AcDbBlockEnd
  0
BLOCK
  5
9D
330
9C
100
AcDbEntity
  8
0
100
AcDbBlockBegin
  2
*D20
 70
    1
 10
0
 20
0
  3
*D20
  1

  0
LINE
  5
189
100
AcDbEntity
  8
DIM
  6
ByBlock
 62
    8
370
   -2
100
AcDbLine
 10
-87.55567514782069
 20
2953.269679395781
 11
-4287.555675147821
 21
2953.269679395781
  0
MTEXT
  5
18A
100
AcDbEntity
  8
DIM
  6
CONTINUOUS
 62
    7
370
   -2
100
AcDbMText
 10
-2187.555675147821
 20
3156.061887187989
 30
0
 40
200
 41
577.7777777777778
 71
    5
 72
    1
  1
4200
  7
Standard
210
0
220
0
230
1
 50
0
 73
    2
 44
1
  0
SOLID
  5
18B
100
AcDbEntity
  8
DIM
  6
ByBlock
 62
    8
370
   -2
100
AcDbTrace
 10
-87.55567514782069
 20
2953.269679395781
 30
0
 11
-287.5556751478207
 21
2919.966906773954
 31
0
 12
-287.5556751478207
 22
2986.572452017609
 32
0
 13
-287.5556751478207
 23
2986.572452017609
 33
0
  0
SOLID
  5
18C
100
AcDbEntity
  8
DIM
  6
ByBlock
 62
    8
370
   -2
100
AcDbTrace
 10
-4287.555675147821
 20
2953.269679395781
 30
0
 11
-4087.555675147821
 21
2986.572452017608
 31
0
 12
-4087.555675147821
 22
2919.966906773954
 32
0
 13
-4087.555675147821
 23
2919.966906773954
 33
0
  0
LINE
  5
18D
100
AcDbEntity
  8
DIM
  6
ByBlock
 62
    8
370
   -2
100
AcDbLine
 10
-87.55567514782068
 20
153.2696793957812
 11
-87.55567514782069
 21
3028.269679395781
  0
LINE
  5
18E
100
AcDbEntity
  8
DIM
  6
ByBlock
 62
    8
370
   -2
100
AcDbLine
 10
-4287.555675147821
 20
153.2696793957816
 11
-4287.555675147821
 21
3028.269679395781
  0
ENDBLK
  5
9E
330
9C
100
AcDbEntity
  8
0
100
AcDbBlockEnd
  0
BLOCK
  5
A0
330
9F
100
AcDbEntity
  8
0
100
AcDbBlockBegin
  2
*D42
 70
    1
 10
0
 20
0
  3
*D42
  1

  0
LINE
  5
18F
100
AcDbEntity
  8
DIM
  6
ByBlock
 62
    8
370
   -2
100
AcDbLine
 10
-4277.555675147822
 20
-12526.73032060422
 11
-3027.555675147822
 21
-12526.73032060422
  0
MTEXT
  5
190
100
AcDbEntity
  8
DIM
  6
CONTINUOUS
 62
    7
370
   -2
100
AcDbMText
 10
-3392.776454368601
 20
-12856.79525566915
 30
0
 40
200
 41
422.2222222222347
 71
    5
 72
    1
  1
450
  7
Standard
210
0
220
0
230
1
 50
0
 73
    2
 44
1
  0
SOLID
  5
191
100
AcDbEntity
  8
DIM
  6
ByBlock
 62
    8
370
   -2
100
AcDbTrace
 10
-3877.555675147822
 20
-12526.73032060422
 30
0
 11
-4077.555675147822
 21
-12560.03309322605
 31
0
 12
-4077.555675147822
 22
-12493.42754798239
 32
0
 13
-4077.555675147822
 23
-12493.42754798239
 33
0
  0
SOLID
  5
192
100
AcDbEntity
  8
DIM
  6
ByBlock
 62
    8
370
   -2
100
AcDbTrace
 10
-3427.555675147822
 20
-12526.73032060422
 30
0
 11
-3227.555675147822
 21
-12493.42754798239
 31
0
 12
-3227.555675147822
 22
-12560.03309322605
 32
0
 13
-3227.555675147822
 23
-12560.03309322605
 33
0
  0
LINE
  5
193
100
AcDbEntity
  8
DIM
  6
ByBlock
 62
    8
370
   -2
100
AcDbLine
 10
-3877.555675147822
 20
-10026.73032060422
 11
-3877.555675147822
 21
-12601.73032060422
  0
LINE
  5
194
100
AcDbEntity
  8
DIM
  6
ByBlock
 62
    8
370
   -2
100
AcDbLine
 10
-3427.555675147822
 20
-10026.73032060422
 11
-3427.555675147822
 21
-12601.73032060422
  0
ENDBLK
  5
A1
330
9F
100
AcDbEntity
  8
0
100
AcDbBlockEnd
  0
BLOCK
  5
A3
330
A2
100
AcDbEntity
  8
0
100
AcDbBlockBegin
  2
*D43
 70
    1
 10
0
 20
0
  3
*D43
  1

  0
LINE
  5
195
100
AcDbEntity
  8
DIM
  6
ByBlock
 62
    8
370
   -2
100
AcDbLine
 10
-3427.555675147822
 20
-12526.73032060422
 11
-1617.555675147822
 21
-12526.73032060422
  0
MTEXT
  5
196
100
AcDbEntity
  8
DIM
  6
CONTINUOUS
 62
    7
370
   -2
100
AcDbMText
 10
-2522.555675147822
 20
-12324.06798294188
 30
0
 40
200
 41
466.6666666666666
 71
    5
 72
    1
  1
1810
  7
Standard
210
0
220
0
230
1
 50
0
 73
    2
 44
1
  0
SOLID
  5
197
100
AcDbEntity
  8
DIM
  6
ByBlock
 62
    8
370
   -2
100
AcDbTrace
 10
-3427.555675147822
 20
-12526.73032060422
 30
0
 11
-3227.555675147822
 21
-12493.42754798239
 31
0
 12
-3227.555675147822
 22
-12560.03309322605
 32
0
 13
-3227.555675147822
 23
-12560.03309322605
 33
0
  0
SOLID
  5
198
100
AcDbEntity
  8
DIM
  6
ByBlock
 62
    8
370
   -2
100
AcDbTrace
 10
-1617.555675147822
 20
-12526.73032060422
 30
0
 11
-1817.555675147822
 21
-12560.03309322605
 31
0
 12
-1817.555675147822
 22
-12493.42754798239
 32
0
 13
-1817.555675147822
 23
-12493.42754798239
 33
0
  0
LINE
  5
199
100
AcDbEntity
  8
DIM
  6
ByBlock
 62
    8
370
   -2
100
AcDbLine
 10
-3427.555675147822
 20
-10026.73032060422
 11
-3427.555675147822
 21
-12601.73032060422
  0
LINE
  5
19A
100
AcDbEntity
  8
DIM
  6
ByBlock
 62
    8
370
   -2
100
AcDbLine
 10
-1617.555675147822
 20
-10026.73032060422
 11
-1617.555675147822
 21
-12601.73032060422
  0
ENDBLK
  5
A4
330
A2
100
AcDbEntity
  8
0
100
AcDbBlockEnd
  0
BLOCK
  5
A6
330
A5
100
AcDbEntity
  8
0
100
AcDbBlockBegin
  2
*D8
 70
    1
 10
0
 20
0
  3
*D8
  1

  0
LINE
  5
19B
100
AcDbEntity
  8
DIM
  6
ByBlock
 62
    8
370
   -2
100
AcDbLine
 10
6552.444324852196
 20
253.2696793957821
 11
6552.444324852196
 21
-4481.730320604219
  0
MTEXT
  5
19C
100
AcDbEntity
  8
DIM
  6
CONTINUOUS
 62
    7
370
   -2
100
AcDbMText
 10
6349.911857319726
 20
-2114.230320604221
 30
0
 40
200
 41
577.7777777778026
 71
    5
 72
    1
  1
4735
  7
Standard
210
0
220
0
230
1
 50
90
 73
    2
 44
1
  0
SOLID
  5
19D
100
AcDbEntity
  8
DIM
  6
ByBlock
 62
    8
370
   -2
100
AcDbTrace
 10
6552.444324852196
 20
253.2696793957821
 30
0
 11
6585.747097474023
 21
53.26967939578208
 31
0
 12
6519.141552230369
 22
53.26967939578208
 32
0
 13
6519.141552230369
 23
53.26967939578208
 33
0
  0
SOLID
  5
19E
100
AcDbEntity
  8
DIM
  6
ByBlock
 62
    8
370
   -2
100
AcDbTrace
 10
6552.444324852196
 20
-4481.730320604219
 30
0
 11
6519.141552230369
 21
-4281.730320604219
 31
0
 12
6585.747097474023
 22
-4281.730320604219
 32
0
 13
6585.747097474023
 23
-4281.730320604219
 33
0
  0
LINE
  5
19F
100
AcDbEntity
  8
DIM
  6
ByBlock
 62
    8
370
   -2
100
AcDbLine
 10
4002.44432485218
 20
253.2696793957815
 11
6627.444324852196
 21
253.2696793957821
  0
LINE
  5
1A0
100
AcDbEntity
  8
DIM
  6
ByBlock
 62
    8
370
   -2
100
AcDbLine
 10
4052.444324852179
 20
-4481.730320604219
 11
6627.444324852196
 21
-4481.730320604219
  0
ENDBLK
  5
A7
330
A5
100
AcDbEntity
  8
0
100
AcDbBlockEnd
  0
BLOCK
  5
A9
330
A8
100
AcDbEntity
  8
0
100
AcDbBlockBegin
  2
*D27
 70
    1
 10
0
 20
0
  3
*D27
  1

  0
LINE
  5
1A1
100
AcDbEntity
  8
DIM
  6
ByBlock
 62
    8
370
   -2
100
AcDbLine
 10
-8037.555675147845
 20
-9176.73032060422
 11
-8037.555675147845
 21
-10226.73032060422
  0
MTEXT
  5
1A2
100
AcDbEntity
  8
DIM
  6
CONTINUOUS
 62
    7
370
   -2
100
AcDbMText
 10
-8568.140090732262
 20
-9078.392658266552
 30
0
 40
200
 41
400.0000000000124
 71
    5
 72
    1
  1
250
  7
Standard
210
0
220
0
230
1
 50
90
 73
    2
 44
1
  0
SOLID
  5
1A3
100
AcDbEntity
  8
DIM
  6
ByBlock
 62
    8
370
   -2
100
AcDbTrace
 10
-8037.555675147845
 20
-9576.73032060422
 30
0
 11
-8070.858447769672
 21
-9376.73032060422
 31
0
 12
-8004.252902526018
 22
-9376.73032060422
 32
0
 13
-8004.252902526018
 23
-9376.73032060422
 33
0
  0
SOLID
  5
1A4
100
AcDbEntity
  8
DIM
  6
ByBlock
 62
    8
370
   -2
100
AcDbTrace
 10
-8037.555675147845
 20
-9826.73032060422
 30
0
 11
-8004.252902526018
 21
-10026.73032060422
 31
0
 12
-8070.858447769672
 22
-10026.73032060422
 32
0
 13
-8070.858447769672
 23
-10026.73032060422
 33
0
  0
LINE
  5
1A5
100
AcDbEntity
  8
DIM
  6
ByBlock
 62
    8
370
   -2
100
AcDbLine
 10
-6437.555675147821
 20
-9576.73032060422
 11
-8112.555675147845
 21
-9576.73032060422
  0
LINE
  5
1A6
100
AcDbEntity
  8
DIM
  6
ByBlock
 62
    8
370
   -2
100
AcDbLine
 10
-6687.555675147822
 20
-9826.73032060422
 11
-8112.555675147845
 21
-9826.73032060422
  0
ENDBLK
  5
AA
330
A8
100
AcDbEntity
  8
0
100
AcDbBlockEnd
  0
BLOCK
  5
AC
330
AB
100
AcDbEntity
  8
0
100
AcDbBlockBegin
  2
*D10
 70
    1
 10
0
 20
0
  3
*D10
  1

  0
LINE
  5
1A7
100
AcDbEntity
  8
DIM
  6
ByBlock
 62
    8
370
   -2
100
AcDbLine
 10
6552.444324852211
 20
-5091.730320604219
 11
6552.444324852211
 21
-9826.73032060422
  0
MTEXT
  5
1A8
100
AcDbEntity
  8
DIM
  6
CONTINUOUS
 62
    7
370
   -2
100
AcDbMText
 10
6349.911857319739
 20
-7459.230320604222
 30
0
 40
200
 41
577.7777777778026
 71
    5
 72
    1
  1
4735
  7
Standard
210
0
220
0
230
1
 50
90
 73
    2
 44
1
  0
SOLID
  5
1A9
100
AcDbEntity
  8
DIM
  6
ByBlock
 62
    8
370
   -2
100
AcDbTrace
 10
6552.444324852211
 20
-5091.730320604219
 30
0
 11
6585.747097474038
 21
-5291.730320604219
 31
0
 12
6519.141552230384
 22
-5291.730320604219
 32
0
 13
6519.141552230384
 23
-5291.730320604219
 33
0
  0
SOLID
  5
1AA
100
AcDbEntity
  8
DIM
  6
ByBlock
 62
    8
370
   -2
100
AcDbTrace
 10
6552.444324852211
 20
-9826.73032060422
 30
0
 11
6519.141552230384
 21
-9626.73032060422
 31
0
 12
6585.747097474038
 22
-9626.73032060422
 32
0
 13
6585.747097474038
 23
-9626.73032060422
 33
0
  0
LINE
  5
1AB
100
AcDbEntity
  8
DIM
  6
ByBlock
 62
    8
370
   -2
100
AcDbLine
 10
4052.444324852179
 20
-5091.730320604219
 11
6627.444324852211
 21
-5091.730320604219
  0
LINE
  5
1AC
100
AcDbEntity
  8
DIM
  6
ByBlock
 62
    8
370
   -2
100
AcDbLine
 10
4002.444324852179
 20
-9826.73032060422
 11
6627.444324852211
 21
-9826.73032060422
  0
ENDBLK
  5
AD
330
AB
100
AcDbEntity
  8
0
100
AcDbBlockEnd
  0
BLOCK
  5
AF
330
AE
100
AcDbEntity
  8
0
100
AcDbBlockBegin
  2
*D41
 70
    1
 10
0
 20
0
  3
*D41
  1

  0
LINE
  5
1AD
100
AcDbEntity
  8
DIM
  6
ByBlock
 62
    8
370
   -2
100
AcDbLine
 10
-5687.555675147822
 20
-12526.73032060422
 11
-3877.555675147822
 21
-12526.73032060422
  0
MTEXT
  5
1AE
100
AcDbEntity
  8
DIM
  6
CONTINUOUS
 62
    7
370
   -2
100
AcDbMText
 10
-4782.555675147822
 20
-12324.06798294188
 30
0
 40
200
 41
466.6666666666666
 71
    5
 72
    1
  1
1810
  7
Standard
210
0
220
0
230
1
 50
0
 73
    2
 44
1
  0
SOLID
  5
1AF
100
AcDbEntity
  8
DIM
  6
ByBlock
 62
    8
370
   -2
100
AcDbTrace
 10
-5687.555675147822
 20
-12526.73032060422
 30
0
 11
-5487.555675147822
 21
-12493.42754798239
 31
0
 12
-5487.555675147822
 22
-12560.03309322605
 32
0
 13
-5487.555675147822
 23
-12560.03309322605
 33
0
  0
SOLID
  5
1B0
100
AcDbEntity
  8
DIM
  6
ByBlock
 62
    8
370
   -2
100
AcDbTrace
 10
-3877.555675147822
 20
-12526.73032060422
 30
0
 11
-4077.555675147822
 21
-12560.03309322605
 31
0
 12
-4077.555675147822
 22
-12493.42754798239
 32
0
 13
-4077.555675147822
 23
-12493.42754798239
 33
0
  0
LINE
  5
1B1
100
AcDbEntity
  8
DIM
  6
ByBlock
 62
    8
370
   -2
100
AcDbLine
 10
-5687.555675147822
 20
-10026.73032060422
 11
-5687.555675147822
 21
-12601.73032060422
  0
LINE
  5
1B2
100
AcDbEntity
  8
DIM
  6
ByBlock
 62
    8
370
   -2
100
AcDbLine
 10
-3877.555675147822
 20
-10026.73032060422
 11
-3877.555675147822
 21
-12601.73032060422
  0
ENDBLK
  5
B0
330
AE
100
AcDbEntity
  8
0
100
AcDbBlockEnd
  0
BLOCK
  5
B2
330
B1
100
AcDbEntity
  8
0
100
AcDbBlockBegin
  2
*D23
 70
    1
 10
0
 20
0
  3
*D23
  1

  0
LINE
  5
1B3
100
AcDbEntity
  8
DIM
  6
ByBlock
 62
    8
370
   -2
100
AcDbLine
 10
-6537.55567514782
 20
4153.269679395781
 11
3852.44432485218
 21
4153.269679395781
  0
MTEXT
  5
1B4
100
AcDbEntity
  8
DIM
  6
CONTINUOUS
 62
    7
370
   -2
100
AcDbMText
 10
-1342.555675147819
 20
4355.932017058119
 30
0
 40
200
 41
666.6666666666913
 71
    5
 72
    1
  1
10390
  7
Standard
210
0
220
0
230
1
 50
0
 73
    2
 44
1
  0
SOLID
  5
1B5
100
AcDbEntity
  8
DIM
  6
ByBlock
 62
    8
370
   -2
100
AcDbTrace
 10
-6537.55567514782
 20
4153.269679395781
 30
0
 11
-6337.55567514782
 21
4186.572452017608
 31
0
 12
-6337.55567514782
 22
4119.966906773954
 32
0
 13
-6337.55567514782
 23
4119.966906773954
 33
0
  0
SOLID
  5
1B6
100
AcDbEntity
  8
DIM
  6
ByBlock
 62
    8
370
   -2
100
AcDbTrace
 10
3852.44432485218
 20
4153.269679395781
 30
0
 11
3652.44432485218
 21
4119.966906773954
 31
0
 12
3652.44432485218
 22
4186.572452017608
 32
0
 13
3652.44432485218
 23
4186.572452017608
 33
0
  0
LINE
  5
1B7
100
AcDbEntity
  8
DIM
  6
ByBlock
 62
    8
370
   -2
100
AcDbLine
 10
-6537.55567514782
 20
-3286.73032060422
 11
-6537.55567514782
 21
4228.269679395781
  0
LINE
  5
1B8
100
AcDbEntity
  8
DIM
  6
ByBlock
 62
    8
370
   -2
100
AcDbLine
 10
3852.44432485218
 20
403.2696793957814
 11
3852.44432485218
 21
4228.269679395781
  0
ENDBLK
  5
B3
330
B1
100
AcDbEntity
  8
0
100
AcDbBlockEnd
  0
BLOCK
  5
B5
330
B4
100
AcDbEntity
  8
0
100
AcDbBlockBegin
  2
*D9
 70
    1
 10
0
 20
0
  3
*D9
  1

  0
LINE
  5
1B9
100
AcDbEntity
  8
DIM
  6
ByBlock
 62
    8
370
   -2
100
AcDbLine
 10
6552.444324852203
 20
-4481.730320604219
 11
6552.444324852203
 21
-5091.730320604219
  0
MTEXT
  5
1BA
100
AcDbEntity
  8
DIM
  6
CONTINUOUS
 62
    7
370
   -2
100
AcDbMText
 10
6349.781987189863
 20
-4786.730320604221
 30
0
 40
200
 41
355.5555555555679
 71
    5
 72
    1
  1
610
  7
Standard
210
0
220
0
230
1
 50
90
 73
    2
 44
1
  0
SOLID
  5
1BB
100
AcDbEntity
  8
DIM
  6
ByBlock
 62
    8
370
   -2
100
AcDbTrace
 10
6552.444324852203
 20
-4481.730320604219
 30
0
 11
6585.74709747403
 21
-4681.730320604219
 31
0
 12
6519.141552230376
 22
-4681.730320604219
 32
0
 13
6519.141552230376
 23
-4681.730320604219
 33
0
  0
SOLID
  5
1BC
100
AcDbEntity
  8
DIM
  6
ByBlock
 62
    8
370
   -2
100
AcDbTrace
 10
6552.444324852203
 20
-5091.730320604219
 30
0
 11
6519.141552230376
 21
-4891.730320604219
 31
0
 12
6585.74709747403
 22
-4891.730320604219
 32
0
 13
6585.74709747403
 23
-4891.730320604219
 33
0
  0
LINE
  5
1BD
100
AcDbEntity
  8
DIM
  6
ByBlock
 62
    8
370
   -2
100
AcDbLine
 10
4052.444324852179
 20
-4481.730320604219
 11
6627.444324852203
 21
-4481.730320604219
  0
LINE
  5
1BE
100
AcDbEntity
  8
DIM
  6
ByBlock
 62
    8
370
   -2
100
AcDbLine
 10
4052.444324852179
 20
-5091.730320604219
 11
6627.444324852203
 21
-5091.730320604219
  0
ENDBLK
  5
B6
330
B4
100
AcDbEntity
  8
0
100
AcDbBlockEnd
  0
BLOCK
  5
B8
330
B7
100
AcDbEntity
  8
0
100
AcDbBlockBegin
  2
*D30
 70
    1
 10
0
 20
0
  3
*D30
  1

  0
LINE
  5
1BF
100
AcDbEntity
  8
DIM
  6
ByBlock
 62
    8
370
   -2
100
AcDbLine
 10
-9237.555675147847
 20
-2836.73032060422
 11
-9237.555675147847
 21
-3836.73032060422
  0
MTEXT
  5
1C0
100
AcDbEntity
  8
DIM
  6
CONTINUOUS
 62
    7
370
   -2
100
AcDbMText
 10
-9768.140090732259
 20
-3087.585133526885
 30
0
 40
200
 41
400
 71
    5
 72
    1
  1
200
  7
Standard
210
0
220
0
230
1
 50
90
 73
    2
 44
1
  0
SOLID
  5
1C1
100
AcDbEntity
  8
DIM
  6
ByBlock
 62
    8
370
   -2
100
AcDbTrace
 10
-9237.555675147847
 20
-3236.73032060422
 30
0
 11
-9270.858447769675
 21
-3036.73032060422
 31
0
 12
-9204.252902526019
 22
-3036.73032060422
 32
0
 13
-9204.252902526019
 23
-3036.73032060422
 33
0
  0
SOLID
  5
1C2
100
AcDbEntity
  8
DIM
  6
ByBlock
 62
    8
370
   -2
100
AcDbTrace
 10
-9237.555675147847
 20
-3436.73032060422
 30
0
 11
-9204.252902526019
 21
-3636.73032060422
 31
0
 12
-9270.858447769675
 22
-3636.73032060422
 32
0
 13
-9270.858447769675
 23
-3636.73032060422
 33
0
  0
LINE
  5
1C3
100
AcDbEntity
  8
DIM
  6
ByBlock
 62
    8
370
   -2
100
AcDbLine
 10
-4737.55567514782
 20
-3236.73032060422
 11
-9312.555675147847
 21
-3236.73032060422
  0
LINE
  5
1C4
100
AcDbEntity
  8
DIM
  6
ByBlock
 62
    8
370
   -2
100
AcDbLine
 10
-6687.55567514782
 20
-3436.73032060422
 11
-9312.555675147847
 21
-3436.73032060422
  0
ENDBLK
  5
B9
330
B7
100
AcDbEntity
  8
0
100
AcDbBlockEnd
  0
BLOCK
  5
BB
330
BA
100
AcDbEntity
  8
0
100
AcDbBlockBegin
  2
*D21
 70
    1
 10
0
 20
0
  3
*D21
  1

  0
LINE
  5
1C5
100
AcDbEntity
  8
DIM
  6
ByBlock
 62
    8
370
   -2
100
AcDbLine
 10
-3887.555675147821
 20
2953.269679395781
 11
-4937.555675147821
 21
2953.269679395781
  0
MTEXT
  5
1C6
100
AcDbEntity
  8
DIM
  6
CONTINUOUS
 62
    7
370
   -2
100
AcDbMText
 10
-3789.218012810152
 20
3483.854094980196
 30
0
 40
200
 41
400.0000000000124
 71
    5
 72
    1
  1
250
  7
Standard
210
0
220
0
230
1
 50
0
 73
    2
 44
1
  0
SOLID
  5
1C7
100
AcDbEntity
  8
DIM
  6
ByBlock
 62
    8
370
   -2
100
AcDbTrace
 10
-4287.555675147821
 20
2953.269679395781
 30
0
 11
-4087.555675147821
 21
2986.572452017608
 31
0
 12
-4087.555675147821
 22
2919.966906773954
 32
0
 13
-4087.555675147821
 23
2919.966906773954
 33
0
  0
SOLID
  5
1C8
100
AcDbEntity
  8
DIM
  6
ByBlock
 62
    8
370
   -2
100
AcDbTrace
 10
-4537.555675147821
 20
2953.269679395781
 30
0
 11
-4737.555675147821
 21
2919.966906773954
 31
0
 12
-4737.555675147821
 22
2986.572452017609
 32
0
 13
-4737.555675147821
 23
2986.572452017609
 33
0
  0
LINE
  5
1C9
100
AcDbEntity
  8
DIM
  6
ByBlock
 62
    8
370
   -2
100
AcDbLine
 10
-4287.555675147821
 20
153.2696793957816
 11
-4287.555675147821
 21
3028.269679395781
  0
LINE
  5
1CA
100
AcDbEntity
  8
DIM
  6
ByBlock
 62
    8
370
   -2
100
AcDbLine
 10
-4537.555675147821
 20
403.2696793957821
 11
-4537.555675147821
 21
3028.269679395781
  0
ENDBLK
  5
BC
330
BA
100
AcDbEntity
  8
0
100
AcDbBlockEnd
  0
BLOCK
  5
BE
330
BD
100
AcDbEntity
  8
0
100
AcDbBlockBegin
  2
*D15
 70
    1
 10
0
 20
0
  3
*D15
  1

  0
LINE
  5
1CB
100
AcDbEntity
  8
DIM
  6
ByBlock
 62
    8
370
   -2
100
AcDbLine
 10
1112.444324852179
 20
1753.269679395781
 11
2.444324852179761
 21
1753.269679395781
  0
MTEXT
  5
1CC
100
AcDbEntity
  8
DIM
  6
CONTINUOUS
 62
    7
370
   -2
100
AcDbMText
 10
557.4443248521798
 20
1955.932017058119
 30
0
 40
200
 41
422.2222222222222
 71
    5
 72
    1
  1
1110
  7
Standard
210
0
220
0
230
1
 50
0
 73
    2
 44
1
  0
SOLID
  5
1CD
100
AcDbEntity
  8
DIM
  6
ByBlock
 62
    8
370
   -2
100
AcDbTrace
 10
1112.444324852179
 20
1753.269679395781
 30
0
 11
912.4443248521791
 21
1719.966906773954
 31
0
 12
912.4443248521791
 22
1786.572452017608
 32
0
 13
912.4443248521791
 23
1786.572452017608
 33
0
  0
SOLID
  5
1CE
100
AcDbEntity
  8
DIM
  6
ByBlock
 62
    8
370
   -2
100
AcDbTrace
 10
2.444324852179761
 20
1753.269679395781
 30
0
 11
202.4443248521798
 21
1786.572452017608
 31
0
 12
202.4443248521798
 22
1719.966906773954
 32
0
 13
202.4443248521798
 23
1719.966906773954
 33
0
  0
LINE
  5
1CF
100
AcDbEntity
  8
DIM
  6
ByBlock
 62
    8
370
   -2
100
AcDbLine
 10
1112.444324852179
 20
-2846.730320604219
 11
1112.444324852179
 21
1828.269679395781
  0
LINE
  5
1D0
100
AcDbEntity
  8
DIM
  6
ByBlock
 62
    8
370
   -2
100
AcDbLine
 10
2.44432485217977
 20
-3446.730320604219
 11
2.444324852179765
 21
1828.269679395781
  0
ENDBLK
  5
BF
330
BD
100
AcDbEntity
  8
0
100
AcDbBlockEnd
  0
BLOCK
  5
C1
330
C0
100
AcDbEntity
  8
0
100
AcDbBlockBegin
  2
*D6
 70
    1
 10
0
 20
0
  3
*D6
  1

  0
LINE
  5
1D1
100
AcDbEntity
  8
DIM
  6
ByBlock
 62
    8
370
   -2
100
AcDbLine
 10
5352.444324852204
 20
-5976.730320604218
 11
5352.444324852204
 21
-9576.73032060422
  0
MTEXT
  5
1D2
100
AcDbEntity
  8
DIM
  6
CONTINUOUS
 62
    7
370
   -2
100
AcDbMText
 10
5149.781987189863
 20
-7776.730320604222
 30
0
 40
200
 41
555.5555555555802
 71
    5
 72
    1
  1
3600
  7
Standard
210
0
220
0
230
1
 50
90
 73
    2
 44
1
  0
SOLID
  5
1D3
100
AcDbEntity
  8
DIM
  6
ByBlock
 62
    8
370
   -2
100
AcDbTrace
 10
5352.444324852204
 20
-5976.730320604218
 30
0
 11
5385.747097474031
 21
-6176.730320604218
 31
0
 12
5319.141552230377
 22
-6176.730320604218
 32
0
 13
5319.141552230377
 23
-6176.730320604218
 33
0
  0
SOLID
  5
1D4
100
AcDbEntity
  8
DIM
  6
ByBlock
 62
    8
370
   -2
100
AcDbTrace
 10
5352.444324852204
 20
-9576.73032060422
 30
0
 11
5319.141552230377
 21
-9376.73032060422
 31
0
 12
5385.747097474031
 22
-9376.73032060422
 32
0
 13
5385.747097474031
 23
-9376.73032060422
 33
0
  0
LINE
  5
1D5
100
AcDbEntity
  8
DIM
  6
ByBlock
 62
    8
370
   -2
100
AcDbLine
 10
3752.44432485218
 20
-5976.730320604219
 11
5427.444324852204
 21
-5976.730320604218
  0
LINE
  5
1D6
100
AcDbEntity
  8
DIM
  6
ByBlock
 62
    8
370
   -2
100
AcDbLine
 10
3752.444324852178
 20
-9576.73032060422
 11
5427.444324852204
 21
-9576.73032060422
  0
ENDBLK
  5
C2
330
C0
100
AcDbEntity
  8
0
100
AcDbBlockEnd
  0
BLOCK
  5
C4
330
C3
100
AcDbEntity
  8
0
100
AcDbBlockBegin
  2
*D5
 70
    1
 10
0
 20
0
  3
*D5
  1

  0
LINE
  5
1D7
100
AcDbEntity
  8
DIM
  6
ByBlock
 62
    8
370
   -2
100
AcDbLine
 10
5352.444324852201
 20
-5486.730320604219
 11
5352.444324852201
 21
-6376.730320604219
  0
MTEXT
  5
1D8
100
AcDbEntity
  8
DIM
  6
CONTINUOUS
 62
    7
370
   -2
100
AcDbMText
 10
5352.444324852199
 20
-5664.508098381986
 30
0
 40
200
 41
244.4444444444692
 71
    5
 72
    1
  1
90
  7
Standard
210
0
220
0
230
1
 50
90
 73
    2
 44
1
  0
SOLID
  5
1D9
100
AcDbEntity
  8
DIM
  6
ByBlock
 62
    8
370
   -2
100
AcDbTrace
 10
5352.444324852201
 20
-5886.730320604219
 30
0
 11
5319.141552230374
 21
-5686.730320604219
 31
0
 12
5385.747097474028
 22
-5686.730320604219
 32
0
 13
5385.747097474028
 23
-5686.730320604219
 33
0
  0
SOLID
  5
1DA
100
AcDbEntity
  8
DIM
  6
ByBlock
 62
    8
370
   -2
100
AcDbTrace
 10
5352.444324852201
 20
-5976.730320604219
 30
0
 11
5385.747097474028
 21
-6176.730320604219
 31
0
 12
5319.141552230374
 22
-6176.730320604219
 32
0
 13
5319.141552230374
 23
-6176.730320604219
 33
0
  0
LINE
  5
1DB
100
AcDbEntity
  8
DIM
  6
ByBlock
 62
    8
370
   -2
100
AcDbLine
 10
3752.44432485218
 20
-5886.730320604219
 11
5427.444324852201
 21
-5886.730320604219
  0
LINE
  5
1DC
100
AcDbEntity
  8
DIM
  6
ByBlock
 62
    8
370
   -2
100
AcDbLine
 10
3752.44432485218
 20
-5976.730320604219
 11
5427.444324852201
 21
-5976.730320604219
  0
ENDBLK
  5
C5
330
C3
100
AcDbEntity
  8
0
100
AcDbBlockEnd
  0
BLOCK
  5
C7
330
C6
100
AcDbEntity
  8
0
100
AcDbBlockBegin
  2
*D26
 70
    1
 10
0
 20
0
  3
*D26
  1

  0
LINE
  5
1DD
100
AcDbEntity
  8
DIM
  6
ByBlock
 62
    8
370
   -2
100
AcDbLine
 10
-8037.555675147838
 20
-3686.73032060422
 11
-8037.555675147838
 21
-9576.73032060422
  0
MTEXT
  5
1DE
100
AcDbEntity
  8
DIM
  6
CONTINUOUS
 62
    7
370
   -2
100
AcDbMText
 10
-8240.218012810175
 20
-6631.730320604219
 30
0
 40
200
 41
555.5555555555802
 71
    5
 72
    1
  1
5890
  7
Standard
210
0
220
0
230
1
 50
90
 73
    2
 44
1
  0
SOLID
  5
1DF
100
AcDbEntity
  8
DIM
  6
ByBlock
 62
    8
370
   -2
100
AcDbTrace
 10
-8037.555675147838
 20
-3686.73032060422
 30
0
 11
-8004.252902526011
 21
-3886.73032060422
 31
0
 12
-8070.858447769665
 22
-3886.73032060422
 32
0
 13
-8070.858447769665
 23
-3886.73032060422
 33
0
  0
SOLID
  5
1E0
100
AcDbEntity
  8
DIM
  6
ByBlock
 62
    8
370
   -2
100
AcDbTrace
 10
-8037.555675147838
 20
-9576.73032060422
 30
0
 11
-8070.858447769665
 21
-9376.73032060422
 31
0
 12
-8004.252902526011
 22
-9376.73032060422
 32
0
 13
-8004.252902526011
 23
-9376.73032060422
 33
0
  0
LINE
  5
1E1
100
AcDbEntity
  8
DIM
  6
ByBlock
 62
    8
370
   -2
100
AcDbLine
 10
-4437.55567514782
 20
-3686.73032060422
 11
-8112.555675147838
 21
-3686.73032060422
  0
LINE
  5
1E2
100
AcDbEntity
  8
DIM
  6
ByBlock
 62
    8
370
   -2
100
AcDbLine
 10
-6437.555675147821
 20
-9576.73032060422
 11
-8112.555675147838
 21
-9576.73032060422
  0
ENDBLK
  5
C8
330
C6
100
AcDbEntity
  8
0
100
AcDbBlockEnd
  0
BLOCK
  5
CA
330
C9
100
AcDbEntity
  8
0
100
AcDbBlockBegin
  2
*D22
 70
    1
 10
0
 20
0
  3
*D22
  1

  0
LINE
  5
1E3
100
AcDbEntity
  8
DIM
  6
ByBlock
 62
    8
370
   -2
100
AcDbLine
 10
-4537.555675147821
 20
2953.269679395781
 11
-6537.555675147822
 21
2953.269679395781
  0
MTEXT
  5
1E4
100
AcDbEntity
  8
DIM
  6
CONTINUOUS
 62
    7
370
   -2
100
AcDbMText
 10
-5537.555675147822
 20
3156.061887187989
 30
0
 40
200
 41
555.5555555555554
 71
    5
 72
    1
  1
2000
  7
Standard
210
0
220
0
230
1
 50
0
 73
    2
 44
1
  0
SOLID
  5
1E5
100
AcDbEntity
  8
DIM
  6
ByBlock
 62
    8
370
   -2
100
AcDbTrace
 10
-4537.555675147821
 20
2953.269679395781
 30
0
 11
-4737.555675147821
 21
2919.966906773954
 31
0
 12
-4737.555675147821
 22
2986.572452017609
 32
0
 13
-4737.555675147821
 23
2986.572452017609
 33
0
  0
SOLID
  5
1E6
100
AcDbEntity
  8
DIM
  6
ByBlock
 62
    8
370
   -2
100
AcDbTrace
 10
-6537.555675147822
 20
2953.269679395781
 30
0
 11
-6337.555675147822
 21
2986.572452017608
 31
0
 12
-6337.555675147822
 22
2919.966906773954
 32
0
 13
-6337.555675147822
 23
2919.966906773954
 33
0
  0
LINE
  5
1E7
100
AcDbEntity
  8
DIM
  6
ByBlock
 62
    8
370
   -2
100
AcDbLine
 10
-4537.555675147821
 20
403.2696793957821
 11
-4537.555675147821
 21
3028.269679395781
  0
LINE
  5
1E8
100
AcDbEntity
  8
DIM
  6
ByBlock
 62
    8
370
   -2
100
AcDbLine
 10
-6537.555675147822
 20
-3286.73032060422
 11
-6537.555675147822
 21
3028.269679395781
  0
ENDBLK
  5
CB
330
C9
100
AcDbEntity
  8
0
100
AcDbBlockEnd
  0
BLOCK
  5
CD
330
CC
100
AcDbEntity
  8
0
100
AcDbBlockBegin
  2
*D48
 70
    1
 10
0
 20
0
  3
*D48
  1

  0
LINE
  5
1E9
100
AcDbEntity
  8
DIM
  6
ByBlock
 62
    8
370
   -2
100
AcDbLine
 10
2707.444324852179
 20
-12526.73032060422
 11
3852.444324852178
 21
-12526.73032060422
  0
MTEXT
  5
1EA
100
AcDbEntity
  8
DIM
  6
CONTINUOUS
 62
    7
370
   -2
100
AcDbMText
 10
3279.944324852179
 20
-12324.06798294188
 30
0
 40
200
 41
488.8888888889013
 71
    5
 72
    1
  1
1145
  7
Standard
210
0
220
0
230
1
 50
0
 73
    2
 44
1
  0
SOLID
  5
1EB
100
AcDbEntity
  8
DIM
  6
ByBlock
 62
    8
370
   -2
100
AcDbTrace
 10
2707.444324852179
 20
-12526.73032060422
 30
0
 11
2907.444324852179
 21
-12493.42754798239
 31
0
 12
2907.444324852179
 22
-12560.03309322605
 32
0
 13
2907.444324852179
 23
-12560.03309322605
 33
0
  0
SOLID
  5
1EC
100
AcDbEntity
  8
DIM
  6
ByBlock
 62
    8
370
   -2
100
AcDbTrace
 10
3852.444324852178
 20
-12526.73032060422
 30
0
 11
3652.444324852178
 21
-12560.03309322605
 31
0
 12
3652.444324852178
 22
-12493.42754798239
 32
0
 13
3652.444324852178
 23
-12493.42754798239
 33
0
  0
LINE
  5
1ED
100
AcDbEntity
  8
DIM
  6
ByBlock
 62
    8
370
   -2
100
AcDbLine
 10
2707.444324852179
 20
-10026.73032060422
 11
2707.444324852179
 21
-12601.73032060422
  0
LINE
  5
1EE
100
AcDbEntity
  8
DIM
  6
ByBlock
 62
    8
370
   -2
100
AcDbLine
 10
3852.444324852178
 20
-9976.73032060422
 11
3852.444324852178
 21
-12601.73032060422
  0
ENDBLK
  5
CE
330
CC
100
AcDbEntity
  8
0
100
AcDbBlockEnd
  0
BLOCK
  5
D0
330
CF
100
AcDbEntity
  8
0
100
AcDbBlockBegin
  2
*D18
 70
    1
 10
0
 20
0
  3
*D18
  1

  0
LINE
  5
1EF
100
AcDbEntity
  8
DIM
  6
ByBlock
 62
    8
370
   -2
100
AcDbLine
 10
3602.444324852178
 20
2953.269679395781
 11
2.444324852179307
 21
2953.269679395781
  0
MTEXT
  5
1F0
100
AcDbEntity
  8
DIM
  6
CONTINUOUS
 62
    7
370
   -2
100
AcDbMText
 10
1802.444324852179
 20
3155.932017058119
 30
0
 40
200
 41
555.5555555555802
 71
    5
 72
    1
  1
3600
  7
Standard
210
0
220
0
230
1
 50
0
 73
    2
 44
1
  0
SOLID
  5
1F1
100
AcDbEntity
  8
DIM
  6
ByBlock
 62
    8
370
   -2
100
AcDbTrace
 10
3602.444324852178
 20
2953.269679395781
 30
0
 11
3402.444324852178
 21
2919.966906773954
 31
0
 12
3402.444324852178
 22
2986.572452017609
 32
0
 13
3402.444324852178
 23
2986.572452017609
 33
0
  0
SOLID
  5
1F2
100
AcDbEntity
  8
DIM
  6
ByBlock
 62
    8
370
   -2
100
AcDbTrace
 10
2.444324852179307
 20
2953.269679395781
 30
0
 11
202.4443248521793
 21
2986.572452017608
 31
0
 12
202.4443248521793
 22
2919.966906773954
 32
0
 13
202.4443248521793
 23
2919.966906773954
 33
0
  0
LINE
  5
1F3
100
AcDbEntity
  8
DIM
  6
ByBlock
 62
    8
370
   -2
100
AcDbLine
 10
3602.444324852179
 20
153.2696793957814
 11
3602.444324852178
 21
3028.269679395781
  0
LINE
  5
1F4
100
AcDbEntity
  8
DIM
  6
ByBlock
 62
    8
370
   -2
100
AcDbLine
 10
2.444324852179316
 20
153.2696793957812
 11
2.444324852179312
 21
3028.269679395781
  0
ENDBLK
  5
D1
330
CF
100
AcDbEntity
  8
0
100
AcDbBlockEnd
  0
BLOCK
  5
D3
330
D2
100
AcDbEntity
  8
0
100
AcDbBlockBegin
  2
*D14
 70
    1
 10
0
 20
0
  3
*D14
  1

  0
LINE
  5
1F5
100
AcDbEntity
  8
DIM
  6
ByBlock
 62
    8
370
   -2
100
AcDbLine
 10
1602.44432485218
 20
1753.269679395781
 11
712.4443248521791
 21
1753.269679395781
  0
MTEXT
  5
1F6
100
AcDbEntity
  8
DIM
  6
CONTINUOUS
 62
    7
370
   -2
100
AcDbMText
 10
1622.965248373116
 20
2283.594354720457
 30
0
 40
200
 41
244.4444444444692
 71
    5
 72
    1
  1
90
  7
Standard
210
0
220
0
230
1
 50
0
 73
    2
 44
1
  0
SOLID
  5
1F7
100
AcDbEntity
  8
DIM
  6
ByBlock
 62
    8
370
   -2
100
AcDbTrace
 10
1202.44432485218
 20
1753.269679395781
 30
0
 11
1402.44432485218
 21
1786.572452017608
 31
0
 12
1402.44432485218
 22
1719.966906773954
 32
0
 13
1402.44432485218
 23
1719.966906773954
 33
0
  0
SOLID
  5
1F8
100
AcDbEntity
  8
DIM
  6
ByBlock
 62
    8
370
   -2
100
AcDbTrace
 10
1112.444324852179
 20
1753.269679395781
 30
0
 11
912.4443248521791
 21
1719.966906773954
 31
0
 12
912.4443248521791
 22
1786.572452017608
 32
0
 13
912.4443248521791
 23
1786.572452017608
 33
0
  0
LINE
  5
1F9
100
AcDbEntity
  8
DIM
  6
ByBlock
 62
    8
370
   -2
100
AcDbLine
 10
1202.44432485218
 20
-3536.73032060422
 11
1202.44432485218
 21
1828.269679395781
  0
LINE
  5
1FA
100
AcDbEntity
  8
DIM
  6
ByBlock
 62
    8
370
   -2
100
AcDbLine
 10
1112.444324852179
 20
-2846.730320604219
 11
1112.444324852179
 21
1828.269679395781
  0
ENDBLK
  5
D4
330
D2
100
AcDbEntity
  8
0
100
AcDbBlockEnd
  0
BLOCK
  5
D6
330
D5
100
AcDbEntity
  8
0
100
AcDbBlockBegin
  2
*D38
 70
    1
 10
0
 20
0
  3
*D38
  1

  0
LINE
  5
1FB
100
AcDbEntity
  8
DIM
  6
ByBlock
 62
    8
370
   -2
100
AcDbLine
 10
2.444324852178852
 20
-11326.73032060422
 11
3602.444324852178
 21
-11326.73032060422
  0
MTEXT
  5
1FC
100
AcDbEntity
  8
DIM
  6
CONTINUOUS
 62
    7
370
   -2
100
AcDbMText
 10
1802.444324852178
 20
-11124.06798294188
 30
0
 40
200
 41
555.5555555555802
 71
    5
 72
    1
  1
3600
  7
Standard
210
0
220
0
230
1
 50
0
 73
    2
 44
1
  0
SOLID
  5
1FD
100
AcDbEntity
  8
DIM
  6
ByBlock
 62
    8
370
   -2
100
AcDbTrace
 10
2.444324852178852
 20
-11326.73032060422
 30
0
 11
202.4443248521789
 21
-11293.42754798239
 31
0
 12
202.4443248521789
 22
-11360.03309322605
 32
0
 13
202.4443248521789
 23
-11360.03309322605
 33
0
  0
SOLID
  5
1FE
100
AcDbEntity
  8
DIM
  6
ByBlock
 62
    8
370
   -2
100
AcDbTrace
 10
3602.444324852178
 20
-11326.73032060422
 30
0
 11
3402.444324852178
 21
-11360.03309322605
 31
0
 12
3402.444324852178
 22
-11293.42754798239
 32
0
 13
3402.444324852178
 23
-11293.42754798239
 33
0
  0
LINE
  5
1FF
100
AcDbEntity
  8
DIM
  6
ByBlock
 62
    8
370
   -2
100
AcDbLine
 10
2.44432485217837
 20
-9726.730320604218
 11
2.444324852178838
 21
-11401.73032060422
  0
LINE
  5
200
100
AcDbEntity
  8
DIM
  6
ByBlock
 62
    8
370
   -2
100
AcDbLine
 10
3602.444324852178
 20
-9726.73032060422
 11
3602.444324852178
 21
-11401.73032060422
  0
ENDBLK
  5
D7
330
D5
100
AcDbEntity
  8
0
100
AcDbBlockEnd
  0
BLOCK
  5
D9
330
D8
100
AcDbEntity
  8
0
100
AcDbBlockBegin
  2
*D49
 70
    1
 10
0
 20
0
  3
*D49
  1

  0
LINE
  5
201
100
AcDbEntity
  8
DIM
  6
ByBlock
 62
    8
370
   -2
100
AcDbLine
 10
-6537.555675147822
 20
-13726.73032060422
 11
3852.444324852178
 21
-13726.73032060422
  0
MTEXT
  5
202
100
AcDbEntity
  8
DIM
  6
CONTINUOUS
 62
    7
370
   -2
100
AcDbMText
 10
-1342.555675147822
 20
-13524.06798294188
 30
0
 40
200
 41
666.6666666666913
 71
    5
 72
    1
  1
10390
  7
Standard
210
0
220
0
230
1
 50
0
 73
    2
 44
1
  0
SOLID
  5
203
100
AcDbEntity
  8
DIM
  6
ByBlock
 62
    8
370
   -2
100
AcDbTrace
 10
-6537.555675147822
 20
-13726.73032060422
 30
0
 11
-6337.555675147822
 21
-13693.42754798239
 31
0
 12
-6337.555675147822
 22
-13760.03309322605
 32
0
 13
-6337.555675147822
 23
-13760.03309322605
 33
0
  0
SOLID
  5
204
100
AcDbEntity
  8
DIM
  6
ByBlock
 62
    8
370
   -2
100
AcDbTrace
 10
3852.444324852178
 20
-13726.73032060422
 30
0
 11
3652.444324852178
 21
-13760.03309322605
 31
0
 12
3652.444324852178
 22
-13693.42754798239
 32
0
 13
3652.444324852178
 23
-13693.42754798239
 33
0
  0
LINE
  5
205
100
AcDbEntity
  8
DIM
  6
ByBlock
 62
    8
370
   -2
100
AcDbLine
 10
-6537.555675147822
 20
-9976.73032060422
 11
-6537.555675147822
 21
-13801.73032060422
  0
LINE
  5
206
100
AcDbEntity
  8
DIM
  6
ByBlock
 62
    8
370
   -2
100
AcDbLine
 10
3852.444324852178
 20
-9976.73032060422
 11
3852.444324852178
 21
-13801.73032060422
  0
ENDBLK
  5
DA
330
D8
100
AcDbEntity
  8
0
100
AcDbBlockEnd
  0
BLOCK
  5
DC
330
DB
100
AcDbEntity
  8
0
100
AcDbBlockBegin
  2
*D47
 70
    1
 10
0
 20
0
  3
*D47
  1

  0
LINE
  5
207
100
AcDbEntity
  8
DIM
  6
ByBlock
 62
    8
370
   -2
100
AcDbLine
 10
897.4443248521795
 20
-12526.73032060422
 11
2707.444324852179
 21
-12526.73032060422
  0
MTEXT
  5
208
100
AcDbEntity
  8
DIM
  6
CONTINUOUS
 62
    7
370
   -2
100
AcDbMText
 10
1802.444324852179
 20
-12324.06798294188
 30
0
 40
200
 41
466.6666666666666
 71
    5
 72
    1
  1
1810
  7
Standard
210
0
220
0
230
1
 50
0
 73
    2
 44
1
  0
SOLID
  5
209
100
AcDbEntity
  8
DIM
  6
ByBlock
 62
    8
370
   -2
100
AcDbTrace
 10
897.4443248521795
 20
-12526.73032060422
 30
0
 11
1097.44432485218
 21
-12493.42754798239
 31
0
 12
1097.44432485218
 22
-12560.03309322605
 32
0
 13
1097.44432485218
 23
-12560.03309322605
 33
0
  0
SOLID
  5
20A
100
AcDbEntity
  8
DIM
  6
ByBlock
 62
    8
370
   -2
100
AcDbTrace
 10
2707.444324852179
 20
-12526.73032060422
 30
0
 11
2507.444324852179
 21
-12560.03309322605
 31
0
 12
2507.444324852179
 22
-12493.42754798239
 32
0
 13
2507.444324852179
 23
-12493.42754798239
 33
0
  0
LINE
  5
20B
100
AcDbEntity
  8
DIM
  6
ByBlock
 62
    8
370
   -2
100
AcDbLine
 10
897.4443248521793
 20
-10026.73032060422
 11
897.4443248521795
 21
-12601.73032060422
  0
LINE
  5
20C
100
AcDbEntity
  8
DIM
  6
ByBlock
 62
    8
370
   -2
100
AcDbLine
 10
2707.444324852179
 20
-10026.73032060422
 11
2707.444324852179
 21
-12601.73032060422
  0
ENDBLK
  5
DD
330
DB
100
AcDbEntity
  8
0
100
AcDbBlockEnd
  0
BLOCK
  5
DF
330
DE
100
AcDbEntity
  8
0
100
AcDbBlockBegin
  2
*D13
 70
    1
 10
0
 20
0
  3
*D13
  1

  0
LINE
  5
20D
100
AcDbEntity
  8
DIM
  6
ByBlock
 62
    8
370
   -2
100
AcDbLine
 10
3602.444324852179
 20
1753.269679395781
 11
1202.44432485218
 21
1753.269679395781
  0
MTEXT
  5
20E
100
AcDbEntity
  8
DIM
  6
CONTINUOUS
 62
    7
370
   -2
100
AcDbMText
 10
2402.44432485218
 20
1753.269679395781
 30
0
 40
200
 41
1666.666666666667
 71
    5
 72
    1
  1
2400\XBATH
  7
Standard
210
0
220
0
230
1
 50
0
 73
    2
 44
1
  0
SOLID
  5
20F
100
AcDbEntity
  8
DIM
  6
ByBlock
 62
    8
370
   -2
100
AcDbTrace
 10
3602.444324852179
 20
1753.269679395781
 30
0
 11
3402.444324852179
 21
1719.966906773954
 31
0
 12
3402.444324852179
 22
1786.572452017608
 32
0
 13
3402.444324852179
 23
1786.572452017608
 33
0
  0
SOLID
  5
210
100
AcDbEntity
  8
DIM
  6
ByBlock
 62
    8
370
   -2
100
AcDbTrace
 10
1202.44432485218
 20
1753.269679395781
 30
0
 11
1402.44432485218
 21
1786.572452017608
 31
0
 12
1402.44432485218
 22
1719.966906773954
 32
0
 13
1402.44432485218
 23
1719.966906773954
 33
0
  0
LINE
  5
211
100
AcDbEntity
  8
DIM
  6
ByBlock
 62
    8
370
   -2
100
AcDbLine
 10
3602.444324852179
 20
153.2696793957814
 11
3602.444324852179
 21
1828.269679395781
  0
LINE
  5
212
100
AcDbEntity
  8
DIM
  6
ByBlock
 62
    8
370
   -2
100
AcDbLine
 10
1202.44432485218
 20
-3536.73032060422
 11
1202.44432485218
 21
1828.269679395781
  0
ENDBLK
  5
E0
330
DE
100
AcDbEntity
  8
0
100
AcDbBlockEnd
  0
BLOCK
  5
E2
330
E1
100
AcDbEntity
  8
0
100
AcDbBlockBegin
  2
*D19
 70
    1
 10
0
 20
0
  3
*D19
  1

  0
LINE
  5
213
100
AcDbEntity
  8
DIM
  6
ByBlock
 62
    8
370
   -2
100
AcDbLine
 10
402.4443248521793
 20
2953.269679395781
 11
-487.5556751478207
 21
2953.269679395781
  0
MTEXT
  5
214
100
AcDbEntity
  8
DIM
  6
CONTINUOUS
 62
    7
370
   -2
100
AcDbMText
 10
422.9652483731154
 20
3483.594354720456
 30
0
 40
200
 41
244.4444444444692
 71
    5
 72
    1
  1
90
  7
Standard
210
0
220
0
230
1
 50
0
 73
    2
 44
1
  0
SOLID
  5
215
100
AcDbEntity
  8
DIM
  6
ByBlock
 62
    8
370
   -2
100
AcDbTrace
 10
2.444324852179307
 20
2953.269679395781
 30
0
 11
202.4443248521793
 21
2986.572452017608
 31
0
 12
202.4443248521793
 22
2919.966906773954
 32
0
 13
202.4443248521793
 23
2919.966906773954
 33
0
  0
SOLID
  5
216
100
AcDbEntity
  8
DIM
  6
ByBlock
 62
    8
370
   -2
100
AcDbTrace
 10
-87.55567514782069
 20
2953.269679395781
 30
0
 11
-287.5556751478207
 21
2919.966906773954
 31
0
 12
-287.5556751478207
 22
2986.572452017609
 32
0
 13
-287.5556751478207
 23
2986.572452017609
 33
0
  0
LINE
  5
217
100
AcDbEntity
  8
DIM
  6
ByBlock
 62
    8
370
   -2
100
AcDbLine
 10
2.444324852179316
 20
153.2696793957812
 11
2.444324852179311
 21
3028.269679395781
  0
LINE
  5
218
100
AcDbEntity
  8
DIM
  6
ByBlock
 62
    8
370
   -2
100
AcDbLine
 10
-87.55567514782068
 20
153.2696793957812
 11
-87.55567514782069
 21
3028.269679395781
  0
ENDBLK
  5
E3
330
E1
100
AcDbEntity
  8
0
100
AcDbBlockEnd
  0
BLOCK
  5
E5
330
E4
100
AcDbEntity
  8
0
100
AcDbBlockBegin
  2
BLOCK_DOOR
 70
    0
 10
0
 20
0
  3
BLOCK_DOOR
  1

  0
LWPOLYLINE
  5
219
100
AcDbEntity
  8
0
  6
ByLayer
 62
    0
370
   -1
100
AcDbPolyline
 90
    4
 70
    1
 43
0
 10
75
 20
0
 10
75
 20
820
 10
40
 20
820
 10
40
 20
0
  0
ARC
  5
21A
100
AcDbEntity
  8
0
  6
ByLayer
 62
    0
370
   -1
100
AcDbCircle
 10
40
 20
0
 40
820.0000000000146
100
AcDbArc
 50
0
 51
87.55370526209052
  0
LWPOLYLINE
  5
21B
100
AcDbEntity
  8
0
  6
ByLayer
 62
    0
370
   -1
100
AcDbPolyline
 90
    4
 70
    1
 43
0
 10
0
 20
-90
 10
40
 20
-90
 10
40
 20
0
 10
0
 20
0
  0
LWPOLYLINE
  5
21C
100
AcDbEntity
  8
0
  6
ByLayer
 62
    0
370
   -1
100
AcDbPolyline
 90
    4
 70
    1
 43
0
 10
860
 20
-90
 10
900
 20
-90
 10
900
 20
0
 10
860
 20
0
  0
LWPOLYLINE
  5
21D
100
AcDbEntity
  8
DOORS
  6
ByLayer
 62
    1
370
   -1
100
AcDbPolyline
 90
    4
 70
    1
 43
0
 10
0
 20
-75
 10
40
 20
-75
 10
40
 20
0
 10
0
 20
0
  0
LWPOLYLINE
  5
21E
100
AcDbEntity
  8
DOORS
  6
ByLayer
 62
    1
370
   -1
100
AcDbPolyline
 90
    4
 70
    1
 43
0
 10
860
 20
-75
 10
900
 20
-75
 10
900
 20
0
 10
860
 20
0
  0
LWPOLYLINE
  5
21F
100
AcDbEntity
  8
DOORS
  6
ByLayer
 62
    1
370
   -1
100
AcDbPolyline
 90
    4
 70
    1
 43
0
 10
0
 20
-70
 10
40
 20
-70
 10
40
 20
0
 10
0
 20
0
  0
LWPOLYLINE
  5
220
100
AcDbEntity
  8
DOORS
  6
ByLayer
 62
    1
370
   -1
100
AcDbPolyline
 90
    4
 70
    1
 43
0
 10
860
 20
-70
 10
900
 20
-70
 10
900
 20
0
 10
860
 20
0
  0
ENDBLK
  5
E6
330
E4
100
AcDbEntity
  8
0
100
AcDbBlockEnd
  0
BLOCK
  5
E8
330
E7
100
AcDbEntity
  8
0
100
AcDbBlockBegin
  2
BLOCK_WINDOW_1
 70
    0
 10
0
 20
0
  3
BLOCK_WINDOW_1
  1

  0
LINE
  5
221
100
AcDbEntity
  8
0
  6
ByBlock
 62
    0
370
   -1
100
AcDbLine
 10
0
 20
0
 11
610
 21
0
  0
LINE
  5
222
100
AcDbEntity
  8
0
  6
ByBlock
 62
    0
370
   -1
100
AcDbLine
 10
0
 20
0
 11
0
 21
300
  0
LINE
  5
223
100
AcDbEntity
  8
0
  6
ByBlock
 62
    0
370
   -1
100
AcDbLine
 10
610
 20
0
 11
610
 21
300
  0
LINE
  5
224
100
AcDbEntity
  8
0
  6
ByBlock
 62
    0
370
   -1
100
AcDbLine
 10
635
 20
275
 11
-25
 21
275
  0
LINE
  5
225
100
AcDbEntity
  8
0
  6
ByBlock
 62
    0
370
   -1
100
AcDbLine
 10
0
 20
0
 11
0
 21
300
  0
LINE
  5
226
100
AcDbEntity
  8
0
  6
ByBlock
 62
    0
370
   -1
100
AcDbLine
 10
0
 20
0
 11
0
 21
300
  0
LINE
  5
227
100
AcDbEntity
  8
0
  6
ByBlock
 62
    0
370
   -1
100
AcDbLine
 10
0
 20
0
 11
0
 21
300
  0
LINE
  5
228
100
AcDbEntity
  8
0
  6
ByBlock
 62
    0
370
   -1
100
AcDbLine
 10
0
 20
0
 11
0
 21
300
  0
LINE
  5
229
100
AcDbEntity
  8
0
  6
ByBlock
 62
    0
370
   -1
100
AcDbLine
 10
0
 20
0
 11
910
 21
0
  0
LINE
  5
22A
100
AcDbEntity
  8
0
  6
ByBlock
 62
    0
370
   -1
100
AcDbLine
 10
0
 20
0
 11
0
 21
300
  0
LINE
  5
22B
100
AcDbEntity
  8
0
  6
ByBlock
 62
    0
370
   -1
100
AcDbLine
 10
910
 20
0
 11
910
 21
300
  0
LINE
  5
22C
100
AcDbEntity
  8
0
  6
ByBlock
 62
    0
370
   -1
100
AcDbLine
 10
935
 20
275
 11
-25
 21
275
  0
LINE
  5
22D
100
AcDbEntity
  8
0
  6
ByBlock
 62
    0
370
   -1
100
AcDbLine
 10
0
 20
0
 11
1210
 21
0
  0
LINE
  5
22E
100
AcDbEntity
  8
0
  6
ByBlock
 62
    0
370
   -1
100
AcDbLine
 10
0
 20
0
 11
0
 21
300
  0
LINE
  5
22F
100
AcDbEntity
  8
0
  6
ByBlock
 62
    0
370
   -1
100
AcDbLine
 10
1210
 20
0
 11
1210
 21
300
  0
LINE
  5
230
100
AcDbEntity
  8
0
  6
ByBlock
 62
    0
370
   -1
100
AcDbLine
 10
1235
 20
275
 11
-25
 21
275
  0
LINE
  5
231
100
AcDbEntity
  8
0
  6
ByBlock
 62
    0
370
   -1
100
AcDbLine
 10
0
 20
0
 11
1510
 21
0
  0
LINE
  5
232
100
AcDbEntity
  8
0
  6
ByBlock
 62
    0
370
   -1
100
AcDbLine
 10
0
 20
0
 11
0
 21
300
  0
LINE
  5
233
100
AcDbEntity
  8
0
  6
ByBlock
 62
    0
370
   -1
100
AcDbLine
 10
1510
 20
0
 11
1510
 21
300
  0
LINE
  5
234
100
AcDbEntity
  8
0
  6
ByBlock
 62
    0
370
   -1
100
AcDbLine
 10
1535
 20
275
 11
-25
 21
275
  0
LINE
  5
235
100
AcDbEntity
  8
0
  6
ByBlock
 62
    0
370
   -1
100
AcDbLine
 10
0
 20
0
 11
1810
 21
0
  0
LINE
  5
236
100
AcDbEntity
  8
0
  6
ByBlock
 62
    0
370
   -1
100
AcDbLine
 10
0
 20
0
 11
0
 21
300
  0
LINE
  5
237
100
AcDbEntity
  8
0
  6
ByBlock
 62
    0
370
   -1
100
AcDbLine
 10
1810
 20
0
 11
1810
 21
300
  0
LINE
  5
238
100
AcDbEntity
  8
0
  6
ByBlock
 62
    0
370
   -1
100
AcDbLine
 10
1835
 20
275
 11
-25
 21
275
  0
ENDBLK
  5
E9
330
E7
100
AcDbEntity
  8
0
100
AcDbBlockEnd
  0
BLOCK
  5
EB
330
EA
100
AcDbEntity
  8
0
100
AcDbBlockBegin
  2
BLOCK_WINDOW_2
 70
    0
 10
0
 20
0
  3
BLOCK_WINDOW_2
  1

  0
LINE
  5
239
100
AcDbEntity
  8
0
  6
ByBlock
 62
    0
370
   -1
100
AcDbLine
 10
0
 20
0
 11
610
 21
0
  0
LINE
  5
23A
100
AcDbEntity
  8
0
  6
ByBlock
 62
    0
370
   -1
100
AcDbLine
 10
0
 20
0
 11
0
 21
300
  0
LINE
  5
23B
100
AcDbEntity
  8
0
  6
ByBlock
 62
    0
370
   -1
100
AcDbLine
 10
610
 20
0
 11
610
 21
300
  0
LINE
  5
23C
100
AcDbEntity
  8
0
  6
ByBlock
 62
    0
370
   -1
100
AcDbLine
 10
635
 20
275
 11
-25
 21
275
  0
LINE
  5
23D
100
AcDbEntity
  8
0
  6
ByBlock
 62
    0
370
   -1
100
AcDbLine
 10
0
 20
0
 11
0
 21
300
  0
LINE
  5
23E
100
AcDbEntity
  8
0
  6
ByBlock
 62
    0
370
   -1
100
AcDbLine
 10
0
 20
0
 11
0
 21
300
  0
LINE
  5
23F
100
AcDbEntity
  8
0
  6
ByBlock
 62
    0
370
   -1
100
AcDbLine
 10
0
 20
0
 11
0
 21
300
  0
LINE
  5
240
100
AcDbEntity
  8
0
  6
ByBlock
 62
    0
370
   -1
100
AcDbLine
 10
0
 20
0
 11
0
 21
300
  0
LINE
  5
241
100
AcDbEntity
  8
0
  6
ByBlock
 62
    0
370
   -1
100
AcDbLine
 10
0
 20
0
 11
0
 21
300
  0
LINE
  5
242
100
AcDbEntity
  8
0
  6
ByBlock
 62
    0
370
   -1
100
AcDbLine
 10
0
 20
0
 11
0
 21
300
  0
LINE
  5
243
100
AcDbEntity
  8
0
  6
ByBlock
 62
    0
370
   -1
100
AcDbLine
 10
0
 20
0
 11
0
 21
300
  0
LINE
  5
244
100
AcDbEntity
  8
0
  6
ByBlock
 62
    0
370
   -1
100
AcDbLine
 10
0
 20
0
 11
0
 21
300
  0
ENDBLK
  5
EC
330
EA
100
AcDbEntity
  8
0
100
AcDbBlockEnd
  0
BLOCK
  5
EE
330
ED
100
AcDbEntity
  8
0
100
AcDbBlockBegin
  2
BLOCK_WINDOW_3
 70
    0
 10
0
 20
0
  3
BLOCK_WINDOW_3
  1

  0
LINE
  5
245
100
AcDbEntity
  8
0
  6
ByBlock
 62
    0
370
   -1
100
AcDbLine
 10
0
 20
0
 11
610
 21
0
  0
LINE
  5
246
100
AcDbEntity
  8
0
  6
ByBlock
 62
    0
370
   -1
100
AcDbLine
 10
0
 20
0
 11
0
 21
300
  0
LINE
  5
247
100
AcDbEntity
  8
0
  6
ByBlock
 62
    0
370
   -1
100
AcDbLine
 10
610
 20
0
 11
610
 21
300
  0
LINE
  5
248
100
AcDbEntity
  8
0
  6
ByBlock
 62
    0
370
   -1
100
AcDbLine
 10
635
 20
275
 11
-25
 21
275
  0
LINE
  5
249
100
AcDbEntity
  8
0
  6
ByBlock
 62
    0
370
   -1
100
AcDbLine
 10
0
 20
0
 11
2110
 21
0
  0
LINE
  5
24A
100
AcDbEntity
  8
0
  6
ByBlock
 62
    0
370
   -1
100
AcDbLine
 10
0
 20
0
 11
0
 21
300
  0
LINE
  5
24B
100
AcDbEntity
  8
0
  6
ByBlock
 62
    0
370
   -1
100
AcDbLine
 10
2110
 20
0
 11
2110
 21
300
  0
LINE
  5
24C
100
AcDbEntity
  8
0
  6
ByBlock
 62
    0
370
   -1
100
AcDbLine
 10
2135
 20
275
 11
-25
 21
275
  0
LINE
  5
24D
100
AcDbEntity
  8
0
  6
ByBlock
 62
    0
370
   -1
100
AcDbLine
 10
0
 20
0
 11
2410
 21
0
  0
LINE
  5
24E
100
AcDbEntity
  8
0
  6
ByBlock
 62
    0
370
   -1
100
AcDbLine
 10
0
 20
0
 11
0
 21
300
  0
LINE
  5
24F
100
AcDbEntity
  8
0
  6
ByBlock
 62
    0
370
   -1
100
AcDbLine
 10
2410
 20
0
 11
2410
 21
300
  0
LINE
  5
250
100
AcDbEntity
  8
0
  6
ByBlock
 62
    0
370
   -1
100
AcDbLine
 10
2435
 20
275
 11
-25
 21
275
  0
LINE
  5
251
100
AcDbEntity
  8
0
  6
ByBlock
 62
    0
370
   -1
100
AcDbLine
 10
0
 20
0
 11
2710
 21
0
  0
LINE
  5
252
100
AcDbEntity
  8
0
  6
ByBlock
 62
    0
370
   -1
100
AcDbLine
 10
0
 20
0
 11
0
 21
300
  0
LINE
  5
253
100
AcDbEntity
  8
0
  6
ByBlock
 62
    0
370
   -1
100
AcDbLine
 10
2710
 20
0
 11
2710
 21
300
  0
LINE
  5
254
100
AcDbEntity
  8
0
  6
ByBlock
 62
    0
370
   -1
100
AcDbLine
 10
2735
 20
275
 11
-25
 21
275
  0
LINE
  5
255
100
AcDbEntity
  8
0
  6
ByBlock
 62
    0
370
   -1
100
AcDbLine
 10
0
 20
0
 11
0
 21
300
  0
LINE
  5
256
100
AcDbEntity
  8
0
  6
ByBlock
 62
    0
370
   -1
100
AcDbLine
 10
0
 20
0
 11
910
 21
0
  0
LINE
  5
257
100
AcDbEntity
  8
0
  6
ByBlock
 62
    0
370
   -1
100
AcDbLine
 10
0
 20
0
 11
0
 21
300
  0
LINE
  5
258
100
AcDbEntity
  8
0
  6
ByBlock
 62
    0
370
   -1
100
AcDbLine
 10
910
 20
0
 11
910
 21
300
  0
LINE
  5
259
100
AcDbEntity
  8
0
  6
ByBlock
 62
    0
370
   -1
100
AcDbLine
 10
935
 20
275
 11
-25
 21
275
  0
LINE
  5
25A
100
AcDbEntity
  8
0
  6
ByBlock
 62
    0
370
   -1
100
AcDbLine
 10
0
 20
0
 11
1210
 21
0
  0
LINE
  5
25B
100
AcDbEntity
  8
0
  6
ByBlock
 62
    0
370
   -1
100
AcDbLine
 10
0
 20
0
 11
0
 21
300
  0
LINE
  5
25C
100
AcDbEntity
  8
0
  6
ByBlock
 62
    0
370
   -1
100
AcDbLine
 10
1210
 20
0
 11
1210
 21
300
  0
LINE
  5
25D
100
AcDbEntity
  8
0
  6
ByBlock
 62
    0
370
   -1
100
AcDbLine
 10
1235
 20
275
 11
-25
 21
275
  0
LINE
  5
25E
100
AcDbEntity
  8
0
  6
ByBlock
 62
    0
370
   -1
100
AcDbLine
 10
0
 20
0
 11
1510
 21
0
  0
LINE
  5
25F
100
AcDbEntity
  8
0
  6
ByBlock
 62
    0
370
   -1
100
AcDbLine
 10
0
 20
0
 11
0
 21
300
  0
LINE
  5
260
100
AcDbEntity
  8
0
  6
ByBlock
 62
    0
370
   -1
100
AcDbLine
 10
1510
 20
0
 11
1510
 21
300
  0
LINE
  5
261
100
AcDbEntity
  8
0
  6
ByBlock
 62
    0
370
   -1
100
AcDbLine
 10
1535
 20
275
 11
-25
 21
275
  0
LINE
  5
262
100
AcDbEntity
  8
0
  6
ByBlock
 62
    0
370
   -1
100
AcDbLine
 10
0
 20
0
 11
1810
 21
0
  0
LINE
  5
263
100
AcDbEntity
  8
0
  6
ByBlock
 62
    0
370
   -1
100
AcDbLine
 10
0
 20
0
 11
0
 21
300
  0
LINE
  5
264
100
AcDbEntity
  8
0
  6
ByBlock
 62
    0
370
   -1
100
AcDbLine
 10
1810
 20
0
 11
1810
 21
300
  0
LINE
  5
265
100
AcDbEntity
  8
0
  6
ByBlock
 62
    0
370
   -1
100
AcDbLine
 10
1835
 20
275
 11
-25
 21
275
  0
ENDBLK
  5
EF
330
ED
100
AcDbEntity
  8
0
100
AcDbBlockEnd
  0
BLOCK
  5
F1
330
F0
100
AcDbEntity
  8
0
100
AcDbBlockBegin
  2
BLOCK_WINDOW_4
 70
    0
 10
0
 20
0
  3
BLOCK_WINDOW_4
  1

  0
LINE
  5
266
100
AcDbEntity
  8
0
  6
ByBlock
 62
    0
370
   -1
100
AcDbLine
 10
0
 20
0
 11
610
 21
0
  0
LINE
  5
267
100
AcDbEntity
  8
0
  6
ByBlock
 62
    0
370
   -1
100
AcDbLine
 10
0
 20
0
 11
0
 21
300
  0
LINE
  5
268
100
AcDbEntity
  8
0
  6
ByBlock
 62
    0
370
   -1
100
AcDbLine
 10
610
 20
0
 11
610
 21
300
  0
LINE
  5
269
100
AcDbEntity
  8
0
  6
ByBlock
 62
    0
370
   -1
100
AcDbLine
 10
635
 20
275
 11
-25
 21
275
  0
LINE
  5
26A
100
AcDbEntity
  8
0
  6
ByBlock
 62
    0
370
   -1
100
AcDbLine
 10
0
 20
0
 11
0
 21
300
  0
LINE
  5
26B
100
AcDbEntity
  8
0
  6
ByBlock
 62
    0
370
   -1
100
AcDbLine
 10
0
 20
0
 11
0
 21
300
  0
LINE
  5
26C
100
AcDbEntity
  8
0
  6
ByBlock
 62
    0
370
   -1
100
AcDbLine
 10
0
 20
0
 11
0
 21
300
  0
LINE
  5
26D
100
AcDbEntity
  8
0
  6
ByBlock
 62
    0
370
   -1
100
AcDbLine
 10
0
 20
0
 11
0
 21
300
  0
LINE
  5
26E
100
AcDbEntity
  8
0
  6
ByBlock
 62
    0
370
   -1
100
AcDbLine
 10
0
 20
0
 11
910
 21
0
  0
LINE
  5
26F
100
AcDbEntity
  8
0
  6
ByBlock
 62
    0
370
   -1
100
AcDbLine
 10
0
 20
0
 11
0
 21
300
  0
LINE
  5
270
100
AcDbEntity
  8
0
  6
ByBlock
 62
    0
370
   -1
100
AcDbLine
 10
910
 20
0
 11
910
 21
300
  0
LINE
  5
271
100
AcDbEntity
  8
0
  6
ByBlock
 62
    0
370
   -1
100
AcDbLine
 10
935
 20
275
 11
-25
 21
275
  0
LINE
  5
272
100
AcDbEntity
  8
0
  6
ByBlock
 62
    0
370
   -1
100
AcDbLine
 10
0
 20
0
 11
1210
 21
0
  0
LINE
  5
273
100
AcDbEntity
  8
0
  6
ByBlock
 62
    0
370
   -1
100
AcDbLine
 10
0
 20
0
 11
0
 21
300
  0
LINE
  5
274
100
AcDbEntity
  8
0
  6
ByBlock
 62
    0
370
   -1
100
AcDbLine
 10
1210
 20
0
 11
1210
 21
300
  0
LINE
  5
275
100
AcDbEntity
  8
0
  6
ByBlock
 62
    0
370
   -1
100
AcDbLine
 10
1235
 20
275
 11
-25
 21
275
  0
LINE
  5
276
100
AcDbEntity
  8
0
  6
ByBlock
 62
    0
370
   -1
100
AcDbLine
 10
0
 20
0
 11
0
 21
300
  0
LINE
  5
277
100
AcDbEntity
  8
0
  6
ByBlock
 62
    0
370
   -1
100
AcDbLine
 10
0
 20
0
 11
0
 21
300
  0
ENDBLK
  5
F2
330
F0
100
AcDbEntity
  8
0
100
AcDbBlockEnd
  0
ENDSEC
  0
SECTION
  2
ENTITIES
  0
LINE
  5
278
100
AcDbEntity
  8
WALLS
  6
ByLayer
 62
  256
370
   -1
100
AcDbLine
 10
2.444324852179307
 20
3.269679395781395
 11
897.4443248521793
 21
3.269679395781395
  0
LINE
  5
279
100
AcDbEntity
  8
WALLS
  6
ByLayer
 62
  256
370
   -1
100
AcDbLine
 10
3602.444324852179
 20
3.269679395781395
 11
3602.444324852179
 21
-3596.730320604219
  0
LINE
  5
27A
100
AcDbEntity
  8
WALLS
  6
ByLayer
 62
  256
370
   -1
100
AcDbLine
 10
3602.444324852179
 20
-3596.730320604219
 11
1202.44432485218
 21
-3596.730320604219
  0
LINE
  5
27B
100
AcDbEntity
  8
WALLS
  6
ByLayer
 62
  256
370
   -1
100
AcDbLine
 10
2.444324852179761
 20
-3596.730320604219
 11
2.444324852179307
 21
3.269679395781395
  0
LINE
  5
27C
100
AcDbEntity
  8
WALLS
  6
ByLayer
 62
  256
370
   -1
100
AcDbLine
 10
3692.444324852179
 20
93.2696793957814
 11
3692.444324852179
 21
-4481.730320604219
  0
LINE
  5
27D
100
AcDbEntity
  8
WALLS
  6
ByLayer
 62
  256
370
   -1
100
AcDbLine
 10
-4377.555675147821
 20
93.2696793957814
 11
-3587.555675147821
 21
93.2696793957814
  0
LINE
  5
27E
100
AcDbEntity
  8
WALLS
  6
ByLayer
 62
  256
370
   -1
100
AcDbLine
 10
-87.55567514782022
 20
-3686.730320604219
 11
-87.55567514782069
 21
3.269679395781168
  0
LINE
  5
27F
100
AcDbEntity
  8
WALLS
  6
ByLayer
 62
  256
370
   -1
100
AcDbLine
 10
-4287.55567514782
 20
-3686.73032060422
 11
-4287.55567514782
 21
-3236.73032060422
  0
LINE
  5
280
100
AcDbEntity
  8
WALLS
  6
ByLayer
 62
  256
370
   -1
100
AcDbLine
 10
-4287.555675147821
 20
3.269679395781395
 11
-3587.555675147821
 21
3.269679395781395
  0
LINE
  5
281
100
AcDbEntity
  8
WALLS
  6
ByLayer
 62
  256
370
   -1
100
AcDbLine
 10
-4377.55567514782
 20
-3596.73032060422
 11
-4377.555675147821
 21
-3236.73032060422
  0
LINE
  5
282
100
AcDbEntity
  8
WALLS
  6
ByLayer
 62
  256
370
   -1
100
AcDbLine
 10
3602.444324852179
 20
-3686.730320604219
 11
1202.44432485218
 21
-3686.730320604219
  0
LINE
  5
283
100
AcDbEntity
  8
WALLS
  6
ByLayer
 62
  256
370
   -1
100
AcDbLine
 10
3602.444324852179
 20
-3686.730320604219
 11
3602.444324852179
 21
-4481.730320604218
  0
LINE
  5
284
100
AcDbEntity
  8
WALLS
  6
ByLayer
 62
  256
370
   -1
100
AcDbLine
 10
1202.44432485218
 20
-2996.730320604219
 11
1112.444324852179
 21
-2996.730320604219
  0
LINE
  5
285
100
AcDbEntity
  8
WALLS
  6
ByLayer
 62
  256
370
   -1
100
AcDbLine
 10
1112.44432485218
 20
-3596.730320604219
 11
1112.44432485218
 21
-2996.730320604219
  0
LINE
  5
286
100
AcDbEntity
  8
WALLS
  6
ByLayer
 62
  256
370
   -1
100
AcDbLine
 10
1202.44432485218
 20
-3596.730320604219
 11
1202.44432485218
 21
-2996.730320604219
  0
LINE
  5
287
100
AcDbEntity
  8
WALLS
  6
ByLayer
 62
  256
370
   -1
100
AcDbLine
 10
1112.44432485218
 20
-3596.730320604219
 11
962.4443248521798
 21
-3596.730320604219
  0
LINE
  5
288
100
AcDbEntity
  8
WALLS
  6
ByLayer
 62
  256
370
   -1
100
AcDbLine
 10
3602.444324852179
 20
-5886.730320604219
 11
1202.44432485218
 21
-5886.730320604219
  0
LINE
  5
289
100
AcDbEntity
  8
WALLS
  6
ByLayer
 62
  256
370
   -1
100
AcDbLine
 10
3602.444324852179
 20
-5976.730320604219
 11
1202.44432485218
 21
-5976.73032060422
  0
LINE
  5
28A
100
AcDbEntity
  8
WALLS
  6
ByLayer
 62
  256
370
   -1
100
AcDbLine
 10
3602.44432485218
 20
-5976.730320604219
 11
3602.444324852178
 21
-9576.73032060422
  0
LINE
  5
28B
100
AcDbEntity
  8
WALLS
  6
ByLayer
 62
  256
370
   -1
100
AcDbLine
 10
1112.44432485218
 20
-5886.730320604219
 11
1112.44432485218
 21
-5746.730320604219
  0
LINE
  5
28C
100
AcDbEntity
  8
WALLS
  6
ByLayer
 62
  256
370
   -1
100
AcDbLine
 10
1202.44432485218
 20
-5886.730320604219
 11
1202.44432485218
 21
-5746.730320604219
  0
LINE
  5
28D
100
AcDbEntity
  8
WALLS
  6
ByLayer
 62
  256
370
   -1
100
AcDbLine
 10
1112.44432485218
 20
-3686.730320604219
 11
962.4443248521798
 21
-3686.730320604219
  0
LINE
  5
28E
100
AcDbEntity
  8
WALLS
  6
ByLayer
 62
  256
370
   -1
100
AcDbLine
 10
1112.44432485218
 20
-5886.730320604219
 11
962.4443248521798
 21
-5886.730320604219
  0
LINE
  5
28F
100
AcDbEntity
  8
WALLS
  6
ByLayer
 62
  256
370
   -1
100
AcDbLine
 10
1202.44432485218
 20
-6576.730320604219
 11
1112.444324852179
 21
-6576.730320604219
  0
LINE
  5
290
100
AcDbEntity
  8
WALLS
  6
ByLayer
 62
  256
370
   -1
100
AcDbLine
 10
1112.44432485218
 20
-5976.730320604219
 11
1112.44432485218
 21
-6576.730320604219
  0
LINE
  5
291
100
AcDbEntity
  8
WALLS
  6
ByLayer
 62
  256
370
   -1
100
AcDbLine
 10
1202.44432485218
 20
-5976.730320604219
 11
1202.44432485218
 21
-6576.730320604219
  0
LINE
  5
292
100
AcDbEntity
  8
WALLS
  6
ByLayer
 62
  256
370
   -1
100
AcDbLine
 10
1112.44432485218
 20
-5976.73032060422
 11
962.4443248521798
 21
-5976.73032060422
  0
LINE
  5
293
100
AcDbEntity
  8
WALLS
  6
ByLayer
 62
  256
370
   -1
100
AcDbLine
 10
3602.444324852178
 20
-9576.73032060422
 11
2707.444324852179
 21
-9576.73032060422
  0
LINE
  5
294
100
AcDbEntity
  8
WALLS
  6
ByLayer
 62
  256
370
   -1
100
AcDbLine
 10
-6377.555675147822
 20
-9666.73032060422
 11
-5687.555675147822
 21
-9666.73032060422
  0
LINE
  5
295
100
AcDbEntity
  8
WALLS
  6
ByLayer
 62
  256
370
   -1
100
AcDbLine
 10
2.444324852179761
 20
-5976.730320604218
 11
2.444324852178397
 21
-9576.730320604218
  0
LINE
  5
296
100
AcDbEntity
  8
WALLS
  6
ByLayer
 62
  256
370
   -1
100
AcDbLine
 10
-87.55567514782021
 20
-5886.730320604219
 11
-87.5556751478216
 21
-9576.730320604218
  0
LINE
  5
297
100
AcDbEntity
  8
WALLS
  6
ByLayer
 62
  256
370
   -1
100
AcDbLine
 10
-87.5556751478216
 20
-9576.73032060422
 11
-287.5556751478216
 21
-9576.73032060422
  0
LINE
  5
298
100
AcDbEntity
  8
WALLS
  6
ByLayer
 62
  256
370
   -1
100
AcDbLine
 10
-6287.555675147819
 20
-3686.73032060422
 11
-6287.555675147821
 21
-5276.73032060422
  0
LINE
  5
299
100
AcDbEntity
  8
WALLS
  6
ByLayer
 62
  256
370
   -1
100
AcDbLine
 10
-6377.555675147822
 20
-9666.73032060422
 11
-6377.555675147823
 21
-7986.730320604221
  0
LINE
  5
29A
100
AcDbEntity
  8
WALLS
  6
ByLayer
 62
  256
370
   -1
100
AcDbLine
 10
-6287.555675147818
 20
-3686.73032060422
 11
-5947.555675147821
 21
-3686.73032060422
  0
LINE
  5
29B
100
AcDbEntity
  8
WALLS
  6
ByLayer
 62
  256
370
   -1
100
AcDbLine
 10
-6377.555675147823
 20
-3596.73032060422
 11
-5947.555675147821
 21
-3596.730320604219
  0
INSERT
  5
29C
100
AcDbEntity
  8
DOORS
  6
ByLayer
 62
  256
370
   -1
100
AcDbBlockReference
  2
BLOCK_DOOR
 10
-287.5556751478216
 20
-9656.73032060422
 30
0
 41
-1
 42
1
 43
0
 50
0
 70
    1
 71
    1
 44
0
 45
0
  0
LINE
  5
29D
100
AcDbEntity
  8
WALLS
  6
ByLayer
 62
  256
370
   -1
100
AcDbLine
 10
-287.5556751478216
 20
-9576.73032060422
 11
-287.5556751478216
 21
-9666.73032060422
  0
LINE
  5
29E
100
AcDbEntity
  8
WALLS
  6
ByLayer
 62
  256
370
   -1
100
AcDbLine
 10
-1187.555675147822
 20
-9576.73032060422
 11
-1187.555675147822
 21
-9666.73032060422
  0
LINE
  5
29F
100
AcDbEntity
  8
WALLS
  6
ByLayer
 62
  256
370
   -1
100
AcDbLine
 10
-1187.555675147822
 20
-9576.73032060422
 11
-1617.555675147821
 21
-9576.73032060422
  0
LINE
  5
2A0
100
AcDbEntity
  8
WALLS
  6
ByLayer
 62
  256
370
   -1
100
AcDbLine
 10
-287.5556751478216
 20
-9666.73032060422
 11
897.4443248521792
 21
-9666.73032060422
  0
INSERT
  5
2A1
100
AcDbEntity
  8
DOORS
  6
ByLayer
 62
  256
370
   -1
100
AcDbBlockReference
  2
BLOCK_DOOR
 10
-2687.555675147821
 20
173.2696793957814
 30
0
 41
-1
 42
1
 43
0
 50
0
 70
    1
 71
    1
 44
0
 45
0
  0
LINE
  5
2A2
100
AcDbEntity
  8
WALLS
  6
ByLayer
 62
  256
370
   -1
100
AcDbLine
 10
-3587.555675147821
 20
3.269679395781395
 11
-3587.555675147821
 21
93.26967939578233
  0
LINE
  5
2A3
100
AcDbEntity
  8
WALLS
  6
ByLayer
 62
  256
370
   -1
100
AcDbLine
 10
-2687.555675147821
 20
3.269679395781396
 11
-2687.555675147821
 21
93.26967939578233
  0
LINE
  5
2A4
100
AcDbEntity
  8
WALLS
  6
ByLayer
 62
  256
370
   -1
100
AcDbLine
 10
-2687.555675147821
 20
93.2696793957814
 11
897.4443248521792
 21
93.2696793957814
  0
LINE
  5
2A5
100
AcDbEntity
  8
WALLS
  6
ByLayer
 62
  256
370
   -1
100
AcDbLine
 10
-2687.55567514782
 20
3.269679395781395
 11
-87.55567514782069
 21
3.269679395781395
  0
INSERT
  5
2A6
100
AcDbEntity
  8
DOORS
  6
ByLayer
 62
  256
370
   -1
100
AcDbBlockReference
  2
BLOCK_DOOR
 10
102.4443248521798
 20
-3596.730320604219
 30
0
 41
1
 42
1
 43
0
 50
0
 70
    1
 71
    1
 44
0
 45
0
  0
LINE
  5
2A7
100
AcDbEntity
  8
WALLS
  6
ByLayer
 62
  256
370
   -1
100
AcDbLine
 10
142.4443248521798
 20
-3596.730320604219
 11
2.444324852179761
 21
-3596.730320604219
  0
LINE
  5
2A8
100
AcDbEntity
  8
WALLS
  6
ByLayer
 62
  256
370
   -1
100
AcDbLine
 10
142.4443248521798
 20
-3686.730320604219
 11
-87.55567514782024
 21
-3686.730320604219
  0
INSERT
  5
2A9
100
AcDbEntity
  8
DOORS
  6
ByLayer
 62
  256
370
   -1
100
AcDbBlockReference
  2
BLOCK_DOOR
 10
102.4443248521798
 20
-5976.730320604219
 30
0
 41
-1
 42
1
 43
0
 50
180
 70
    1
 71
    1
 44
0
 45
0
  0
LINE
  5
2AA
100
AcDbEntity
  8
WALLS
  6
ByLayer
 62
  256
370
   -1
100
AcDbLine
 10
142.4443248521798
 20
-5976.730320604219
 11
2.444324852179761
 21
-5976.730320604219
  0
LINE
  5
2AB
100
AcDbEntity
  8
WALLS
  6
ByLayer
 62
  256
370
   -1
100
AcDbLine
 10
142.4443248521798
 20
-5886.730320604219
 11
-87.55567514782024
 21
-5886.730320604219
  0
INSERT
  5
2AC
100
AcDbEntity
  8
DOORS
  6
ByLayer
 62
  256
370
   -1
100
AcDbBlockReference
  2
BLOCK_DOOR
 10
1202.44432485218
 20
-5786.730320604219
 30
0
 41
-1
 42
1
 43
0
 50
270
 70
    1
 71
    1
 44
0
 45
0
  0
LINE
  5
2AD
100
AcDbEntity
  8
WALLS
  6
ByLayer
 62
  256
370
   -1
100
AcDbLine
 10
1112.44432485218
 20
-4926.730320604219
 11
1112.44432485218
 21
-3686.730320604219
  0
LINE
  5
2AE
100
AcDbEntity
  8
WALLS
  6
ByLayer
 62
  256
370
   -1
100
AcDbLine
 10
1202.44432485218
 20
-4926.730320604219
 11
1202.44432485218
 21
-3686.730320604219
  0
INSERT
  5
2AF
100
AcDbEntity
  8
WINDOWS
  6
ByLayer
 62
  256
370
   -1
100
AcDbBlockReference
  2
BLOCK_WINDOW_1
 10
897.4443248521793
 20
3.269679395782077
 30
0
 41
1
 42
1
 43
0
 50
0
 70
    1
 71
    1
 44
0
 45
0
  0
INSERT
  5
2B0
100
AcDbEntity
  8
WINDOWS
  6
ByLayer
 62
  256
370
   -1
100
AcDbBlockReference
  2
BLOCK_WINDOW_1
 10
897.4443248521793
 20
-9576.73032060422
 30
0
 41
-1
 42
1
 43
0
 50
180
 70
    1
 71
    1
 44
0
 45
0
  0
LINE
  5
2B1
100
AcDbEntity
  8
WALLS
  6
ByLayer
 62
  256
370
   -1
100
AcDbLine
 10
897.4443248521793
 20
-9576.73032060422
 11
2.444324852178398
 21
-9576.73032060422
  0
LINE
  5
2B2
100
AcDbEntity
  8
WALLS
  6
ByLayer
 62
  256
370
   -1
100
AcDbLine
 10
2707.444324852179
 20
-9666.73032060422
 11
3692.444324852178
 21
-9666.73032060422
  0
LINE
  5
2B3
100
AcDbEntity
  8
WALLS
  6
ByLayer
 62
  256
370
   -1
100
AcDbLine
 10
2707.444324852179
 20
93.2696793957814
 11
3692.444324852179
 21
93.2696793957814
  0
LINE
  5
2B4
100
AcDbEntity
  8
WALLS
  6
ByLayer
 62
  256
370
   -1
100
AcDbLine
 10
2707.444324852179
 20
3.269679395781395
 11
3602.444324852179
 21
3.269679395781395
  0
INSERT
  5
2B5
100
AcDbEntity
  8
WINDOWS
  6
ByLayer
 62
  256
370
   -1
100
AcDbBlockReference
  2
BLOCK_WINDOW_2
 10
3602.444324852179
 20
-4481.730320604219
 30
0
 41
1
 42
1
 43
0
 50
270
 70
    1
 71
    1
 44
0
 45
0
  0
LINE
  5
2B6
100
AcDbEntity
  8
WALLS
  6
ByLayer
 62
  256
370
   -1
100
AcDbLine
 10
3692.444324852179
 20
-5091.730320604219
 11
3692.444324852179
 21
-9666.73032060422
  0
LINE
  5
2B7
100
AcDbEntity
  8
WALLS
  6
ByLayer
 62
  256
370
   -1
100
AcDbLine
 10
3602.444324852179
 20
-5091.730320604218
 11
3602.44432485218
 21
-5886.730320604219
  0
INSERT
  5
2B8
100
AcDbEntity
  8
WINDOWS
  6
ByLayer
 62
  256
370
   -1
100
AcDbBlockReference
  2
BLOCK_WINDOW_1
 10
-5687.555675147822
 20
-9576.73032060422
 30
0
 41
-1
 42
1
 43
0
 50
180
 70
    1
 71
    1
 44
0
 45
0
  0
INSERT
  5
2B9
100
AcDbEntity
  8
WINDOWS
  6
ByLayer
 62
  256
370
   -1
100
AcDbBlockReference
  2
BLOCK_WINDOW_1
 10
-3427.555675147822
 20
-9576.73032060422
 30
0
 41
-1
 42
1
 43
0
 50
180
 70
    1
 71
    1
 44
0
 45
0
  0
LINE
  5
2BA
100
AcDbEntity
  8
WALLS
  6
ByLayer
 62
  256
370
   -1
100
AcDbLine
 10
-5687.555675147822
 20
-9576.73032060422
 11
-6287.555675147821
 21
-9576.73032060422
  0
LINE
  5
2BB
100
AcDbEntity
  8
WALLS
  6
ByLayer
 62
  256
370
   -1
100
AcDbLine
 10
-3877.555675147822
 20
-9666.73032060422
 11
-3427.555675147822
 21
-9666.73032060422
  0
LINE
  5
2BC
100
AcDbEntity
  8
WALLS
  6
ByLayer
 62
  256
370
   -1
100
AcDbLine
 10
-3427.555675147822
 20
-9576.73032060422
 11
-3877.555675147821
 21
-9576.73032060422
  0
LINE
  5
2BD
100
AcDbEntity
  8
WALLS
  6
ByLayer
 62
  256
370
   -1
100
AcDbLine
 10
-1617.555675147821
 20
-9666.73032060422
 11
-1187.555675147822
 21
-9666.73032060422
  0
INSERT
  5
2BE
100
AcDbEntity
  8
WINDOWS
  6
ByLayer
 62
  256
370
   -1
100
AcDbBlockReference
  2
BLOCK_WINDOW_3
 10
-6287.55567514782
 20
-5276.73032060422
 30
0
 41
-1
 42
1
 43
0
 50
90
 70
    1
 71
    1
 44
0
 45
0
  0
LINE
  5
2BF
100
AcDbEntity
  8
WALLS
  6
ByLayer
 62
  256
370
   -1
100
AcDbLine
 10
-6287.555675147822
 20
-7986.73032060422
 11
-6287.555675147822
 21
-9576.73032060422
  0
LINE
  5
2C0
100
AcDbEntity
  8
WALLS
  6
ByLayer
 62
  256
370
   -1
100
AcDbLine
 10
-6377.555675147823
 20
-5276.730320604221
 11
-6377.555675147823
 21
-3596.730320604218
  0
INSERT
  5
2C1
100
AcDbEntity
  8
WINDOWS
  6
ByLayer
 62
  256
370
   -1
100
AcDbBlockReference
  2
BLOCK_WINDOW_4
 10
-5947.55567514782
 20
-3686.73032060422
 30
0
 41
1
 42
1
 43
0
 50
0
 70
    1
 71
    1
 44
0
 45
0
  0
INSERT
  5
2C2
100
AcDbEntity
  8
WINDOWS
  6
ByLayer
 62
  256
370
   -1
100
AcDbBlockReference
  2
BLOCK_WINDOW_4
 10
-4287.55567514782
 20
-3236.73032060422
 30
0
 41
1
 42
1
 43
0
 50
90
 70
    1
 71
    1
 44
0
 45
0
  0
LINE
  5
2C3
100
AcDbEntity
  8
WALLS
  6
ByLayer
 62
  256
370
   -1
100
AcDbLine
 10
-4287.55567514782
 20
-2026.73032060422
 11
-4287.555675147821
 21
3.269679395781623
  0
LINE
  5
2C4
100
AcDbEntity
  8
WALLS
  6
ByLayer
 62
  256
370
   -1
100
AcDbLine
 10
-4377.555675147821
 20
-2026.73032060422
 11
-4377.555675147821
 21
93.26967939578117
  0
LINE
  5
2C5
100
AcDbEntity
  8
WALLS
  6
ByLayer
 62
  256
370
   -1
100
AcDbLine
 10
-4737.55567514782
 20
-3596.730320604219
 11
-4377.55567514782
 21
-3596.73032060422
  0
LINE
  5
2C6
100
AcDbEntity
  8
WALLS
  6
ByLayer
 62
  256
370
   -1
100
AcDbLine
 10
-4737.55567514782
 20
-3686.73032060422
 11
-4287.55567514782
 21
-3686.73032060422
  0
DIMENSION
  5
2C7
100
AcDbEntity
  8
DIM
  6
ByLayer
 62
  256
370
   -1
100
AcDbDimension
  2
*D1
 10
5352.444324852184
 20
253.2696793957818
 30
0
 11
5149.652117059975
 21
939.5034456295464
 31
0
 70
   32
 71
    5
  3
DIM 100 ARCH
 53
0
210
0
220
0
230
1
100
AcDbAlignedDimension
 13
3602.444324852179
 23
3.269679395781395
 33
0
 14
3852.444324852179
 24
253.2696793957814
 34
0
 50
90
100
AcDbRotatedDimension
  0
DIMENSION
  5
2C8
100
AcDbEntity
  8
DIM
  6
ByLayer
 62
  256
370
   -1
100
AcDbDimension
  2
*D2
 10
5352.44432485219
 20
-3596.73032060422
 30
0
 11
5149.781987189851
 21
-1796.73032060422
 31
0
 70
   32
 71
    5
  3
DIM 100 ARCH
 53
0
210
0
220
0
230
1
100
AcDbAlignedDimension
 13
3602.444324852179
 23
3.269679395781395
 33
0
 14
3602.444324852179
 24
-3596.730320604219
 34
0
 50
90
100
AcDbRotatedDimension
  0
DIMENSION
  5
2C9
100
AcDbEntity
  8
DIM
  6
ByLayer
 62
  256
370
   -1
100
AcDbDimension
  2
*D3
 10
5352.444324852194
 20
-3686.73032060422
 30
0
 11
5352.444324852192
 21
-3641.73032060422
 31
0
 70
   32
 71
    5
  3
DIM 100 ARCH
 53
0
210
0
220
0
230
1
100
AcDbAlignedDimension
 13
3602.444324852179
 23
-3596.730320604219
 33
0
 14
3602.444324852179
 24
-3686.730320604219
 34
0
 50
90
100
AcDbRotatedDimension
  0
DIMENSION
  5
2CA
100
AcDbEntity
  8
DIM
  6
ByLayer
 62
  256
370
   -1
100
AcDbDimension
  2
*D4
 10
5352.444324852196
 20
-5886.730320604221
 30
0
 11
5149.652117059986
 21
-4786.730320604221
 31
0
 70
   32
 71
    5
  3
DIM 100 ARCH
 53
0
210
0
220
0
230
1
100
AcDbAlignedDimension
 13
3602.444324852179
 23
-3686.730320604219
 33
0
 14
3602.44432485218
 24
-5886.730320604219
 34
0
 50
90
100
AcDbRotatedDimension
  0
DIMENSION
  5
2CB
100
AcDbEntity
  8
DIM
  6
ByLayer
 62
  256
370
   -1
100
AcDbDimension
  2
*D5
 10
5352.444324852201
 20
-5976.730320604221
 30
0
 11
5352.444324852199
 21
-5931.730320604221
 31
0
 70
   32
 71
    5
  3
DIM 100 ARCH
 53
0
210
0
220
0
230
1
100
AcDbAlignedDimension
 13
3602.44432485218
 23
-5886.730320604219
 33
0
 14
3602.44432485218
 24
-5976.730320604219
 34
0
 50
90
100
AcDbRotatedDimension
  0
DIMENSION
  5
2CC
100
AcDbEntity
  8
DIM
  6
ByLayer
 62
  256
370
   -1
100
AcDbDimension
  2
*D6
 10
5352.444324852204
 20
-9576.730320604222
 30
0
 11
5149.781987189863
 21
-7776.730320604222
 31
0
 70
   32
 71
    5
  3
DIM 100 ARCH
 53
0
210
0
220
0
230
1
100
AcDbAlignedDimension
 13
3602.44432485218
 23
-5976.730320604219
 33
0
 14
3602.444324852178
 24
-9576.73032060422
 34
0
 50
90
100
AcDbRotatedDimension
  0
DIMENSION
  5
2CD
100
AcDbEntity
  8
DIM
  6
ByLayer
 62
  256
370
   -1
100
AcDbDimension
  2
*D7
 10
5352.444324852211
 20
-9826.730320604222
 30
0
 11
5352.444324852208
 21
-10192.2738013661
 31
0
 70
   32
 71
    5
  3
DIM 100 ARCH
 53
0
210
0
220
0
230
1
100
AcDbAlignedDimension
 13
3602.444324852178
 23
-9576.73032060422
 33
0
 14
3852.444324852179
 24
-9826.73032060422
 34
0
 50
90
100
AcDbRotatedDimension
  0
DIMENSION
  5
2CE
100
AcDbEntity
  8
DIM
  6
ByLayer
 62
  256
370
   -1
100
AcDbDimension
  2
*D8
 10
6552.444324852196
 20
-4481.73032060422
 30
0
 11
6349.911857319726
 21
-2114.230320604221
 31
0
 70
   32
 71
    5
  3
DIM 100 ARCH
 53
0
210
0
220
0
230
1
100
AcDbAlignedDimension
 13
3852.44432485218
 23
253.2696793957814
 33
0
 14
3902.444324852179
 24
-4481.730320604219
 34
0
 50
90
100
AcDbRotatedDimension
  0
DIMENSION
  5
2CF
100
AcDbEntity
  8
DIM
  6
ByLayer
 62
  256
370
   -1
100
AcDbDimension
  2
*D9
 10
6552.444324852203
 20
-5091.73032060422
 30
0
 11
6349.781987189863
 21
-4786.730320604221
 31
0
 70
   32
 71
    5
  3
DIM 100 ARCH
 53
0
210
0
220
0
230
1
100
AcDbAlignedDimension
 13
3902.444324852179
 23
-4481.730320604219
 33
0
 14
3902.444324852179
 24
-5091.730320604219
 34
0
 50
90
100
AcDbRotatedDimension
  0
DIMENSION
  5
2D0
100
AcDbEntity
  8
DIM
  6
ByLayer
 62
  256
370
   -1
100
AcDbDimension
  2
*D10
 10
6552.444324852211
 20
-9826.730320604222
 30
0
 11
6349.911857319739
 21
-7459.230320604222
 31
0
 70
   32
 71
    5
  3
DIM 100 ARCH
 53
0
210
0
220
0
230
1
100
AcDbAlignedDimension
 13
3902.444324852179
 23
-5091.730320604219
 33
0
 14
3852.444324852179
 24
-9826.73032060422
 34
0
 50
90
100
AcDbRotatedDimension
  0
DIMENSION
  5
2D1
100
AcDbEntity
  8
DIM
  6
ByLayer
 62
  256
370
   -1
100
AcDbDimension
  2
*D11
 10
7752.444324852197
 20
-9826.730320604222
 30
0
 11
7549.781987189855
 21
-4786.730320604222
 31
0
 70
   32
 71
    5
  3
DIM 100 ARCH
 53
0
210
0
220
0
230
1
100
AcDbAlignedDimension
 13
3852.444324852179
 23
253.2696793957814
 33
0
 14
3852.444324852178
 24
-9826.73032060422
 34
0
 50
90
100
AcDbRotatedDimension
  0
DIMENSION
  5
2D2
100
AcDbEntity
  8
DIM
  6
ByLayer
 62
  256
370
   -1
100
AcDbDimension
  2
*D12
 10
3852.44432485218
 20
1753.269679395781
 30
0
 11
4538.678091085946
 21
1956.061887187989
 31
0
 70
   32
 71
    5
  3
DIM 100 ARCH
 53
0
210
0
220
0
230
1
100
AcDbAlignedDimension
 13
3602.444324852179
 23
3.269679395781395
 33
0
 14
3852.44432485218
 24
253.2696793957814
 34
0
100
AcDbRotatedDimension
  0
DIMENSION
  5
2D3
100
AcDbEntity
  8
DIM
  6
ByLayer
 62
  256
370
   -1
100
AcDbDimension
  2
*D13
 10
1202.44432485218
 20
1753.269679395781
 30
0
 11
2402.44432485218
 21
1753.269679395781
 31
0
 70
   32
  1
<>\XBATH
 71
    5
  3
DIM 100 ARCH
 53
0
210
0
220
0
230
1
100
AcDbAlignedDimension
 13
3602.444324852179
 23
3.269679395781395
 33
0
 14
1202.44432485218
 24
-3686.73032060422
 34
0
100
AcDbRotatedDimension
  0
DIMENSION
  5
2D4
100
AcDbEntity
  8
DIM
  6
ByLayer
 62
  256
370
   -1
100
AcDbDimension
  2
*D14
 10
1112.44432485218
 20
1753.269679395781
 30
0
 11
1355.743026150881
 21
2283.594354720457
 31
0
 70
   32
 71
    5
  3
DIM 100 ARCH
 53
0
210
0
220
0
230
1
100
AcDbAlignedDimension
 13
1202.44432485218
 23
-3686.73032060422
 33
0
 14
1112.444324852179
 24
-2996.730320604219
 34
0
100
AcDbRotatedDimension
  0
DIMENSION
  5
2D5
100
AcDbEntity
  8
DIM
  6
ByLayer
 62
  256
370
   -1
100
AcDbDimension
  2
*D15
 10
2.444324852180089
 20
1753.269679395781
 30
0
 11
557.4443248521798
 21
1955.932017058119
 31
0
 70
   32
 71
    5
  3
DIM 100 ARCH
 53
0
210
0
220
0
230
1
100
AcDbAlignedDimension
 13
1112.444324852179
 23
-2996.730320604219
 33
0
 14
2.444324852179761
 24
-3596.730320604219
 34
0
100
AcDbRotatedDimension
  0
DIMENSION
  5
2D6
100
AcDbEntity
  8
DIM
  6
ByLayer
 62
  256
370
   -1
100
AcDbDimension
  2
*D16
 10
-87.5556751478199
 20
1753.269679395781
 30
0
 11
155.7430261508814
 21
2283.594354720457
 31
0
 70
   32
 71
    5
  3
DIM 100 ARCH
 53
0
210
0
220
0
230
1
100
AcDbAlignedDimension
 13
2.444324852179761
 23
-3596.730320604219
 33
0
 14
-87.55567514782022
 24
-3686.730320604219
 34
0
100
AcDbRotatedDimension
  0
DIMENSION
  5
2D7
100
AcDbEntity
  8
DIM
  6
ByLayer
 62
  256
370
   -1
100
AcDbDimension
  2
*D17
 10
3852.444324852179
 20
2953.269679395781
 30
0
 11
4538.678091085945
 21
3156.061887187989
 31
0
 70
   32
 71
    5
  3
DIM 100 ARCH
 53
0
210
0
220
0
230
1
100
AcDbAlignedDimension
 13
3602.444324852179
 23
3.269679395781395
 33
0
 14
3852.444324852179
 24
253.2696793957814
 34
0
100
AcDbRotatedDimension
  0
DIMENSION
  5
2D8
100
AcDbEntity
  8
DIM
  6
ByLayer
 62
  256
370
   -1
100
AcDbDimension
  2
*D18
 10
2.444324852179487
 20
2953.269679395781
 30
0
 11
1802.444324852179
 21
3155.932017058119
 31
0
 70
   32
 71
    5
  3
DIM 100 ARCH
 53
0
210
0
220
0
230
1
100
AcDbAlignedDimension
 13
3602.444324852179
 23
3.269679395781395
 33
0
 14
2.444324852179307
 24
3.269679395781168
 34
0
100
AcDbRotatedDimension
  0
DIMENSION
  5
2D9
100
AcDbEntity
  8
DIM
  6
ByLayer
 62
  256
370
   -1
100
AcDbDimension
  2
*D19
 10
-87.55567514782051
 20
2953.269679395781
 30
0
 11
155.7430261508808
 21
3483.594354720456
 31
0
 70
   32
 71
    5
  3
DIM 100 ARCH
 53
0
210
0
220
0
230
1
100
AcDbAlignedDimension
 13
2.444324852179307
 23
3.269679395781168
 33
0
 14
-87.55567514782069
 24
3.269679395781168
 34
0
100
AcDbRotatedDimension
  0
DIMENSION
  5
2DA
100
AcDbEntity
  8
DIM
  6
ByLayer
 62
  256
370
   -1
100
AcDbDimension
  2
*D20
 10
-4287.555675147821
 20
2953.269679395781
 30
0
 11
-2187.555675147821
 21
3156.061887187989
 31
0
 70
   32
 71
    5
  3
DIM 100 ARCH
 53
0
210
0
220
0
230
1
100
AcDbAlignedDimension
 13
-87.55567514782069
 23
3.269679395781168
 33
0
 14
-4287.555675147821
 24
3.269679395781623
 34
0
100
AcDbRotatedDimension
  0
DIMENSION
  5
2DB
100
AcDbEntity
  8
DIM
  6
ByLayer
 62
  256
370
   -1
100
AcDbDimension
  2
*D21
 10
-4537.555675147821
 20
2953.269679395781
 30
0
 11
-4214.218012810158
 21
3483.854094980196
 31
0
 70
   32
 71
    5
  3
DIM 100 ARCH
 53
0
210
0
220
0
230
1
100
AcDbAlignedDimension
 13
-4287.555675147821
 23
3.269679395781623
 33
0
 14
-4537.555675147821
 24
253.2696793957821
 34
0
100
AcDbRotatedDimension
  0
DIMENSION
  5
2DC
100
AcDbEntity
  8
DIM
  6
ByLayer
 62
  256
370
   -1
100
AcDbDimension
  2
*D22
 10
-6537.555675147822
 20
2953.269679395781
 30
0
 11
-5537.555675147822
 21
3156.061887187989
 31
0
 70
   32
 71
    5
  3
DIM 100 ARCH
 53
0
210
0
220
0
230
1
100
AcDbAlignedDimension
 13
-4537.555675147821
 23
253.2696793957821
 33
0
 14
-6537.555675147822
 24
-3436.73032060422
 34
0
100
AcDbRotatedDimension
  0
DIMENSION
  5
2DD
100
AcDbEntity
  8
DIM
  6
ByLayer
 62
  256
370
   -1
100
AcDbDimension
  2
*D23
 10
3852.44432485218
 20
4153.269679395781
 30
0
 11
-1342.555675147819
 21
4355.932017058119
 31
0
 70
   32
 71
    5
  3
DIM 100 ARCH
 53
0
210
0
220
0
230
1
100
AcDbAlignedDimension
 13
-6537.55567514782
 23
-3436.73032060422
 33
0
 14
3852.44432485218
 24
253.2696793957814
 34
0
100
AcDbRotatedDimension
  0
DIMENSION
  5
2DE
100
AcDbEntity
  8
DIM
  6
ByLayer
 62
  256
370
   -1
100
AcDbDimension
  2
*D24
 10
-8037.555675147825
 20
253.2696793957816
 30
0
 11
-8240.347882940032
 21
939.50344562955
 31
0
 70
   32
 71
    5
  3
DIM 100 ARCH
 53
0
210
0
220
0
230
1
100
AcDbAlignedDimension
 13
-4287.555675147821
 23
3.269679395781623
 33
0
 14
-4537.555675147821
 24
253.2696793957821
 34
0
 50
90
100
AcDbRotatedDimension
  0
DIMENSION
  5
2DF
100
AcDbEntity
  8
DIM
  6
ByLayer
 62
  256
370
   -1
100
AcDbDimension
  2
*D25
 10
-8037.555675147832
 20
-3686.730320604222
 30
0
 11
-8240.218012810168
 21
-1841.730320604218
 31
0
 70
   32
 71
    5
  3
DIM 100 ARCH
 53
0
210
0
220
0
230
1
100
AcDbAlignedDimension
 13
-4287.555675147821
 23
3.269679395781623
 33
0
 14
-4287.55567514782
 24
-3686.73032060422
 34
0
 50
90
100
AcDbRotatedDimension
  0
DIMENSION
  5
2E0
100
AcDbEntity
  8
DIM
  6
ByLayer
 62
  256
370
   -1
100
AcDbDimension
  2
*D26
 10
-8037.555675147838
 20
-9576.730320604223
 30
0
 11
-8240.218012810175
 21
-6631.730320604219
 31
0
 70
   32
 71
    5
  3
DIM 100 ARCH
 53
0
210
0
220
0
230
1
100
AcDbAlignedDimension
 13
-4287.55567514782
 23
-3686.73032060422
 33
0
 14
-6287.555675147821
 24
-9576.73032060422
 34
0
 50
90
100
AcDbRotatedDimension
  0
DIMENSION
  5
2E1
100
AcDbEntity
  8
DIM
  6
ByLayer
 62
  256
370
   -1
100
AcDbDimension
  2
*D27
 10
-8037.555675147845
 20
-9826.730320604223
 30
0
 11
-8568.140090732262
 21
-9503.392658266557
 31
0
 70
   32
 71
    5
  3
DIM 100 ARCH
 53
0
210
0
220
0
230
1
100
AcDbAlignedDimension
 13
-6287.555675147821
 23
-9576.73032060422
 33
0
 14
-6537.555675147822
 24
-9826.73032060422
 34
0
 50
90
100
AcDbRotatedDimension
  0
DIMENSION
  5
2E2
100
AcDbEntity
  8
DIM
  6
ByLayer
 62
  256
370
   -1
100
AcDbDimension
  2
*D28
 10
-9237.555675147829
 20
-2026.730320604222
 30
0
 11
-9440.347882940036
 21
-886.7303206042172
 31
0
 70
   32
 71
    5
  3
DIM 100 ARCH
 53
0
210
0
220
0
230
1
100
AcDbAlignedDimension
 13
-4537.555675147821
 23
253.2696793957821
 33
0
 14
-4587.55567514782
 24
-2026.73032060422
 34
0
 50
90
100
AcDbRotatedDimension
  0
DIMENSION
  5
2E3
100
AcDbEntity
  8
DIM
  6
ByLayer
 62
  256
370
   -1
100
AcDbDimension
  2
*D29
 10
-9237.555675147836
 20
-3236.730320604222
 30
0
 11
-9440.347882940043
 21
-2631.730320604219
 31
0
 70
   32
 71
    5
  3
DIM 100 ARCH
 53
0
210
0
220
0
230
1
100
AcDbAlignedDimension
 13
-4587.55567514782
 23
-2026.73032060422
 33
0
 14
-4587.55567514782
 24
-3236.73032060422
 34
0
 50
90
100
AcDbRotatedDimension
  0
DIMENSION
  5
2E4
100
AcDbEntity
  8
DIM
  6
ByLayer
 62
  256
370
   -1
100
AcDbDimension
  2
*D30
 10
-9237.555675147847
 20
-3436.730320604222
 30
0
 11
-9768.140090732259
 21
-3487.585133526885
 31
0
 70
   32
 71
    5
  3
DIM 100 ARCH
 53
0
210
0
220
0
230
1
100
AcDbAlignedDimension
 13
-4587.55567514782
 23
-3236.73032060422
 33
0
 14
-6537.55567514782
 24
-3436.73032060422
 34
0
 50
90
100
AcDbRotatedDimension
  0
DIMENSION
  5
2E5
100
AcDbEntity
  8
DIM
  6
ByLayer
 62
  256
370
   -1
100
AcDbDimension
  2
*D31
 10
-9237.555675147849
 20
-5276.730320604222
 30
0
 11
-9440.218012810186
 21
-4356.730320604218
 31
0
 70
   32
 71
    5
  3
DIM 100 ARCH
 53
0
210
0
220
0
230
1
100
AcDbAlignedDimension
 13
-6537.55567514782
 23
-3436.73032060422
 33
0
 14
-6587.55567514782
 24
-5276.73032060422
 34
0
 50
90
100
AcDbRotatedDimension
  0
DIMENSION
  5
2E6
100
AcDbEntity
  8
DIM
  6
ByLayer
 62
  256
370
   -1
100
AcDbDimension
  2
*D32
 10
-9237.555675147856
 20
-7986.730320604223
 30
0
 11
-9440.347882940065
 21
-6631.730320604219
 31
0
 70
   32
 71
    5
  3
DIM 100 ARCH
 53
0
210
0
220
0
230
1
100
AcDbAlignedDimension
 13
-6587.55567514782
 23
-5276.73032060422
 33
0
 14
-6587.55567514782
 24
-7986.73032060422
 34
0
 50
90
100
AcDbRotatedDimension
  0
DIMENSION
  5
2E7
100
AcDbEntity
  8
DIM
  6
ByLayer
 62
  256
370
   -1
100
AcDbDimension
  2
*D33
 10
-9237.555675147863
 20
-9826.730320604223
 30
0
 11
-9440.218012810201
 21
-8906.73032060422
 31
0
 70
   32
 71
    5
  3
DIM 100 ARCH
 53
0
210
0
220
0
230
1
100
AcDbAlignedDimension
 13
-6587.55567514782
 23
-7986.73032060422
 33
0
 14
-6537.555675147822
 24
-9826.73032060422
 34
0
 50
90
100
AcDbRotatedDimension
  0
DIMENSION
  5
2E8
100
AcDbEntity
  8
DIM
  6
ByLayer
 62
  256
370
   -1
100
AcDbDimension
  2
*D34
 10
-10437.55567514783
 20
253.2696793957812
 30
0
 11
-10640.21801281016
 21
-4786.730320604217
 31
0
 70
   32
 71
    5
  3
DIM 100 ARCH
 53
0
210
0
220
0
230
1
100
AcDbAlignedDimension
 13
-6537.555675147822
 23
-9826.73032060422
 33
0
 14
-4537.555675147821
 24
253.2696793957821
 34
0
 50
90
100
AcDbRotatedDimension
  0
DIMENSION
  5
2E9
100
AcDbEntity
  8
DIM
  6
ByLayer
 62
  256
370
   -1
100
AcDbDimension
  2
*D35
 10
-6537.555675147822
 20
-11326.73032060422
 30
0
 11
-7223.789441381587
 21
-11123.93811281201
 31
0
 70
   32
 71
    5
  3
DIM 100 ARCH
 53
0
210
0
220
0
230
1
100
AcDbAlignedDimension
 13
-6287.555675147821
 23
-9576.73032060422
 33
0
 14
-6537.555675147822
 24
-9826.73032060422
 34
0
100
AcDbRotatedDimension
  0
DIMENSION
  5
2EA
100
AcDbEntity
  8
DIM
  6
ByLayer
 62
  256
370
   -1
100
AcDbDimension
  2
*D36
 10
-87.55567514782172
 20
-11326.73032060422
 30
0
 11
-3187.555675147821
 21
-11123.93811281201
 31
0
 70
   32
 71
    5
  3
DIM 100 ARCH
 53
0
210
0
220
0
230
1
100
AcDbAlignedDimension
 13
-6287.555675147821
 23
-9576.73032060422
 33
0
 14
-87.5556751478216
 24
-9576.730320604218
 34
0
100
AcDbRotatedDimension
  0
DIMENSION
  5
2EB
100
AcDbEntity
  8
DIM
  6
ByLayer
 62
  256
370
   -1
100
AcDbDimension
  2
*D37
 10
2.44432485217829
 20
-11326.73032060422
 30
0
 11
217.3404287482822
 21
-11657.05499592889
 31
0
 70
   32
 71
    5
  3
DIM 100 ARCH
 53
0
210
0
220
0
230
1
100
AcDbAlignedDimension
 13
-87.5556751478216
 23
-9576.730320604218
 33
0
 14
2.444324852178397
 24
-9576.730320604218
 34
0
100
AcDbRotatedDimension
  0
DIMENSION
  5
2EC
100
AcDbEntity
  8
DIM
  6
ByLayer
 62
  256
370
   -1
100
AcDbDimension
  2
*D38
 10
3602.444324852178
 20
-11326.73032060422
 30
0
 11
1802.444324852178
 21
-11124.06798294188
 31
0
 70
   32
 71
    5
  3
DIM 100 ARCH
 53
0
210
0
220
0
230
1
100
AcDbAlignedDimension
 13
2.444324852178397
 23
-9576.730320604218
 33
0
 14
3602.444324852178
 24
-9576.73032060422
 34
0
100
AcDbRotatedDimension
  0
DIMENSION
  5
2ED
100
AcDbEntity
  8
DIM
  6
ByLayer
 62
  256
370
   -1
100
AcDbDimension
  2
*D39
 10
3852.444324852179
 20
-11326.73032060422
 30
0
 11
3987.457311865166
 21
-11657.31473618863
 31
0
 70
   32
 71
    5
  3
DIM 100 ARCH
 53
0
210
0
220
0
230
1
100
AcDbAlignedDimension
 13
3602.444324852178
 23
-9576.73032060422
 33
0
 14
3852.444324852179
 24
-9826.73032060422
 34
0
100
AcDbRotatedDimension
  0
DIMENSION
  5
2EE
100
AcDbEntity
  8
DIM
  6
ByLayer
 62
  256
370
   -1
100
AcDbDimension
  2
*D40
 10
-5687.555675147822
 20
-12526.73032060422
 30
0
 11
-6112.555675147822
 21
-12324.06798294188
 31
0
 70
   32
 71
    5
  3
DIM 100 ARCH
 53
0
210
0
220
0
230
1
100
AcDbAlignedDimension
 13
-6537.555675147822
 23
-9826.73032060422
 33
0
 14
-5687.555675147822
 24
-9876.73032060422
 34
0
100
AcDbRotatedDimension
  0
DIMENSION
  5
2EF
100
AcDbEntity
  8
DIM
  6
ByLayer
 62
  256
370
   -1
100
AcDbDimension
  2
*D41
 10
-3877.555675147822
 20
-12526.73032060422
 30
0
 11
-4782.555675147822
 21
-12324.06798294188
 31
0
 70
   32
 71
    5
  3
DIM 100 ARCH
 53
0
210
0
220
0
230
1
100
AcDbAlignedDimension
 13
-5687.555675147822
 23
-9876.73032060422
 33
0
 14
-3877.555675147822
 24
-9876.73032060422
 34
0
100
AcDbRotatedDimension
  0
DIMENSION
  5
2F0
100
AcDbEntity
  8
DIM
  6
ByLayer
 62
  256
370
   -1
100
AcDbDimension
  2
*D42
 10
-3427.555675147822
 20
-12526.73032060422
 30
0
 11
-3392.776454368601
 21
-12856.79525566915
 31
0
 70
   32
 71
    5
  3
DIM 100 ARCH
 53
0
210
0
220
0
230
1
100
AcDbAlignedDimension
 13
-3877.555675147822
 23
-9876.73032060422
 33
0
 14
-3427.555675147822
 24
-9876.73032060422
 34
0
100
AcDbRotatedDimension
  0
DIMENSION
  5
2F1
100
AcDbEntity
  8
DIM
  6
ByLayer
 62
  256
370
   -1
100
AcDbDimension
  2
*D43
 10
-1617.555675147822
 20
-12526.73032060422
 30
0
 11
-2522.555675147822
 21
-12324.06798294188
 31
0
 70
   32
 71
    5
  3
DIM 100 ARCH
 53
0
210
0
220
0
230
1
100
AcDbAlignedDimension
 13
-3427.555675147822
 23
-9876.73032060422
 33
0
 14
-1617.555675147822
 24
-9876.73032060422
 34
0
100
AcDbRotatedDimension
  0
DIMENSION
  5
2F2
100
AcDbEntity
  8
DIM
  6
ByLayer
 62
  256
370
   -1
100
AcDbDimension
  2
*D44
 10
-1187.555675147822
 20
-12526.73032060422
 30
0
 11
-1142.776454368601
 21
-12856.79525566915
 31
0
 70
   32
 71
    5
  3
DIM 100 ARCH
 53
0
210
0
220
0
230
1
100
AcDbAlignedDimension
 13
-1617.555675147822
 23
-9876.73032060422
 33
0
 14
-1187.555675147822
 24
-9826.730320604222
 34
0
100
AcDbRotatedDimension
  0
DIMENSION
  5
2F3
100
AcDbEntity
  8
DIM
  6
ByLayer
 62
  256
370
   -1
100
AcDbDimension
  2
*D45
 10
-287.5556751478218
 20
-12526.73032060422
 30
0
 11
-737.5556751478218
 21
-12324.06798294188
 31
0
 70
   32
 71
    5
  3
DIM 100 ARCH
 53
0
210
0
220
0
230
1
100
AcDbAlignedDimension
 13
-1187.555675147822
 23
-9826.730320604222
 33
0
 14
-287.5556751478216
 24
-9826.730320604222
 34
0
100
AcDbRotatedDimension
  0
DIMENSION
  5
2F4
100
AcDbEntity
  8
DIM
  6
ByLayer
 62
  256
370
   -1
100
AcDbDimension
  2
*D46
 10
897.4443248521792
 20
-12526.73032060422
 30
0
 11
304.9443248521787
 21
-12324.06798294188
 31
0
 70
   32
 71
    5
  3
DIM 100 ARCH
 53
0
210
0
220
0
230
1
100
AcDbAlignedDimension
 13
-287.5556751478216
 23
-9826.730320604222
 33
0
 14
897.4443248521793
 24
-9876.73032060422
 34
0
100
AcDbRotatedDimension
  0
DIMENSION
  5
2F5
100
AcDbEntity
  8
DIM
  6
ByLayer
 62
  256
370
   -1
100
AcDbDimension
  2
*D47
 10
2707.444324852179
 20
-12526.73032060422
 30
0
 11
1802.444324852179
 21
-12324.06798294188
 31
0
 70
   32
 71
    5
  3
DIM 100 ARCH
 53
0
210
0
220
0
230
1
100
AcDbAlignedDimension
 13
897.4443248521793
 23
-9876.73032060422
 33
0
 14
2707.444324852179
 24
-9876.73032060422
 34
0
100
AcDbRotatedDimension
  0
DIMENSION
  5
2F6
100
AcDbEntity
  8
DIM
  6
ByLayer
 62
  256
370
   -1
100
AcDbDimension
  2
*D48
 10
3852.444324852178
 20
-12526.73032060422
 30
0
 11
3279.944324852179
 21
-12324.06798294188
 31
0
 70
   32
 71
    5
  3
DIM 100 ARCH
 53
0
210
0
220
0
230
1
100
AcDbAlignedDimension
 13
2707.444324852179
 23
-9876.73032060422
 33
0
 14
3852.444324852178
 24
-9826.73032060422
 34
0
100
AcDbRotatedDimension
  0
DIMENSION
  5
2F7
100
AcDbEntity
  8
DIM
  6
ByLayer
 62
  256
370
   -1
100
AcDbDimension
  2
*D49
 10
3852.444324852178
 20
-13726.73032060422
 30
0
 11
-1342.555675147822
 21
-13524.06798294188
 31
0
 70
   32
 71
    5
  3
DIM 100 ARCH
 53
0
210
0
220
0
230
1
100
AcDbAlignedDimension
 13
-6537.555675147822
 23
-9826.73032060422
 33
0
 14
3852.444324852178
 24
-9826.73032060422
 34
0
100
AcDbRotatedDimension
  0
LINE
  5
2F8
100
AcDbEntity
  8
WALLS
  6
CONTINUOUS
 62
  256
370
   25
100
AcDbLine
 10
-4377.56
 20
-3236.73
 11
-4287.56
 21
-3236.73
  0
LINE
  5
2F9
100
AcDbEntity
  8
WALLS
  6
CONTINUOUS
 62
  256
370
   25
100
AcDbLine
 10
-4737.56
 20
-3596.73
 11
-4737.56
 21
-3686.73
  0
LINE
  5
2FA
100
AcDbEntity
  8
WALLS
  6
CONTINUOUS
 62
  256
370
   25
100
AcDbLine
 10
-5947.56
 20
-3596.73
 11
-5947.56
 21
-3686.73
  0
LINE
  5
2FB
100
AcDbEntity
  8
WALLS
  6
CONTINUOUS
 62
  256
370
   25
100
AcDbLine
 10
-6377.56
 20
-5276.73
 11
-6287.56
 21
-5276.73
  0
LINE
  5
2FC
100
AcDbEntity
  8
WALLS
  6
CONTINUOUS
 62
  256
370
   25
100
AcDbLine
 10
-6377.56
 20
-7986.73
 11
-6287.56
 21
-7986.73
  0
LINE
  5
2FD
100
AcDbEntity
  8
WALLS
  6
CONTINUOUS
 62
  256
370
   25
100
AcDbLine
 10
-5687.56
 20
-9576.73
 11
-5687.56
 21
-9666.73
  0
LINE
  5
2FE
100
AcDbEntity
  8
WALLS
  6
CONTINUOUS
 62
  256
370
   25
100
AcDbLine
 10
-3877.56
 20
-9576.73
 11
-3877.56
 21
-9666.73
  0
LINE
  5
2FF
100
AcDbEntity
  8
WALLS
  6
CONTINUOUS
 62
  256
370
   25
100
AcDbLine
 10
-3427.56
 20
-9576.73
 11
-3427.56
 21
-9666.73
  0
LINE
  5
300
100
AcDbEntity
  8
WALLS
  6
CONTINUOUS
 62
  256
370
   25
100
AcDbLine
 10
-1617.56
 20
-9576.73
 11
-1617.56
 21
-9666.73
  0
LINE
  5
301
100
AcDbEntity
  8
WALLS
  6
CONTINUOUS
 62
  256
370
   25
100
AcDbLine
 10
897.444
 20
-9576.73
 11
897.444
 21
-9666.73
  0
LINE
  5
302
100
AcDbEntity
  8
WALLS
  6
CONTINUOUS
 62
  256
370
   25
100
AcDbLine
 10
2707.44
 20
-9576.73
 11
2707.44
 21
-9666.73
  0
LINE
  5
303
100
AcDbEntity
  8
WALLS
  6
CONTINUOUS
 62
  256
370
   25
100
AcDbLine
 10
897.444
 20
93.2697
 11
897.444
 21
3.26968
  0
LINE
  5
304
100
AcDbEntity
  8
WALLS
  6
CONTINUOUS
 62
  256
370
   25
100
AcDbLine
 10
2707.44
 20
93.2697
 11
2707.44
 21
3.26968
  0
LINE
  5
305
100
AcDbEntity
  8
WALLS
  6
CONTINUOUS
 62
  256
370
   25
100
AcDbLine
 10
962.444
 20
-3596.73
 11
962.444
 21
-3686.73
  0
LINE
  5
306
100
AcDbEntity
  8
WALLS
  6
CONTINUOUS
 62
  256
370
   25
100
AcDbLine
 10
142.444
 20
-3596.73
 11
142.444
 21
-3686.73
  0
LINE
  5
307
100
AcDbEntity
  8
WALLS
  6
CONTINUOUS
 62
  256
370
   25
100
AcDbLine
 10
1112.44
 20
-4926.73
 11
1202.44
 21
-4926.73
  0
LINE
  5
308
100
AcDbEntity
  8
WALLS
  6
CONTINUOUS
 62
  256
370
   -3
100
AcDbLine
 10
3602.44
 20
-4481.73
 11
3692.44
 21
-4481.73
  0
LINE
  5
309
100
AcDbEntity
  8
WALLS
  6
CONTINUOUS
 62
  256
370
   -3
100
AcDbLine
 10
3602.44
 20
-5091.73
 11
3692.44
 21
-5091.73
  0
LINE
  5
30A
100
AcDbEntity
  8
WALLS
  6
CONTINUOUS
 62
  256
370
   -3
100
AcDbLine
 10
142.444
 20
-5886.73
 11
142.444
 21
-5976.73
  0
LINE
  5
30B
100
AcDbEntity
  8
WALLS
  6
CONTINUOUS
 62
  256
370
   -3
100
AcDbLine
 10
962.444
 20
-5886.73
 11
962.444
 21
-5976.73
  0
LINE
  5
30C
100
AcDbEntity
  8
WALLS
  6
CONTINUOUS
 62
  256
370
   -3
100
AcDbLine
 10
1112.44
 20
-5746.73
 11
1202.44
 21
-5746.73
  0
LINE
  5
30D
100
AcDbEntity
  8
WALLS
  6
CONTINUOUS
 62
  256
370
   -3
100
AcDbLine
 10
-4377.56
 20
-2026.73
 11
-4287.56
 21
-2026.73
  0
ENDSEC
  0
SECTION
  2
OBJECTS
  0
DICTIONARY
  5
C
330
0
100
AcDbDictionary
281
    1
  3
ACAD_GROUP
350
D
  0
DICTIONARY
  5
D
330
C
100
AcDbDictionary
281
    1
  0
PLOTSETTINGS
  5
30E
100
AcDbPlotSettings
  6
1x1
 40
0
 41
0
 42
0
 43
0
  0
ENDSEC
  0
EOF
