{
  "accessors": [
    {
      "bufferView": 0,
      "componentType": 5126,
      "count": 1363,
      "max": [
        5.035000324249268,
        1.5,
        4.880000591278076
      ],
      "min": [
        -5.035000324249268,
        -1.5,
        -4.880000114440918
      ],
      "type": "VEC3"
    },
    {
      "bufferView": 1,
      "componentType": 5126,
      "count": 1363,
      "type": "VEC3"
    },
    {
      "bufferView": 2,
      "componentType": 5125,
      "count": 1707,
      "type": "SCALAR"
    }
  ],
  "asset": {
    "generator": "Plan2Scene",
    "version": "2.0"
  },
  "bufferViews": [
    {
      "buffer": 0,
      "byteLength": 16356,
      "target": 34962
    },
    {
      "buffer": 0,
      "byteLength": 16356,
      "byteOffset": 16356,
      "target": 34962
    },
    {
      "buffer": 0,
      "byteLength": 6828,
      "byteOffset": 32712,
      "target": 34963
    }
  ],
  "buffers": [
    {
      "byteLength": 39540,
      "uri": "draftperson_Technical_Drawing_FLOOR_PLAN.bin"
    }
  ],
  "meshes": [
    {
      "name": "Room",
      "primitives": [
        {
          "attributes": {
            "NORMAL": 1,
            "POSITION": 0
          },
          "indices": 2,
          "mode": 4
        }
      ]
    }
  ],
  "nodes": [
    {
      "mesh": 0
    }
  ],
  "scene": 0,
  "scenes": [
    {
      "nodes": [
        0
      ]
    }
  ]
}
