999
dxfrw 0.6.3
  0
SECTION
  2
HEADER
  9
$ACADVER
  1
AC1021
  9
$DWGCODEPAGE
  3
ANSI_1252
  9
$INSBASE
 10
0
 20
0
 30
0
  9
$EXTMIN
 10
34686.53027372212
 20
-1377.061833958578
 30
0
  9
$EXTMAX
 10
35083.17213434991
 20
-994.648515086654
 30
0
  9
$LIMMIN
 10
0
 20
0
  9
$LIMMAX
 10
420
 20
297
  9
$ORTHOMODE
 70
    0
  9
$REGENMODE
 70
    1
  9
$FILLMODE
 70
    1
  9
$QTEXTMODE
 70
    0
  9
$MIRRTEXT
 70
    0
  9
$LTSCALE
 40
1
  9
$ATTMODE
 70
    0
  9
$TEXTSIZE
 40
2.5
  9
$TRACEWID
 40
15.68
  9
$TEXTSTYLE
  7
STANDARD
  9
$CLAYER
  8
DOORS
  9
$CELTYPE
  6
BYLAYER
  9
$CECOLOR
 62
  256
  9
$CELTSCALE
 40
1
  9
$DISPSILH
 70
    0
  9
$DIMSCALE
 40
1
  9
$DIMASZ
 40
2.5
  9
$DIMEXO
 40
0.625
  9
$DIMDLI
 40
3.75
  9
$DIMRND
 40
0
  9
$DIMDLE
 40
0
  9
$DIMEXE
 40
1.25
  9
$DIMTP
 40
0
  9
$DIMTM
 40
0
  9
$DIMTXT
 40
2.5
  9
$DIMCEN
 40
2.5
  9
$DIMTSZ
 40
0
  9
$DIMTOL
 70
    0
  9
$DIMLIM
 70
    0
  9
$DIMTIH
 70
    0
  9
$DIMTOH
 70
    0
  9
$DIMSE1
 70
    0
  9
$DIMSE2
 70
    0
  9
$DIMTAD
 70
    1
  9
$DIMZIN
 70
    8
  9
$DIMBLK
  1

  9
$DIMASO
 70
    1
  9
$DIMSHO
 70
    1
  9
$DIMPOST
  1

  9
$DIMAPOST
  1

  9
$DIMALT
 70
    0
  9
$DIMALTD
 70
    3
  9
$DIMALTF
 40
0.03937
  9
$DIMLFAC
 40
1
  9
$DIMTOFL
 70
    1
  9
$DIMTVP
 40
0
  9
$DIMTIX
 70
    0
  9
$DIMSOXD
 70
    0
  9
$DIMSAH
 70
    0
  9
$DIMBLK1
  1

  9
$DIMBLK2
  1

  9
$DIMSTYLE
  2
Standard
  9
$DIMCLRD
 70
    0
  9
$DIMCLRE
 70
    0
  9
$DIMCLRT
 70
    0
  9
$DIMTFAC
 40
1
  9
$DIMGAP
 40
0.625
  9
$DIMJUST
 70
    0
  9
$DIMSD1
 70
    0
  9
$DIMSD2
 70
    0
  9
$DIMTOLJ
 70
    0
  9
$DIMTZIN
 70
    8
  9
$DIMALTZ
 70
    0
  9
$DIMALTTZ
 70
    0
  9
$DIMUPT
 70
    0
  9
$DIMDEC
 70
    2
  9
$DIMTDEC
 70
    2
  9
$DIMALTU
 70
    2
  9
$DIMALTTD
 70
    3
  9
$DIMTXSTY
  7
STANDARD
  9
$DIMAUNIT
 70
    0
  9
$DIMADEC
 70
    0
  9
$DIMALTRND
 40
0
  9
$DIMAZIN
 70
    0
  9
$DIMDSEP
 70
   44
  9
$DIMATFIT
 70
    3
  9
$DIMFRAC
 70
    0
  9
$DIMLDRBLK
  1
STANDARD
  9
$DIMLUNIT
 70
    2
  9
$DIMLWD
 70
   -2
  9
$DIMLWE
 70
   -2
  9
$DIMTMOVE
 70
    0
  9
$DIMFXL
 40
1
  9
$DIMFXLON
 70
    0
  9
$DIMJOGANG
 40
0.7854
  9
$DIMTFILL
 70
    0
  9
$DIMTFILLCLR
 70
    0
  9
$DIMARCSYM
 70
    0
  9
$DIMLTYPE
  6

  9
$DIMLTEX1
  6

  9
$DIMLTEX2
  6

  9
$LUNITS
 70
    2
  9
$LUPREC
 70
    4
  9
$SKETCHINC
 40
1
  9
$FILLETRAD
 40
0
  9
$AUNITS
 70
    0
  9
$AUPREC
 70
    2
  9
$MENU
  1
.
  9
$ELEVATION
 40
0
  9
$PELEVATION
 40
0
  9
$THICKNESS
 40
0
  9
$LIMCHECK
 70
    0
  9
$CHAMFERA
 40
0
  9
$CHAMFERB
 40
0
  9
$CHAMFERC
 40
0
  9
$CHAMFERD
 40
0
  9
$SKPOLY
 70
    0
  9
$USRTIMER
 70
    1
  9
$ANGBASE
 50
0
  9
$ANGDIR
 70
    0
  9
$PDMODE
 70
   96
  9
$PDSIZE
 40
-2
  9
$PLINEWID
 40
0
  9
$SPLFRAME
 70
    0
  9
$SPLINETYPE
 70
    2
  9
$SPLINESEGS
 70
    8
  9
$HANDSEED
  5
20000
  9
$SURFTAB1
 70
    6
  9
$SURFTAB2
 70
    6
  9
$SURFTYPE
 70
    6
  9
$SURFU
 70
    6
  9
$SURFV
 70
    6
  9
$UCSBASE
  2

  9
$UCSNAME
  2

  9
$UCSORG
 10
0
 20
0
 30
0
  9
$UCSXDIR
 10
1
 20
0
 30
0
  9
$UCSYDIR
 10
0
 20
1
 30
0
  9
$UCSORTHOREF
  2

  9
$UCSORTHOVIEW
 70
    0
  9
$UCSORGTOP
 10
0
 20
0
 30
0
  9
$UCSORGBOTTOM
 10
0
 20
0
 30
0
  9
$UCSORGLEFT
 10
0
 20
0
 30
0
  9
$UCSORGRIGHT
 10
0
 20
0
 30
0
  9
$UCSORGFRONT
 10
0
 20
0
 30
0
  9
$UCSORGBACK
 10
0
 20
0
 30
0
  9
$PUCSBASE
  2

  9
$PUCSNAME
  2

  9
$PUCSORG
 10
0
 20
0
 30
0
  9
$PUCSXDIR
 10
1
 20
0
 30
0
  9
$PUCSYDIR
 10
0
 20
1
 30
0
  9
$PUCSORTHOREF
  2

  9
$PUCSORTHOVIEW
 70
    0
  9
$PUCSORGTOP
 10
0
 20
0
 30
0
  9
$PUCSORGBOTTOM
 10
0
 20
0
 30
0
  9
$PUCSORGLEFT
 10
0
 20
0
 30
0
  9
$PUCSORGRIGHT
 10
0
 20
0
 30
0
  9
$PUCSORGFRONT
 10
0
 20
0
 30
0
  9
$PUCSORGBACK
 10
0
 20
0
 30
0
  9
$USERI1
 70
    0
  9
$USERI2
 70
    0
  9
$USERI3
 70
    0
  9
$USERI4
 70
    0
  9
$USERI5
 70
    0
  9
$USERR1
 40
0
  9
$USERR2
 40
0
  9
$USERR3
 40
0
  9
$USERR4
 40
0
  9
$USERR5
 40
0
  9
$WORLDVIEW
 70
    1
  9
$SHADEDGE
 70
    3
  9
$SHADEDIF
 70
   70
  9
$TILEMODE
 70
    1
  9
$MAXACTVP
 70
   64
  9
$PINSBASE
 10
0
 20
0
 30
0
  9
$PLIMCHECK
 70
    0
  9
$PEXTMIN
 10
0
 20
0
 30
0
  9
$PEXTMAX
 10
0
 20
0
 30
0
  9
$GRIDMODE
 70
    0
  9
$SNAPSTYLE
 70
    0
  9
$PLIMMIN
 10
0
 20
0
  9
$PLIMMAX
 10
210
 20
297
  9
$UNITMODE
 70
    0
  9
$VISRETAIN
 70
    1
  9
$PLINEGEN
 70
    0
  9
$PSLTSCALE
 70
    1
  9
$TREEDEPTH
 70
 3020
  9
$CMLSTYLE
  2
Standard
  9
$CMLJUST
 70
    0
  9
$CMLSCALE
 40
20
  9
$PROXYGRAPHICS
 70
    1
  9
$MEASUREMENT
 70
    1
  9
$CELWEIGHT
370
   -1
  9
$ENDCAPS
280
    0
  9
$JOINSTYLE
280
    0
  9
$LWDISPLAY
290
    0
  9
$INSUNITS
 70
    0
  9
$HYPERLINKBASE
  1

  9
$STYLESHEET
  1

  9
$XEDIT
290
    1
  9
$CEPSNTYPE
380
    0
  9
$PSTYLEMODE
290
    1
  9
$EXTNAMES
290
    1
  9
$PSVPSCALE
 40
1
  9
$OLESTARTUP
290
    0
  9
$SORTENTS
280
  127
  9
$INDEXCTL
280
    0
  9
$HIDETEXT
280
    1
  9
$XCLIPFRAME
290
    0
  9
$HALOGAP
280
    0
  9
$OBSCOLOR
 70
  257
  9
$OBSLTYPE
280
    0
  9
$INTERSECTIONDISPLAY
280
    0
  9
$INTERSECTIONCOLOR
 70
  257
  9
$DIMASSOC
280
    1
  9
$PROJECTNAME
  1

  9
$CAMERADISPLAY
290
    0
  9
$LENSLENGTH
 40
50
  9
$CAMERAHEIGHT
 40
0
  9
$STEPSPERSEC
 40
2
  9
$STEPSIZE
 40
50
  9
$3DDWFPREC
 40
2
  9
$PSOLWIDTH
 40
5
  9
$PSOLHEIGHT
 40
80
  9
$LOFTANG1
 40
1.570796326794897
  9
$LOFTANG2
 40
1.570796326794897
  9
$LOFTMAG1
 40
0
  9
$LOFTMAG2
 40
0
  9
$LOFTPARAM
 70
    7
  9
$LOFTNORMALS
280
    1
  9
$LATITUDE
 40
1
  9
$LONGITUDE
 40
1
  9
$NORTHDIRECTION
 40
0
  9
$TIMEZONE
 70
-8000
  9
$LIGHTGLYPHDISPLAY
280
    1
  9
$TILEMODELIGHTSYNCH
280
    1
  9
$SOLIDHIST
280
    1
  9
$SHOWHIST
280
    1
  9
$DWFFRAME
280
    2
  9
$DGNFRAME
280
    0
  9
$REALWORLDSCALE
290
    1
  9
$INTERFERECOLOR
 62
    1
  9
$CSHADOW
280
    0
  9
$SHADOWPLANELOCATION
 40
0
  0
ENDSEC
  0
SECTION
  2
CLASSES
  0
ENDSEC
  0
SECTION
  2
TABLES
  0
TABLE
  2
VPORT
  5
8
330
0
100
AcDbSymbolTable
 70
    1
  0
VPORT
  5
31
330
2
100
AcDbSymbolTableRecord
100
AcDbViewportTableRecord
  2
*ACTIVE
 70
    0
 10
0
 20
0
 11
1
 21
1
 12
17636.76904139211
 22
-497.8426771826806
 13
0
 23
0
 14
10
 24
10
 15
10
 25
10
 16
0
 26
0
 36
1
 17
0
 27
0
 37
0
 40
434.3229462880529
 41
1.64625
 42
50
 43
0
 44
0
 50
0
 51
0
 71
    0
 72
  100
 73
    1
 74
    3
 75
    0
 76
    0
 77
    0
 78
    0
281
    0
 65
    1
110
0
120
0
130
0
111
1
121
0
131
0
112
0
122
1
132
0
 79
    0
146
0
348
10020
 60
    7
 61
    5
292
1
282
    1
141
0
142
0
 63
  250
421
3358443
  0
ENDTAB
  0
TABLE
  2
LTYPE
  5
5
330
0
100
AcDbSymbolTable
 70
    4
  0
LTYPE
  5
14
330
5
100
AcDbSymbolTableRecord
100
AcDbLinetypeTableRecord
  2
ByBlock
 70
    0
  3

 72
   65
 73
    0
 40
0
  0
LTYPE
  5
15
330
5
100
AcDbSymbolTableRecord
100
AcDbLinetypeTableRecord
  2
ByLayer
 70
    0
  3

 72
   65
 73
    0
 40
0
  0
LTYPE
  5
16
330
5
100
AcDbSymbolTableRecord
100
AcDbLinetypeTableRecord
  2
Continuous
 70
    0
  3
Solid line
 72
   65
 73
    0
 40
0
  0
LTYPE
  5
32
330
5
100
AcDbSymbolTableRecord
100
AcDbLinetypeTableRecord
  2
DOT
 70
    0
  3
Dot . . . . . . . . . . . . . . . . . . . . . .
 72
   65
 73
    2
 40
6.35
 49
0
 74
    0
 49
-6.35
 74
    0
  0
LTYPE
  5
33
330
5
100
AcDbSymbolTableRecord
100
AcDbLinetypeTableRecord
  2
DOTTINY
 70
    0
  3
Dot (.15x) .....................................
 72
   65
 73
    2
 40
0.9525
 49
0
 74
    0
 49
-0.9525
 74
    0
  0
LTYPE
  5
34
330
5
100
AcDbSymbolTableRecord
100
AcDbLinetypeTableRecord
  2
DOT2
 70
    0
  3
Dot (.5x) .....................................
 72
   65
 73
    2
 40
3.175
 49
0
 74
    0
 49
-3.175
 74
    0
  0
LTYPE
  5
35
330
5
100
AcDbSymbolTableRecord
100
AcDbLinetypeTableRecord
  2
DOTX2
 70
    0
  3
Dot (2x) .  .  .  .  .  .  .  .  .  .  .  .  .
 72
   65
 73
    2
 40
12.7
 49
0
 74
    0
 49
-12.7
 74
    0
  0
LTYPE
  5
36
330
5
100
AcDbSymbolTableRecord
100
AcDbLinetypeTableRecord
  2
DASHED
 70
    0
  3
Dashed _ _ _ _ _ _ _ _ _ _ _ _ _ _ _ _ _
 72
   65
 73
    2
 40
19.05
 49
12.7
 74
    0
 49
-6.35
 74
    0
  0
LTYPE
  5
37
330
5
100
AcDbSymbolTableRecord
100
AcDbLinetypeTableRecord
  2
DASHEDTINY
 70
    0
  3
Dashed (.15x) _ _ _ _ _ _ _ _ _ _ _ _ _ _ _ _ _
 72
   65
 73
    2
 40
2.8575
 49
1.905
 74
    0
 49
-0.9525
 74
    0
  0
LTYPE
  5
38
330
5
100
AcDbSymbolTableRecord
100
AcDbLinetypeTableRecord
  2
DASHED2
 70
    0
  3
Dashed (.5x) _ _ _ _ _ _ _ _ _ _ _ _ _ _ _ _ _
 72
   65
 73
    2
 40
9.524999999999999
 49
6.35
 74
    0
 49
-3.175
 74
    0
  0
LTYPE
  5
39
330
5
100
AcDbSymbolTableRecord
100
AcDbLinetypeTableRecord
  2
DASHEDX2
 70
    0
  3
Dashed (2x) ____  ____  ____  ____  ____  ___
 72
   65
 73
    2
 40
38.09999999999999
 49
25.4
 74
    0
 49
-12.7
 74
    0
  0
LTYPE
  5
3A
330
5
100
AcDbSymbolTableRecord
100
AcDbLinetypeTableRecord
  2
DASHDOT
 70
    0
  3
Dash dot __ . __ . __ . __ . __ . __ . __ . __
 72
   65
 73
    4
 40
25.4
 49
12.7
 74
    0
 49
-6.35
 74
    0
 49
0
 74
    0
 49
-6.35
 74
    0
  0
LTYPE
  5
3B
330
5
100
AcDbSymbolTableRecord
100
AcDbLinetypeTableRecord
  2
DASHDOTTINY
 70
    0
  3
Dash dot (.15x) _._._._._._._._._._._._._._._.
 72
   65
 73
    4
 40
3.81
 49
1.905
 74
    0
 49
-0.9525
 74
    0
 49
0
 74
    0
 49
-0.9525
 74
    0
  0
LTYPE
  5
3C
330
5
100
AcDbSymbolTableRecord
100
AcDbLinetypeTableRecord
  2
DASHDOT2
 70
    0
  3
Dash dot (.5x) _._._._._._._._._._._._._._._.
 72
   65
 73
    4
 40
12.7
 49
6.35
 74
    0
 49
-3.175
 74
    0
 49
0
 74
    0
 49
-3.175
 74
    0
  0
LTYPE
  5
3D
330
5
100
AcDbSymbolTableRecord
100
AcDbLinetypeTableRecord
  2
DASHDOTX2
 70
    0
  3
Dash dot (2x) ____  .  ____  .  ____  .  ___
 72
   65
 73
    4
 40
50.8
 49
25.4
 74
    0
 49
-12.7
 74
    0
 49
0
 74
    0
 49
-12.7
 74
    0
  0
LTYPE
  5
3E
330
5
100
AcDbSymbolTableRecord
100
AcDbLinetypeTableRecord
  2
DIVIDE
 70
    0
  3
Divide ____ . . ____ . . ____ . . ____ . . ____
 72
   65
 73
    6
 40
31.75
 49
12.7
 74
    0
 49
-6.35
 74
    0
 49
0
 74
    0
 49
-6.35
 74
    0
 49
0
 74
    0
 49
-6.35
 74
    0
  0
LTYPE
  5
3F
330
5
100
AcDbSymbolTableRecord
100
AcDbLinetypeTableRecord
  2
DIVIDETINY
 70
    0
  3
Divide (.15x) __..__..__..__..__..__..__..__.._
 72
   65
 73
    6
 40
4.7625
 49
1.905
 74
    0
 49
-0.9525
 74
    0
 49
0
 74
    0
 49
-0.9525
 74
    0
 49
0
 74
    0
 49
-0.9525
 74
    0
  0
LTYPE
  5
40
330
5
100
AcDbSymbolTableRecord
100
AcDbLinetypeTableRecord
  2
DIVIDE2
 70
    0
  3
Divide (.5x) __..__..__..__..__..__..__..__.._
 72
   65
 73
    6
 40
15.875
 49
6.35
 74
    0
 49
-3.175
 74
    0
 49
0
 74
    0
 49
-3.175
 74
    0
 49
0
 74
    0
 49
-3.175
 74
    0
  0
LTYPE
  5
41
330
5
100
AcDbSymbolTableRecord
100
AcDbLinetypeTableRecord
  2
DIVIDEX2
 70
    0
  3
Divide (2x) ________  .  .  ________  .  .  _
 72
   65
 73
    6
 40
63.5
 49
25.4
 74
    0
 49
-12.7
 74
    0
 49
0
 74
    0
 49
-12.7
 74
    0
 49
0
 74
    0
 49
-12.7
 74
    0
  0
LTYPE
  5
42
330
5
100
AcDbSymbolTableRecord
100
AcDbLinetypeTableRecord
  2
BORDER
 70
    0
  3
Border __ __ . __ __ . __ __ . __ __ . __ __ .
 72
   65
 73
    6
 40
44.45
 49
12.7
 74
    0
 49
-6.35
 74
    0
 49
12.7
 74
    0
 49
-6.35
 74
    0
 49
0
 74
    0
 49
-6.35
 74
    0
  0
LTYPE
  5
43
330
5
100
AcDbSymbolTableRecord
100
AcDbLinetypeTableRecord
  2
BORDERTINY
 70
    0
  3
Border (.15x) __.__.__.__.__.__.__.__.__.__.__.
 72
   65
 73
    6
 40
6.6675
 49
1.905
 74
    0
 49
-0.9525
 74
    0
 49
1.905
 74
    0
 49
-0.9525
 74
    0
 49
0
 74
    0
 49
-0.9525
 74
    0
  0
LTYPE
  5
44
330
5
100
AcDbSymbolTableRecord
100
AcDbLinetypeTableRecord
  2
BORDER2
 70
    0
  3
Border (.5x) __.__.__.__.__.__.__.__.__.__.__.
 72
   65
 73
    6
 40
22.225
 49
6.35
 74
    0
 49
-3.175
 74
    0
 49
6.35
 74
    0
 49
-3.175
 74
    0
 49
0
 74
    0
 49
-3.175
 74
    0
  0
LTYPE
  5
45
330
5
100
AcDbSymbolTableRecord
100
AcDbLinetypeTableRecord
  2
BORDERX2
 70
    0
  3
Border (2x) ____  ____  .  ____  ____  .  ___
 72
   65
 73
    6
 40
88.89999999999999
 49
25.4
 74
    0
 49
-12.7
 74
    0
 49
25.4
 74
    0
 49
-12.7
 74
    0
 49
0
 74
    0
 49
-12.7
 74
    0
  0
LTYPE
  5
46
330
5
100
AcDbSymbolTableRecord
100
AcDbLinetypeTableRecord
  2
CENTER
 70
    0
  3
Center ____ _ ____ _ ____ _ ____ _ ____ _ ____
 72
   65
 73
    4
 40
50.8
 49
31.75
 74
    0
 49
-6.35
 74
    0
 49
6.35
 74
    0
 49
-6.35
 74
    0
  0
LTYPE
  5
47
330
5
100
AcDbSymbolTableRecord
100
AcDbLinetypeTableRecord
  2
CENTERTINY
 70
    0
  3
Center (.15x) ___ _ ___ _ ___ _ ___ _ ___ _ ___
 72
   65
 73
    4
 40
7.619999999999999
 49
4.7625
 74
    0
 49
-0.9525
 74
    0
 49
0.9525
 74
    0
 49
-0.9525
 74
    0
  0
LTYPE
  5
48
330
5
100
AcDbSymbolTableRecord
100
AcDbLinetypeTableRecord
  2
CENTER2
 70
    0
  3
Center (.5x) ___ _ ___ _ ___ _ ___ _ ___ _ ___
 72
   65
 73
    4
 40
28.575
 49
19.05
 74
    0
 49
-3.175
 74
    0
 49
3.175
 74
    0
 49
-3.175
 74
    0
  0
LTYPE
  5
49
330
5
100
AcDbSymbolTableRecord
100
AcDbLinetypeTableRecord
  2
CENTERX2
 70
    0
  3
Center (2x) ________  __  ________  __  _____
 72
   65
 73
    4
 40
101.6
 49
63.5
 74
    0
 49
-12.7
 74
    0
 49
12.7
 74
    0
 49
-12.7
 74
    0
  0
ENDTAB
  0
TABLE
  2
LAYER
  5
2
330
0
100
AcDbSymbolTable
 70
    1
  0
LAYER
  5
10
330
2
100
AcDbSymbolTableRecord
100
AcDbLayerTableRecord
  2
0
 70
    0
 62
    7
  6
CONTINUOUS
370
   -3
390
F
  0
LAYER
  5
4A
330
2
100
AcDbSymbolTableRecord
100
AcDbLayerTableRecord
  2
DOORS
 70
    0
 62
    1
  6
CONTINUOUS
370
   15
390
F
  0
LAYER
  5
4B
330
2
100
AcDbSymbolTableRecord
100
AcDbLayerTableRecord
  2
WALLS
 70
    0
 62
    7
  6
CONTINUOUS
370
   35
390
F
  0
LAYER
  5
4C
330
2
100
AcDbSymbolTableRecord
100
AcDbLayerTableRecord
  2
WINDOWS
 70
    0
 62
  116
  6
CONTINUOUS
370
   20
390
F
  0
LAYER
  5
4D
330
2
100
AcDbSymbolTableRecord
100
AcDbLayerTableRecord
  2
hatch
 70
    0
 62
  252
  6
CONTINUOUS
370
   -3
390
F
  0
ENDTAB
  0
TABLE
  2
STYLE
  5
3
330
0
100
AcDbSymbolTable
 70
    3
  0
STYLE
  5
4E
330
2
100
AcDbSymbolTableRecord
100
AcDbTextStyleTableRecord
  2
Standard
 70
    0
 40
0
 41
1
 50
0
 71
    0
 42
1
  3
txt
  4

  0
ENDTAB
  0
TABLE
  2
VIEW
  5
6
330
0
100
AcDbSymbolTable
 70
    0
  0
ENDTAB
  0
TABLE
  2
UCS
  5
7
330
0
100
AcDbSymbolTable
 70
    0
  0
ENDTAB
  0
TABLE
  2
APPID
  5
9
330
0
100
AcDbSymbolTable
 70
    1
  0
APPID
  5
12
330
9
100
AcDbSymbolTableRecord
100
AcDbRegAppTableRecord
  2
ACAD
 70
    0
  0
APPID
  5
4F
330
9
100
AcDbSymbolTableRecord
100
AcDbRegAppTableRecord
  2
LibreCad
 70
    0
  0
ENDTAB
  0
TABLE
  2
DIMSTYLE
  5
A
330
0
100
AcDbSymbolTable
 70
    1
100
AcDbDimStyleTable
 71
    1
  0
DIMSTYLE
105
50
330
A
100
AcDbSymbolTableRecord
100
AcDbDimStyleTableRecord
  2
Standard
 70
    0
 40
1
 41
2.5
 42
0.625
 43
0.38
 44
1.25
 45
0
 46
0
 47
0
 48
0
 49
1
140
2.5
141
0.09
142
0
143
25.4
144
1
145
0
146
1
147
0.625
148
0
 71
    0
 72
    0
 73
    0
 74
    1
 75
    0
 76
    0
 77
    0
 78
    8
 79
    0
170
    0
171
    2
172
    0
173
    0
174
    0
175
    0
176
    0
177
    0
178
    0
179
    0
271
    2
272
    4
273
    2
274
    2
275
    0
276
    0
277
    2
278
   44
279
    0
280
    0
281
    0
282
    0
283
    1
284
    0
285
    0
286
    0
288
    0
289
    3
340
4E
  0
ENDTAB
  0
TABLE
  2
BLOCK_RECORD
  5
1
330
0
100
AcDbSymbolTable
 70
    2
  0
BLOCK_RECORD
  5
1F
330
1
100
AcDbSymbolTableRecord
100
AcDbBlockTableRecord
  2
*Model_Space
 70
    0
280
    1
281
    0
  0
BLOCK_RECORD
  5
1E
330
1
100
AcDbSymbolTableRecord
100
AcDbBlockTableRecord
  2
*Paper_Space
 70
    0
280
    1
281
    0
  0
BLOCK_RECORD
  5
51
330
1
100
AcDbSymbolTableRecord
100
AcDbBlockTableRecord
  2
*D7
 70
    0
280
    1
281
    0
  0
BLOCK_RECORD
  5
54
330
1
100
AcDbSymbolTableRecord
100
AcDbBlockTableRecord
  2
*D11
 70
    0
280
    1
281
    0
  0
BLOCK_RECORD
  5
57
330
1
100
AcDbSymbolTableRecord
100
AcDbBlockTableRecord
  2
*D9
 70
    0
280
    1
281
    0
  0
BLOCK_RECORD
  5
5A
330
1
100
AcDbSymbolTableRecord
100
AcDbBlockTableRecord
  2
*D14
 70
    0
280
    1
281
    0
  0
BLOCK_RECORD
  5
5D
330
1
100
AcDbSymbolTableRecord
100
AcDbBlockTableRecord
  2
*D12
 70
    0
280
    1
281
    0
  0
BLOCK_RECORD
  5
60
330
1
100
AcDbSymbolTableRecord
100
AcDbBlockTableRecord
  2
*D13
 70
    0
280
    1
281
    0
  0
BLOCK_RECORD
  5
63
330
1
100
AcDbSymbolTableRecord
100
AcDbBlockTableRecord
  2
*D6
 70
    0
280
    1
281
    0
  0
BLOCK_RECORD
  5
66
330
1
100
AcDbSymbolTableRecord
100
AcDbBlockTableRecord
  2
*D16
 70
    0
280
    1
281
    0
  0
BLOCK_RECORD
  5
69
330
1
100
AcDbSymbolTableRecord
100
AcDbBlockTableRecord
  2
*D10
 70
    0
280
    1
281
    0
  0
BLOCK_RECORD
  5
6C
330
1
100
AcDbSymbolTableRecord
100
AcDbBlockTableRecord
  2
*D8
 70
    0
280
    1
281
    0
  0
BLOCK_RECORD
  5
6F
330
1
100
AcDbSymbolTableRecord
100
AcDbBlockTableRecord
  2
*D15
 70
    0
280
    1
281
    0
  0
BLOCK_RECORD
  5
72
330
1
100
AcDbSymbolTableRecord
100
AcDbBlockTableRecord
  2
*D1
 70
    0
280
    1
281
    0
  0
BLOCK_RECORD
  5
75
330
1
100
AcDbSymbolTableRecord
100
AcDbBlockTableRecord
  2
*D4
 70
    0
280
    1
281
    0
  0
BLOCK_RECORD
  5
78
330
1
100
AcDbSymbolTableRecord
100
AcDbBlockTableRecord
  2
*D5
 70
    0
280
    1
281
    0
  0
BLOCK_RECORD
  5
7B
330
1
100
AcDbSymbolTableRecord
100
AcDbBlockTableRecord
  2
*D17
 70
    0
280
    1
281
    0
  0
BLOCK_RECORD
  5
7E
330
1
100
AcDbSymbolTableRecord
100
AcDbBlockTableRecord
  2
*D18
 70
    0
280
    1
281
    0
  0
BLOCK_RECORD
  5
81
330
1
100
AcDbSymbolTableRecord
100
AcDbBlockTableRecord
  2
*D2
 70
    0
280
    1
281
    0
  0
BLOCK_RECORD
  5
84
330
1
100
AcDbSymbolTableRecord
100
AcDbBlockTableRecord
  2
*D3
 70
    0
280
    1
281
    0
  0
BLOCK_RECORD
  5
87
330
1
100
AcDbSymbolTableRecord
100
AcDbBlockTableRecord
  2
BLOCK_DOOR
 70
    0
280
    1
281
    0
  0
ENDTAB
  0
ENDSEC
  0
SECTION
  2
BLOCKS
  0
BLOCK
  5
20
330
1F
100
AcDbEntity
  8
0
100
AcDbBlockBegin
  2
*Model_Space
 70
    0
 10
0
 20
0
 30
0
  3
*Model_Space
  1

  0
ENDBLK
  5
21
330
1F
100
AcDbEntity
  8
0
100
AcDbBlockEnd
  0
BLOCK
  5
1C
330
1B
100
AcDbEntity
  8
0
100
AcDbBlockBegin
  2
*Paper_Space
 70
    0
 10
0
 20
0
 30
0
  3
*Paper_Space
  1

  0
ENDBLK
  5
1D
330
1F
100
AcDbEntity
  8
0
100
AcDbBlockEnd
  0
BLOCK
  5
52
330
51
100
AcDbEntity
  8
0
100
AcDbBlockBegin
  2
*D7
 70
    1
 10
0
 20
0
  3
*D7
  1

  0
LINE
  5
8A
100
AcDbEntity
  8
hatch
  6
ByBlock
 62
    0
370
   -2
100
AcDbLine
 10
34715.17213434991
 20
-995.898515086654
 11
35075.17213434991
 21
-995.898515086654
  0
MTEXT
  5
8B
100
AcDbEntity
  8
hatch
  6
CONTINUOUS
 62
    0
370
   -2
100
AcDbMText
 10
34895.17213434991
 20
-995.898515086654
 30
0
 40
2.5
 41
5.000000000000311
 71
    5
 72
    1
  1
360
  7
STANDARD
210
0
220
0
230
1
 50
0
 73
    2
 44
1
  0
SOLID
  5
8C
100
AcDbEntity
  8
hatch
  6
ByBlock
 62
    0
370
   -2
100
AcDbTrace
 10
34715.17213434991
 20
-995.898515086654
 30
0
 11
34717.67213434991
 21
-995.4822304288812
 31
0
 12
34717.67213434991
 22
-996.3147997444269
 32
0
 13
34717.67213434991
 23
-996.3147997444269
 33
0
  0
SOLID
  5
8D
100
AcDbEntity
  8
hatch
  6
ByBlock
 62
    0
370
   -2
100
AcDbTrace
 10
35075.17213434991
 20
-995.898515086654
 30
0
 11
35072.67213434991
 21
-996.3147997444269
 31
0
 12
35072.67213434991
 22
-995.4822304288812
 32
0
 13
35072.67213434991
 23
-995.4822304288812
 33
0
  0
LINE
  5
8E
100
AcDbEntity
  8
hatch
  6
ByBlock
 62
    0
370
   -2
100
AcDbLine
 10
34715.17213434991
 20
-1016.436833958578
 11
34715.17213434991
 21
-994.648515086654
  0
LINE
  5
8F
100
AcDbEntity
  8
hatch
  6
ByBlock
 62
    0
370
   -2
100
AcDbLine
 10
35075.17213434991
 20
-1016.436833958578
 11
35075.17213434991
 21
-994.648515086654
  0
ENDBLK
  5
53
330
51
100
AcDbEntity
  8
0
100
AcDbBlockEnd
  0
BLOCK
  5
55
330
54
100
AcDbEntity
  8
0
100
AcDbBlockBegin
  2
*D11
 70
    1
 10
0
 20
0
  3
*D11
  1

  0
LINE
  5
90
100
AcDbEntity
  8
hatch
  6
ByBlock
 62
    0
370
   -2
100
AcDbLine
 10
34866.77100535883
 20
-1093.061833958578
 11
34866.77100535883
 21
-1243.061833958579
  0
MTEXT
  5
91
100
AcDbEntity
  8
hatch
  6
CONTINUOUS
 62
    0
370
   -2
100
AcDbMText
 10
34866.77100535882
 20
-1168.061833958588
 30
0
 40
2.5
 41
4.444444444444599
 71
    5
 72
    1
  1
150
  7
STANDARD
210
0
220
0
230
1
 50
90
 73
    2
 44
1
  0
SOLID
  5
92
100
AcDbEntity
  8
hatch
  6
ByBlock
 62
    0
370
   -2
100
AcDbTrace
 10
34866.77100535883
 20
-1093.061833958578
 30
0
 11
34867.18729001661
 21
-1095.561833958578
 31
0
 12
34866.35472070106
 22
-1095.561833958578
 32
0
 13
34866.35472070106
 23
-1095.561833958578
 33
0
  0
SOLID
  5
93
100
AcDbEntity
  8
hatch
  6
ByBlock
 62
    0
370
   -2
100
AcDbTrace
 10
34866.77100535883
 20
-1243.061833958579
 30
0
 11
34866.35472070106
 21
-1240.561833958579
 31
0
 12
34867.18729001661
 22
-1240.561833958579
 32
0
 13
34867.18729001661
 23
-1240.561833958579
 33
0
  0
LINE
  5
94
100
AcDbEntity
  8
hatch
  6
ByBlock
 62
    0
370
   -2
100
AcDbLine
 10
34872.2344337273
 20
-1093.061833958578
 11
34865.52100535883
 21
-1093.061833958578
  0
LINE
  5
95
100
AcDbEntity
  8
hatch
  6
ByBlock
 62
    0
370
   -2
100
AcDbLine
 10
34871.47570577848
 20
-1243.061833958579
 11
34865.52100535883
 21
-1243.061833958579
  0
ENDBLK
  5
56
330
54
100
AcDbEntity
  8
0
100
AcDbBlockEnd
  0
BLOCK
  5
58
330
57
100
AcDbEntity
  8
0
100
AcDbBlockBegin
  2
*D9
 70
    1
 10
0
 20
0
  3
*D9
  1

  0
LINE
  5
96
100
AcDbEntity
  8
hatch
  6
ByBlock
 62
    0
370
   -2
100
AcDbLine
 10
34995.90511941109
 20
-1159.061833958578
 11
34995.90511941109
 21
-1243.061833958578
  0
MTEXT
  5
97
100
AcDbEntity
  8
hatch
  6
CONTINUOUS
 62
    0
370
   -2
100
AcDbMText
 10
34995.90511941109
 20
-1201.061833958588
 30
0
 40
2.5
 41
3.333333333333333
 71
    5
 72
    1
  1
84
  7
STANDARD
210
0
220
0
230
1
 50
90
 73
    2
 44
1
  0
SOLID
  5
98
100
AcDbEntity
  8
hatch
  6
ByBlock
 62
    0
370
   -2
100
AcDbTrace
 10
34995.90511941109
 20
-1159.061833958578
 30
0
 11
34996.32140406886
 21
-1161.561833958578
 31
0
 12
34995.48883475331
 22
-1161.561833958578
 32
0
 13
34995.48883475331
 23
-1161.561833958578
 33
0
  0
SOLID
  5
99
100
AcDbEntity
  8
hatch
  6
ByBlock
 62
    0
370
   -2
100
AcDbTrace
 10
34995.90511941109
 20
-1243.061833958578
 30
0
 11
34995.48883475331
 21
-1240.561833958578
 31
0
 12
34996.32140406886
 22
-1240.561833958578
 32
0
 13
34996.32140406886
 23
-1240.561833958578
 33
0
  0
LINE
  5
9A
100
AcDbEntity
  8
hatch
  6
ByBlock
 62
    0
370
   -2
100
AcDbLine
 10
34999.93607634827
 20
-1159.061833958578
 11
34994.65511941109
 21
-1159.061833958578
  0
LINE
  5
9B
100
AcDbEntity
  8
hatch
  6
ByBlock
 62
    0
370
   -2
100
AcDbLine
 10
34999.93607634827
 20
-1243.061833958578
 11
34994.65511941109
 21
-1243.061833958578
  0
ENDBLK
  5
59
330
57
100
AcDbEntity
  8
0
100
AcDbBlockEnd
  0
BLOCK
  5
5B
330
5A
100
AcDbEntity
  8
0
100
AcDbBlockBegin
  2
*D14
 70
    1
 10
0
 20
0
  3
*D14
  1

  0
LINE
  5
9C
100
AcDbEntity
  8
hatch
  6
ByBlock
 62
    0
370
   -2
100
AcDbLine
 10
34846.17213434991
 20
-1265.831927102274
 11
34720.17213434991
 21
-1265.831927102274
  0
MTEXT
  5
9D
100
AcDbEntity
  8
hatch
  6
CONTINUOUS
 62
    0
370
   -2
100
AcDbMText
 10
34783.17213434991
 20
-1265.831927102274
 30
0
 40
2.5
 41
4.444444444444599
 71
    5
 72
    1
  1
126
  7
STANDARD
210
0
220
0
230
1
 50
0
 73
    2
 44
1
  0
SOLID
  5
9E
100
AcDbEntity
  8
hatch
  6
ByBlock
 62
    0
370
   -2
100
AcDbTrace
 10
34846.17213434991
 20
-1265.831927102274
 30
0
 11
34843.67213434991
 21
-1266.248211760047
 31
0
 12
34843.67213434991
 22
-1265.415642444501
 32
0
 13
34843.67213434991
 23
-1265.415642444501
 33
0
  0
SOLID
  5
9F
100
AcDbEntity
  8
hatch
  6
ByBlock
 62
    0
370
   -2
100
AcDbTrace
 10
34720.17213434991
 20
-1265.831927102274
 30
0
 11
34722.67213434991
 21
-1265.415642444501
 31
0
 12
34722.67213434991
 22
-1266.248211760047
 32
0
 13
34722.67213434991
 23
-1266.248211760047
 33
0
  0
LINE
  5
A0
100
AcDbEntity
  8
hatch
  6
ByBlock
 62
    0
370
   -2
100
AcDbLine
 10
34846.17213434991
 20
-1266.18684431583
 11
34846.17213434991
 21
-1267.081927102274
  0
LINE
  5
A1
100
AcDbEntity
  8
hatch
  6
ByBlock
 62
    0
370
   -2
100
AcDbLine
 10
34720.17213434991
 20
-1266.18684431583
 11
34720.17213434991
 21
-1267.081927102274
  0
ENDBLK
  5
5C
330
5A
100
AcDbEntity
  8
0
100
AcDbBlockEnd
  0
BLOCK
  5
5E
330
5D
100
AcDbEntity
  8
0
100
AcDbBlockBegin
  2
*D12
 70
    1
 10
0
 20
0
  3
*D12
  1

  0
LINE
  5
A2
100
AcDbEntity
  8
hatch
  6
ByBlock
 62
    0
370
   -2
100
AcDbLine
 10
34939.17213434989
 20
-1151.164567402961
 11
34851.17213434991
 21
-1151.164567402961
  0
MTEXT
  5
A3
100
AcDbEntity
  8
hatch
  6
CONTINUOUS
 62
    0
370
   -2
100
AcDbMText
 10
34895.1721343499
 20
-1151.164567402961
 30
0
 40
2.5
 41
3.055555555555556
 71
    5
 72
    1
  1
88
  7
STANDARD
210
0
220
0
230
1
 50
0
 73
    2
 44
1
  0
SOLID
  5
A4
100
AcDbEntity
  8
hatch
  6
ByBlock
 62
    0
370
   -2
100
AcDbTrace
 10
34939.17213434989
 20
-1151.164567402961
 30
0
 11
34936.67213434989
 21
-1151.580852060734
 31
0
 12
34936.67213434989
 22
-1150.748282745188
 32
0
 13
34936.67213434989
 23
-1150.748282745188
 33
0
  0
SOLID
  5
A5
100
AcDbEntity
  8
hatch
  6
ByBlock
 62
    0
370
   -2
100
AcDbTrace
 10
34851.17213434991
 20
-1151.164567402961
 30
0
 11
34853.67213434991
 21
-1150.748282745188
 31
0
 12
34853.67213434991
 22
-1151.580852060734
 32
0
 13
34853.67213434991
 23
-1151.580852060734
 33
0
  0
LINE
  5
A6
100
AcDbEntity
  8
hatch
  6
ByBlock
 62
    0
370
   -2
100
AcDbLine
 10
34939.17213434989
 20
-1150.539567402961
 11
34939.17213434989
 21
-1149.914567402961
  0
LINE
  5
A7
100
AcDbEntity
  8
hatch
  6
ByBlock
 62
    0
370
   -2
100
AcDbLine
 10
34851.17213434991
 20
-1150.539567402961
 11
34851.17213434991
 21
-1149.914567402961
  0
ENDBLK
  5
5F
330
5D
100
AcDbEntity
  8
0
100
AcDbBlockEnd
  0
BLOCK
  5
61
330
60
100
AcDbEntity
  8
0
100
AcDbBlockBegin
  2
*D13
 70
    1
 10
0
 20
0
  3
*D13
  1

  0
LINE
  5
A8
100
AcDbEntity
  8
hatch
  6
ByBlock
 62
    0
370
   -2
100
AcDbLine
 10
34746.24956154866
 20
-1159.061833958578
 11
34746.24956154866
 21
-1283.061854673082
  0
MTEXT
  5
A9
100
AcDbEntity
  8
hatch
  6
CONTINUOUS
 62
    0
370
   -2
100
AcDbMText
 10
34746.24956154866
 20
-1221.06184431584
 30
0
 40
2.5
 41
4.722222222222222
 71
    5
 72
    1
  1
124
  7
STANDARD
210
0
220
0
230
1
 50
90
 73
    2
 44
1
  0
SOLID
  5
AA
100
AcDbEntity
  8
hatch
  6
ByBlock
 62
    0
370
   -2
100
AcDbTrace
 10
34746.24956154866
 20
-1159.061833958578
 30
0
 11
34746.66584620644
 21
-1161.561833958578
 31
0
 12
34745.83327689089
 22
-1161.561833958578
 32
0
 13
34745.83327689089
 23
-1161.561833958578
 33
0
  0
SOLID
  5
AB
100
AcDbEntity
  8
hatch
  6
ByBlock
 62
    0
370
   -2
100
AcDbTrace
 10
34746.24956154866
 20
-1283.061854673082
 30
0
 11
34745.83327689089
 21
-1280.561854673082
 31
0
 12
34746.66584620644
 22
-1280.561854673082
 32
0
 13
34746.66584620644
 23
-1280.561854673082
 33
0
  0
LINE
  5
AC
100
AcDbEntity
  8
hatch
  6
ByBlock
 62
    0
370
   -2
100
AcDbLine
 10
34748.56948930769
 20
-1159.061833958578
 11
34744.99956154866
 21
-1159.061833958578
  0
LINE
  5
AD
100
AcDbEntity
  8
hatch
  6
ByBlock
 62
    0
370
   -2
100
AcDbLine
 10
34748.56948930769
 20
-1283.061854673082
 11
34744.99956154866
 21
-1283.061854673082
  0
ENDBLK
  5
62
330
60
100
AcDbEntity
  8
0
100
AcDbBlockEnd
  0
BLOCK
  5
64
330
63
100
AcDbEntity
  8
0
100
AcDbBlockBegin
  2
*D6
 70
    1
 10
0
 20
0
  3
*D6
  1

  0
LINE
  5
AE
100
AcDbEntity
  8
hatch
  6
ByBlock
 62
    0
370
   -2
100
AcDbLine
 10
34745.93683145743
 20
-1154.061833958578
 11
34745.93683145743
 21
-1022.061833958578
  0
MTEXT
  5
AF
100
AcDbEntity
  8
hatch
  6
CONTINUOUS
 62
    0
370
   -2
100
AcDbMText
 10
34745.93683145742
 20
-1088.061833958588
 30
0
 40
2.5
 41
4.444444444444599
 71
    5
 72
    1
  1
132
  7
STANDARD
210
0
220
0
230
1
 50
90
 73
    2
 44
1
  0
SOLID
  5
B0
100
AcDbEntity
  8
hatch
  6
ByBlock
 62
    0
370
   -2
100
AcDbTrace
 10
34745.93683145743
 20
-1154.061833958578
 30
0
 11
34745.52054679966
 21
-1151.561833958578
 31
0
 12
34746.35311611521
 22
-1151.561833958578
 32
0
 13
34746.35311611521
 23
-1151.561833958578
 33
0
  0
SOLID
  5
B1
100
AcDbEntity
  8
hatch
  6
ByBlock
 62
    0
370
   -2
100
AcDbTrace
 10
34745.93683145743
 20
-1022.061833958578
 30
0
 11
34746.35311611521
 21
-1024.561833958578
 31
0
 12
34745.52054679966
 22
-1024.561833958578
 32
0
 13
34745.52054679966
 23
-1024.561833958578
 33
0
  0
LINE
  5
B2
100
AcDbEntity
  8
hatch
  6
ByBlock
 62
    0
370
   -2
100
AcDbLine
 10
34745.47509403028
 20
-1154.061833958578
 11
34744.68683145743
 21
-1154.061833958578
  0
LINE
  5
B3
100
AcDbEntity
  8
hatch
  6
ByBlock
 62
    0
370
   -2
100
AcDbLine
 10
34745.47509403028
 20
-1022.061833958578
 11
34744.68683145743
 21
-1022.061833958578
  0
ENDBLK
  5
65
330
63
100
AcDbEntity
  8
0
100
AcDbBlockEnd
  0
BLOCK
  5
67
330
66
100
AcDbEntity
  8
0
100
AcDbBlockBegin
  2
*D16
 70
    1
 10
0
 20
0
  3
*D16
  1

  0
LINE
  5
B4
100
AcDbEntity
  8
hatch
  6
ByBlock
 62
    0
370
   -2
100
AcDbLine
 10
35019.86877455217
 20
-1248.061833958578
 11
35019.86877455217
 21
-1342.061833958569
  0
MTEXT
  5
B5
100
AcDbEntity
  8
hatch
  6
CONTINUOUS
 62
    0
370
   -2
100
AcDbMText
 10
35019.86877455216
 20
-1295.061833958584
 30
0
 40
2.5
 41
3.333333333333643
 71
    5
 72
    1
  1
94
  7
STANDARD
210
0
220
0
230
1
 50
90
 73
    2
 44
1
  0
SOLID
  5
B6
100
AcDbEntity
  8
hatch
  6
ByBlock
 62
    0
370
   -2
100
AcDbTrace
 10
35019.86877455217
 20
-1248.061833958578
 30
0
 11
35020.28505920994
 21
-1250.561833958578
 31
0
 12
35019.45248989439
 22
-1250.561833958578
 32
0
 13
35019.45248989439
 23
-1250.561833958578
 33
0
  0
SOLID
  5
B7
100
AcDbEntity
  8
hatch
  6
ByBlock
 62
    0
370
   -2
100
AcDbTrace
 10
35019.86877455217
 20
-1342.061833958569
 30
0
 11
35019.45248989439
 21
-1339.561833958569
 31
0
 12
35020.28505920994
 22
-1339.561833958569
 32
0
 13
35020.28505920994
 23
-1339.561833958569
 33
0
  0
LINE
  5
B8
100
AcDbEntity
  8
hatch
  6
ByBlock
 62
    0
370
   -2
100
AcDbLine
 10
35019.89505300187
 20
-1248.061833958578
 11
35018.61877455217
 21
-1248.061833958578
  0
LINE
  5
B9
100
AcDbEntity
  8
hatch
  6
ByBlock
 62
    0
370
   -2
100
AcDbLine
 10
35019.89505300186
 20
-1342.061833958569
 11
35018.61877455217
 21
-1342.061833958569
  0
ENDBLK
  5
68
330
66
100
AcDbEntity
  8
0
100
AcDbBlockEnd
  0
BLOCK
  5
6A
330
69
100
AcDbEntity
  8
0
100
AcDbBlockBegin
  2
*D10
 70
    1
 10
0
 20
0
  3
*D10
  1

  0
LINE
  5
BA
100
AcDbEntity
  8
hatch
  6
ByBlock
 62
    0
370
   -2
100
AcDbLine
 10
34944.1721343499
 20
-1226.182841674583
 11
35004.6721343499
 21
-1226.182841674583
  0
MTEXT
  5
BB
100
AcDbEntity
  8
hatch
  6
CONTINUOUS
 62
    0
370
   -2
100
AcDbMText
 10
34974.4221343499
 20
-1226.182841674583
 30
0
 40
2.5
 41
5.972222222222532
 71
    5
 72
    1
  1
60,5
  7
STANDARD
210
0
220
0
230
1
 50
0
 73
    2
 44
1
  0
SOLID
  5
BC
100
AcDbEntity
  8
hatch
  6
ByBlock
 62
    0
370
   -2
100
AcDbTrace
 10
34944.1721343499
 20
-1226.182841674583
 30
0
 11
34946.6721343499
 21
-1225.76655701681
 31
0
 12
34946.6721343499
 22
-1226.599126332356
 32
0
 13
34946.6721343499
 23
-1226.599126332356
 33
0
  0
SOLID
  5
BD
100
AcDbEntity
  8
hatch
  6
ByBlock
 62
    0
370
   -2
100
AcDbTrace
 10
35004.6721343499
 20
-1226.182841674583
 30
0
 11
35002.1721343499
 21
-1226.599126332356
 31
0
 12
35002.1721343499
 22
-1225.76655701681
 32
0
 13
35002.1721343499
 23
-1225.76655701681
 33
0
  0
LINE
  5
BE
100
AcDbEntity
  8
hatch
  6
ByBlock
 62
    0
370
   -2
100
AcDbLine
 10
34944.1721343499
 20
-1225.557841674588
 11
34944.1721343499
 21
-1224.932841674583
  0
LINE
  5
BF
100
AcDbEntity
  8
hatch
  6
ByBlock
 62
    0
370
   -2
100
AcDbLine
 10
35004.6721343499
 20
-1225.557841674583
 11
35004.6721343499
 21
-1224.932841674583
  0
ENDBLK
  5
6B
330
69
100
AcDbEntity
  8
0
100
AcDbBlockEnd
  0
BLOCK
  5
6D
330
6C
100
AcDbEntity
  8
0
100
AcDbBlockBegin
  2
*D8
 70
    1
 10
0
 20
0
  3
*D8
  1

  0
LINE
  5
C0
100
AcDbEntity
  8
hatch
  6
ByBlock
 62
    0
370
   -2
100
AcDbLine
 10
34995.1079171267
 20
-1022.061833958578
 11
34995.1079171267
 21
-1154.061833958578
  0
MTEXT
  5
C1
100
AcDbEntity
  8
hatch
  6
CONTINUOUS
 62
    0
370
   -2
100
AcDbMText
 10
34995.1079171267
 20
-1088.061833958588
 30
0
 40
2.5
 41
4.444444444444599
 71
    5
 72
    1
  1
132
  7
STANDARD
210
0
220
0
230
1
 50
90
 73
    2
 44
1
  0
SOLID
  5
C2
100
AcDbEntity
  8
hatch
  6
ByBlock
 62
    0
370
   -2
100
AcDbTrace
 10
34995.1079171267
 20
-1022.061833958578
 30
0
 11
34995.52420178447
 21
-1024.561833958578
 31
0
 12
34994.69163246892
 22
-1024.561833958578
 32
0
 13
34994.69163246892
 23
-1024.561833958578
 33
0
  0
SOLID
  5
C3
100
AcDbEntity
  8
hatch
  6
ByBlock
 62
    0
370
   -2
100
AcDbTrace
 10
34995.1079171267
 20
-1154.061833958578
 30
0
 11
34994.69163246892
 21
-1151.561833958578
 31
0
 12
34995.52420178447
 22
-1151.561833958578
 32
0
 13
34995.52420178447
 23
-1151.561833958578
 33
0
  0
LINE
  5
C4
100
AcDbEntity
  8
hatch
  6
ByBlock
 62
    0
370
   -2
100
AcDbLine
 10
34984.0645790081
 20
-1022.061833958578
 11
34996.3579171267
 21
-1022.061833958578
  0
LINE
  5
C5
100
AcDbEntity
  8
hatch
  6
ByBlock
 62
    0
370
   -2
100
AcDbLine
 10
34984.0645790081
 20
-1154.061833958578
 11
34996.3579171267
 21
-1154.061833958578
  0
ENDBLK
  5
6E
330
6C
100
AcDbEntity
  8
0
100
AcDbBlockEnd
  0
BLOCK
  5
70
330
6F
100
AcDbEntity
  8
0
100
AcDbBlockBegin
  2
*D15
 70
    1
 10
0
 20
0
  3
*D15
  1

  0
LINE
  5
C6
100
AcDbEntity
  8
hatch
  6
ByBlock
 62
    0
370
   -2
100
AcDbLine
 10
34851.17213434991
 20
-1264.778958900028
 11
35070.17213434991
 21
-1264.778958900028
  0
MTEXT
  5
C7
100
AcDbEntity
  8
hatch
  6
CONTINUOUS
 62
    0
370
   -2
100
AcDbMText
 10
34960.67213434991
 20
-1264.778958900028
 30
0
 40
2.5
 41
4.444444444444445
 71
    5
 72
    1
  1
219
  7
STANDARD
210
0
220
0
230
1
 50
0
 73
    2
 44
1
  0
SOLID
  5
C8
100
AcDbEntity
  8
hatch
  6
ByBlock
 62
    0
370
   -2
100
AcDbTrace
 10
34851.17213434991
 20
-1264.778958900028
 30
0
 11
34853.67213434991
 21
-1264.362674242255
 31
0
 12
34853.67213434991
 22
-1265.195243557801
 32
0
 13
34853.67213434991
 23
-1265.195243557801
 33
0
  0
SOLID
  5
C9
100
AcDbEntity
  8
hatch
  6
ByBlock
 62
    0
370
   -2
100
AcDbTrace
 10
35070.17213434991
 20
-1264.778958900028
 30
0
 11
35067.67213434991
 21
-1265.195243557801
 31
0
 12
35067.67213434991
 22
-1264.362674242255
 32
0
 13
35067.67213434991
 23
-1264.362674242255
 33
0
  0
LINE
  5
CA
100
AcDbEntity
  8
hatch
  6
ByBlock
 62
    0
370
   -2
100
AcDbLine
 10
34851.17213434991
 20
-1263.12606486549
 11
34851.17213434991
 21
-1266.028958900028
  0
LINE
  5
CB
100
AcDbEntity
  8
hatch
  6
ByBlock
 62
    0
370
   -2
100
AcDbLine
 10
35070.17213434991
 20
-1263.12606486549
 11
35070.17213434991
 21
-1266.028958900028
  0
ENDBLK
  5
71
330
6F
100
AcDbEntity
  8
0
100
AcDbBlockEnd
  0
BLOCK
  5
73
330
72
100
AcDbEntity
  8
0
100
AcDbBlockBegin
  2
*D1
 70
    1
 10
0
 20
0
  3
*D1
  1

  0
LINE
  5
CC
100
AcDbEntity
  8
hatch
  6
ByBlock
 62
    0
370
   -2
100
AcDbLine
 10
34687.78027372212
 20
-1017.061833958578
 11
34687.78027372212
 21
-1377.061833958578
  0
MTEXT
  5
CD
100
AcDbEntity
  8
hatch
  6
CONTINUOUS
 62
    0
370
   -2
100
AcDbMText
 10
34687.78027372212
 20
-1197.061833958573
 30
0
 40
2.5
 41
5.000000000000311
 71
    5
 72
    1
  1
360
  7
STANDARD
210
0
220
0
230
1
 50
90
 73
    2
 44
1
  0
SOLID
  5
CE
100
AcDbEntity
  8
hatch
  6
ByBlock
 62
    0
370
   -2
100
AcDbTrace
 10
34687.78027372212
 20
-1017.061833958578
 30
0
 11
34688.1965583799
 21
-1019.561833958578
 31
0
 12
34687.36398906435
 22
-1019.561833958578
 32
0
 13
34687.36398906435
 23
-1019.561833958578
 33
0
  0
SOLID
  5
CF
100
AcDbEntity
  8
hatch
  6
ByBlock
 62
    0
370
   -2
100
AcDbTrace
 10
34687.78027372212
 20
-1377.061833958578
 30
0
 11
34687.36398906435
 21
-1374.561833958578
 31
0
 12
34688.1965583799
 22
-1374.561833958578
 32
0
 13
34688.1965583799
 23
-1374.561833958578
 33
0
  0
LINE
  5
D0
100
AcDbEntity
  8
hatch
  6
ByBlock
 62
    0
370
   -2
100
AcDbLine
 10
34714.54713434991
 20
-1017.061833958578
 11
34686.53027372212
 21
-1017.061833958578
  0
LINE
  5
D1
100
AcDbEntity
  8
hatch
  6
ByBlock
 62
    0
370
   -2
100
AcDbLine
 10
34714.54713434991
 20
-1377.061833958578
 11
34686.53027372212
 21
-1377.061833958578
  0
ENDBLK
  5
74
330
72
100
AcDbEntity
  8
0
100
AcDbBlockEnd
  0
BLOCK
  5
76
330
75
100
AcDbEntity
  8
0
100
AcDbBlockBegin
  2
*D4
 70
    1
 10
0
 20
0
  3
*D4
  1

  0
LINE
  5
D2
100
AcDbEntity
  8
hatch
  6
ByBlock
 62
    0
370
   -2
100
AcDbLine
 10
34944.17213434991
 20
-1038.734728748605
 11
35070.17213434991
 21
-1038.734728748605
  0
MTEXT
  5
D3
100
AcDbEntity
  8
hatch
  6
CONTINUOUS
 62
    0
370
   -2
100
AcDbMText
 10
35007.17213434991
 20
-1038.734728748605
 30
0
 40
2.5
 41
4.444444444444599
 71
    5
 72
    1
  1
126
  7
STANDARD
210
0
220
0
230
1
 50
0
 73
    2
 44
1
  0
SOLID
  5
D4
100
AcDbEntity
  8
hatch
  6
ByBlock
 62
    0
370
   -2
100
AcDbTrace
 10
34944.17213434991
 20
-1038.734728748605
 30
0
 11
34946.67213434991
 21
-1038.318444090832
 31
0
 12
34946.67213434991
 22
-1039.151013406378
 32
0
 13
34946.67213434991
 23
-1039.151013406378
 33
0
  0
SOLID
  5
D5
100
AcDbEntity
  8
hatch
  6
ByBlock
 62
    0
370
   -2
100
AcDbTrace
 10
35070.17213434991
 20
-1038.734728748605
 30
0
 11
35067.67213434991
 21
-1039.151013406378
 31
0
 12
35067.67213434991
 22
-1038.318444090832
 32
0
 13
35067.67213434991
 23
-1038.318444090832
 33
0
  0
LINE
  5
D6
100
AcDbEntity
  8
hatch
  6
ByBlock
 62
    0
370
   -2
100
AcDbLine
 10
34944.17213434991
 20
-1038.340815725784
 11
34944.17213434991
 21
-1039.984728748605
  0
LINE
  5
D7
100
AcDbEntity
  8
hatch
  6
ByBlock
 62
    0
370
   -2
100
AcDbLine
 10
35070.17213434991
 20
-1038.340815725782
 11
35070.17213434991
 21
-1039.984728748605
  0
ENDBLK
  5
77
330
75
100
AcDbEntity
  8
0
100
AcDbBlockEnd
  0
BLOCK
  5
79
330
78
100
AcDbEntity
  8
0
100
AcDbBlockBegin
  2
*D5
 70
    1
 10
0
 20
0
  3
*D5
  1

  0
LINE
  5
D8
100
AcDbEntity
  8
hatch
  6
ByBlock
 62
    0
370
   -2
100
AcDbLine
 10
34851.17213434991
 20
-1039.188055727781
 11
34939.17213434991
 21
-1039.188055727781
  0
MTEXT
  5
D9
100
AcDbEntity
  8
hatch
  6
CONTINUOUS
 62
    0
370
   -2
100
AcDbMText
 10
34895.17213434991
 20
-1039.188055727781
 30
0
 40
2.5
 41
3.055555555555556
 71
    5
 72
    1
  1
88
  7
STANDARD
210
0
220
0
230
1
 50
0
 73
    2
 44
1
  0
SOLID
  5
DA
100
AcDbEntity
  8
hatch
  6
ByBlock
 62
    0
370
   -2
100
AcDbTrace
 10
34851.17213434991
 20
-1039.188055727781
 30
0
 11
34853.67213434991
 21
-1038.771771070008
 31
0
 12
34853.67213434991
 22
-1039.604340385554
 32
0
 13
34853.67213434991
 23
-1039.604340385554
 33
0
  0
SOLID
  5
DB
100
AcDbEntity
  8
hatch
  6
ByBlock
 62
    0
370
   -2
100
AcDbTrace
 10
34939.17213434991
 20
-1039.188055727781
 30
0
 11
34936.67213434991
 21
-1039.604340385554
 31
0
 12
34936.67213434991
 22
-1038.771771070008
 32
0
 13
34936.67213434991
 23
-1038.771771070008
 33
0
  0
LINE
  5
DC
100
AcDbEntity
  8
hatch
  6
ByBlock
 62
    0
370
   -2
100
AcDbLine
 10
34851.17213434991
 20
-1037.553193458423
 11
34851.17213434991
 21
-1040.438055727781
  0
LINE
  5
DD
100
AcDbEntity
  8
hatch
  6
ByBlock
 62
    0
370
   -2
100
AcDbLine
 10
34939.17213434991
 20
-1037.55319345844
 11
34939.17213434991
 21
-1040.438055727781
  0
ENDBLK
  5
7A
330
78
100
AcDbEntity
  8
0
100
AcDbBlockEnd
  0
BLOCK
  5
7C
330
7B
100
AcDbEntity
  8
0
100
AcDbBlockBegin
  2
*D17
 70
    1
 10
0
 20
0
  3
*D17
  1

  0
LINE
  5
DE
100
AcDbEntity
  8
hatch
  6
ByBlock
 62
    0
370
   -2
100
AcDbLine
 10
35009.67213434991
 20
-1227.36706526655
 11
35070.17213434991
 21
-1227.36706526655
  0
MTEXT
  5
DF
100
AcDbEntity
  8
hatch
  6
CONTINUOUS
 62
    0
370
   -2
100
AcDbMText
 10
35039.92213434991
 20
-1227.36706526655
 30
0
 40
2.5
 41
5.972222222222532
 71
    5
 72
    1
  1
60,5
  7
STANDARD
210
0
220
0
230
1
 50
0
 73
    2
 44
1
  0
SOLID
  5
E0
100
AcDbEntity
  8
hatch
  6
ByBlock
 62
    0
370
   -2
100
AcDbTrace
 10
35009.67213434991
 20
-1227.36706526655
 30
0
 11
35012.17213434991
 21
-1226.950780608777
 31
0
 12
35012.17213434991
 22
-1227.783349924323
 32
0
 13
35012.17213434991
 23
-1227.783349924323
 33
0
  0
SOLID
  5
E1
100
AcDbEntity
  8
hatch
  6
ByBlock
 62
    0
370
   -2
100
AcDbTrace
 10
35070.17213434991
 20
-1227.36706526655
 30
0
 11
35067.67213434991
 21
-1227.783349924323
 31
0
 12
35067.67213434991
 22
-1226.950780608777
 32
0
 13
35067.67213434991
 23
-1226.950780608777
 33
0
  0
LINE
  5
E2
100
AcDbEntity
  8
hatch
  6
ByBlock
 62
    0
370
   -2
100
AcDbLine
 10
35009.67213434991
 20
-1226.74206526655
 11
35009.67213434991
 21
-1226.11706526655
  0
LINE
  5
E3
100
AcDbEntity
  8
hatch
  6
ByBlock
 62
    0
370
   -2
100
AcDbLine
 10
35070.17213434991
 20
-1226.74206526655
 11
35070.17213434991
 21
-1226.11706526655
  0
ENDBLK
  5
7D
330
7B
100
AcDbEntity
  8
0
100
AcDbBlockEnd
  0
BLOCK
  5
7F
330
7E
100
AcDbEntity
  8
0
100
AcDbBlockBegin
  2
*D18
 70
    1
 10
0
 20
0
  3
*D18
  1

  0
LINE
  5
E4
100
AcDbEntity
  8
hatch
  6
ByBlock
 62
    0
370
   -2
100
AcDbLine
 10
34746.78756867847
 20
-1288.061854673089
 11
34746.78756867847
 21
-1372.061833958579
  0
MTEXT
  5
E5
100
AcDbEntity
  8
hatch
  6
CONTINUOUS
 62
    0
370
   -2
100
AcDbMText
 10
34746.78756867846
 20
-1330.061844315844
 30
0
 40
2.5
 41
3.333333333333333
 71
    5
 72
    1
  1
84
  7
STANDARD
210
0
220
0
230
1
 50
90
 73
    2
 44
1
  0
SOLID
  5
E6
100
AcDbEntity
  8
hatch
  6
ByBlock
 62
    0
370
   -2
100
AcDbTrace
 10
34746.78756867847
 20
-1288.061854673089
 30
0
 11
34747.20385333624
 21
-1290.561854673089
 31
0
 12
34746.37128402069
 22
-1290.561854673089
 32
0
 13
34746.37128402069
 23
-1290.561854673089
 33
0
  0
SOLID
  5
E7
100
AcDbEntity
  8
hatch
  6
ByBlock
 62
    0
370
   -2
100
AcDbTrace
 10
34746.78756867847
 20
-1372.061833958579
 30
0
 11
34746.37128402069
 21
-1369.561833958579
 31
0
 12
34747.20385333624
 22
-1369.561833958579
 32
0
 13
34747.20385333624
 23
-1369.561833958579
 33
0
  0
LINE
  5
E8
100
AcDbEntity
  8
hatch
  6
ByBlock
 62
    0
370
   -2
100
AcDbLine
 10
34746.1625686784
 20
-1288.061854673089
 11
34745.53756867847
 21
-1288.061854673089
  0
LINE
  5
E9
100
AcDbEntity
  8
hatch
  6
ByBlock
 62
    0
370
   -2
100
AcDbLine
 10
34746.1625686784
 20
-1372.061833958579
 11
34745.53756867847
 21
-1372.061833958579
  0
ENDBLK
  5
80
330
7E
100
AcDbEntity
  8
0
100
AcDbBlockEnd
  0
BLOCK
  5
82
330
81
100
AcDbEntity
  8
0
100
AcDbBlockBegin
  2
*D2
 70
    1
 10
0
 20
0
  3
*D2
  1

  0
LINE
  5
EA
100
AcDbEntity
  8
hatch
  6
ByBlock
 62
    0
370
   -2
100
AcDbLine
 10
34866.08125262828
 20
-1088.061833958578
 11
34866.08125262828
 21
-1022.061833958578
  0
MTEXT
  5
EB
100
AcDbEntity
  8
hatch
  6
CONTINUOUS
 62
    0
370
   -2
100
AcDbMText
 10
34866.08125262827
 20
-1055.061833958588
 30
0
 40
2.5
 41
3.055555555555866
 71
    5
 72
    1
  1
66
  7
STANDARD
210
0
220
0
230
1
 50
90
 73
    2
 44
1
  0
SOLID
  5
EC
100
AcDbEntity
  8
hatch
  6
ByBlock
 62
    0
370
   -2
100
AcDbTrace
 10
34866.08125262828
 20
-1088.061833958578
 30
0
 11
34865.66496797051
 21
-1085.561833958578
 31
0
 12
34866.49753728606
 22
-1085.561833958578
 32
0
 13
34866.49753728606
 23
-1085.561833958578
 33
0
  0
SOLID
  5
ED
100
AcDbEntity
  8
hatch
  6
ByBlock
 62
    0
370
   -2
100
AcDbTrace
 10
34866.08125262828
 20
-1022.061833958578
 30
0
 11
34866.49753728606
 21
-1024.561833958578
 31
0
 12
34865.66496797051
 22
-1024.561833958578
 32
0
 13
34865.66496797051
 23
-1024.561833958578
 33
0
  0
LINE
  5
EE
100
AcDbEntity
  8
hatch
  6
ByBlock
 62
    0
370
   -2
100
AcDbLine
 10
34865.87437286713
 20
-1088.061833958578
 11
34867.33125262828
 21
-1088.061833958578
  0
LINE
  5
EF
100
AcDbEntity
  8
hatch
  6
ByBlock
 62
    0
370
   -2
100
AcDbLine
 10
34863.37835390347
 20
-1022.061833958578
 11
34867.33125262828
 21
-1022.061833958578
  0
ENDBLK
  5
83
330
81
100
AcDbEntity
  8
0
100
AcDbBlockEnd
  0
BLOCK
  5
85
330
84
100
AcDbEntity
  8
0
100
AcDbBlockBegin
  2
*D3
 70
    1
 10
0
 20
0
  3
*D3
  1

  0
LINE
  5
F0
100
AcDbEntity
  8
hatch
  6
ByBlock
 62
    0
370
   -2
100
AcDbLine
 10
34846.17213434991
 20
-1040.694463472992
 11
34720.17213434991
 21
-1040.694463472992
  0
MTEXT
  5
F1
100
AcDbEntity
  8
hatch
  6
CONTINUOUS
 62
    0
370
   -2
100
AcDbMText
 10
34783.17213434991
 20
-1040.694463472992
 30
0
 40
2.5
 41
4.444444444444599
 71
    5
 72
    1
  1
126
  7
STANDARD
210
0
220
0
230
1
 50
0
 73
    2
 44
1
  0
SOLID
  5
F2
100
AcDbEntity
  8
hatch
  6
ByBlock
 62
    0
370
   -2
100
AcDbTrace
 10
34846.17213434991
 20
-1040.694463472992
 30
0
 11
34843.67213434991
 21
-1041.110748130765
 31
0
 12
34843.67213434991
 22
-1040.278178815219
 32
0
 13
34843.67213434991
 23
-1040.278178815219
 33
0
  0
SOLID
  5
F3
100
AcDbEntity
  8
hatch
  6
ByBlock
 62
    0
370
   -2
100
AcDbTrace
 10
34720.17213434991
 20
-1040.694463472992
 30
0
 11
34722.67213434991
 21
-1040.278178815219
 31
0
 12
34722.67213434991
 22
-1041.110748130765
 32
0
 13
34722.67213434991
 23
-1041.110748130765
 33
0
  0
LINE
  5
F4
100
AcDbEntity
  8
hatch
  6
ByBlock
 62
    0
370
   -2
100
AcDbLine
 10
34846.17213434991
 20
-1043.126232832885
 11
34846.17213434991
 21
-1039.444463472992
  0
LINE
  5
F5
100
AcDbEntity
  8
hatch
  6
ByBlock
 62
    0
370
   -2
100
AcDbLine
 10
34720.17213434991
 20
-1043.126232832881
 11
34720.17213434991
 21
-1039.444463472992
  0
ENDBLK
  5
86
330
84
100
AcDbEntity
  8
0
100
AcDbBlockEnd
  0
BLOCK
  5
88
330
87
100
AcDbEntity
  8
0
100
AcDbBlockBegin
  2
BLOCK_DOOR
 70
    0
 10
0
 20
0
  3
BLOCK_DOOR
  1

  0
LWPOLYLINE
  5
F6
100
AcDbEntity
  8
DOORS
  6
ByLayer
 62
  256
370
   -1
100
AcDbPolyline
 90
    7
 70
    0
 43
0
 10
2
 20
5
 10
2
 20
3.5
 10
2.5
 20
3.5
 10
2.5
 20
0
 10
0
 20
0
 10
0
 20
5
 10
2
 20
5
  0
LWPOLYLINE
  5
F7
100
AcDbEntity
  8
DOORS
  6
ByLayer
 62
  256
370
   -1
100
AcDbPolyline
 90
    7
 70
    0
 43
0
 10
38
 20
5
 10
38
 20
3.5
 10
37.5
 20
3.5
 10
37.5
 20
0
 10
40
 20
0
 10
40
 20
5
 10
38
 20
5
  0
LINE
  5
F8
100
AcDbEntity
  8
DOORS
  6
ByLayer
 62
  256
370
   -1
100
AcDbLine
 10
2
 20
5
 11
2
 21
40.99999999999977
  0
LINE
  5
F9
100
AcDbEntity
  8
DOORS
  6
ByLayer
 62
  256
370
   -1
100
AcDbLine
 10
3.5
 20
5
 11
3.500000000003638
 21
40.96873642484502
  0
LINE
  5
FA
100
AcDbEntity
  8
DOORS
  6
ByLayer
 62
  256
370
   -1
100
AcDbLine
 10
2
 20
5
 11
3.5
 21
5
  0
ARC
  5
FB
100
AcDbEntity
  8
DOORS
  6
ByLayer
 62
  256
370
   -1
100
AcDbCircle
 10
2
 20
5
 40
36
100
AcDbArc
 50
0
 51
90
  0
ENDBLK
  5
89
330
87
100
AcDbEntity
  8
0
100
AcDbBlockEnd
  0
ENDSEC
  0
SECTION
  2
ENTITIES
  0
DIMENSION
  5
FC
100
AcDbEntity
  8
hatch
  6
ByLayer
 62
  256
370
    0
100
AcDbDimension
  2
*D1
 10
34687.78027372212
 20
-1377.061833958578
 30
0
 11
34687.78027372212
 21
-1197.061833958573
 31
0
 70
   32
 71
    5
  3
WORKING
 53
0
210
0
220
0
230
1
100
AcDbAlignedDimension
 13
34715.17213434991
 23
-1017.061833958578
 33
0
 14
34715.17213434991
 24
-1377.061833958578
 34
0
 50
90
100
AcDbRotatedDimension
  0
LINE
  5
FD
100
AcDbEntity
  8
WALLS
  6
ByLayer
 62
  256
370
   -1
100
AcDbLine
 10
34887.17215957548
 20
-1372.061854673093
 11
34887.17215957548
 21
-1342.061833958577
  0
DIMENSION
  5
FE
100
AcDbEntity
  8
hatch
  6
ByLayer
 62
  256
370
    0
100
AcDbDimension
  2
*D2
 10
34866.08125262828
 20
-1022.061833958579
 30
0
 11
34866.08125262827
 21
-1055.061833958588
 31
0
 70
   32
 71
    5
  3
WORKING
 53
0
210
0
220
0
230
1
100
AcDbAlignedDimension
 13
34865.24937286713
 23
-1088.061833958578
 33
0
 14
34862.75335390347
 24
-1022.061833958578
 34
0
 50
90
100
AcDbRotatedDimension
  0
LINE
  5
FF
100
AcDbEntity
  8
WALLS
  6
ByLayer
 62
  256
370
   -1
100
AcDbLine
 10
34753.17213434991
 20
-1022.061833958575
 11
34753.17213434991
 21
-1017.06183395858
  0
LINE
  5
100
100
AcDbEntity
  8
WALLS
  6
ByLayer
 62
  256
370
   -1
100
AcDbLine
 10
34952.17213886097
 20
-1347.061833958543
 11
34952.17213886097
 21
-1342.061833958562
  0
LINE
  5
101
100
AcDbEntity
  8
WALLS
  6
ByLayer
 62
  256
370
   -1
100
AcDbLine
 10
34952.17213886097
 20
-1347.061833958563
 11
35075.17213434991
 21
-1347.061833958577
  0
LINE
  5
102
100
AcDbEntity
  8
WALLS
  6
ByLayer
 62
  256
370
   -1
100
AcDbLine
 10
34952.17213886097
 20
-1342.061833958563
 11
35070.17213434991
 21
-1342.061833958576
  0
LINE
  5
103
100
AcDbEntity
  8
WALLS
  6
ByLayer
 62
  256
370
   -1
100
AcDbLine
 10
34851.17213434991
 20
-1243.061833958579
 11
34893.02927720705
 21
-1243.061833958579
  0
DIMENSION
  5
104
100
AcDbEntity
  8
hatch
  6
ByLayer
 62
  256
370
    0
100
AcDbDimension
  2
*D3
 10
34720.17213434991
 20
-1040.694463472992
 30
0
 11
34783.17213434991
 21
-1040.694463472992
 31
0
 70
   32
 71
    5
  3
WORKING
 53
0
210
0
220
0
230
1
100
AcDbAlignedDimension
 13
34846.17213434991
 23
-1043.751232832885
 33
0
 14
34720.17213434991
 24
-1043.751232832881
 34
0
100
AcDbRotatedDimension
  0
DIMENSION
  5
105
100
AcDbEntity
  8
hatch
  6
ByLayer
 62
  256
370
    0
100
AcDbDimension
  2
*D4
 10
35070.17213434991
 20
-1038.734728748605
 30
0
 11
35007.17213434991
 21
-1038.734728748605
 31
0
 70
   32
 71
    5
  3
WORKING
 53
0
210
0
220
0
230
1
100
AcDbAlignedDimension
 13
34944.17213434991
 23
-1037.715815725784
 33
0
 14
35070.17213434991
 24
-1037.715815725782
 34
0
100
AcDbRotatedDimension
  0
INSERT
  5
106
100
AcDbEntity
  8
DOORS
  6
ByLayer
 62
  256
370
    0
100
AcDbBlockReference
  2
BLOCK_DOOR
 10
34939.17213434989
 20
-1164.061833958578
 30
0
 41
0.7714285714284634
 42
0.7714285714284634
 43
0
 50
270
 70
    1
 71
    1
 44
0
 45
0
  0
DIMENSION
  5
107
100
AcDbEntity
  8
hatch
  6
ByLayer
 62
  256
370
    0
100
AcDbDimension
  2
*D5
 10
34939.17213434991
 20
-1039.188055727781
 30
0
 11
34895.17213434991
 21
-1039.188055727781
 31
0
 70
   32
 71
    5
  3
WORKING
 53
0
210
0
220
0
230
1
100
AcDbAlignedDimension
 13
34851.17213434991
 23
-1036.928193458423
 33
0
 14
34939.17213434991
 24
-1036.92819345844
 34
0
100
AcDbRotatedDimension
  0
LINE
  5
108
100
AcDbEntity
  8
WALLS
  6
ByLayer
 62
  256
370
   -1
100
AcDbLine
 10
34903.31499149275
 20
-1093.061833958577
 11
34903.31499149275
 21
-1088.061833958584
  0
LINE
  5
109
100
AcDbEntity
  8
WALLS
  6
ByLayer
 62
  256
370
   -1
100
AcDbLine
 10
34934.17213434989
 20
-1088.061833958577
 11
34934.17213434989
 21
-1093.061833958577
  0
INSERT
  5
10A
100
AcDbEntity
  8
DOORS
  6
ByLayer
 62
  256
370
    0
100
AcDbBlockReference
  2
BLOCK_DOOR
 10
34934.17213434989
 20
-1093.061833958577
 30
0
 41
-0.7714285714284634
 42
0.7714285714284634
 43
0
 50
0
 70
    1
 71
    1
 44
0
 45
0
  0
LINE
  5
10B
100
AcDbEntity
  8
WALLS
  6
ByLayer
 62
  256
370
   -1
100
AcDbLine
 10
34939.17213434989
 20
-1194.918976815717
 11
34944.17213434989
 21
-1194.918976815717
  0
LINE
  5
10C
100
AcDbEntity
  8
WALLS
  6
ByLayer
 62
  256
370
   -1
100
AcDbLine
 10
34939.17213434989
 20
-1164.061833958578
 11
34944.17213434989
 21
-1164.061833958578
  0
LINE
  5
10D
100
AcDbEntity
  8
WALLS
  6
ByLayer
 62
  256
370
   -1
100
AcDbLine
 10
34893.02927720705
 20
-1248.061833958578
 11
34893.02927720705
 21
-1243.061833958579
  0
LINE
  5
10E
100
AcDbEntity
  8
WALLS
  6
ByLayer
 62
  256
370
   -1
100
AcDbLine
 10
34934.17213434991
 20
-1248.061833958578
 11
34934.17213434991
 21
-1243.061833958578
  0
INSERT
  5
10F
100
AcDbEntity
  8
DOORS
  6
ByLayer
 62
  256
370
    0
100
AcDbBlockReference
  2
BLOCK_DOOR
 10
34934.17213434991
 20
-1248.061833958578
 30
0
 41
-1.028571428571428
 42
1.028571428571428
 43
0
 50
0
 70
    1
 71
    1
 44
0
 45
0
  0
LINE
  5
110
100
AcDbEntity
  8
WALLS
  6
ByLayer
 62
  256
370
   -1
100
AcDbLine
 10
34939.17213434989
 20
-1107.918976815721
 11
34944.17213434989
 21
-1107.918976815721
  0
LINE
  5
111
100
AcDbEntity
  8
WALLS
  6
ByLayer
 62
  256
370
   -1
100
AcDbLine
 10
34939.17213434989
 20
-1149.061833958578
 11
34944.17213434989
 21
-1149.061833958578
  0
INSERT
  5
112
100
AcDbEntity
  8
DOORS
  6
ByLayer
 62
  256
370
    0
100
AcDbBlockReference
  2
BLOCK_DOOR
 10
34939.17213434989
 20
-1149.061833958578
 30
0
 41
-1.028571428571428
 42
1.028571428571428
 43
0
 50
270
 70
    1
 71
    1
 44
0
 45
0
  0
LINE
  5
113
100
AcDbEntity
  8
WALLS
  6
ByLayer
 62
  256
370
   -1
100
AcDbLine
 10
34851.17213434991
 20
-1107.918976815721
 11
34846.17213434991
 21
-1107.918976815721
  0
LINE
  5
114
100
AcDbEntity
  8
WALLS
  6
ByLayer
 62
  256
370
   -1
100
AcDbLine
 10
34851.17213434991
 20
-1149.061833958578
 11
34846.17213434991
 21
-1149.061833958578
  0
INSERT
  5
115
100
AcDbEntity
  8
DOORS
  6
ByLayer
 62
  256
370
    0
100
AcDbBlockReference
  2
BLOCK_DOOR
 10
34851.17213434991
 20
-1149.061833958578
 30
0
 41
1.028571428571428
 42
1.028571428571428
 43
0
 50
90.00000000000003
 70
    1
 71
    1
 44
0
 45
0
  0
LINE
  5
116
100
AcDbEntity
  8
WALLS
  6
ByLayer
 62
  256
370
   -1
100
AcDbLine
 10
34851.17213434991
 20
-1248.061833958578
 11
34851.17213434991
 21
-1288.061854673089
  0
LINE
  5
117
100
AcDbEntity
  8
WALLS
  6
ByLayer
 62
  256
370
   -1
100
AcDbLine
 10
34851.17213434991
 20
-1205.689284015951
 11
34851.17213434991
 21
-1243.061833958579
  0
LINE
  5
118
100
AcDbEntity
  8
WALLS
  6
ByLayer
 62
  256
370
   -1
100
AcDbLine
 10
34851.17213434991
 20
-1149.061833958578
 11
34851.17213434991
 21
-1164.546426873094
  0
LINE
  5
119
100
AcDbEntity
  8
WALLS
  6
ByLayer
 62
  256
370
   -1
100
AcDbLine
 10
34851.17213434991
 20
-1093.061833958578
 11
34851.17213434991
 21
-1107.918976815721
  0
LINE
  5
11A
100
AcDbEntity
  8
WALLS
  6
ByLayer
 62
  256
370
   -1
100
AcDbLine
 10
34851.17213434991
 20
-1022.061833958578
 11
34851.17213434991
 21
-1088.061833958578
  0
LINE
  5
11B
100
AcDbEntity
  8
WALLS
  6
ByLayer
 62
  256
370
   -1
100
AcDbLine
 10
34846.17213434991
 20
-1248.061833958578
 11
34846.17213434991
 21
-1283.061854673082
  0
LINE
  5
11C
100
AcDbEntity
  8
WALLS
  6
ByLayer
 62
  256
370
   -1
100
AcDbLine
 10
34846.17213434991
 20
-1205.689284015951
 11
34846.17213434991
 21
-1248.061833958578
  0
LINE
  5
11D
100
AcDbEntity
  8
WALLS
  6
ByLayer
 62
  256
370
   -1
100
AcDbLine
 10
34846.17213434991
 20
-1022.061833958578
 11
34846.17213434991
 21
-1107.918976815721
  0
LINE
  5
11E
100
AcDbEntity
  8
WALLS
  6
ByLayer
 62
  256
370
   -1
100
AcDbLine
 10
34720.17213434991
 20
-1359.838517310309
 11
34720.17213434991
 21
-1372.061833958578
  0
LINE
  5
11F
100
AcDbEntity
  8
WALLS
  6
ByLayer
 62
  256
370
   -1
100
AcDbLine
 10
34720.17213434991
 20
-1159.061833958578
 11
34720.17213434989
 21
-1191.06184431583
  0
LINE
  5
120
100
AcDbEntity
  8
WALLS
  6
ByLayer
 62
  256
370
   -1
100
AcDbLine
 10
34720.17213434991
 20
-1118.061833958578
 11
34720.17213434991
 21
-1154.061833958578
  0
LINE
  5
121
100
AcDbEntity
  8
WALLS
  6
ByLayer
 62
  256
370
   -1
100
AcDbLine
 10
34720.17213434991
 20
-1022.061833958578
 11
34720.17213434991
 21
-1058.061833958578
  0
LINE
  5
122
100
AcDbEntity
  8
WALLS
  6
ByLayer
 62
  256
370
   -1
100
AcDbLine
 10
34893.02927720704
 20
-1248.061833958578
 11
34851.17213434991
 21
-1248.061833958578
  0
LINE
  5
123
100
AcDbEntity
  8
WALLS
  6
ByLayer
 62
  256
370
   -1
100
AcDbLine
 10
34939.17213434989
 20
-1243.061833958578
 11
34934.17213434991
 21
-1243.061833958578
  0
LINE
  5
124
100
AcDbEntity
  8
WALLS
  6
ByLayer
 62
  256
370
   -1
100
AcDbLine
 10
34846.17213434991
 20
-1159.061833958578
 11
34720.17213434991
 21
-1159.061833958578
  0
LINE
  5
125
100
AcDbEntity
  8
WALLS
  6
ByLayer
 62
  256
370
   -1
100
AcDbLine
 10
35070.17213434991
 20
-1159.061833958578
 11
35065.17213434991
 21
-1159.061833958578
  0
LINE
  5
126
100
AcDbEntity
  8
WALLS
  6
ByLayer
 62
  256
370
   -1
100
AcDbLine
 10
34846.17213434991
 20
-1154.061833958578
 11
34720.17213434991
 21
-1154.061833958578
  0
LINE
  5
127
100
AcDbEntity
  8
WALLS
  6
ByLayer
 62
  256
370
   -1
100
AcDbLine
 10
35034.31499149276
 20
-1154.061833958578
 11
34944.17213434989
 21
-1154.061833958578
  0
LINE
  5
128
100
AcDbEntity
  8
WALLS
  6
ByLayer
 62
  256
370
   -1
100
AcDbLine
 10
35070.17213434991
 20
-1154.061833958578
 11
35065.17213434991
 21
-1154.061833958578
  0
LINE
  5
129
100
AcDbEntity
  8
WALLS
  6
ByLayer
 62
  256
370
   -1
100
AcDbLine
 10
34903.31499149275
 20
-1088.061833958578
 11
34851.17213434991
 21
-1088.061833958578
  0
LINE
  5
12A
100
AcDbEntity
  8
WALLS
  6
ByLayer
 62
  256
370
   -1
100
AcDbLine
 10
34939.17213434989
 20
-1088.061833958578
 11
34934.17213434989
 21
-1088.061833958578
  0
LINE
  5
12B
100
AcDbEntity
  8
WINDOWS
  6
DASHED
 62
  256
370
   -1
100
AcDbLine
 10
34748.17213434991
 20
-1017.061833958582
 11
34748.17213434989
 21
-1009.061833958575
  0
DIMENSION
  5
12C
100
AcDbEntity
  8
hatch
  6
ByLayer
 62
  256
370
    0
100
AcDbDimension
  2
*D6
 10
34745.93683145743
 20
-1022.061833958579
 30
0
 11
34745.93683145742
 21
-1088.061833958588
 31
0
 70
   32
 71
    5
  3
WORKING
 53
0
210
0
220
0
230
1
100
AcDbAlignedDimension
 13
34746.10009403028
 23
-1154.061833958578
 33
0
 14
34746.10009403028
 24
-1022.061833958578
 34
0
 50
90
100
AcDbRotatedDimension
  0
LINE
  5
12D
100
AcDbEntity
  8
WALLS
  6
ByLayer
 62
  256
370
   -1
100
AcDbLine
 10
34903.31499149275
 20
-1093.061833958578
 11
34851.17213434991
 21
-1093.061833958578
  0
LINE
  5
12E
100
AcDbEntity
  8
WINDOWS
  6
DASHED
 62
  256
370
   -1
100
AcDbLine
 10
34818.17213434991
 20
-1017.061833958582
 11
34818.17213434991
 21
-1009.061833958582
  0
LINE
  5
12F
100
AcDbEntity
  8
WALLS
  6
ByLayer
 62
  256
370
   -1
100
AcDbLine
 10
34939.17213434989
 20
-1093.061833958578
 11
34934.17213434989
 21
-1093.061833958578
  0
LINE
  5
130
100
AcDbEntity
  8
WALLS
  6
ByLayer
 62
  256
370
   -1
100
AcDbLine
 10
34753.17213434991
 20
-1022.061833958578
 11
34720.17213434991
 21
-1022.061833958578
  0
LINE
  5
131
100
AcDbEntity
  8
WALLS
  6
ByLayer
 62
  256
370
   -1
100
AcDbLine
 10
34846.17213434991
 20
-1022.061833958578
 11
34813.17213434991
 21
-1022.061833958578
  0
LINE
  5
132
100
AcDbEntity
  8
WALLS
  6
ByLayer
 62
  256
370
   -1
100
AcDbLine
 10
34939.17213434991
 20
-1022.061833958578
 11
34925.17213434991
 21
-1022.061833958578
  0
LINE
  5
133
100
AcDbEntity
  8
WALLS
  6
ByLayer
 62
  256
370
   -1
100
AcDbLine
 10
34977.17213434991
 20
-1022.061833958578
 11
34944.17213434991
 21
-1022.061833958578
  0
LINE
  5
134
100
AcDbEntity
  8
WINDOWS
  6
DASHED
 62
  256
370
   -1
100
AcDbLine
 10
34818.17213434991
 20
-1009.061833958582
 11
34748.17213434989
 21
-1009.061833958575
  0
LINE
  5
135
100
AcDbEntity
  8
WALLS
  6
ByLayer
 62
  256
370
   -1
100
AcDbLine
 10
35070.17213434991
 20
-1022.061833958578
 11
35037.17213434991
 21
-1022.061833958578
  0
LINE
  5
136
100
AcDbEntity
  8
WALLS
  6
ByLayer
 62
  256
370
   -1
100
AcDbLine
 10
34813.17213434991
 20
-1022.061833958575
 11
34813.17213434991
 21
-1017.061833958579
  0
LINE
  5
137
100
AcDbEntity
  8
WALLS
  6
ByLayer
 62
  256
370
   -1
100
AcDbLine
 10
34939.17213434989
 20
-1088.061833958578
 11
34939.17213434991
 21
-1022.061833958578
  0
LINE
  5
138
100
AcDbEntity
  8
WALLS
  6
ByLayer
 62
  256
370
   -1
100
AcDbLine
 10
34715.17213434991
 20
-1377.061833958578
 11
34892.17213886097
 21
-1377.061833958578
  0
LINE
  5
139
100
AcDbEntity
  8
WALLS
  6
ByLayer
 62
  256
370
   -1
100
AcDbLine
 10
35075.17213434989
 20
-1058.061833958578
 11
35075.17213434991
 21
-1017.061833958578
  0
LINE
  5
13A
100
AcDbEntity
  8
WALLS
  6
ByLayer
 62
  256
370
   -1
100
AcDbLine
 10
35075.17213434991
 20
-1017.061833958578
 11
35037.17213434991
 21
-1017.061833958578
  0
LINE
  5
13B
100
AcDbEntity
  8
WALLS
  6
ByLayer
 62
  256
370
   -1
100
AcDbLine
 10
34977.17213434991
 20
-1017.061833958578
 11
34925.17213434991
 21
-1017.061833958578
  0
LINE
  5
13C
100
AcDbEntity
  8
WALLS
  6
ByLayer
 62
  256
370
   -1
100
AcDbLine
 10
34865.17213434991
 20
-1017.061833958578
 11
34813.17213434991
 21
-1017.061833958578
  0
LINE
  5
13D
100
AcDbEntity
  8
WALLS
  6
ByLayer
 62
  256
370
   -1
100
AcDbLine
 10
34753.17213434991
 20
-1017.061833958578
 11
34715.17213434991
 21
-1017.061833958578
  0
LINE
  5
13E
100
AcDbEntity
  8
WALLS
  6
ByLayer
 62
  256
370
   -1
100
AcDbLine
 10
34715.17213434991
 20
-1017.061833958578
 11
34715.17213434991
 21
-1058.061833958578
  0
LINE
  5
13F
100
AcDbEntity
  8
WALLS
  6
ByLayer
 62
  256
370
   -1
100
AcDbLine
 10
34715.17213434991
 20
-1118.061833958578
 11
34715.17213434991
 21
-1191.06184431583
  0
LINE
  5
140
100
AcDbEntity
  8
WALLS
  6
ByLayer
 62
  256
370
   -1
100
AcDbLine
 10
34715.17213434991
 20
-1251.06184431583
 11
34715.17213434991
 21
-1299.838517310309
  0
LINE
  5
141
100
AcDbEntity
  8
WALLS
  6
ByLayer
 62
  256
370
   -1
100
AcDbLine
 10
34715.17213434991
 20
-1359.838517310309
 11
34715.17213434991
 21
-1377.061833958578
  0
LINE
  5
142
100
AcDbEntity
  8
WALLS
  6
ByLayer
 62
  256
370
   -1
100
AcDbLine
 10
35070.17213434991
 20
-1342.061833958576
 11
35070.17213434991
 21
-1248.061833958578
  0
LINE
  5
143
100
AcDbEntity
  8
WALLS
  6
ByLayer
 62
  256
370
   -1
100
AcDbLine
 10
35070.17213434991
 20
-1243.061833958578
 11
35070.17213434991
 21
-1159.061833958578
  0
LINE
  5
144
100
AcDbEntity
  8
WALLS
  6
ByLayer
 62
  256
370
   -1
100
AcDbLine
 10
35070.17213434991
 20
-1154.061833958578
 11
35070.17213434991
 21
-1118.061833958578
  0
LINE
  5
145
100
AcDbEntity
  8
WALLS
  6
ByLayer
 62
  256
370
   -1
100
AcDbLine
 10
35070.17213434991
 20
-1058.061833958578
 11
35070.17213434991
 21
-1022.061833958578
  0
LINE
  5
146
100
AcDbEntity
  8
WALLS
  6
ByLayer
 62
  256
370
   -1
100
AcDbLine
 10
34944.17213434991
 20
-1243.061833958578
 11
34944.17213434989
 21
-1194.918976815717
  0
LINE
  5
147
100
AcDbEntity
  8
WALLS
  6
ByLayer
 62
  256
370
   -1
100
AcDbLine
 10
34944.17213434989
 20
-1164.061833958578
 11
34944.17213434989
 21
-1159.061833958578
  0
LINE
  5
148
100
AcDbEntity
  8
WALLS
  6
ByLayer
 62
  256
370
   -1
100
AcDbLine
 10
34944.17213434989
 20
-1154.061833958578
 11
34944.17213434989
 21
-1149.061833958578
  0
LINE
  5
149
100
AcDbEntity
  8
WALLS
  6
ByLayer
 62
  256
370
   -1
100
AcDbLine
 10
34944.17213434989
 20
-1107.918976815721
 11
34944.17213434991
 21
-1022.061833958578
  0
LINE
  5
14A
100
AcDbEntity
  8
WALLS
  6
ByLayer
 62
  256
370
   -1
100
AcDbLine
 10
34939.17213434989
 20
-1243.061833958578
 11
34939.17213434989
 21
-1194.918976815717
  0
LINE
  5
14B
100
AcDbEntity
  8
WALLS
  6
ByLayer
 62
  256
370
   -1
100
AcDbLine
 10
34939.17213434989
 20
-1164.061833958578
 11
34939.17213434989
 21
-1149.061833958578
  0
LINE
  5
14C
100
AcDbEntity
  8
WALLS
  6
ByLayer
 62
  256
370
   -1
100
AcDbLine
 10
34939.17213434989
 20
-1107.918976815721
 11
34939.17213434989
 21
-1093.061833958578
  0
LINE
  5
14D
100
AcDbEntity
  8
WALLS
  6
ByLayer
 62
  256
370
   -1
100
AcDbLine
 10
34865.17213434991
 20
-1022.061833958578
 11
34851.17213434991
 21
-1022.061833958578
  0
LINE
  5
14E
100
AcDbEntity
  8
WALLS
  6
ByLayer
 62
  256
370
   -1
100
AcDbLine
 10
34977.17213434991
 20
-1022.061833958575
 11
34977.17213434991
 21
-1017.06183395858
  0
LINE
  5
14F
100
AcDbEntity
  8
WALLS
  6
ByLayer
 62
  256
370
   -1
100
AcDbLine
 10
35037.17213434991
 20
-1022.061833958575
 11
35037.17213434991
 21
-1017.061833958579
  0
LINE
  5
150
100
AcDbEntity
  8
WINDOWS
  6
DASHED
 62
  256
370
   -1
100
AcDbLine
 10
35042.17213434991
 20
-1009.061833958582
 11
34972.17213434989
 21
-1009.061833958575
  0
LINE
  5
151
100
AcDbEntity
  8
WINDOWS
  6
DASHED
 62
  256
370
   -1
100
AcDbLine
 10
35042.17213434991
 20
-1017.061833958582
 11
35042.17213434991
 21
-1009.061833958582
  0
LINE
  5
152
100
AcDbEntity
  8
WINDOWS
  6
DASHED
 62
  256
370
   -1
100
AcDbLine
 10
34972.17213434991
 20
-1017.061833958582
 11
34972.17213434989
 21
-1009.061833958575
  0
LINE
  5
153
100
AcDbEntity
  8
WALLS
  6
ByLayer
 62
  256
370
   -1
100
AcDbLine
 10
34865.17213434991
 20
-1022.061833958574
 11
34865.17213434991
 21
-1017.061833958579
  0
LINE
  5
154
100
AcDbEntity
  8
WALLS
  6
ByLayer
 62
  256
370
   -1
100
AcDbLine
 10
34925.17213434991
 20
-1022.061833958574
 11
34925.17213434991
 21
-1017.061833958579
  0
LINE
  5
155
100
AcDbEntity
  8
WINDOWS
  6
DASHED
 62
  256
370
   -1
100
AcDbLine
 10
34930.17213434991
 20
-1009.061833958582
 11
34860.17213434989
 21
-1009.061833958574
  0
LINE
  5
156
100
AcDbEntity
  8
WINDOWS
  6
DASHED
 62
  256
370
   -1
100
AcDbLine
 10
34930.17213434991
 20
-1017.061833958582
 11
34930.17213434991
 21
-1009.061833958582
  0
LINE
  5
157
100
AcDbEntity
  8
WINDOWS
  6
DASHED
 62
  256
370
   -1
100
AcDbLine
 10
34860.17213434991
 20
-1017.061833958582
 11
34860.17213434989
 21
-1009.061833958574
  0
LINE
  5
158
100
AcDbEntity
  8
WALLS
  6
ByLayer
 62
  256
370
   -1
100
AcDbLine
 10
35070.17213434991
 20
-1058.061833958578
 11
35075.17213434991
 21
-1058.061833958578
  0
LINE
  5
159
100
AcDbEntity
  8
WALLS
  6
ByLayer
 62
  256
370
   -1
100
AcDbLine
 10
35070.17213434991
 20
-1118.061833958578
 11
35075.17213434991
 21
-1118.061833958578
  0
LINE
  5
15A
100
AcDbEntity
  8
WINDOWS
  6
DASHED
 62
  256
370
   -1
100
AcDbLine
 10
35083.17213434991
 20
-1123.061833958578
 11
35083.17213434991
 21
-1053.061833958571
  0
LINE
  5
15B
100
AcDbEntity
  8
WINDOWS
  6
DASHED
 62
  256
370
   -1
100
AcDbLine
 10
35075.17213434991
 20
-1123.061833958578
 11
35083.17213434991
 21
-1123.061833958578
  0
LINE
  5
15C
100
AcDbEntity
  8
WINDOWS
  6
DASHED
 62
  256
370
   -1
100
AcDbLine
 10
35075.17213434991
 20
-1053.061833958575
 11
35083.17213434991
 21
-1053.061833958571
  0
LINE
  5
15D
100
AcDbEntity
  8
WALLS
  6
ByLayer
 62
  256
370
   -1
100
AcDbLine
 10
34720.17213434991
 20
-1058.061833958578
 11
34715.17213434991
 21
-1058.061833958578
  0
LINE
  5
15E
100
AcDbEntity
  8
WALLS
  6
ByLayer
 62
  256
370
   -1
100
AcDbLine
 10
34720.17213434991
 20
-1118.061833958578
 11
34715.17213434991
 21
-1118.061833958578
  0
LINE
  5
15F
100
AcDbEntity
  8
WINDOWS
  6
DASHED
 62
  256
370
   -1
100
AcDbLine
 10
34707.17213434991
 20
-1123.061833958578
 11
34707.17213434991
 21
-1053.061833958571
  0
LINE
  5
160
100
AcDbEntity
  8
WINDOWS
  6
DASHED
 62
  256
370
   -1
100
AcDbLine
 10
34715.17213434991
 20
-1123.061833958578
 11
34707.17213434991
 21
-1123.061833958578
  0
LINE
  5
161
100
AcDbEntity
  8
WINDOWS
  6
DASHED
 62
  256
370
   -1
100
AcDbLine
 10
34715.17213434991
 20
-1053.061833958575
 11
34707.17213434991
 21
-1053.061833958571
  0
LINE
  5
162
100
AcDbEntity
  8
WALLS
  6
ByLayer
 62
  256
370
   -1
100
AcDbLine
 10
34720.17213434991
 20
-1299.838517310309
 11
34715.17213434991
 21
-1299.838517310309
  0
LINE
  5
163
100
AcDbEntity
  8
WALLS
  6
ByLayer
 62
  256
370
   -1
100
AcDbLine
 10
34720.17213434991
 20
-1359.838517310309
 11
34715.17213434991
 21
-1359.838517310309
  0
LINE
  5
164
100
AcDbEntity
  8
WINDOWS
  6
DASHED
 62
  256
370
   -1
100
AcDbLine
 10
34707.17213434991
 20
-1364.838517310309
 11
34707.17213434991
 21
-1294.838517310302
  0
LINE
  5
165
100
AcDbEntity
  8
WINDOWS
  6
DASHED
 62
  256
370
   -1
100
AcDbLine
 10
34715.17213434991
 20
-1364.838517310309
 11
34707.17213434991
 21
-1364.838517310309
  0
LINE
  5
166
100
AcDbEntity
  8
WINDOWS
  6
DASHED
 62
  256
370
   -1
100
AcDbLine
 10
34715.17213434991
 20
-1294.838517310305
 11
34707.17213434991
 21
-1294.838517310302
  0
LINE
  5
167
100
AcDbEntity
  8
WALLS
  6
ByLayer
 62
  256
370
   -1
100
AcDbLine
 10
34720.17213434989
 20
-1191.06184431583
 11
34715.17213434991
 21
-1191.06184431583
  0
LINE
  5
168
100
AcDbEntity
  8
WALLS
  6
ByLayer
 62
  256
370
   -1
100
AcDbLine
 10
34720.17213434989
 20
-1251.06184431583
 11
34715.17213434991
 21
-1251.06184431583
  0
LINE
  5
169
100
AcDbEntity
  8
WINDOWS
  6
DASHED
 62
  256
370
   -1
100
AcDbLine
 10
34707.17213434991
 20
-1256.06184431583
 11
34707.17213434989
 21
-1186.061844315823
  0
LINE
  5
16A
100
AcDbEntity
  8
WINDOWS
  6
DASHED
 62
  256
370
   -1
100
AcDbLine
 10
34715.17213434991
 20
-1256.06184431583
 11
34707.17213434991
 21
-1256.06184431583
  0
LINE
  5
16B
100
AcDbEntity
  8
WINDOWS
  6
DASHED
 62
  256
370
   -1
100
AcDbLine
 10
34715.17213434991
 20
-1186.061844315826
 11
34707.17213434989
 21
-1186.061844315823
  0
DIMENSION
  5
16C
100
AcDbEntity
  8
hatch
  6
ByLayer
 62
  256
370
    0
100
AcDbDimension
  2
*D7
 10
35075.17213434991
 20
-995.898515086654
 30
0
 11
34895.17213434991
 21
-995.898515086654
 31
0
 70
   32
 71
    5
  3
WORKING
 53
0
210
0
220
0
230
1
100
AcDbAlignedDimension
 13
34715.17213434991
 23
-1017.061833958578
 33
0
 14
35075.17213434991
 24
-1017.061833958578
 34
0
100
AcDbRotatedDimension
  0
LINE
  5
16D
100
AcDbEntity
  8
WALLS
  6
ByLayer
 62
  256
370
   -1
100
AcDbLine
 10
34887.17215957548
 20
-1372.061854673093
 11
34720.17213886096
 21
-1372.061854673093
  0
LINE
  5
16E
100
AcDbEntity
  8
WALLS
  6
ByLayer
 62
  256
370
   -1
100
AcDbLine
 10
34720.17213886096
 20
-1288.061854673089
 11
34851.17213434991
 21
-1288.061854673089
  0
LINE
  5
16F
100
AcDbEntity
  8
WALLS
  6
ByLayer
 62
  256
370
   -1
100
AcDbLine
 10
34720.17213886096
 20
-1283.061854673082
 11
34846.17213434991
 21
-1283.061854673082
  0
INSERT
  5
170
100
AcDbEntity
  8
DOORS
  6
ByLayer
 62
  256
370
    0
100
AcDbBlockReference
  2
BLOCK_DOOR
 10
34851.17213434991
 20
-1164.546426873094
 30
0
 41
-1.028571428571428
 42
1.028571428571428
 43
0
 50
90
 70
    1
 71
    1
 44
0
 45
0
  0
LINE
  5
171
100
AcDbEntity
  8
WALLS
  6
ByLayer
 62
  256
370
   -1
100
AcDbLine
 10
34851.17213434991
 20
-1164.546426873094
 11
34846.17213434991
 21
-1164.546426873094
  0
LINE
  5
172
100
AcDbEntity
  8
WALLS
  6
ByLayer
 62
  256
370
   -1
100
AcDbLine
 10
34851.17213434991
 20
-1205.689284015951
 11
34846.17213434991
 21
-1205.689284015951
  0
LINE
  5
173
100
AcDbEntity
  8
WALLS
  6
ByLayer
 62
  256
370
   -1
100
AcDbLine
 10
34939.17213434989
 20
-1164.061833958578
 11
34944.17213434989
 21
-1164.061833958578
  0
LINE
  5
174
100
AcDbEntity
  8
WALLS
  6
ByLayer
 62
  256
370
   -1
100
AcDbLine
 10
34939.17213434989
 20
-1194.918976815717
 11
34944.17213434989
 21
-1194.918976815717
  0
INSERT
  5
175
100
AcDbEntity
  8
DOORS
  6
ByLayer
 62
  256
370
    0
100
AcDbBlockReference
  2
BLOCK_DOOR
 10
34939.17213434989
 20
-1164.061833958578
 30
0
 41
0.7714285714284634
 42
0.7714285714284634
 43
0
 50
270
 70
    1
 71
    1
 44
0
 45
0
  0
LINE
  5
176
100
AcDbEntity
  8
WALLS
  6
ByLayer
 62
  256
370
   -1
100
AcDbLine
 10
35004.67213434989
 20
-1159.061833958578
 11
35004.67213434991
 21
-1243.061833958578
  0
LINE
  5
177
100
AcDbEntity
  8
WALLS
  6
ByLayer
 62
  256
370
   -1
100
AcDbLine
 10
35009.67213434989
 20
-1159.061833958578
 11
35009.67213434991
 21
-1243.061833958578
  0
LINE
  5
178
100
AcDbEntity
  8
WALLS
  6
ByLayer
 62
  256
370
   -1
100
AcDbLine
 10
35065.17213434991
 20
-1154.061833958578
 11
35065.17213434991
 21
-1159.061833958578
  0
LINE
  5
179
100
AcDbEntity
  8
WALLS
  6
ByLayer
 62
  256
370
   -1
100
AcDbLine
 10
35034.31499149276
 20
-1154.061833958575
 11
35034.31499149276
 21
-1159.061833958575
  0
INSERT
  5
17A
100
AcDbEntity
  8
DOORS
  6
ByLayer
 62
  256
370
    0
100
AcDbBlockReference
  2
BLOCK_DOOR
 10
35065.17213434991
 20
-1154.061833958575
 30
0
 41
0.7714285714284634
 42
0.7714285714284634
 43
0
 50
180
 70
    1
 71
    1
 44
0
 45
0
  0
DIMENSION
  5
17B
100
AcDbEntity
  8
hatch
  6
ByLayer
 62
  256
370
    0
100
AcDbDimension
  2
*D8
 10
34995.1079171267
 20
-1154.061833958579
 30
0
 11
34995.1079171267
 21
-1088.061833958588
 31
0
 70
   32
 71
    5
  3
WORKING
 53
0
210
0
220
0
230
1
100
AcDbAlignedDimension
 13
34983.4395790081
 23
-1022.061833958578
 33
0
 14
34983.4395790081
 24
-1154.061833958578
 34
0
 50
90
100
AcDbRotatedDimension
  0
DIMENSION
  5
17C
100
AcDbEntity
  8
hatch
  6
ByLayer
 62
  256
370
    0
100
AcDbDimension
  2
*D9
 10
34995.90511941109
 20
-1243.061833958579
 30
0
 11
34995.90511941109
 21
-1201.061833958588
 31
0
 70
   32
 71
    5
  3
WORKING
 53
0
210
0
220
0
230
1
100
AcDbAlignedDimension
 13
35000.56107634827
 23
-1159.061833958578
 33
0
 14
35000.56107634827
 24
-1243.061833958578
 34
0
 50
90
100
AcDbRotatedDimension
  0
DIMENSION
  5
17D
100
AcDbEntity
  8
hatch
  6
ByLayer
 62
  256
370
    0
100
AcDbDimension
  2
*D10
 10
35004.6721343499
 20
-1226.182841674583
 30
0
 11
34974.4221343499
 21
-1226.182841674583
 31
0
 70
   32
 71
    5
  3
WORKING
 53
0
210
0
220
0
230
1
100
AcDbAlignedDimension
 13
34944.1721343499
 23
-1226.182841674588
 33
0
 14
35004.6721343499
 24
-1226.182841674583
 34
0
100
AcDbRotatedDimension
  0
DIMENSION
  5
17E
100
AcDbEntity
  8
hatch
  6
ByLayer
 62
  256
370
    0
100
AcDbDimension
  2
*D11
 10
34866.77100535883
 20
-1243.061833958579
 30
0
 11
34866.77100535882
 21
-1168.061833958588
 31
0
 70
   32
 71
    5
  3
WORKING
 53
0
210
0
220
0
230
1
100
AcDbAlignedDimension
 13
34872.8594337273
 23
-1093.061833958578
 33
0
 14
34872.10070577848
 24
-1243.061833958579
 34
0
 50
90
100
AcDbRotatedDimension
  0
DIMENSION
  5
17F
100
AcDbEntity
  8
hatch
  6
ByLayer
 62
  256
370
    0
100
AcDbDimension
  2
*D12
 10
34851.17213434991
 20
-1151.164567402961
 30
0
 11
34895.1721343499
 21
-1151.164567402961
 31
0
 70
   32
 71
    5
  3
WORKING
 53
0
210
0
220
0
230
1
100
AcDbAlignedDimension
 13
34939.17213434989
 23
-1151.164567402961
 33
0
 14
34851.17213434991
 24
-1151.164567402961
 34
0
100
AcDbRotatedDimension
  0
DIMENSION
  5
180
100
AcDbEntity
  8
hatch
  6
ByLayer
 62
  256
370
    0
100
AcDbDimension
  2
*D13
 10
34746.24956154866
 20
-1283.061854673082
 30
0
 11
34746.24956154866
 21
-1221.06184431584
 31
0
 70
   32
 71
    5
  3
WORKING
 53
0
210
0
220
0
230
1
100
AcDbAlignedDimension
 13
34749.19448930769
 23
-1159.061833958578
 33
0
 14
34749.19448930769
 24
-1283.061854673082
 34
0
 50
90
100
AcDbRotatedDimension
  0
DIMENSION
  5
181
100
AcDbEntity
  8
hatch
  6
ByLayer
 62
  256
370
    0
100
AcDbDimension
  2
*D14
 10
34720.17213434991
 20
-1265.831927102274
 30
0
 11
34783.17213434991
 21
-1265.831927102274
 31
0
 70
   32
 71
    5
  3
WORKING
 53
0
210
0
220
0
230
1
100
AcDbAlignedDimension
 13
34846.17213434991
 23
-1265.56184431583
 33
0
 14
34720.17213434991
 24
-1265.56184431583
 34
0
100
AcDbRotatedDimension
  0
DIMENSION
  5
182
100
AcDbEntity
  8
hatch
  6
ByLayer
 62
  256
370
    0
100
AcDbDimension
  2
*D15
 10
35070.17213434991
 20
-1264.778958900028
 30
0
 11
34960.67213434991
 21
-1264.778958900028
 31
0
 70
   32
 71
    5
  3
WORKING
 53
0
210
0
220
0
230
1
100
AcDbAlignedDimension
 13
34851.17213434991
 23
-1262.50106486549
 33
0
 14
35070.17213434991
 24
-1262.50106486549
 34
0
100
AcDbRotatedDimension
  0
DIMENSION
  5
183
100
AcDbEntity
  8
hatch
  6
ByLayer
 62
  256
370
    0
100
AcDbDimension
  2
*D16
 10
35019.86877455217
 20
-1342.061833958569
 30
0
 11
35019.86877455216
 21
-1295.061833958584
 31
0
 70
   32
 71
    5
  3
WORKING
 53
0
210
0
220
0
230
1
100
AcDbAlignedDimension
 13
35020.52005300187
 23
-1248.061833958578
 33
0
 14
35020.52005300186
 24
-1342.061833958569
 34
0
 50
90
100
AcDbRotatedDimension
  0
DIMENSION
  5
184
100
AcDbEntity
  8
hatch
  6
ByLayer
 62
  256
370
    0
100
AcDbDimension
  2
*D17
 10
35070.17213434991
 20
-1227.36706526655
 30
0
 11
35039.92213434991
 21
-1227.36706526655
 31
0
 70
   32
 71
    5
  3
WORKING
 53
0
210
0
220
0
230
1
100
AcDbAlignedDimension
 13
35009.67213434991
 23
-1227.36706526655
 33
0
 14
35070.17213434991
 24
-1227.36706526655
 34
0
100
AcDbRotatedDimension
  0
DIMENSION
  5
185
100
AcDbEntity
  8
hatch
  6
ByLayer
 62
  256
370
    0
100
AcDbDimension
  2
*D18
 10
34746.78756867847
 20
-1372.061833958579
 30
0
 11
34746.78756867846
 21
-1330.061844315844
 31
0
 70
   32
 71
    5
  3
WORKING
 53
0
210
0
220
0
230
1
100
AcDbAlignedDimension
 13
34746.7875686784
 23
-1288.061854673089
 33
0
 14
34746.7875686784
 24
-1372.061833958579
 34
0
 50
90
100
AcDbRotatedDimension
  0
LINE
  5
186
100
AcDbEntity
  8
WALLS
  6
CONTINUOUS
 62
  256
370
   35
100
AcDbLine
 10
34892.2
 20
-1377.06
 11
34892
 21
-1347
  0
LINE
  5
187
100
AcDbEntity
  8
WALLS
  6
CONTINUOUS
 62
  256
370
   35
100
AcDbLine
 10
34892
 20
-1347
 11
34895
 21
-1347
  0
LINE
  5
188
100
AcDbEntity
  8
WALLS
  6
CONTINUOUS
 62
  256
370
   35
100
AcDbLine
 10
34887.2
 20
-1342.06
 11
34895
 21
-1342
  0
LINE
  5
189
100
AcDbEntity
  8
WALLS
  6
CONTINUOUS
 62
  256
370
   35
100
AcDbLine
 10
34895
 20
-1342
 11
34895
 21
-1347
  0
LWPOLYLINE
  5
18A
100
AcDbEntity
  8
DOORS
  6
ByLayer
 62
  256
370
    0
100
AcDbPolyline
 90
    4
 70
    1
 43
0
 10
34952.17213886097
 20
-1342.061833958562
 10
34895
 20
-1342
 10
34895
 20
-1347
 10
34952.17213886097
 20
-1347.061833958579
  0
LINE
  5
18B
100
AcDbEntity
  8
WALLS
  6
CONTINUOUS
 62
  256
370
   35
100
AcDbLine
 10
34720.2
 20
-1251.06
 11
34720.2
 21
-1283.06
  0
LINE
  5
18C
100
AcDbEntity
  8
WALLS
  6
CONTINUOUS
 62
  256
370
   35
100
AcDbLine
 10
34720.2
 20
-1288.06
 11
34720.2
 21
-1299.84
  0
LINE
  5
18D
100
AcDbEntity
  8
WALLS
  6
CONTINUOUS
 62
  256
370
   35
100
AcDbLine
 10
35075.2
 20
-1118.06
 11
35075.2
 21
-1347.06
  0
LINE
  5
18E
100
AcDbEntity
  8
WALLS
  6
CONTINUOUS
 62
  256
370
   35
100
AcDbLine
 10
34934.2
 20
-1248.06
 11
35070.2
 21
-1248.06
  0
LINE
  5
18F
100
AcDbEntity
  8
WALLS
  6
CONTINUOUS
 62
  256
370
   35
100
AcDbLine
 10
34944.2
 20
-1159.06
 11
35004.7
 21
-1159.06
  0
LINE
  5
190
100
AcDbEntity
  8
WALLS
  6
CONTINUOUS
 62
  256
370
   35
100
AcDbLine
 10
35009.7
 20
-1159.06
 11
35034.3
 21
-1159.06
  0
LINE
  5
191
100
AcDbEntity
  8
WALLS
  6
CONTINUOUS
 62
  256
370
   35
100
AcDbLine
 10
34944.2
 20
-1243.06
 11
35004.7
 21
-1243.06
  0
LINE
  5
192
100
AcDbEntity
  8
WALLS
  6
CONTINUOUS
 62
  256
370
   35
100
AcDbLine
 10
35009.7
 20
-1243.06
 11
35070.2
 21
-1243.06
  0
LINE
  5
193
100
AcDbEntity
  8
WALLS
  6
CONTINUOUS
 62
  256
370
   35
100
AcDbLine
 10
34846.2
 20
-1149.06
 11
34846.2
 21
-1154.06
  0
LINE
  5
194
100
AcDbEntity
  8
WALLS
  6
CONTINUOUS
 62
  256
370
   35
100
AcDbLine
 10
34846.2
 20
-1159.06
 11
34846.2
 21
-1164.55
  0
ENDSEC
  0
SECTION
  2
OBJECTS
  0
DICTIONARY
  5
C
330
0
100
AcDbDictionary
281
    1
  3
ACAD_GROUP
350
D
  0
DICTIONARY
  5
D
330
C
100
AcDbDictionary
281
    1
  0
PLOTSETTINGS
  5
195
100
AcDbPlotSettings
  6
1x1
 40
0
 41
0
 42
0
 43
0
  0
ENDSEC
  0
EOF
