{
  "accessors": [
    {
      "bufferView": 0,
      "componentType": 5126,
      "count": 172,
      "max": [
        15.09999942779541,
        5.0,
        11.34999942779541
      ],
      "min": [
        -15.09999942779541,
        -5.0,
        -11.34999942779541
      ],
      "type": "VEC3"
    },
    {
      "bufferView": 1,
      "componentType": 5126,
      "count": 172,
      "type": "VEC3"
    },
    {
      "bufferView": 2,
      "componentType": 5125,
      "count": 228,
      "type": "SCALAR"
    }
  ],
  "asset": {
    "generator": "Plan2Scene",
    "version": "2.0"
  },
  "bufferViews": [
    {
      "buffer": 0,
      "byteLength": 2064,
      "target": 34962
    },
    {
      "buffer": 0,
      "byteLength": 2064,
      "byteOffset": 2064,
      "target": 34962
    },
    {
      "buffer": 0,
      "byteLength": 912,
      "byteOffset": 4128,
      "target": 34963
    }
  ],
  "buffers": [
    {
      "byteLength": 5040,
      "uri": "Floor_Plan_Bathroom.bin"
    }
  ],
  "meshes": [
    {
      "name": "Room",
      "primitives": [
        {
          "attributes": {
            "NORMAL": 1,
            "POSITION": 0
          },
          "indices": 2,
          "mode": 4
        }
      ]
    }
  ],
  "nodes": [
    {
      "mesh": 0
    }
  ],
  "scene": 0,
  "scenes": [
    {
      "nodes": [
        0
      ]
    }
  ]
}
