{
  "accessors": [
    {
      "bufferView": 0,
      "componentType": 5126,
      "count": 348,
      "max": [
        20.33799934387207,
        3.0,
        10.321999549865723
      ],
      "min": [
        0.968999981880188,
        0.0,
        1.1549999713897705
      ],
      "type": "VEC3"
    }
  ],
  "asset": {
    "generator": "Plan2Scene",
    "version": "2.0"
  },
  "bufferViews": [
    {
      "buffer": 0,
      "byteLength": 4176,
      "target": 34962
    }
  ],
  "buffers": [
    {
      "byteLength": 4176,
      "uri": "output_model.bin"
    }
  ],
  "meshes": [
    {
      "name": "Room",
      "primitives": [
        {
          "attributes": {
            "POSITION": 0
          },
          "mode": 4
        }
      ]
    }
  ],
  "nodes": [
    {
      "mesh": 0
    }
  ],
  "scene": 0,
  "scenes": [
    {
      "nodes": [
        0
      ]
    }
  ]
}
