{
  "accessors": [
    {
      "bufferView": 0,
      "componentType": 5126,
      "count": 952,
      "max": [
        18.0,
        2.5,
        17.99999237060547
      ],
      "min": [
        -18.0,
        -2.5,
        -18.0
      ],
      "type": "VEC3"
    },
    {
      "bufferView": 1,
      "componentType": 5126,
      "count": 952,
      "type": "VEC3"
    },
    {
      "bufferView": 2,
      "componentType": 5126,
      "count": 952,
      "type": "VEC2"
    },
    {
      "bufferView": 3,
      "componentType": 5125,
      "count": 6,
      "type": "SCALAR"
    },
    {
      "bufferView": 3,
      "componentType": 5125,
      "count": 1350,
      "type": "SCALAR"
    }
  ],
  "asset": {
    "generator": "Plan2Scene",
    "version": "2.0"
  },
  "bufferViews": [
    {
      "buffer": 0,
      "byteLength": 11424,
      "target": 34962
    },
    {
      "buffer": 0,
      "byteLength": 11424,
      "byteOffset": 11424,
      "target": 34962
    },
    {
      "buffer": 0,
      "byteLength": 7616,
      "byteOffset": 22848,
      "target": 34962
    },
    {
      "buffer": 0,
      "byteLength": 5424,
      "byteOffset": 30464,
      "target": 34963
    }
  ],
  "buffers": [
    {
      "byteLength": 35888,
      "uri": "Simple_House_Plan.bin"
    }
  ],
  "materials": [
    {
      "name": "FloorMaterial"
    },
    {
      "name": "WallMaterial"
    }
  ],
  "meshes": [
    {
      "name": "RoomModel",
      "primitives": [
        {
          "attributes": {
            "NORMAL": 1,
            "POSITION": 0,
            "TEXCOORD_0": 2
          },
          "indices": 3,
          "material": 0,
          "mode": 4
        },
        {
          "attributes": {
            "NORMAL": 1,
            "POSITION": 0,
            "TEXCOORD_0": 2
          },
          "indices": 4,
          "material": 1,
          "mode": 4
        }
      ]
    }
  ],
  "nodes": [
    {
      "mesh": 0
    }
  ],
  "scene": 0,
  "scenes": [
    {
      "nodes": [
        0
      ]
    }
  ]
}
