{
  "accessors": [
    {
      "bufferView": 0,
      "componentType": 5126,
      "count": 1125,
      "max": [
        18.0,
        5.0,
        18.00000762939453
      ],
      "min": [
        -18.0,
        -5.0,
        -18.0
      ],
      "type": "VEC3"
    },
    {
      "bufferView": 1,
      "componentType": 5126,
      "count": 1125,
      "type": "VEC3"
    },
    {
      "bufferView": 2,
      "componentType": 5125,
      "count": 1503,
      "type": "SCALAR"
    }
  ],
  "asset": {
    "generator": "Plan2Scene",
    "version": "2.0"
  },
  "bufferViews": [
    {
      "buffer": 0,
      "byteLength": 13500,
      "target": 34962
    },
    {
      "buffer": 0,
      "byteLength": 13500,
      "byteOffset": 13500,
      "target": 34962
    },
    {
      "buffer": 0,
      "byteLength": 6012,
      "byteOffset": 27000,
      "target": 34963
    }
  ],
  "buffers": [
    {
      "byteLength": 33012,
      "uri": "simple_house_plan.bin"
    }
  ],
  "meshes": [
    {
      "name": "Room",
      "primitives": [
        {
          "attributes": {
            "NORMAL": 1,
            "POSITION": 0
          },
          "indices": 2,
          "mode": 4
        }
      ]
    }
  ],
  "nodes": [
    {
      "mesh": 0
    }
  ],
  "scene": 0,
  "scenes": [
    {
      "nodes": [
        0
      ]
    }
  ]
}
