999
dxfrw 0.6.3
  0
SECTION
  2
HEADER
  9
$ACADVER
  1
AC1021
  9
$DWGCODEPAGE
  3
ANSI_1252
  9
$INSBASE
 10
0
 20
0
 30
0
  9
$EXTMIN
 10
0
 20
-578.5277435267554
 30
0
  9
$EXTMAX
 10
1121.094684336664
 20
123.349284984957
 30
0
  9
$LIMMIN
 10
0
 20
0
  9
$LIMMAX
 10
420
 20
297
  9
$ORTHOMODE
 70
    0
  9
$REGENMODE
 70
    1
  9
$FILLMODE
 70
    1
  9
$QTEXTMODE
 70
    0
  9
$MIRRTEXT
 70
    0
  9
$LTSCALE
 40
1
  9
$ATTMODE
 70
    1
  9
$TEXTSIZE
 40
0.1
  9
$TRACEWID
 40
1
  9
$TEXTSTYLE
  7
AW
  9
$CLAYER
  8
WALL
  9
$CELTYPE
  6
ByLayer
  9
$CECOLOR
 62
  256
  9
$CELTSCALE
 40
0.02
  9
$DISPSILH
 70
    0
  9
$DIMSCALE
 40
1
  9
$DIMASZ
 40
0.08
  9
$DIMEXO
 40
0
  9
$DIMDLI
 40
3.75
  9
$DIMRND
 40
0
  9
$DIMDLE
 40
0
  9
$DIMEXE
 40
0.04
  9
$DIMTP
 40
0
  9
$DIMTM
 40
0
  9
$DIMTXT
 40
0.12
  9
$DIMCEN
 40
2.5
  9
$DIMTSZ
 40
0
  9
$DIMTOL
 70
    0
  9
$DIMLIM
 70
    0
  9
$DIMTIH
 70
    0
  9
$DIMTOH
 70
    0
  9
$DIMSE1
 70
    0
  9
$DIMSE2
 70
    0
  9
$DIMTAD
 70
    1
  9
$DIMZIN
 70
    1
  9
$DIMBLK
  1
Oblique
  9
$DIMASO
 70
    1
  9
$DIMSHO
 70
    1
  9
$DIMPOST
  1

  9
$DIMAPOST
  1

  9
$DIMALT
 70
    0
  9
$DIMALTD
 70
    3
  9
$DIMALTF
 40
0.03937007874016
  9
$DIMLFAC
 40
1
  9
$DIMTOFL
 70
    1
  9
$DIMTVP
 40
0
  9
$DIMTIX
 70
    0
  9
$DIMSOXD
 70
    0
  9
$DIMSAH
 70
    0
  9
$DIMBLK1
  1

  9
$DIMBLK2
  1

  9
$DIMSTYLE
  2
aw
  9
$DIMCLRD
 70
    0
  9
$DIMCLRE
 70
    0
  9
$DIMCLRT
 70
    0
  9
$DIMTFAC
 40
1
  9
$DIMGAP
 40
0.05
  9
$DIMJUST
 70
    0
  9
$DIMSD1
 70
    0
  9
$DIMSD2
 70
    0
  9
$DIMTOLJ
 70
    0
  9
$DIMTZIN
 70
    8
  9
$DIMALTZ
 70
    0
  9
$DIMALTTZ
 70
    0
  9
$DIMUPT
 70
    0
  9
$DIMDEC
 70
    2
  9
$DIMTDEC
 70
    2
  9
$DIMALTU
 70
    2
  9
$DIMALTTD
 70
    3
  9
$DIMTXSTY
  7
Standard
  9
$DIMAUNIT
 70
    0
  9
$DIMADEC
 70
    0
  9
$DIMALTRND
 40
0
  9
$DIMAZIN
 70
    0
  9
$DIMDSEP
 70
   44
  9
$DIMATFIT
 70
    3
  9
$DIMFRAC
 70
    0
  9
$DIMLDRBLK
  1

  9
$DIMLUNIT
 70
    2
  9
$DIMLWD
 70
   -2
  9
$DIMLWE
 70
   -2
  9
$DIMTMOVE
 70
    0
  9
$DIMFXL
 40
1
  9
$DIMFXLON
 70
    0
  9
$DIMJOGANG
 40
0.7854
  9
$DIMTFILL
 70
    0
  9
$DIMTFILLCLR
 70
    0
  9
$DIMARCSYM
 70
    0
  9
$DIMLTYPE
  6

  9
$DIMLTEX1
  6

  9
$DIMLTEX2
  6

  9
$LUNITS
 70
    2
  9
$LUPREC
 70
    4
  9
$SKETCHINC
 40
1
  9
$FILLETRAD
 40
0.1383622686203125
  9
$AUNITS
 70
    0
  9
$AUPREC
 70
    0
  9
$MENU
  1
.
  9
$ELEVATION
 40
0
  9
$PELEVATION
 40
0
  9
$THICKNESS
 40
0
  9
$LIMCHECK
 70
    0
  9
$CHAMFERA
 40
0
  9
$CHAMFERB
 40
0
  9
$CHAMFERC
 40
0
  9
$CHAMFERD
 40
0
  9
$SKPOLY
 70
    0
  9
$USRTIMER
 70
    1
  9
$ANGBASE
 50
0
  9
$ANGDIR
 70
    0
  9
$PDMODE
 70
    0
  9
$PDSIZE
 40
0
  9
$PLINEWID
 40
0
  9
$SPLFRAME
 70
    0
  9
$SPLINETYPE
 70
    6
  9
$SPLINESEGS
 70
    8
  9
$HANDSEED
  5
20000
  9
$SURFTAB1
 70
    6
  9
$SURFTAB2
 70
    6
  9
$SURFTYPE
 70
    6
  9
$SURFU
 70
    6
  9
$SURFV
 70
    6
  9
$UCSBASE
  2

  9
$UCSNAME
  2

  9
$UCSORG
 10
0
 20
0
 30
0
  9
$UCSXDIR
 10
1
 20
0
 30
0
  9
$UCSYDIR
 10
0
 20
1
 30
0
  9
$UCSORTHOREF
  2

  9
$UCSORTHOVIEW
 70
    1
  9
$UCSORGTOP
 10
0
 20
0
 30
0
  9
$UCSORGBOTTOM
 10
0
 20
0
 30
0
  9
$UCSORGLEFT
 10
0
 20
0
 30
0
  9
$UCSORGRIGHT
 10
0
 20
0
 30
0
  9
$UCSORGFRONT
 10
0
 20
0
 30
0
  9
$UCSORGBACK
 10
0
 20
0
 30
0
  9
$PUCSBASE
  2

  9
$PUCSNAME
  2

  9
$PUCSORG
 10
0
 20
0
 30
0
  9
$PUCSXDIR
 10
1
 20
0
 30
0
  9
$PUCSYDIR
 10
0
 20
1
 30
0
  9
$PUCSORTHOREF
  2

  9
$PUCSORTHOVIEW
 70
    0
  9
$PUCSORGTOP
 10
0
 20
0
 30
0
  9
$PUCSORGBOTTOM
 10
0
 20
0
 30
0
  9
$PUCSORGLEFT
 10
0
 20
0
 30
0
  9
$PUCSORGRIGHT
 10
0
 20
0
 30
0
  9
$PUCSORGFRONT
 10
0
 20
0
 30
0
  9
$PUCSORGBACK
 10
0
 20
0
 30
0
  9
$USERI1
 70
    0
  9
$USERI2
 70
    0
  9
$USERI3
 70
    0
  9
$USERI4
 70
    0
  9
$USERI5
 70
    0
  9
$USERR1
 40
0
  9
$USERR2
 40
0
  9
$USERR3
 40
0
  9
$USERR4
 40
0
  9
$USERR5
 40
0
  9
$WORLDVIEW
 70
    1
  9
$SHADEDGE
 70
    3
  9
$SHADEDIF
 70
   70
  9
$TILEMODE
 70
    1
  9
$MAXACTVP
 70
   64
  9
$PINSBASE
 10
0
 20
0
 30
0
  9
$PLIMCHECK
 70
    0
  9
$PEXTMIN
 10
84.3278493654597
 20
0.8221481181452794
 30
0
  9
$PEXTMAX
 10
255.9754022253963
 20
124.9892247413192
 30
0
  9
$GRIDMODE
 70
    0
  9
$SNAPSTYLE
 70
    0
  9
$PLIMMIN
 10
-20
 20
-7.5
  9
$PLIMMAX
 10
277
 20
202.5
  9
$UNITMODE
 70
    0
  9
$VISRETAIN
 70
    1
  9
$PLINEGEN
 70
    0
  9
$PSLTSCALE
 70
    1
  9
$TREEDEPTH
 70
 3020
  9
$CMLSTYLE
  2
Standard
  9
$CMLJUST
 70
    0
  9
$CMLSCALE
 40
20
  9
$PROXYGRAPHICS
 70
    1
  9
$MEASUREMENT
 70
    1
  9
$CELWEIGHT
370
   -1
  9
$ENDCAPS
280
    0
  9
$JOINSTYLE
280
    0
  9
$LWDISPLAY
290
    0
  9
$INSUNITS
 70
    4
  9
$HYPERLINKBASE
  1

  9
$STYLESHEET
  1
Archweb-CTB.ctb
  9
$XEDIT
290
    1
  9
$CEPSNTYPE
380
    0
  9
$PSTYLEMODE
290
    1
  9
$EXTNAMES
290
    1
  9
$PSVPSCALE
 40
0
  9
$OLESTARTUP
290
    0
  9
$SORTENTS
280
  127
  9
$INDEXCTL
280
    0
  9
$HIDETEXT
280
    1
  9
$XCLIPFRAME
290
    0
  9
$HALOGAP
280
    0
  9
$OBSCOLOR
 70
  257
  9
$OBSLTYPE
280
    0
  9
$INTERSECTIONDISPLAY
280
    0
  9
$INTERSECTIONCOLOR
 70
  257
  9
$DIMASSOC
280
    2
  9
$PROJECTNAME
  1

  9
$CAMERADISPLAY
290
    0
  9
$LENSLENGTH
 40
50
  9
$CAMERAHEIGHT
 40
0
  9
$STEPSPERSEC
 40
2
  9
$STEPSIZE
 40
50
  9
$3DDWFPREC
 40
2
  9
$PSOLWIDTH
 40
5
  9
$PSOLHEIGHT
 40
80
  9
$LOFTANG1
 40
1.570796326794897
  9
$LOFTANG2
 40
1.570796326794897
  9
$LOFTMAG1
 40
0
  9
$LOFTMAG2
 40
0
  9
$LOFTPARAM
 70
    7
  9
$LOFTNORMALS
280
    1
  9
$LATITUDE
 40
1
  9
$LONGITUDE
 40
1
  9
$NORTHDIRECTION
 40
0
  9
$TIMEZONE
 70
-8000
  9
$LIGHTGLYPHDISPLAY
280
    1
  9
$TILEMODELIGHTSYNCH
280
    1
  9
$SOLIDHIST
280
    1
  9
$SHOWHIST
280
    1
  9
$DWFFRAME
280
    2
  9
$DGNFRAME
280
    0
  9
$REALWORLDSCALE
290
    1
  9
$INTERFERECOLOR
 62
    1
  9
$CSHADOW
280
    0
  9
$SHADOWPLANELOCATION
 40
0
  0
ENDSEC
  0
SECTION
  2
CLASSES
  0
ENDSEC
  0
SECTION
  2
TABLES
  0
TABLE
  2
VPORT
  5
8
330
0
100
AcDbSymbolTable
 70
    1
  0
VPORT
  5
31
330
2
100
AcDbSymbolTableRecord
100
AcDbViewportTableRecord
  2
*ACTIVE
 70
    0
 10
0
 20
0
 11
1
 21
1
 12
561.6328995061384
 22
8.112697162906342
 13
0
 23
0
 14
10
 24
10
 15
10
 25
10
 16
0
 26
0
 36
1
 17
0
 27
0
 37
0
 40
7.082153091289253
 41
1.673076923076923
 42
50
 43
0
 44
0
 50
0
 51
0
 71
    0
 72
  100
 73
    1
 74
    3
 75
    0
 76
    0
 77
    0
 78
    0
281
    0
 65
    1
110
0
120
0
130
0
111
1
121
0
131
0
112
0
122
1
132
0
 79
    0
146
0
348
10020
 60
    7
 61
    5
292
1
282
    1
141
0
142
0
 63
  250
421
3358443
  0
ENDTAB
  0
TABLE
  2
LTYPE
  5
5
330
0
100
AcDbSymbolTable
 70
    4
  0
LTYPE
  5
14
330
5
100
AcDbSymbolTableRecord
100
AcDbLinetypeTableRecord
  2
ByBlock
 70
    0
  3

 72
   65
 73
    0
 40
0
  0
LTYPE
  5
15
330
5
100
AcDbSymbolTableRecord
100
AcDbLinetypeTableRecord
  2
ByLayer
 70
    0
  3

 72
   65
 73
    0
 40
0
  0
LTYPE
  5
16
330
5
100
AcDbSymbolTableRecord
100
AcDbLinetypeTableRecord
  2
Continuous
 70
    0
  3
Solid line
 72
   65
 73
    0
 40
0
  0
LTYPE
  5
32
330
5
100
AcDbSymbolTableRecord
100
AcDbLinetypeTableRecord
  2
DOT
 70
    0
  3
Dot . . . . . . . . . . . . . . . . . . . . . .
 72
   65
 73
    2
 40
6.35
 49
0
 74
    0
 49
-6.35
 74
    0
  0
LTYPE
  5
33
330
5
100
AcDbSymbolTableRecord
100
AcDbLinetypeTableRecord
  2
DOTTINY
 70
    0
  3
Dot (.15x) .....................................
 72
   65
 73
    2
 40
0.9525
 49
0
 74
    0
 49
-0.9525
 74
    0
  0
LTYPE
  5
34
330
5
100
AcDbSymbolTableRecord
100
AcDbLinetypeTableRecord
  2
DOT2
 70
    0
  3
Dot (.5x) .....................................
 72
   65
 73
    2
 40
3.175
 49
0
 74
    0
 49
-3.175
 74
    0
  0
LTYPE
  5
35
330
5
100
AcDbSymbolTableRecord
100
AcDbLinetypeTableRecord
  2
DOTX2
 70
    0
  3
Dot (2x) .  .  .  .  .  .  .  .  .  .  .  .  .
 72
   65
 73
    2
 40
12.7
 49
0
 74
    0
 49
-12.7
 74
    0
  0
LTYPE
  5
36
330
5
100
AcDbSymbolTableRecord
100
AcDbLinetypeTableRecord
  2
DASHED
 70
    0
  3
Dashed _ _ _ _ _ _ _ _ _ _ _ _ _ _ _ _ _
 72
   65
 73
    2
 40
19.05
 49
12.7
 74
    0
 49
-6.35
 74
    0
  0
LTYPE
  5
37
330
5
100
AcDbSymbolTableRecord
100
AcDbLinetypeTableRecord
  2
DASHEDTINY
 70
    0
  3
Dashed (.15x) _ _ _ _ _ _ _ _ _ _ _ _ _ _ _ _ _
 72
   65
 73
    2
 40
2.8575
 49
1.905
 74
    0
 49
-0.9525
 74
    0
  0
LTYPE
  5
38
330
5
100
AcDbSymbolTableRecord
100
AcDbLinetypeTableRecord
  2
DASHED2
 70
    0
  3
Dashed (.5x) _ _ _ _ _ _ _ _ _ _ _ _ _ _ _ _ _
 72
   65
 73
    2
 40
9.524999999999999
 49
6.35
 74
    0
 49
-3.175
 74
    0
  0
LTYPE
  5
39
330
5
100
AcDbSymbolTableRecord
100
AcDbLinetypeTableRecord
  2
DASHEDX2
 70
    0
  3
Dashed (2x) ____  ____  ____  ____  ____  ___
 72
   65
 73
    2
 40
38.09999999999999
 49
25.4
 74
    0
 49
-12.7
 74
    0
  0
LTYPE
  5
3A
330
5
100
AcDbSymbolTableRecord
100
AcDbLinetypeTableRecord
  2
DASHDOT
 70
    0
  3
Dash dot __ . __ . __ . __ . __ . __ . __ . __
 72
   65
 73
    4
 40
25.4
 49
12.7
 74
    0
 49
-6.35
 74
    0
 49
0
 74
    0
 49
-6.35
 74
    0
  0
LTYPE
  5
3B
330
5
100
AcDbSymbolTableRecord
100
AcDbLinetypeTableRecord
  2
DASHDOTTINY
 70
    0
  3
Dash dot (.15x) _._._._._._._._._._._._._._._.
 72
   65
 73
    4
 40
3.81
 49
1.905
 74
    0
 49
-0.9525
 74
    0
 49
0
 74
    0
 49
-0.9525
 74
    0
  0
LTYPE
  5
3C
330
5
100
AcDbSymbolTableRecord
100
AcDbLinetypeTableRecord
  2
DASHDOT2
 70
    0
  3
Dash dot (.5x) _._._._._._._._._._._._._._._.
 72
   65
 73
    4
 40
12.7
 49
6.35
 74
    0
 49
-3.175
 74
    0
 49
0
 74
    0
 49
-3.175
 74
    0
  0
LTYPE
  5
3D
330
5
100
AcDbSymbolTableRecord
100
AcDbLinetypeTableRecord
  2
DASHDOTX2
 70
    0
  3
Dash dot (2x) ____  .  ____  .  ____  .  ___
 72
   65
 73
    4
 40
50.8
 49
25.4
 74
    0
 49
-12.7
 74
    0
 49
0
 74
    0
 49
-12.7
 74
    0
  0
LTYPE
  5
3E
330
5
100
AcDbSymbolTableRecord
100
AcDbLinetypeTableRecord
  2
DIVIDE
 70
    0
  3
Divide ____ . . ____ . . ____ . . ____ . . ____
 72
   65
 73
    6
 40
31.75
 49
12.7
 74
    0
 49
-6.35
 74
    0
 49
0
 74
    0
 49
-6.35
 74
    0
 49
0
 74
    0
 49
-6.35
 74
    0
  0
LTYPE
  5
3F
330
5
100
AcDbSymbolTableRecord
100
AcDbLinetypeTableRecord
  2
DIVIDETINY
 70
    0
  3
Divide (.15x) __..__..__..__..__..__..__..__.._
 72
   65
 73
    6
 40
4.7625
 49
1.905
 74
    0
 49
-0.9525
 74
    0
 49
0
 74
    0
 49
-0.9525
 74
    0
 49
0
 74
    0
 49
-0.9525
 74
    0
  0
LTYPE
  5
40
330
5
100
AcDbSymbolTableRecord
100
AcDbLinetypeTableRecord
  2
DIVIDE2
 70
    0
  3
Divide (.5x) __..__..__..__..__..__..__..__.._
 72
   65
 73
    6
 40
15.875
 49
6.35
 74
    0
 49
-3.175
 74
    0
 49
0
 74
    0
 49
-3.175
 74
    0
 49
0
 74
    0
 49
-3.175
 74
    0
  0
LTYPE
  5
41
330
5
100
AcDbSymbolTableRecord
100
AcDbLinetypeTableRecord
  2
DIVIDEX2
 70
    0
  3
Divide (2x) ________  .  .  ________  .  .  _
 72
   65
 73
    6
 40
63.5
 49
25.4
 74
    0
 49
-12.7
 74
    0
 49
0
 74
    0
 49
-12.7
 74
    0
 49
0
 74
    0
 49
-12.7
 74
    0
  0
LTYPE
  5
42
330
5
100
AcDbSymbolTableRecord
100
AcDbLinetypeTableRecord
  2
BORDER
 70
    0
  3
Border __ __ . __ __ . __ __ . __ __ . __ __ .
 72
   65
 73
    6
 40
44.45
 49
12.7
 74
    0
 49
-6.35
 74
    0
 49
12.7
 74
    0
 49
-6.35
 74
    0
 49
0
 74
    0
 49
-6.35
 74
    0
  0
LTYPE
  5
43
330
5
100
AcDbSymbolTableRecord
100
AcDbLinetypeTableRecord
  2
BORDERTINY
 70
    0
  3
Border (.15x) __.__.__.__.__.__.__.__.__.__.__.
 72
   65
 73
    6
 40
6.6675
 49
1.905
 74
    0
 49
-0.9525
 74
    0
 49
1.905
 74
    0
 49
-0.9525
 74
    0
 49
0
 74
    0
 49
-0.9525
 74
    0
  0
LTYPE
  5
44
330
5
100
AcDbSymbolTableRecord
100
AcDbLinetypeTableRecord
  2
BORDER2
 70
    0
  3
Border (.5x) __.__.__.__.__.__.__.__.__.__.__.
 72
   65
 73
    6
 40
22.225
 49
6.35
 74
    0
 49
-3.175
 74
    0
 49
6.35
 74
    0
 49
-3.175
 74
    0
 49
0
 74
    0
 49
-3.175
 74
    0
  0
LTYPE
  5
45
330
5
100
AcDbSymbolTableRecord
100
AcDbLinetypeTableRecord
  2
BORDERX2
 70
    0
  3
Border (2x) ____  ____  .  ____  ____  .  ___
 72
   65
 73
    6
 40
88.89999999999999
 49
25.4
 74
    0
 49
-12.7
 74
    0
 49
25.4
 74
    0
 49
-12.7
 74
    0
 49
0
 74
    0
 49
-12.7
 74
    0
  0
LTYPE
  5
46
330
5
100
AcDbSymbolTableRecord
100
AcDbLinetypeTableRecord
  2
CENTER
 70
    0
  3
Center ____ _ ____ _ ____ _ ____ _ ____ _ ____
 72
   65
 73
    4
 40
50.8
 49
31.75
 74
    0
 49
-6.35
 74
    0
 49
6.35
 74
    0
 49
-6.35
 74
    0
  0
LTYPE
  5
47
330
5
100
AcDbSymbolTableRecord
100
AcDbLinetypeTableRecord
  2
CENTERTINY
 70
    0
  3
Center (.15x) ___ _ ___ _ ___ _ ___ _ ___ _ ___
 72
   65
 73
    4
 40
7.619999999999999
 49
4.7625
 74
    0
 49
-0.9525
 74
    0
 49
0.9525
 74
    0
 49
-0.9525
 74
    0
  0
LTYPE
  5
48
330
5
100
AcDbSymbolTableRecord
100
AcDbLinetypeTableRecord
  2
CENTER2
 70
    0
  3
Center (.5x) ___ _ ___ _ ___ _ ___ _ ___ _ ___
 72
   65
 73
    4
 40
28.575
 49
19.05
 74
    0
 49
-3.175
 74
    0
 49
3.175
 74
    0
 49
-3.175
 74
    0
  0
LTYPE
  5
49
330
5
100
AcDbSymbolTableRecord
100
AcDbLinetypeTableRecord
  2
CENTERX2
 70
    0
  3
Center (2x) ________  __  ________  __  _____
 72
   65
 73
    4
 40
101.6
 49
63.5
 74
    0
 49
-12.7
 74
    0
 49
12.7
 74
    0
 49
-12.7
 74
    0
  0
ENDTAB
  0
TABLE
  2
LAYER
  5
2
330
0
100
AcDbSymbolTable
 70
    1
  0
LAYER
  5
10
330
2
100
AcDbSymbolTableRecord
100
AcDbLayerTableRecord
  2
0
 70
    0
 62
    7
  6
CONTINUOUS
370
   -3
390
F
  0
LAYER
  5
4A
330
2
100
AcDbSymbolTableRecord
100
AcDbLayerTableRecord
  2
WALL
 70
    0
 62
    7
  6
CONTINUOUS
370
   -3
390
F
  0
LAYER
  5
4B
330
2
100
AcDbSymbolTableRecord
100
AcDbLayerTableRecord
  2
DOOR
 70
    0
 62
  252
  6
CONTINUOUS
370
    5
390
F
  0
LAYER
  5
4C
330
2
100
AcDbSymbolTableRecord
100
AcDbLayerTableRecord
  2
PROIEZIONI - projections
 70
    1
 62
  145
  6
CONTINUOUS
370
   13
390
F
  0
LAYER
  5
4D
330
2
100
AcDbSymbolTableRecord
100
AcDbLayerTableRecord
  2
SEZIONI medie - small sections
 70
    1
 62
    2
  6
CONTINUOUS
370
   -3
390
F
  0
LAYER
  5
4E
330
2
100
AcDbSymbolTableRecord
100
AcDbLayerTableRecord
  2
VETRATE sezioni - windows sections
 70
    1
 62
  171
420
5077503
  6
CONTINUOUS
370
   -3
390
F
  0
ENDTAB
  0
TABLE
  2
STYLE
  5
3
330
0
100
AcDbSymbolTable
 70
    3
  0
STYLE
  5
4F
330
2
100
AcDbSymbolTableRecord
100
AcDbTextStyleTableRecord
  2
STANDARD
 70
    0
 40
0
 41
1
 50
0
 71
    0
 42
1
  3
STANDARD
  4

  0
ENDTAB
  0
TABLE
  2
VIEW
  5
6
330
0
100
AcDbSymbolTable
 70
    0
  0
ENDTAB
  0
TABLE
  2
UCS
  5
7
330
0
100
AcDbSymbolTable
 70
    0
  0
ENDTAB
  0
TABLE
  2
APPID
  5
9
330
0
100
AcDbSymbolTable
 70
    1
  0
APPID
  5
12
330
9
100
AcDbSymbolTableRecord
100
AcDbRegAppTableRecord
  2
ACAD
 70
    0
  0
APPID
  5
50
330
9
100
AcDbSymbolTableRecord
100
AcDbRegAppTableRecord
  2
LibreCad
 70
    0
  0
ENDTAB
  0
TABLE
  2
DIMSTYLE
  5
A
330
0
100
AcDbSymbolTable
 70
    1
100
AcDbDimStyleTable
 71
    1
  0
DIMSTYLE
105
51
330
A
100
AcDbSymbolTableRecord
100
AcDbDimStyleTableRecord
  2
Standard
 70
    0
 40
1
 41
0.08
 42
0
 43
0.38
 44
0.04
 45
0
 46
0
 47
0
 48
0
 49
1
140
0.12
141
0.09
142
0
143
25.4
144
1
145
0
146
1
147
0.05
148
0
 71
    0
 72
    0
 73
    0
 74
    1
 75
    0
 76
    0
 77
    0
 78
    1
 79
    0
170
    0
171
    2
172
    0
173
    0
174
    0
175
    0
176
    0
177
    0
178
    0
179
    0
271
    2
272
    4
273
    2
274
    2
275
    0
276
    0
277
    2
278
   44
279
    0
280
    0
281
    0
282
    0
283
    1
284
    0
285
    0
286
    0
288
    0
289
    3
340
4F
  0
ENDTAB
  0
TABLE
  2
BLOCK_RECORD
  5
1
330
0
100
AcDbSymbolTable
 70
    2
  0
BLOCK_RECORD
  5
1F
330
1
100
AcDbSymbolTableRecord
100
AcDbBlockTableRecord
  2
*Model_Space
 70
    0
280
    1
281
    0
  0
BLOCK_RECORD
  5
1E
330
1
100
AcDbSymbolTableRecord
100
AcDbBlockTableRecord
  2
*Paper_Space
 70
    0
280
    1
281
    0
  0
BLOCK_RECORD
  5
52
330
1
100
AcDbSymbolTableRecord
100
AcDbBlockTableRecord
  2
_Oblique
 70
    0
280
    1
281
    0
  0
BLOCK_RECORD
  5
55
330
1
100
AcDbSymbolTableRecord
100
AcDbBlockTableRecord
  2
aw logo
 70
    0
280
    1
281
    0
  0
BLOCK_RECORD
  5
58
330
1
100
AcDbSymbolTableRecord
100
AcDbBlockTableRecord
  2
poltrona - armchair - ru74aw25
 70
    0
280
    1
281
    0
  0
BLOCK_RECORD
  5
5B
330
1
100
AcDbSymbolTableRecord
100
AcDbBlockTableRecord
  2
*U3
 70
    0
280
    1
281
    0
  0
BLOCK_RECORD
  5
5E
330
1
100
AcDbSymbolTableRecord
100
AcDbBlockTableRecord
  2
*U4
 70
    0
280
    1
281
    0
  0
BLOCK_RECORD
  5
61
330
1
100
AcDbSymbolTableRecord
100
AcDbBlockTableRecord
  2
*U5
 70
    0
280
    1
281
    0
  0
BLOCK_RECORD
  5
64
330
1
100
AcDbSymbolTableRecord
100
AcDbBlockTableRecord
  2
*U6
 70
    0
280
    1
281
    0
  0
BLOCK_RECORD
  5
67
330
1
100
AcDbSymbolTableRecord
100
AcDbBlockTableRecord
  2
*U7
 70
    0
280
    1
281
    0
  0
BLOCK_RECORD
  5
6A
330
1
100
AcDbSymbolTableRecord
100
AcDbBlockTableRecord
  2
bidet tr52aw26
 70
    0
280
    1
281
    0
  0
BLOCK_RECORD
  5
6D
330
1
100
AcDbSymbolTableRecord
100
AcDbBlockTableRecord
  2
DOOR40
 70
    0
280
    1
281
    0
  0
BLOCK_RECORD
  5
70
330
1
100
AcDbSymbolTableRecord
100
AcDbBlockTableRecord
  2
letto matrimoniale - double bed - gw67aw26
 70
    0
280
    1
281
    0
  0
BLOCK_RECORD
  5
73
330
1
100
AcDbSymbolTableRecord
100
AcDbBlockTableRecord
  2
specchio - mirror - dy41aw26
 70
    0
280
    1
281
    0
  0
BLOCK_RECORD
  5
76
330
1
100
AcDbSymbolTableRecord
100
AcDbBlockTableRecord
  2
specchio - mirror - gh75aw26
 70
    0
280
    1
281
    0
  0
BLOCK_RECORD
  5
79
330
1
100
AcDbSymbolTableRecord
100
AcDbBlockTableRecord
  2
doccia - shower - iu62aw26
 70
    0
280
    1
281
    0
  0
BLOCK_RECORD
  5
7C
330
1
100
AcDbSymbolTableRecord
100
AcDbBlockTableRecord
  2
wc tf54aw26
 70
    0
280
    1
281
    0
  0
ENDTAB
  0
ENDSEC
  0
SECTION
  2
BLOCKS
  0
BLOCK
  5
20
330
1F
100
AcDbEntity
  8
0
100
AcDbBlockBegin
  2
*Model_Space
 70
    0
 10
0
 20
0
 30
0
  3
*Model_Space
  1

  0
ENDBLK
  5
21
330
1F
100
AcDbEntity
  8
0
100
AcDbBlockEnd
  0
BLOCK
  5
1C
330
1B
100
AcDbEntity
  8
0
100
AcDbBlockBegin
  2
*Paper_Space
 70
    0
 10
0
 20
0
 30
0
  3
*Paper_Space
  1

  0
ENDBLK
  5
1D
330
1F
100
AcDbEntity
  8
0
100
AcDbBlockEnd
  0
BLOCK
  5
53
330
52
100
AcDbEntity
  8
0
100
AcDbBlockBegin
  2
_Oblique
 70
    0
 10
0
 20
0
  3
_Oblique
  1

  0
LINE
  5
7F
100
AcDbEntity
  8
0
  6
ByBlock
 62
    0
370
   -2
100
AcDbLine
 10
-0.5
 20
-0.5
 11
0.5
 21
0.5
  0
ENDBLK
  5
54
330
52
100
AcDbEntity
  8
0
100
AcDbBlockEnd
  0
BLOCK
  5
56
330
55
100
AcDbEntity
  8
0
100
AcDbBlockBegin
  2
aw logo
 70
    0
 10
0
 20
0
  3
aw logo
  1

  0
HATCH
  5
80
100
AcDbEntity
  8
0
  6
ByLayer
 62
  253
420
11250603
370
   -1
100
AcDbHatch
 10
0
 20
0
 30
0
210
0
220
0
230
1
  2
SOLID
 70
    1
 71
    0
 91
    5
 92
    0
 93
    4
 72
    1
 10
-7.127056980526049
 20
-10.91807493933129
 11
-6.509429374073079
 21
-10.56148747448651
 72
    1
 10
-6.509429374073079
 20
-10.56148747448651
 11
-6.509429374073079
 21
-3.758220801392326
 72
    1
 10
-6.509429374073079
 20
-3.758220801392326
 11
-13.01885874814661
 21
-7.516441602784198
 72
    1
 10
-13.01885874814661
 20
-7.516441602784198
 11
-7.127056980526049
 21
-10.91807493933129
 97
    0
 92
    0
 93
    3
 72
    1
 10
-6.509429374073079
 20
-10.56148747448674
 11
-0.6176276064525155
 21
-7.159854137939192
 72
    1
 10
-0.6176276064525155
 20
-7.159854137939192
 11
-6.509429374073079
 21
-3.758220801391872
 72
    1
 10
-6.509429374073079
 20
-3.758220801391872
 11
-6.509429374073079
 21
-10.56148747448674
 97
    0
 92
    0
 93
    6
 72
    1
 10
-0.6176276064529702
 20
-7.159854137939647
 11
0
 21
-6.80326667309464
 72
    1
 10
0
 20
-6.80326667309464
 11
0.617627606453425
 21
-7.159854137939192
 72
    1
 10
0.617627606453425
 20
-7.159854137939192
 11
6.509429374073534
 21
-3.758220801392326
 72
    1
 10
6.509429374073534
 20
-3.758220801392326
 11
0
 21
0
 72
    1
 10
0
 20
0
 11
-6.509429374073079
 21
-3.758220801391872
 72
    1
 10
-6.509429374073079
 20
-3.758220801391872
 11
-0.6176276064529702
 21
-7.159854137939647
 97
    0
 92
    0
 93
    3
 72
    1
 10
0.6176276064538797
 20
-7.159854137939192
 11
6.509429374073534
 21
-10.56148747448583
 72
    1
 10
6.509429374073534
 20
-10.56148747448583
 11
6.509429374073534
 21
-3.758220801392326
 72
    1
 10
6.509429374073534
 20
-3.758220801392326
 11
0.6176276064538797
 21
-7.159854137939192
 97
    0
 92
    0
 93
    4
 72
    1
 10
6.509429374073989
 20
-10.5614874744856
 11
7.127056980527868
 21
-10.91807493933106
 72
    1
 10
7.127056980527868
 20
-10.91807493933106
 11
13.01885874814843
 21
-7.516441602784198
 72
    1
 10
13.01885874814843
 20
-7.516441602784198
 11
6.509429374073534
 21
-3.758220801392326
 72
    1
 10
6.509429374073534
 20
-3.758220801392326
 11
6.509429374073989
 21
-10.5614874744856
 97
    0
 75
    0
 76
    1
 98
    0
  0
HATCH
  5
81
100
AcDbEntity
  8
0
  6
ByLayer
 62
  252
420
8882055
370
   -1
100
AcDbHatch
 10
0
 20
0
 30
0
210
0
220
0
230
1
  2
SOLID
 70
    1
 71
    0
 91
    4
 92
    0
 93
    4
 72
    1
 10
7.127056980526959
 20
-10.91807493933152
 11
7.127056980526504
 21
-11.63124986901948
 72
    1
 10
7.127056980526504
 20
-11.63124986901948
 11
13.01885874814707
 21
-15.0328832055668
 72
    1
 10
13.01885874814707
 20
-15.0328832055668
 11
13.01885874814707
 21
-7.516441602784653
 72
    1
 10
13.01885874814707
 20
-7.516441602784653
 11
7.127056980526959
 21
-10.91807493933152
 97
    0
 92
    0
 93
    3
 72
    1
 10
7.127056980526959
 20
-11.63124986901926
 11
7.127056980526049
 21
-18.43451654211572
 72
    1
 10
7.127056980526049
 20
-18.43451654211572
 11
13.01885874814843
 21
-15.03288320556794
 72
    1
 10
13.01885874814843
 20
-15.03288320556794
 11
7.127056980526959
 21
-11.63124986901926
 97
    0
 92
    0
 93
    3
 72
    1
 10
-7.127056980526504
 20
-18.43451654211572
 11
-7.127056980526504
 21
-11.63124986902108
 72
    1
 10
-7.127056980526504
 20
-11.63124986902108
 11
-13.01885874814752
 21
-15.0328832055684
 72
    1
 10
-13.01885874814752
 20
-15.0328832055684
 11
-7.127056980526504
 21
-18.43451654211572
 97
    0
 92
    0
 93
    4
 72
    1
 10
-7.127056980526504
 20
-11.63124986902085
 11
-7.127056980526504
 21
-10.91807493933084
 72
    1
 10
-7.127056980526504
 20
-10.91807493933084
 11
-13.01885874814661
 21
-7.516441602784198
 72
    1
 10
-13.01885874814661
 20
-7.516441602784198
 11
-13.01885874814661
 21
-15.03288320556794
 72
    1
 10
-13.01885874814661
 20
-15.03288320556794
 11
-7.127056980526504
 21
-11.63124986902085
 97
    0
 75
    0
 76
    1
 98
    0
  0
HATCH
  5
82
100
AcDbEntity
  8
0
  6
ByLayer
 62
   16
420
8981261
370
   -1
100
AcDbHatch
 10
0
 20
0
 30
0
210
0
220
0
230
1
  2
SOLID
 70
    1
 71
    0
 91
    2
 92
    0
 93
    4
 72
    1
 10
-5.891801767619654
 20
-11.63124986902085
 11
-5.891801767619654
 21
-19.14769147180527
 72
    1
 10
-5.891801767619654
 20
-19.14769147180527
 11
-9.094999999999999e-13
 21
-22.54932480835259
 72
    1
 10
-9.094999999999999e-13
 20
-22.54932480835259
 11
0
 21
-15.0328832055684
 72
    1
 10
0
 20
-15.0328832055684
 11
-5.891801767619654
 21
-11.63124986902085
 97
    0
 92
    0
 93
    4
 72
    1
 10
5.891801767619654
 20
-19.14769147180573
 11
5.891801767620564
 21
-11.63124986902176
 72
    1
 10
5.891801767620564
 20
-11.63124986902176
 11
0
 21
-15.0328832055684
 72
    1
 10
0
 20
-15.0328832055684
 11
-9.094999999999999e-13
 21
-22.54932480835259
 72
    1
 10
-9.094999999999999e-13
 20
-22.54932480835259
 11
5.891801767619654
 21
-19.14769147180573
 97
    0
 75
    0
 76
    1
 98
    0
  0
HATCH
  5
83
100
AcDbEntity
  8
0
  6
ByLayer
 62
   14
420
11144720
370
   -1
100
AcDbHatch
 10
0
 20
0
 30
0
210
0
220
0
230
1
  2
SOLID
 70
    1
 71
    0
 91
    1
 92
    0
 93
    4
 72
    1
 10
5.891801767621473
 20
-11.63124986902085
 11
0
 21
-8.229616532473756
 72
    1
 10
0
 20
-8.229616532473756
 11
-5.891801767619654
 21
-11.63124986902085
 72
    1
 10
-5.891801767619654
 20
-11.63124986902085
 11
0
 21
-15.0328832055684
 72
    1
 10
0
 20
-15.0328832055684
 11
5.891801767621473
 21
-11.63124986902085
 97
    0
 75
    0
 76
    1
 98
    0
  0
HATCH
  5
84
100
AcDbEntity
  8
0
  6
ByLayer
 62
  255
370
   -1
100
AcDbHatch
 10
0
 20
0
 30
0
210
0
220
0
230
1
  2
SOLID
 70
    1
 71
    0
 91
    1
 92
    0
 93
   10
 72
    1
 10
0
 20
-8.229616532473756
 11
5.891801767620109
 21
-11.63124986902039
 72
    1
 10
5.891801767620109
 20
-11.63124986902039
 11
5.891801767619654
 21
-19.1476914718055
 72
    1
 10
5.891801767619654
 20
-19.1476914718055
 11
7.127056980526504
 21
-18.43451654211572
 72
    1
 10
7.127056980526504
 20
-18.43451654211572
 11
7.127056980526959
 21
-10.91807493933084
 72
    1
 10
7.127056980526959
 20
-10.91807493933084
 11
0
 21
-6.80326667309464
 72
    1
 10
0
 20
-6.80326667309464
 11
-7.127056980526504
 21
-10.91807493933129
 72
    1
 10
-7.127056980526504
 20
-10.91807493933129
 11
-7.127056980526504
 21
-18.43451654211594
 72
    1
 10
-7.127056980526504
 20
-18.43451654211594
 11
-5.891801767619654
 21
-19.1476914718055
 72
    1
 10
-5.891801767619654
 20
-19.1476914718055
 11
-5.891801767619654
 21
-11.63124986902085
 72
    1
 10
-5.891801767619654
 20
-11.63124986902085
 11
0
 21
-8.229616532473756
 97
    0
 75
    0
 76
    1
 98
    0
  0
ENDBLK
  5
57
330
55
100
AcDbEntity
  8
0
100
AcDbBlockEnd
  0
BLOCK
  5
59
330
58
100
AcDbEntity
  8
0
100
AcDbBlockBegin
  2
poltrona - armchair - ru74aw25
 70
    0
 10
0
 20
0
  3
poltrona - armchair - ru74aw25
  1

  0
ENDBLK
  5
5A
330
58
100
AcDbEntity
  8
0
100
AcDbBlockEnd
  0
BLOCK
  5
5C
330
5B
100
AcDbEntity
  8
0
100
AcDbBlockBegin
  2
*U3
 70
    0
 10
0
 20
0
  3
*U3
  1

  0
ENDBLK
  5
5D
330
5B
100
AcDbEntity
  8
0
100
AcDbBlockEnd
  0
BLOCK
  5
5F
330
5E
100
AcDbEntity
  8
0
100
AcDbBlockBegin
  2
*U4
 70
    0
 10
0
 20
0
  3
*U4
  1

  0
ENDBLK
  5
60
330
5E
100
AcDbEntity
  8
0
100
AcDbBlockEnd
  0
BLOCK
  5
62
330
61
100
AcDbEntity
  8
0
100
AcDbBlockBegin
  2
*U5
 70
    0
 10
0
 20
0
  3
*U5
  1

  0
ENDBLK
  5
63
330
61
100
AcDbEntity
  8
0
100
AcDbBlockEnd
  0
BLOCK
  5
65
330
64
100
AcDbEntity
  8
0
100
AcDbBlockBegin
  2
*U6
 70
    0
 10
0
 20
0
  3
*U6
  1

  0
ENDBLK
  5
66
330
64
100
AcDbEntity
  8
0
100
AcDbBlockEnd
  0
BLOCK
  5
68
330
67
100
AcDbEntity
  8
0
100
AcDbBlockBegin
  2
*U7
 70
    0
 10
0
 20
0
  3
*U7
  1

  0
ENDBLK
  5
69
330
67
100
AcDbEntity
  8
0
100
AcDbBlockEnd
  0
BLOCK
  5
6B
330
6A
100
AcDbEntity
  8
0
100
AcDbBlockBegin
  2
bidet tr52aw26
 70
    0
 10
0
 20
0
  3
bidet tr52aw26
  1

  0
ENDBLK
  5
6C
330
6A
100
AcDbEntity
  8
0
100
AcDbBlockEnd
  0
BLOCK
  5
6E
330
6D
100
AcDbEntity
  8
0
100
AcDbBlockBegin
  2
DOOR40
 70
    0
 10
0
 20
0
  3
DOOR40
  1

  0
LWPOLYLINE
  5
85
100
AcDbEntity
  8
DOOR
  6
ByLayer
 62
    2
370
   -1
100
AcDbPolyline
 90
    4
 70
    1
 43
0
 10
521.0713968356358
 20
54.26758422441344
 10
521.0713968356358
 20
54.21758422441053
 10
521.8713968356351
 20
54.21758422441053
 10
521.8713968356351
 20
54.26758422441344
  0
LWPOLYLINE
  5
86
100
AcDbEntity
  8
DOOR
  6
ByLayer
 62
    2
370
   -1
100
AcDbPolyline
 90
    4
 70
    1
 43
0
 10
521.8713968356351
 20
54.16758422440762
 10
521.8713968356351
 20
54.21758422441053
 10
521.9913968356354
 20
54.21758422441053
 10
521.9913968356354
 20
54.16758422440762
  0
LWPOLYLINE
  5
87
100
AcDbEntity
  8
DOOR
  6
ByLayer
 62
    2
370
   -1
100
AcDbPolyline
 90
    4
 70
    1
 43
0
 10
521.8713968356369
 20
55.01758422441344
 10
521.8713968356369
 20
55.06758422441635
 10
521.9913968356373
 20
55.06758422441635
 10
521.9913968356373
 20
55.01758422441344
  0
ENDBLK
  5
6F
330
6D
100
AcDbEntity
  8
0
100
AcDbBlockEnd
  0
BLOCK
  5
71
330
70
100
AcDbEntity
  8
0
100
AcDbBlockBegin
  2
letto matrimoniale - double bed - gw67aw26
 70
    0
 10
0
 20
0
  3
letto matrimoniale - double bed - gw67aw26
  1

  0
ENDBLK
  5
72
330
70
100
AcDbEntity
  8
0
100
AcDbBlockEnd
  0
BLOCK
  5
74
330
73
100
AcDbEntity
  8
0
100
AcDbBlockBegin
  2
specchio - mirror - dy41aw26
 70
    0
 10
0
 20
0
  3
specchio - mirror - dy41aw26
  1

  0
ENDBLK
  5
75
330
73
100
AcDbEntity
  8
0
100
AcDbBlockEnd
  0
BLOCK
  5
77
330
76
100
AcDbEntity
  8
0
100
AcDbBlockBegin
  2
specchio - mirror - gh75aw26
 70
    0
 10
0
 20
0
  3
specchio - mirror - gh75aw26
  1

  0
ENDBLK
  5
78
330
76
100
AcDbEntity
  8
0
100
AcDbBlockEnd
  0
BLOCK
  5
7A
330
79
100
AcDbEntity
  8
0
100
AcDbBlockBegin
  2
doccia - shower - iu62aw26
 70
    0
 10
0
 20
0
  3
doccia - shower - iu62aw26
  1

  0
ENDBLK
  5
7B
330
79
100
AcDbEntity
  8
0
100
AcDbBlockEnd
  0
BLOCK
  5
7D
330
7C
100
AcDbEntity
  8
0
100
AcDbBlockBegin
  2
wc tf54aw26
 70
    0
 10
0
 20
0
  3
wc tf54aw26
  1

  0
ENDBLK
  5
7E
330
7C
100
AcDbEntity
  8
0
100
AcDbBlockEnd
  0
ENDSEC
  0
SECTION
  2
ENTITIES
  0
LINE
  5
88
100
AcDbEntity
  8
0
  6
ByLayer
 62
    1
370
   -1
100
AcDbLine
 10
974.2727069368434
 20
-578.5277435267554
 11
975.2727069368434
 21
-578.5277435267554
  0
LINE
  5
89
100
AcDbEntity
  8
0
  6
ByLayer
 62
    1
370
   -1
100
AcDbLine
 10
974.2727069368434
 20
-578.1277435267555
 11
975.2727069368434
 21
-578.1277435267555
  0
INSERT
  5
8A
100
AcDbEntity
  8
DOOR
  6
ByLayer
 62
  256
370
   -1
100
AcDbBlockReference
  2
DOOR40
 10
1062.387138737283
 20
531.741954787425
 30
0
 41
1
 42
1
 43
0
 50
270
 70
    1
 71
    1
 44
0
 45
0
  0
INSERT
  5
8B
100
AcDbEntity
  8
DOOR
  6
ByLayer
 62
  256
370
   -1
100
AcDbBlockReference
  2
DOOR40
 10
1171.622307186107
 20
532.9401925200917
 30
0
 41
-1
 42
1
 43
0
 50
90
 70
    1
 71
    1
 44
0
 45
0
  0
LINE
  5
8C
100
AcDbEntity
  8
PROIEZIONI - projections
  6
ByLayer
 62
  256
370
   -1
100
AcDbLine
 10
1118.276227023382
 20
14.26349845108672
 11
1120.336227023382
 21
14.26349798229456
  0
LINE
  5
8D
100
AcDbEntity
  8
PROIEZIONI - projections
  6
ByLayer
 62
  256
370
   -1
100
AcDbLine
 10
1120.336227023382
 20
13.96349798229423
 11
1118.276227023382
 21
13.96349845109584
  0
LINE
  5
8E
100
AcDbEntity
  8
VETRATE sezioni - windows sections
  6
ByLayer
 62
  256
370
   -1
100
AcDbLine
 10
1119.377111956324
 20
14.17208208800714
 11
1120.181802060399
 21
14.17208208800804
  0
LWPOLYLINE
  5
8F
100
AcDbEntity
  8
SEZIONI medie - small sections
  6
ByLayer
 62
  256
370
   -1
100
AcDbPolyline
 90
    5
 70
    0
 43
0
 10
1120.181802060399
 20
14.11349798229441
 10
1120.181802060399
 20
14.19753120654224
 10
1120.266566691585
 20
14.19753120654224
 10
1120.266566691585
 20
14.11349798229441
 10
1120.181802060399
 20
14.11349798229441
  0
LWPOLYLINE
  5
90
100
AcDbEntity
  8
SEZIONI medie - small sections
  6
ByLayer
 62
  256
370
   -1
100
AcDbPolyline
 90
    5
 70
    0
 43
0
 10
1119.277724406034
 20
14.11349798229441
 10
1119.277724406034
 20
14.19753120654224
 10
1119.377111956324
 20
14.19753120654224
 10
1119.377111956324
 20
14.11349798229441
 10
1119.277724406034
 20
14.11349798229441
  0
LINE
  5
91
100
AcDbEntity
  8
VETRATE sezioni - windows sections
  6
ByLayer
 62
  256
370
   -1
100
AcDbLine
 10
1120.181802060399
 20
14.13894710082952
 11
1119.377111956324
 21
14.13894710082952
  0
LINE
  5
92
100
AcDbEntity
  8
VETRATE sezioni - windows sections
  6
ByLayer
 62
  256
370
   -1
100
AcDbLine
 10
1118.430651986365
 20
14.0880488637593
 11
1119.23534209044
 21
14.0880488637593
  0
LWPOLYLINE
  5
93
100
AcDbEntity
  8
SEZIONI medie - small sections
  6
ByLayer
 62
  256
370
   -1
100
AcDbPolyline
 90
    5
 70
    0
 43
0
 10
1119.23534209044
 20
14.02946475804658
 10
1119.23534209044
 20
14.11349798229441
 10
1119.33472964073
 20
14.11349798229441
 10
1119.33472964073
 20
14.02946475804658
 10
1119.23534209044
 20
14.02946475804658
  0
LINE
  5
94
100
AcDbEntity
  8
VETRATE sezioni - windows sections
  6
ByLayer
 62
  256
370
   -1
100
AcDbLine
 10
1119.23534209044
 20
14.05491387658078
 11
1118.430651986365
 21
14.05491387658078
  0
LWPOLYLINE
  5
95
100
AcDbEntity
  8
SEZIONI medie - small sections
  6
ByLayer
 62
  256
370
   -1
100
AcDbPolyline
 90
    5
 70
    0
 43
0
 10
1118.430651986365
 20
14.11349798229441
 10
1118.430651986365
 20
14.02946475804658
 10
1118.345887355179
 20
14.02946475804658
 10
1118.345887355179
 20
14.11349798229441
 10
1118.430651986365
 20
14.11349798229441
  0
LWPOLYLINE
  5
96
100
AcDbEntity
  8
SEZIONI medie - small sections
  6
ByLayer
 62
  256
370
   -1
100
AcDbPolyline
 90
    4
 70
    1
 43
0
 10
1118.345887355179
 20
14.02946475804658
 10
1118.345887355179
 20
14.19753120654224
 10
1118.276227023382
 20
14.19753120654224
 10
1118.276227023382
 20
14.02946475804658
  0
LWPOLYLINE
  5
97
100
AcDbEntity
  8
SEZIONI medie - small sections
  6
ByLayer
 62
  256
370
   -1
100
AcDbPolyline
 90
    4
 70
    1
 43
0
 10
1120.336227023382
 20
14.02946475804658
 10
1120.336227023382
 20
14.19753120654224
 10
1120.266566691585
 20
14.19753120654224
 10
1120.266566691585
 20
14.02946475804658
  0
LINE
  5
98
100
AcDbEntity
  8
VETRATE sezioni - windows sections
  6
ByLayer
 62
  256
370
   -1
100
AcDbLine
 10
1116.119674172344
 20
11.06879568445626
 11
1115.457683044607
 21
11.06879568445626
  0
LINE
  5
99
100
AcDbEntity
  8
VETRATE sezioni - windows sections
  6
ByLayer
 62
  256
370
   -1
100
AcDbLine
 10
1116.119674172344
 20
11.03879568445629
 11
1115.457683044607
 21
11.03879568445629
  0
LWPOLYLINE
  5
9A
100
AcDbEntity
  8
SEZIONI medie - small sections
  6
ByLayer
 62
  256
370
   -1
100
AcDbPolyline
 90
    4
 70
    1
 43
0
 10
1116.076824687192
 20
14.15099843090238
 10
1116.076825039299
 20
14.07599808683321
 10
1116.136825039299
 20
14.07599806574453
 10
1116.136824687192
 20
14.1509984098137
  0
LINE
  5
9B
100
AcDbEntity
  8
VETRATE sezioni - windows sections
  6
ByLayer
 62
  256
370
   -1
100
AcDbLine
 10
1116.076824910193
 20
14.10349818806808
 11
1115.276688466472
 21
14.10349814593233
  0
LINE
  5
9C
100
AcDbEntity
  8
VETRATE sezioni - windows sections
  6
ByLayer
 62
  256
370
   -1
100
AcDbLine
 10
1116.076824816298
 20
14.12349818807238
 11
1115.276688372577
 21
14.1234981459364
  0
LWPOLYLINE
  5
9D
100
AcDbEntity
  8
SEZIONI medie - small sections
  6
ByLayer
 62
  256
370
   -1
100
AcDbPolyline
 90
    4
 70
    1
 43
0
 10
1116.136824687192
 20
14.15099838872502
 10
1116.136825039299
 20
14.07599804465585
 10
1116.176825039297
 20
14.07599804465585
 10
1116.176824687189
 20
14.15099838872502
  0
LWPOLYLINE
  5
9E
100
AcDbEntity
  8
SEZIONI medie - small sections
  6
ByLayer
 62
  256
370
   -1
100
AcDbPolyline
 90
    4
 70
    1
 43
0
 10
1115.276688243469
 20
14.15099843090238
 10
1115.276687891362
 20
14.07599808683321
 10
1115.216687891362
 20
14.07599806574453
 10
1115.216688243469
 20
14.1509984098137
  0
LWPOLYLINE
  5
9F
100
AcDbEntity
  8
SEZIONI medie - small sections
  6
ByLayer
 62
  256
370
   -1
100
AcDbPolyline
 90
    4
 70
    1
 43
0
 10
1115.216688243469
 20
14.15099838872502
 10
1115.216687891362
 20
14.07599804465585
 10
1115.176687891364
 20
14.07599804465585
 10
1115.176688243471
 20
14.15099838872502
  0
LINE
  5
A0
100
AcDbEntity
  8
PROIEZIONI - projections
  6
ByLayer
 62
  256
370
   -1
100
AcDbLine
 10
1115.17668771531
 20
14.26349845049913
 11
1116.17682468719
 21
14.26349774789381
  0
LINE
  5
A1
100
AcDbEntity
  8
PROIEZIONI - projections
  6
ByLayer
 62
  256
370
   -1
100
AcDbLine
 10
1116.17682468719
 20
13.96349774789349
 11
1115.17668771531
 21
13.96349845051293
  0
LINE
  5
A2
100
AcDbEntity
  8
WALL
  6
ByLayer
 62
  256
370
   -1
100
AcDbLine
 10
1117.4547229617
 20
9.870557951788129
 11
1117.4547229617
 21
9.750557951787727
  0
LINE
  5
A3
100
AcDbEntity
  8
WALL
  6
CONTINUOUS
 62
  256
370
   -1
100
AcDbLine
 10
1117.4547229617
 20
9.750557951787755
 11
1121.094684336664
 21
9.750557951787828
  0
LINE
  5
A4
100
AcDbEntity
  8
WALL
  6
ByLayer
 62
  256
370
   -1
100
AcDbLine
 10
1116.554722961691
 20
9.870557951789493
 11
1116.554722961691
 21
9.750557951789602
  0
LINE
  5
A5
100
AcDbEntity
  8
WALL
  6
ByLayer
 62
  256
370
   -1
100
AcDbLine
 10
1116.554722961691
 20
9.870557951789948
 11
1116.47668771531
 21
9.870557951789948
  0
LINE
  5
A6
100
AcDbEntity
  8
WALL
  6
CONTINUOUS
 62
  256
370
   -1
100
AcDbLine
 10
1116.554722961691
 20
9.750557951789602
 11
1114.906687715311
 21
9.750557951789601
  0
LINE
  5
A7
100
AcDbEntity
  8
WALL
  6
ByLayer
 62
  256
370
   -1
100
AcDbLine
 10
1117.4547229617
 20
12.04879568445497
 11
1117.4547229617
 21
10.94879568445484
  0
LINE
  5
A8
100
AcDbEntity
  8
WALL
  6
ByLayer
 62
  256
370
   -1
100
AcDbLine
 10
1116.8247229617
 20
12.04879568445492
 11
1117.4547229617
 21
12.04879568445497
  0
LINE
  5
A9
100
AcDbEntity
  8
WALL
  6
ByLayer
 62
  256
370
   -1
100
AcDbLine
 10
1118.0547229617
 20
12.16879568445489
 11
1116.9447229617
 21
12.16879568445489
  0
LINE
  5
AA
100
AcDbEntity
  8
WALL
  6
ByLayer
 62
  256
370
   -1
100
AcDbLine
 10
1116.9447229617
 20
12.16879568445489
 11
1116.9447229617
 21
13.96349798229409
  0
LINE
  5
AB
100
AcDbEntity
  8
WALL
  6
ByLayer
 62
  256
370
   -1
100
AcDbLine
 10
1116.8247229617
 20
12.04879568445492
 11
1116.8247229617
 21
13.96349798229432
  0
LINE
  5
AC
100
AcDbEntity
  8
WALL
  6
ByLayer
 62
  256
370
   -1
100
AcDbLine
 10
1118.174722961699
 20
12.94879568445484
 11
1118.174722961699
 21
12.04879568445494
  0
LINE
  5
AD
100
AcDbEntity
  8
WALL
  6
ByLayer
 62
  256
370
   -1
100
AcDbLine
 10
1118.0547229617
 20
12.94879568445484
 11
1118.0547229617
 21
12.16879568445489
  0
LINE
  5
AE
100
AcDbEntity
  8
WALL
  6
ByLayer
 62
  256
370
   -1
100
AcDbLine
 10
1117.5747229617
 20
10.94879568445484
 11
1117.4547229617
 21
10.94879568445484
  0
LINE
  5
AF
100
AcDbEntity
  8
WALL
  6
ByLayer
 62
  256
370
   -1
100
AcDbLine
 10
1117.5747229617
 20
12.04879568445492
 11
1117.5747229617
 21
10.94879568445484
  0
LINE
  5
B0
100
AcDbEntity
  8
WALL
  6
ByLayer
 62
  256
370
   -1
100
AcDbLine
 10
1117.5747229617
 20
12.04879568445494
 11
1118.174722961699
 21
12.04879568445497
  0
LINE
  5
B1
100
AcDbEntity
  8
WALL
  6
ByLayer
 62
  256
370
   -1
100
AcDbLine
 10
1117.4547229617
 20
9.870557951788129
 11
1120.974684336666
 21
9.870557951788131
  0
LINE
  5
B2
100
AcDbEntity
  8
WALL
  6
ByLayer
 62
  256
370
   -1
100
AcDbLine
 10
1118.276227023382
 20
14.26349845108672
 11
1118.276227023382
 21
13.96349798229423
  0
LINE
  5
B3
100
AcDbEntity
  8
WALL
  6
ByLayer
 62
  256
370
   -1
100
AcDbLine
 10
1120.336227023382
 20
14.26349798229456
 11
1120.336227023382
 21
13.96349798229423
  0
LINE
  5
B4
100
AcDbEntity
  8
WALL
  6
ByLayer
 62
  256
370
   -1
100
AcDbLine
 10
1116.9447229617
 20
13.96349798229409
 11
1118.0547229617
 21
13.96349798229409
  0
LINE
  5
B5
100
AcDbEntity
  8
WALL
  6
ByLayer
 62
  256
370
   -1
100
AcDbLine
 10
1120.336227023382
 20
14.26349798229456
 11
1121.094684336664
 21
14.26349798229428
  0
LINE
  5
B6
100
AcDbEntity
  8
WALL
  6
ByLayer
 62
  256
370
   -1
100
AcDbLine
 10
1120.336227023382
 20
13.96349798229423
 11
1120.974684336665
 21
13.96349798229426
  0
LINE
  5
B7
100
AcDbEntity
  8
WALL
  6
ByLayer
 62
  256
370
   -1
100
AcDbLine
 10
1116.47668771531
 20
10.94879568445492
 11
1116.47668771531
 21
9.870557951789948
  0
LINE
  5
B8
100
AcDbEntity
  8
WALL
  6
ByLayer
 62
  256
370
   -1
100
AcDbLine
 10
1116.554722961691
 20
11.06879568445626
 11
1116.176687480739
 21
11.06879568445626
  0
LINE
  5
B9
100
AcDbEntity
  8
WALL
  6
ByLayer
 62
  256
370
   -1
100
AcDbLine
 10
1116.176687480739
 20
9.870557951788129
 11
1115.02668771531
 21
9.870557951788157
  0
LINE
  5
BA
100
AcDbEntity
  8
WALL
  6
ByLayer
 62
  256
370
   -1
100
AcDbLine
 10
1115.02668771531
 20
13.96349845051293
 11
1115.02668771531
 21
9.870557951788157
  0
LINE
  5
BB
100
AcDbEntity
  8
WALL
  6
ByLayer
 62
  256
370
   -1
100
AcDbLine
 10
1116.176687480739
 20
11.06879568445626
 11
1116.176687480739
 21
9.870557951788129
  0
LINE
  5
BC
100
AcDbEntity
  8
WALL
  6
ByLayer
 62
  256
370
   -1
100
AcDbLine
 10
1116.176824687189
 20
14.26349798229433
 11
1116.17682468719
 21
13.96349774789349
  0
LINE
  5
BD
100
AcDbEntity
  8
WALL
  6
ByLayer
 62
  256
370
   -1
100
AcDbLine
 10
1114.906687715311
 20
14.2634979822943
 11
1115.17668771531
 21
14.26349845049913
  0
LINE
  5
BE
100
AcDbEntity
  8
WALL
  6
ByLayer
 62
  256
370
   -1
100
AcDbLine
 10
1116.17682468719
 20
13.96349774789349
 11
1116.8247229617
 21
13.96349798229432
  0
LINE
  5
BF
100
AcDbEntity
  8
WALL
  6
ByLayer
 62
  256
370
   -1
100
AcDbLine
 10
1116.17682468719
 20
14.26349774789381
 11
1118.276227023382
 21
14.26349798229433
  0
LINE
  5
C0
100
AcDbEntity
  8
WALL
  6
ByLayer
 62
  256
370
   -1
100
AcDbLine
 10
1116.554722961691
 20
11.06879568445484
 11
1116.554722961691
 21
10.9487956844545
  0
LINE
  5
C1
100
AcDbEntity
  8
WALL
  6
ByLayer
 62
  256
370
   -1
100
AcDbLine
 10
1116.554722961691
 20
10.9487956844545
 11
1116.47668771531
 21
10.94879568445492
  0
LINE
  5
C2
100
AcDbEntity
  8
WALL
  6
ByLayer
 62
  256
370
   -1
100
AcDbLine
 10
1120.974684336665
 20
13.96349798229426
 11
1120.974684336666
 21
9.870557951788131
  0
LWPOLYLINE
  5
C3
100
AcDbEntity
  8
VETRATE sezioni - windows sections
  6
ByLayer
 62
    2
370
   -1
100
AcDbPolyline
 90
    4
 70
    1
 43
0
 10
1115.419674172344
 20
11.06879568445626
 10
1115.419674172344
 20
11.03879568445629
 10
1115.457683044607
 20
11.03879568445629
 10
1115.457683044607
 20
11.06879568445626
  0
LWPOLYLINE
  5
C4
100
AcDbEntity
  8
VETRATE sezioni - windows sections
  6
ByLayer
 62
    2
370
   -1
100
AcDbPolyline
 90
    4
 70
    1
 43
0
 10
1115.02668771531
 20
11.06879568445626
 10
1115.02668771531
 20
11.03879568445629
 10
1115.045692386013
 20
11.03879568445629
 10
1115.045692386013
 20
11.06879568445626
  0
LWPOLYLINE
  5
C5
100
AcDbEntity
  8
VETRATE sezioni - windows sections
  6
ByLayer
 62
    2
370
   -1
100
AcDbPolyline
 90
    4
 70
    1
 43
0
 10
1116.157683044607
 20
11.06879568445626
 10
1116.157683044607
 20
11.03879568445629
 10
1116.119674172344
 20
11.03879568445629
 10
1116.119674172344
 20
11.06879568445626
  0
LWPOLYLINE
  5
C6
100
AcDbEntity
  8
VETRATE sezioni - windows sections
  6
ByLayer
 62
    2
370
   -1
100
AcDbPolyline
 90
    4
 70
    1
 43
0
 10
1116.17668771531
 20
11.06879568445626
 10
1116.17668771531
 20
11.03879568445629
 10
1116.157683044607
 20
11.03879568445629
 10
1116.157683044607
 20
11.06879568445626
  0
LWPOLYLINE
  5
C7
100
AcDbEntity
  8
VETRATE sezioni - windows sections
  6
ByLayer
 62
    2
370
   -1
100
AcDbPolyline
 90
    4
 70
    1
 43
0
 10
1115.40066950164
 20
11.06879568445626
 10
1115.40066950164
 20
11.03879568445629
 10
1115.419674172344
 20
11.03879568445629
 10
1115.419674172344
 20
11.06879568445626
  0
LINE
  5
C8
100
AcDbEntity
  8
VETRATE sezioni - windows sections
  6
ByLayer
 62
  256
370
   -1
100
AcDbLine
 10
1115.40066950164
 20
11.06879568445626
 11
1115.045692386013
 21
11.06879568445626
  0
LINE
  5
C9
100
AcDbEntity
  8
VETRATE sezioni - windows sections
  6
ByLayer
 62
  256
370
   -1
100
AcDbLine
 10
1115.045692386013
 20
11.03879568445629
 11
1115.40066950164
 21
11.03879568445629
  0
LWPOLYLINE
  5
CA
100
AcDbEntity
  8
DOOR
  6
ByLayer
 62
    2
370
   -1
100
AcDbPolyline
 90
    4
 70
    0
 43
0
 10
1118.087440995432
 20
12.94879568445506
 10
1118.0547229617
 20
12.94879568445484
 10
1118.0547229617
 20
12.99864041387085
 10
1118.087440995432
 20
12.99864041387085
  0
LWPOLYLINE
  5
CB
100
AcDbEntity
  8
DOOR
  6
ByLayer
 62
    2
370
   -1
100
AcDbPolyline
 90
    4
 70
    0
 43
0
 10
1118.142004927926
 20
12.99864041387085
 10
1118.174722961699
 20
12.99864041387085
 10
1118.1747229617
 20
12.94879568445484
 10
1118.142004927926
 20
12.94879568445506
  0
LWPOLYLINE
  5
CC
100
AcDbEntity
  8
DOOR
  6
ByLayer
 62
    2
370
   -1
100
AcDbPolyline
 90
    4
 70
    1
 43
0
 10
1118.174722961695
 20
13.8136532528795
 10
1118.054722961695
 20
13.81365325287905
 10
1118.054722961704
 20
13.86349798229438
 10
1118.174722961703
 20
13.86349798229415
  0
LWPOLYLINE
  5
CD
100
AcDbEntity
  8
DOOR
  6
ByLayer
 62
    2
370
   -1
100
AcDbPolyline
 90
    5
 70
    0
 43
0
 10
1118.127902228017
 20
12.4111237476009
 10
1118.127902228017
 20
13.27112374760057
 10
1118.101543695342
 20
13.2711237476008
 10
1118.101543695342
 20
12.4111237476009
 10
1118.127902228017
 20
12.4111237476009
  0
LWPOLYLINE
  5
CE
100
AcDbEntity
  8
DOOR
  6
ByLayer
 62
    2
370
   -1
100
AcDbPolyline
 90
    6
 70
    0
 43
0
 10
1118.101543695342
 20
13.00915110293866
 10
1118.087440995432
 20
13.00915110293866
 10
1118.087440995432
 20
12.16344110386765
 10
1118.142004927926
 20
12.16344110386765
 10
1118.142004927926
 20
13.00915110293866
 10
1118.127902228016
 20
13.00915110293866
  0
LINE
  5
CF
100
AcDbEntity
  8
WALL
  6
ByLayer
 62
  256
370
   -1
100
AcDbLine
 10
1118.174722961699
 20
13.86349798229426
 11
1118.0547229617
 21
13.86349798229426
  0
LINE
  5
D0
100
AcDbEntity
  8
WALL
  6
ByLayer
 62
  256
370
   -1
100
AcDbLine
 10
1118.0547229617
 20
13.86349798229426
 11
1118.0547229617
 21
13.96349798229409
  0
LINE
  5
D1
100
AcDbEntity
  8
WALL
  6
ByLayer
 62
  256
370
   -1
100
AcDbLine
 10
1118.174722961703
 20
13.86349798229426
 11
1118.174722961703
 21
13.96349798229409
  0
LINE
  5
D2
100
AcDbEntity
  8
WALL
  6
ByLayer
 62
  256
370
   -1
100
AcDbLine
 10
1118.174722961703
 20
13.96349798229409
 11
1118.276227023382
 21
13.96349798229409
  0
LINE
  5
D3
100
AcDbEntity
  8
WALL
  6
CONTINUOUS
 62
  256
370
   -1
100
AcDbLine
 10
1114.906687715311
 20
14.2634979822943
 11
1114.906687715311
 21
9.750557951789601
  0
LINE
  5
D4
100
AcDbEntity
  8
WALL
  6
CONTINUOUS
 62
  256
370
   -1
100
AcDbLine
 10
1121.094684336664
 20
14.26349798229428
 11
1121.094684336664
 21
9.750557951787828
  0
LINE
  5
D5
100
AcDbEntity
  8
WALL
  6
ByLayer
 62
  256
370
   -1
100
AcDbLine
 10
1115.17668771531
 20
14.26349868489965
 11
1115.17668771531
 21
13.96349845049881
  0
LINE
  5
D6
100
AcDbEntity
  8
WALL
  6
ByLayer
 62
  256
370
   -1
100
AcDbLine
 10
1115.17668771531
 20
13.96349845051293
 11
1115.02668771531
 21
13.96349845051293
  0
LINE
  5
D7
100
AcDbEntity
  8
WALL
  6
ByLayer
 62
  256
370
   -1
100
AcDbLine
 10
1116.8247229617
 20
12.04879568445492
 11
1116.824722968283
 21
12.04879570291225
  0
LINE
  5
D8
100
AcDbEntity
  8
WALL
  6
ByLayer
 62
  256
370
   -1
100
AcDbLine
 10
1116.824722974865
 20
12.04879568445492
 11
1116.824722968283
 21
12.04879570291225
  0
LINE
  5
D9
100
AcDbEntity
  8
WALL
  6
ByLayer
 62
  256
370
   -1
100
AcDbLine
 10
1116.824722964991
 20
12.04879569368358
 11
1116.824722971574
 21
12.04879569368358
  0
LINE
  5
DA
100
AcDbEntity
  8
WALL
  6
ByLayer
 62
  256
370
   -1
100
AcDbLine
 10
1116.824722974865
 20
12.04879568445492
 11
1116.824722981448
 21
12.04879570291225
  0
LINE
  5
DB
100
AcDbEntity
  8
WALL
  6
ByLayer
 62
  256
370
   -1
100
AcDbLine
 10
1116.824722981448
 20
12.04879568445492
 11
1116.824722974865
 21
12.04879570291225
  0
LINE
  5
DC
100
AcDbEntity
  8
WALL
  6
ByLayer
 62
  256
370
   -1
100
AcDbLine
 10
1116.824722981448
 20
12.04879568445492
 11
1116.824722988031
 21
12.04879570291225
  0
LINE
  5
DD
100
AcDbEntity
  8
WALL
  6
ByLayer
 62
  256
370
   -1
100
AcDbLine
 10
1118.0547229617
 20
13.86349798228226
 11
1118.054722968282
 21
13.8634980007396
  0
LINE
  5
DE
100
AcDbEntity
  8
WALL
  6
ByLayer
 62
  256
370
   -1
100
AcDbLine
 10
1118.054722974865
 20
13.86349798228226
 11
1118.054722968282
 21
13.8634980007396
  0
LINE
  5
DF
100
AcDbEntity
  8
WALL
  6
ByLayer
 62
  256
370
   -1
100
AcDbLine
 10
1118.054722964991
 20
13.86349799151093
 11
1118.054722971573
 21
13.86349799151093
  0
LINE
  5
E0
100
AcDbEntity
  8
WALL
  6
ByLayer
 62
  256
370
   -1
100
AcDbLine
 10
1118.054722974865
 20
13.86349798228226
 11
1118.054722981447
 21
13.8634980007396
  0
LINE
  5
E1
100
AcDbEntity
  8
WALL
  6
ByLayer
 62
  256
370
   -1
100
AcDbLine
 10
1118.054722981447
 20
13.86349798228226
 11
1118.054722974865
 21
13.8634980007396
  0
LINE
  5
E2
100
AcDbEntity
  8
WALL
  6
ByLayer
 62
  256
370
   -1
100
AcDbLine
 10
1118.054722981447
 20
13.86349798228226
 11
1118.05472298803
 21
13.8634980007396
  0
MTEXT
  5
E3
100
AcDbEntity
  8
0
  6
ByLayer
 62
  252
370
   -1
100
AcDbMText
 10
84.78050966559613
 20
112.8838321448386
 30
0
 40
4.199999999999999
 41
106.7499991095938
 71
    1
 72
    5
  1
Disegni di architettura\PStrumenti CAD  per la progettazione\PBlocchi dwg - Architectural drawings\PAll rights reserved
  7
STANDARD
210
0
220
0
230
1
 50
0
 73
    1
 44
1
  0
TEXT
  5
E4
100
AcDbEntity
  8
0
  6
ByLayer
 62
  255
370
   -1
100
AcDbText
 10
255.9754022216958
 20
0.8221481181452794
 30
0
 40
1.25e-08
  1
www.archweb.com
 50
90
 41
1
 51
0
  7
STANDARD
 71
    0
210
0
220
0
230
1
100
AcDbText
  0
MTEXT
  5
E5
100
AcDbEntity
  8
0
  6
ByLayer
 62
  252
370
   -1
100
AcDbMText
 10
84.5714631491135
 20
123.349284984957
 30
0
 40
6.196267223780924
 41
69.5358877335435
 71
    1
 72
    5
  1
www.archweb.com
  7
STANDARD
210
0
220
0
230
1
 50
0
 73
    1
 44
1
  0
LINE
  5
E6
100
AcDbEntity
  8
WALL
  6
ByLayer
 62
  256
370
   -1
100
AcDbLine
 10
1118.0547229617
 20
12.94879568445484
 11
1118.174650111699
 21
12.94870168006451
  0
ENDSEC
  0
SECTION
  2
OBJECTS
  0
DICTIONARY
  5
C
330
0
100
AcDbDictionary
281
    1
  3
ACAD_GROUP
350
D
  0
DICTIONARY
  5
D
330
C
100
AcDbDictionary
281
    1
  0
PLOTSETTINGS
  5
E7
100
AcDbPlotSettings
  6
1x1
 40
0
 41
0
 42
0
 43
0
  0
ENDSEC
  0
EOF
