999
dxfrw 0.6.3
  0
SECTION
  2
HEADER
  9
$ACADVER
  1
AC1021
  9
$DWGCODEPAGE
  3
ANSI_1252
  9
$INSBASE
 10
0
 20
0
 30
0
  9
$EXTMIN
 10
1e+20
 20
1e+20
 30
1e+20
  9
$EXTMAX
 10
-1e+20
 20
-1e+20
 30
-1e+20
  9
$LIMMIN
 10
0
 20
0
  9
$LIMMAX
 10
420
 20
297
  9
$ORTHOMODE
 70
    0
  9
$REGENMODE
 70
    1
  9
$FILLMODE
 70
    1
  9
$QTEXTMODE
 70
    0
  9
$MIRRTEXT
 70
    0
  9
$LTSCALE
 40
1
  9
$ATTMODE
 70
    0
  9
$TEXTSIZE
 40
2.5
  9
$TRACEWID
 40
15.68
  9
$TEXTSTYLE
  7
STANDARD
  9
$CLAYER
  8
0
  9
$CELTYPE
  6
BYLAYER
  9
$CECOLOR
 62
  256
  9
$DIMSCALE
 40
2.5
  9
$DIMASZ
 40
2.5
  9
$DIMEXO
 40
0.625
  9
$DIMDLI
 40
3.75
  9
$DIMRND
 40
0
  9
$DIMDLE
 40
0
  9
$DIMEXE
 40
1.25
  9
$DIMTP
 40
0
  9
$DIMTM
 40
0
  9
$DIMTXT
 40
2.5
  9
$DIMCEN
 40
2.5
  9
$DIMTSZ
 40
0
  9
$DIMTOL
 70
    0
  9
$DIMLIM
 70
    0
  9
$DIMTIH
 70
    0
  9
$DIMTOH
 70
    0
  9
$DIMSE1
 70
    0
  9
$DIMSE2
 70
    0
  9
$DIMTAD
 70
    1
  9
$DIMZIN
 70
    8
  9
$DIMBLK
  1

  9
$DIMASO
 70
    1
  9
$DIMSHO
 70
    1
  9
$DIMPOST
  1

  9
$DIMAPOST
  1

  9
$DIMALT
 70
    0
  9
$DIMALTD
 70
    3
  9
$DIMALTF
 40
0.03937
  9
$DIMLFAC
 40
1
  9
$DIMTOFL
 70
    1
  9
$DIMTVP
 40
0
  9
$DIMTIX
 70
    0
  9
$DIMSOXD
 70
    0
  9
$DIMSAH
 70
    0
  9
$DIMBLK1
  1

  9
$DIMBLK2
  1

  9
$DIMSTYLE
  2
STANDARD
  9
$DIMCLRD
 70
    0
  9
$DIMCLRE
 70
    0
  9
$DIMCLRT
 70
    0
  9
$DIMTFAC
 40
1
  9
$DIMGAP
 40
0.625
  9
$LUNITS
 70
    2
  9
$LUPREC
 70
    4
  9
$SKETCHINC
 40
1
  9
$FILLETRAD
 40
0
  9
$AUNITS
 70
    0
  9
$AUPREC
 70
    2
  9
$MENU
  1
.
  9
$ELEVATION
 40
0
  9
$PELEVATION
 40
0
  9
$THICKNESS
 40
0
  9
$LIMCHECK
 70
    0
  9
$BLIPMODE
 70
    0
  9
$CHAMFERA
 40
0
  9
$CHAMFERB
 40
0
  9
$SKPOLY
 70
    0
  9
$USRTIMER
 70
    1
  9
$ANGBASE
 50
0
  9
$ANGDIR
 70
    0
  9
$PDMODE
 70
   34
  9
$PDSIZE
 40
0
  9
$PLINEWID
 40
0
  9
$COORDS
 70
    2
  9
$SPLFRAME
 70
    0
  9
$SPLINETYPE
 70
    2
  9
$SPLINESEGS
 70
    8
  9
$ATTDIA
 70
    1
  9
$ATTREQ
 70
    1
  9
$HANDLING
 70
    1
  9
$HANDSEED
  5
20000
  9
$SURFTAB1
 70
    6
  9
$SURFTAB2
 70
    6
  9
$SURFTYPE
 70
    6
  9
$SURFU
 70
    6
  9
$SURFV
 70
    6
  9
$UCSNAME
  2

  9
$UCSORG
 10
0
 20
0
 30
0
  9
$UCSXDIR
 10
1
 20
0
 30
0
  9
$UCSYDIR
 10
0
 20
1
 30
0
  9
$PUCSNAME
  2

  9
$PUCSORG
 10
0
 20
0
 30
0
  9
$PUCSXDIR
 10
1
 20
0
 30
0
  9
$PUCSYDIR
 10
0
 20
1
 30
0
  9
$USERI1
 70
    0
  9
$USERI2
 70
    0
  9
$USERI3
 70
    0
  9
$USERI4
 70
    0
  9
$USERI5
 70
    0
  9
$USERR1
 40
0
  9
$USERR2
 40
0
  9
$USERR3
 40
0
  9
$USERR4
 40
0
  9
$USERR5
 40
0
  9
$WORLDVIEW
 70
    1
  9
$SHADEDGE
 70
    3
  9
$SHADEDIF
 70
   70
  9
$TILEMODE
 70
    1
  9
$MAXACTVP
 70
   64
  9
$PLIMCHECK
 70
    0
  9
$PEXTMIN
 10
0
 20
0
 30
0
  9
$PEXTMAX
 10
0
 20
0
 30
0
  9
$PLIMMIN
 10
0
 20
0
  9
$PLIMMAX
 10
297
 20
210
  9
$UNITMODE
 70
    0
  9
$VISRETAIN
 70
    1
  9
$PLINEGEN
 70
    0
  9
$PSLTSCALE
 70
    1
  0
ENDSEC
  0
SECTION
  2
TABLES
  0
TABLE
  2
VPORT
 70
    1
  0
VPORT
  2
*ACTIVE
 70
   64
 10
0
 20
0
 11
1
 21
1
 12
116612.0618610915
 22
-361191.7272870475
 13
0
 23
0
 14
0.5
 24
0.5
 15
0.5
 25
0.5
 16
0
 26
0
 36
1
 17
0
 27
0
 37
0
 40
2310.837790478254
 41
5298.085686891002
 42
50
 43
0
 44
0
 50
0
 51
0
 71
   16
 72
10000
 73
    1
 74
    1
 75
    0
 76
    0
 77
    0
 78
    0
  0
ENDTAB
  0
TABLE
  2
LTYPE
 70
    4
  0
LTYPE
  2
BYBLOCK
 70
    0
  3

 72
   65
 73
    0
 40
0
  0
LTYPE
  2
BYLAYER
 70
    0
  3

 72
   65
 73
    0
 40
0
  0
LTYPE
  2
CONTINUOUS
 70
    0
  3
Solid line
 72
   65
 73
    0
 40
0
  0
LTYPE
  2
DASHED2
 70
   64
  3
Dashed (.5x) _ _ _ _ _ _ _ _ _ _ _ _ _ _ _ _ _
 72
   65
 73
    2
 40
0.375
 49
0.25
 49
-0.125
  0
LTYPE
  2
HIDDEN
 70
   64
  3
Hidden __ __ __ __ __ __ __ __ __ __ __ __ __ _
 72
   65
 73
    2
 40
0.375
 49
0.25
 49
-0.125
  0
ENDTAB
  0
TABLE
  2
LAYER
 70
    1
  0
LAYER
  2
FLOOR-TXT
 70
   64
 62
    1
  6
CONTINUOUS
  0
LAYER
  2
WALL
 70
   64
 62
    4
  6
CONTINUOUS
  0
LAYER
  2
HTCH-BNDY
 70
   64
 62
   40
  6
CONTINUOUS
  0
LAYER
  2
FIXT-TXT-01
 70
   64
 62
    1
  6
CONTINUOUS
  0
LAYER
  2
ELEV-01
 70
   64
 62
    8
  6
CONTINUOUS
  0
LAYER
  2
DOOR
 70
   64
 62
    8
  6
CONTINUOUS
  0
LAYER
  2
PLAN-TXT-02
 70
   64
 62
    2
  6
CONTINUOUS
  0
LAYER
  2
FIXTURES
 70
   64
 62
    8
  6
CONTINUOUS
  0
LAYER
  2
0
 70
   64
 62
    7
  6
CONTINUOUS
  0
ENDTAB
  0
TABLE
  2
STYLE
 70
    3
  0
STYLE
  2
CENTURYGOTHIC
 70
   64
 40
1.314477910615805e-286
 41
2.984387040318419
 50
-4.312616349910994
 71
   27
 42
0
  3
GOTHIC.TTF
  4

  0
STYLE
  2
ISOCP
 70
   69
 40
2.892543865890803e-306
 41
2.576459507838853e-231
 50
1
 71
   82
 42
1
  3
ISOCP.SHX
  4

  0
STYLE
  2
STANDARD
 70
   68
 40
1
 41
0
 50
0
 71
  153
 42
0
  3
TXT
  4

  0
ENDTAB
  0
TABLE
  2
VIEW
 70
    0
  0
ENDTAB
  0
TABLE
  2
UCS
 70
    0
  0
ENDTAB
  0
TABLE
  2
APPID
 70
    1
  0
APPID
  2
ACAD
 70
    0
  0
APPID
  2
DCO15
 70
   80
  0
APPID
  2
AECCLAND130
 70
   80
  0
APPID
  2
ACAD_NAV_VCDISPLAY
 70
   64
  0
APPID
  2
ACAD_DSTYLE_DIMTALN
 70
   80
  0
APPID
  2
ACAD_DSTYLE_DIMJAG
 70
   64
  0
APPID
  2
ADE_PROJECTION
 70
   64
  0
APPID
  2
ACDBBLOCKREPETAG
 70
   64
  0
APPID
  2
ACDBDYNAMICBLOCKGUID
 70
   64
  0
APPID
  2
ACAD_PSEXT
 70
   64
  0
ENDTAB
  0
TABLE
  2
DIMSTYLE
 70
    1
  0
DIMSTYLE
  2
DRC-1.25
 70
    0
 40
1
 41
0.18
 42
0.0625
 43
0.38
 44
0.18
 45
0
 46
0
 47
0
 48
0
 49
1
140
0.18
141
0.09
142
0
143
25.4
144
1
145
0
146
1
147
0.09
 71
    0
 72
    0
 73
    0
 74
    1
 75
    0
 76
    0
 77
    0
 78
    0
170
    0
171
    2
172
    0
173
    0
174
    0
175
    0
176
    0
177
    0
178
    0
  0
DIMSTYLE
  2
STANDARD
 70
    0
 40
1
 41
0.18
 42
0.0625
 43
0.38
 44
0.18
 45
0
 46
0
 47
0
 48
0
 49
1
140
0.18
141
0.09
142
0
143
25.4
144
1
145
0
146
1
147
0.09
 71
    0
 72
    0
 73
    0
 74
    1
 75
    0
 76
    0
 77
    0
 78
    0
170
    0
171
    2
172
    0
173
    0
174
    0
175
    0
176
    0
177
    0
178
    0
  0
ENDTAB
  0
ENDSEC
  0
SECTION
  2
BLOCKS
  0
BLOCK
  8
0
  2
$MODEL_SPACE
 70
    0
 10
0
 20
0
 30
0
  3
$MODEL_SPACE
  1

  0
ENDBLK
  8
0
  0
BLOCK
  8
0
  2
$PAPER_SPACE
 70
    0
 10
0
 20
0
 30
0
  3
$PAPER_SPACE
  1

  0
ENDBLK
  8
0
  0
BLOCK
  8
0
  2
*PAPER_SPACE
 70
   64
 10
0
 20
0
  3
*PAPER_SPACE
  1

  0
ENDBLK
  8
0
  0
BLOCK
  8
0
  2
BFA BASIN-CAROMA CUBE CARE WB-PLAN
 70
   64
 10
0
 20
0
  3
BFA BASIN-CAROMA CUBE CARE WB-PLAN
  1

  0
LINE
  5
31
  8
FIXTURES
  6
BYLAYER
 62
    8
 10
22.91474925489456
 20
-126.1063232421875
 11
28.9741821288917
 21
-126.1063232421729
  0
LINE
  5
32
  8
FIXTURES
  6
BYLAYER
 62
    8
 10
-28.9741821289208
 20
-126.1063232421729
 11
-22.91682321814005
 21
-126.1063232421875
  0
LINE
  5
33
  8
FIXTURES
  6
BYLAYER
 62
    8
 10
-111.8523559570458
 20
-126.1063232421729
 11
-28.9741821289208
 21
-126.1063232421729
  0
ARC
  5
34
  8
FIXTURES
  6
BYLAYER
 62
    8
 10
-118.0853271484521
 20
-146.8291015624854
 40
20.19725227355957
 50
118.4902576414037
 51
132.996527589893
  0
ARC
  5
35
  8
FIXTURES
  6
BYLAYER
 62
    8
 10
226430.5881347656
 20
-254.9643554687791
 40
226569.390625
 50
179.9742203614113
 51
180.0005917218328
  0
ARC
  5
36
  8
FIXTURES
  6
BYLAYER
 62
    8
 10
217215.4318847656
 20
-260.9995727539354
 40
217354.21875
 50
179.9990276085128
 51
180.0253443273776
  0
LINE
  5
37
  8
FIXTURES
  6
BYLAYER
 62
    8
 10
-138.7706298828271
 20
-357.1536865234229
 11
-138.7691040039208
 21
-361.6766357421729
  0
ARC
  5
38
  8
FIXTURES
  6
BYLAYER
 62
    8
 10
-0.0003662108792923391
 20
408079.7576904297
 40
408468.34375
 50
269.9843090225654
 51
269.9991679800726
  0
LINE
  5
39
  8
FIXTURES
  6
BYLAYER
 62
    8
 10
-5.931945800795802
 20
-388.5965576171729
 11
-1.455191522836685e-11
 21
-388.5966796874854
  0
LINE
  5
3A
  8
FIXTURES
  6
BYLAYER
 62
    8
 10
-1.455191522836685e-11
 20
-388.5966796874854
 11
5.931945800766698
 21
-388.5965576171729
  0
ARC
  5
3B
  8
FIXTURES
  6
BYLAYER
 62
    8
 10
0.0003662109957076609
 20
408079.7576904297
 40
408468.34375
 50
270.0008320199273
 51
270.0156909774346
  0
LINE
  5
3C
  8
FIXTURES
  6
BYLAYER
 62
    8
 10
138.7706298827979
 20
-357.1536865234229
 11
138.7691040038917
 21
-361.6766357421729
  0
ARC
  5
3D
  8
FIXTURES
  6
BYLAYER
 62
    8
 10
-217215.4431152344
 20
-260.999572753848
 40
217354.21875
 50
359.9746556726224
 51
0.0009723914872225117
  0
ARC
  5
3E
  8
FIXTURES
  6
BYLAYER
 62
    8
 10
-226430.5993652344
 20
-254.9643554686918
 40
226569.390625
 50
359.9994082781673
 51
0.0257796385887346
  0
ARC
  5
3F
  8
FIXTURES
  6
BYLAYER
 62
    8
 10
118.0853271484229
 20
-146.8291015624854
 40
20.19725227355957
 50
47.00347241010693
 51
61.50974235859626
  0
LINE
  5
40
  8
FIXTURES
  6
BYLAYER
 62
    8
 10
28.9741821288917
 20
-126.1063232421729
 11
111.8523559570167
 21
-126.1063232421729
  0
LINE
  5
41
  8
FIXTURES
  6
BYLAYER
 62
  142
 10
19.90527213217865
 20
-149.8052978515479
 11
94.3128051757667
 21
-149.8052978515479
  0
LINE
  5
42
  8
FIXTURES
  6
BYLAYER
 62
  142
 10
94.3128051757667
 20
-149.8052978515479
 11
108.0831909179542
 21
-149.8052978515479
  0
LINE
  5
43
  8
FIXTURES
  6
BYLAYER
 62
  142
 10
114.9999999999854
 20
-156.7188720702979
 11
114.9999999999854
 21
-169.3730468749854
  0
LINE
  5
44
  8
FIXTURES
  6
BYLAYER
 62
  142
 10
114.9999999999854
 20
-169.3730468749854
 11
114.9999999999854
 21
-257.3052978515479
  0
LINE
  5
45
  8
FIXTURES
  6
BYLAYER
 62
  142
 10
114.9999999999854
 20
-257.3052978515479
 11
114.9999999999854
 21
-345.2893066406104
  0
LINE
  5
46
  8
FIXTURES
  6
BYLAYER
 62
  142
 10
114.9999999999854
 20
-345.2893066406104
 11
114.9999999999854
 21
-357.8917846679542
  0
LINE
  5
47
  8
FIXTURES
  6
BYLAYER
 62
  142
 10
94.28369140623545
 20
-364.8052978515479
 11
108.0867919921729
 21
-364.8052978515479
  0
LINE
  5
48
  8
FIXTURES
  6
BYLAYER
 62
  142
 10
4.999999999985448
 20
-364.8052978515479
 11
94.28369140623545
 21
-364.8052978515479
  0
LINE
  5
49
  8
FIXTURES
  6
BYLAYER
 62
  142
 10
-1.455191522836685e-11
 20
-364.8052978515479
 11
4.999999999985448
 21
-364.8052978515479
  0
LINE
  5
4A
  8
FIXTURES
  6
BYLAYER
 62
  142
 10
-5.000000000014552
 20
-364.8052978515479
 11
-1.455191522836685e-11
 21
-364.8052978515479
  0
LINE
  5
4B
  8
FIXTURES
  6
BYLAYER
 62
  142
 10
-94.28369140626455
 20
-364.8052978515479
 11
-5.000000000014552
 21
-364.8052978515479
  0
LINE
  5
4C
  8
FIXTURES
  6
BYLAYER
 62
  142
 10
-108.0867919922021
 20
-364.8052978515479
 11
-94.28369140626455
 21
-364.8052978515479
  0
LINE
  5
4D
  8
FIXTURES
  6
BYLAYER
 62
  142
 10
-115.0000000000146
 20
-345.2893066406104
 11
-115.0000000000146
 21
-357.8917846679542
  0
LINE
  5
4E
  8
FIXTURES
  6
BYLAYER
 62
  142
 10
-115.0000000000146
 20
-257.3052978515479
 11
-115.0000000000146
 21
-345.2893066406104
  0
LINE
  5
4F
  8
FIXTURES
  6
BYLAYER
 62
  142
 10
-115.0000000000146
 20
-169.3730468749854
 11
-115.0000000000146
 21
-257.3052978515479
  0
LINE
  5
50
  8
FIXTURES
  6
BYLAYER
 62
  142
 10
-115.0000000000146
 20
-156.7188720702979
 11
-115.0000000000146
 21
-169.3730468749854
  0
LINE
  5
51
  8
FIXTURES
  6
BYLAYER
 62
  142
 10
-108.0831909179833
 20
-149.8052978515479
 11
-94.3128051757958
 21
-149.8052978515479
  0
LINE
  5
52
  8
FIXTURES
  6
BYLAYER
 62
  142
 10
-94.3128051757958
 20
-149.8052978515479
 11
-19.9073460954387
 21
-149.8052978515479
  0
INSERT
  5
53
  8
HTCH-BNDY
  6
HIDDEN
 62
  256
  2
A$C3CF9729E
 10
-0.001036981615470722
 20
-60.48446991969831
 30
0
 41
1
 42
1
 43
1
 50
270
 70
    1
 71
    1
 44
0
 45
0
  0
ARC
  5
54
  8
FIXTURES
  6
BYLAYER
 62
    8
 10
-0.001036981731886044
 20
-68.78164437299711
 40
21.10560954777033
 50
56.28197852024817
 51
123.7180214797518
  0
ARC
  5
55
  8
FIXTURES
  6
BYLAYER
 62
    8
 10
-0.001036981731886044
 20
-76.30048482914572
 40
5.106247779157804
 50
178.9966115700738
 51
1.003388429926225
  0
ARC
  5
56
  8
FIXTURES
  6
BYLAYER
 62
    8
 10
62.57993816849194
 20
-78.05102669159533
 40
57.50495408166772
 50
152.1943064302227
 51
178.6290116248558
  0
ARC
  5
57
  8
FIXTURES
  6
BYLAYER
 62
  142
 10
-0.001036981615470722
 20
-167.6477580400679
 40
17.4999999999773
 50
187.2371207467281
 51
244.6230664742423
  0
ARC
  5
58
  8
FIXTURES
  6
BYLAYER
 62
  142
 10
-0.001036981615470722
 20
-167.6477580400679
 40
17.4999999999773
 50
295.3769335257577
 51
352.7628792532719
  0
ARC
  5
59
  8
FIXTURES
  6
BYLAYER
 62
  142
 10
-0.001036981615470722
 20
-60.48446991968376
 40
30.99999999999556
 50
352.7628792532719
 51
187.2371207467281
  0
LINE
  5
5A
  8
FIXTURES
  6
BYLAYER
 62
  142
 10
-30.75406904288684
 20
-64.38972522997938
 11
-17.36161959680612
 21
-169.8523376507073
  0
LINE
  5
5B
  8
FIXTURES
  6
BYLAYER
 62
  142
 10
30.7519950796559
 20
-64.38972522997938
 11
17.35954563357518
 21
-169.8523376507073
  0
ARC
  5
5C
  8
FIXTURES
  6
BYLAYER
 62
    8
 10
-0.0008560922724427655
 20
-255.0001821924088
 40
25.99999999999796
 50
108.9394999634595
 51
71.06112716032244
  0
ARC
  5
5D
  8
FIXTURES
  6
BYLAYER
 62
  142
 10
-0.0008560922724427655
 20
-255.0001821924088
 40
37.99999999999338
 50
102.6157716537353
 51
77.38480597052612
  0
ENDBLK
  8
0
  0
BLOCK
  8
0
  2
A$C3CF9729E
 70
   64
 10
0
 20
0
  3
A$C3CF9729E
  1

  0
CIRCLE
  5
5E
  8
0
  6
BYLAYER
 62
    0
 10
0
 20
0
 40
17
  0
LINE
  5
5F
  8
0
  6
BYLAYER
 62
    0
 10
19.09188309203682
 20
-19.09188309203682
 11
-19.09188309203682
 21
19.09188309203682
  0
LINE
  5
60
  8
0
  6
BYLAYER
 62
    0
 10
-19.09188309203682
 20
-19.09188309203682
 11
19.09188309203682
 21
19.09188309203682
  0
ENDBLK
  8
0
  0
BLOCK
  8
0
  2
BFA WC-CAROMA CARE 200-PLAN
 70
   64
 10
0
 20
0
  3
BFA WC-CAROMA CARE 200-PLAN
  1

  0
POLYLINE
  5
61
  8
FIXTURES
  6
BYLAYER
 62
    8
 66
    1
 10
0
 20
0
 30
0
 70
    5
 75
    6
  0
VERTEX
  5
62
  8
FIXTURES
  6
BYLAYER
 62
    8
 10
-418.162876964896
 20
127.4826924773515
 30
0
  0
VERTEX
  5
63
  8
FIXTURES
  6
BYLAYER
 62
    8
 10
-419.4168339886382
 20
129.4005672109779
 30
0
  0
VERTEX
  5
64
  8
FIXTURES
  6
BYLAYER
 62
    8
 10
-419.5928359937534
 20
129.6460175077082
 30
0
  0
VERTEX
  5
65
  8
FIXTURES
  6
BYLAYER
 62
    8
 10
-419.7794867682678
 20
129.89737325639
 30
0
  0
VERTEX
  5
66
  8
FIXTURES
  6
BYLAYER
 62
    8
 10
-419.9816075541312
 20
130.1589626712957
 30
0
  0
VERTEX
  5
67
  8
FIXTURES
  6
BYLAYER
 62
    8
 10
-420.2040195933223
 20
130.4351139668142
 30
0
  0
VERTEX
  5
68
  8
FIXTURES
  6
BYLAYER
 62
    8
 10
-420.4515441278054
 20
130.7301553570433
 30
0
  0
VERTEX
  5
69
  8
FIXTURES
  6
BYLAYER
 62
    8
 10
-420.7290023995301
 20
131.0484150564298
 30
0
  0
VERTEX
  5
6A
  8
FIXTURES
  6
BYLAYER
 62
    8
 10
-421.0412156504899
 20
131.3942212791881
 30
0
  0
VERTEX
  5
6B
  8
FIXTURES
  6
BYLAYER
 62
    8
 10
-421.3930051226489
 20
131.7719022395904
 30
0
  0
VERTEX
  5
6C
  8
FIXTURES
  6
BYLAYER
 62
    8
 10
-421.7928917126846
 20
132.18787267484
 30
0
  0
VERTEX
  5
6D
  8
FIXTURES
  6
BYLAYER
 62
    8
 10
-422.2641949361714
 20
132.6568934135721
 30
0
  0
VERTEX
  5
6E
  8
FIXTURES
  6
BYLAYER
 62
    8
 10
-422.8339339633967
 20
133.1958118073526
 30
0
  0
VERTEX
  5
6F
  8
FIXTURES
  6
BYLAYER
 62
    8
 10
-423.5291279646481
 20
133.8214752078056
 30
0
  0
VERTEX
  5
70
  8
FIXTURES
  6
BYLAYER
 62
    8
 10
-424.3767961102276
 20
134.550730966439
 30
0
  0
VERTEX
  5
71
  8
FIXTURES
  6
BYLAYER
 62
    8
 10
-425.4039575704228
 20
135.4004264347604
 30
0
  0
VERTEX
  5
72
  8
FIXTURES
  6
BYLAYER
 62
    8
 10
-426.6376315155358
 20
136.3874089644523
 30
0
  0
VERTEX
  5
73
  8
FIXTURES
  6
BYLAYER
 62
    8
 10
-428.1048371158249
 20
137.5285259070224
 30
0
  0
VERTEX
  5
74
  8
FIXTURES
  6
BYLAYER
 62
    8
 10
-429.8276413546992
 20
138.8353759411839
 30
0
  0
VERTEX
  5
75
  8
FIXTURES
  6
BYLAYER
 62
    8
 10
-431.8083024678635
 20
140.2985630542971
 30
0
  0
VERTEX
  5
76
  8
FIXTURES
  6
BYLAYER
 62
    8
 10
-434.0441265041009
 20
141.9034425609862
 30
0
  0
VERTEX
  5
77
  8
FIXTURES
  6
BYLAYER
 62
    8
 10
-436.5324195122084
 20
143.6353697758168
 30
0
  0
VERTEX
  5
78
  8
FIXTURES
  6
BYLAYER
 62
    8
 10
-439.2704875409836
 20
145.4797000132967
 30
0
  0
VERTEX
  5
79
  8
FIXTURES
  6
BYLAYER
 62
    8
 10
-442.2556366392382
 20
147.4217885879916
 30
0
  0
VERTEX
  5
7A
  8
FIXTURES
  6
BYLAYER
 62
    8
 10
-445.4851728557405
 20
149.4469908144674
 30
0
  0
VERTEX
  5
7B
  8
FIXTURES
  6
BYLAYER
 62
    8
 10
-448.956402239317
 20
151.5406620073481
 30
0
  0
VERTEX
  5
7C
  8
FIXTURES
  6
BYLAYER
 62
    8
 10
-452.6580138829013
 20
153.6861767133814
 30
0
  0
VERTEX
  5
7D
  8
FIXTURES
  6
BYLAYER
 62
    8
 10
-456.5442290560604
 20
155.8589864087407
 30
0
  0
VERTEX
  5
7E
  8
FIXTURES
  6
BYLAYER
 62
    8
 10
-460.5606520725269
 20
158.0325618017814
 30
0
  0
VERTEX
  5
7F
  8
FIXTURES
  6
BYLAYER
 62
    8
 10
-464.6528872460476
 20
160.1803736009169
 30
0
  0
VERTEX
  5
80
  8
FIXTURES
  6
BYLAYER
 62
    8
 10
-468.766538890326
 20
162.2758925145026
 30
0
  0
VERTEX
  5
81
  8
FIXTURES
  6
BYLAYER
 62
    8
 10
-472.8472113191092
 20
164.2925892508938
 30
0
  0
VERTEX
  5
82
  8
FIXTURES
  6
BYLAYER
 62
    8
 10
-476.840508846115
 20
166.2039345185622
 30
0
  0
VERTEX
  5
83
  8
FIXTURES
  6
BYLAYER
 62
    8
 10
-480.6920357850613
 20
167.9833990258048
 30
0
  0
VERTEX
  5
84
  8
FIXTURES
  6
BYLAYER
 62
    8
 10
-484.3617541685671
 20
169.6116443469073
 30
0
  0
VERTEX
  5
85
  8
FIXTURES
  6
BYLAYER
 62
    8
 10
-487.8670569046953
 20
171.0980955193518
 30
0
  0
VERTEX
  5
86
  8
FIXTURES
  6
BYLAYER
 62
    8
 10
-491.2396946203662
 20
172.459368446318
 30
0
  0
VERTEX
  5
87
  8
FIXTURES
  6
BYLAYER
 62
    8
 10
-494.5114179425145
 20
173.7120790311019
 30
0
  0
VERTEX
  5
88
  8
FIXTURES
  6
BYLAYER
 62
    8
 10
-497.7139774980897
 20
174.872843177116
 30
0
  0
VERTEX
  5
89
  8
FIXTURES
  6
BYLAYER
 62
    8
 10
-500.8791239140119
 20
175.9582767874817
 30
0
  0
VERTEX
  5
8A
  8
FIXTURES
  6
BYLAYER
 62
    8
 10
-504.0386078172305
 20
176.9849957655533
 30
0
  0
VERTEX
  5
8B
  8
FIXTURES
  6
BYLAYER
 62
    8
 10
-507.2241798346658
 20
177.9696160146268
 30
0
  0
VERTEX
  5
8C
  8
FIXTURES
  6
BYLAYER
 62
    8
 10
-510.4622855508351
 20
178.9257137117675
 30
0
  0
VERTEX
  5
8D
  8
FIXTURES
  6
BYLAYER
 62
    8
 10
-513.7581503805413
 20
179.8547061291756
 30
0
  0
VERTEX
  5
8E
  8
FIXTURES
  6
BYLAYER
 62
    8
 10
-517.1116946961556
 20
180.7549708128208
 30
0
  0
VERTEX
  5
8F
  8
FIXTURES
  6
BYLAYER
 62
    8
 10
-520.5228388700925
 20
181.6248853087891
 30
0
  0
VERTEX
  5
90
  8
FIXTURES
  6
BYLAYER
 62
    8
 10
-523.9915032747085
 20
182.4628271629917
 30
0
  0
VERTEX
  5
91
  8
FIXTURES
  6
BYLAYER
 62
    8
 10
-527.5176082823891
 20
183.2671739215148
 30
0
  0
VERTEX
  5
92
  8
FIXTURES
  6
BYLAYER
 62
    8
 10
-531.1010742655344
 20
184.0363031302695
 30
0
  0
VERTEX
  5
93
  8
FIXTURES
  6
BYLAYER
 62
    8
 10
-534.7418215965154
 20
184.768592335342
 30
0
  0
VERTEX
  5
94
  8
FIXTURES
  6
BYLAYER
 62
    8
 10
-538.4379074315657
 20
185.4624190827017
 30
0
  0
VERTEX
  5
95
  8
FIXTURES
  6
BYLAYER
 62
    8
 10
-542.1799360623409
 20
186.1161609183182
 30
0
  0
VERTEX
  5
96
  8
FIXTURES
  6
BYLAYER
 62
    8
 10
-545.9566485643591
 20
186.7281953882193
 30
0
  0
VERTEX
  5
97
  8
FIXTURES
  6
BYLAYER
 62
    8
 10
-549.7567860131094
 20
187.2969000384328
 30
0
  0
VERTEX
  5
98
  8
FIXTURES
  6
BYLAYER
 62
    8
 10
-553.5690894841246
 20
187.8206524149282
 30
0
  0
VERTEX
  5
99
  8
FIXTURES
  6
BYLAYER
 62
    8
 10
-557.3823000528937
 20
188.2978300636751
 30
0
  0
VERTEX
  5
9A
  8
FIXTURES
  6
BYLAYER
 62
    8
 10
-561.185158794935
 20
188.7268105307594
 30
0
  0
VERTEX
  5
9B
  8
FIXTURES
  6
BYLAYER
 62
    8
 10
-564.9664067857375
 20
189.1059713620925
 30
0
  0
VERTEX
  5
9C
  8
FIXTURES
  6
BYLAYER
 62
    8
 10
-568.7205211161054
 20
189.433232203417
 30
0
  0
VERTEX
  5
9D
  8
FIXTURES
  6
BYLAYER
 62
    8
 10
-572.4649229378701
 20
189.7046810990432
 30
0
  0
VERTEX
  5
9E
  8
FIXTURES
  6
BYLAYER
 62
    8
 10
-576.2227694181638
 20
189.9159481928218
 30
0
  0
VERTEX
  5
9F
  8
FIXTURES
  6
BYLAYER
 62
    8
 10
-580.0172177241038
 20
190.0626636288362
 30
0
  0
VERTEX
  5
A0
  8
FIXTURES
  6
BYLAYER
 62
    8
 10
-583.8714250227931
 20
190.1404575510533
 30
0
  0
VERTEX
  5
A1
  8
FIXTURES
  6
BYLAYER
 62
    8
 10
-587.8085484813782
 20
190.1449601033819
 30
0
  0
VERTEX
  5
A2
  8
FIXTURES
  6
BYLAYER
 62
    8
 10
-591.8517452669621
 20
190.0718014298473
 30
0
  0
VERTEX
  5
A3
  8
FIXTURES
  6
BYLAYER
 62
    8
 10
-596.0241725466622
 20
189.9166116743581
 30
0
  0
VERTEX
  5
A4
  8
FIXTURES
  6
BYLAYER
 62
    8
 10
-600.3443178527814
 20
189.67549058859
 30
0
  0
VERTEX
  5
A5
  8
FIXTURES
  6
BYLAYER
 62
    8
 10
-604.8119901783066
 20
189.3464163545868
 30
0
  0
VERTEX
  5
A6
  8
FIXTURES
  6
BYLAYER
 62
    8
 10
-609.4223288813955
 20
188.9278367621009
 30
0
  0
VERTEX
  5
A7
  8
FIXTURES
  6
BYLAYER
 62
    8
 10
-614.1704733201914
 20
188.4181996008847
 30
0
  0
VERTEX
  5
A8
  8
FIXTURES
  6
BYLAYER
 62
    8
 10
-619.051562852881
 20
187.8159526606905
 30
0
  0
VERTEX
  5
A9
  8
FIXTURES
  6
BYLAYER
 62
    8
 10
-624.0607368376222
 20
187.1195437312126
 30
0
  0
VERTEX
  5
AA
  8
FIXTURES
  6
BYLAYER
 62
    8
 10
-629.1931346325582
 20
186.3274206022033
 30
0
  0
VERTEX
  5
AB
  8
FIXTURES
  6
BYLAYER
 62
    8
 10
-634.4438955958467
 20
185.4380310634151
 30
0
  0
VERTEX
  5
AC
  8
FIXTURES
  6
BYLAYER
 62
    8
 10
-639.8049668273597
 20
184.4502065064153
 30
0
  0
VERTEX
  5
AD
  8
FIXTURES
  6
BYLAYER
 62
    8
 10
-645.2555263936665
 20
183.3643127302057
 30
0
  0
VERTEX
  5
AE
  8
FIXTURES
  6
BYLAYER
 62
    8
 10
-650.771560103065
 20
182.1810991357197
 30
0
  0
VERTEX
  5
AF
  8
FIXTURES
  6
BYLAYER
 62
    8
 10
-656.3290537638532
 20
180.9013151236577
 30
0
  0
VERTEX
  5
B0
  8
FIXTURES
  6
BYLAYER
 62
    8
 10
-661.9039931842708
 20
179.525710094953
 30
0
  0
VERTEX
  5
B1
  8
FIXTURES
  6
BYLAYER
 62
    8
 10
-667.472364172645
 20
178.0550334504223
 30
0
  0
VERTEX
  5
B2
  8
FIXTURES
  6
BYLAYER
 62
    8
 10
-673.0101525372302
 20
176.4900345909991
 30
0
  0
VERTEX
  5
B3
  8
FIXTURES
  6
BYLAYER
 62
    8
 10
-678.4933440863242
 20
174.8314629173838
 30
0
  0
VERTEX
  5
B4
  8
FIXTURES
  6
BYLAYER
 62
    8
 10
-683.8961899854767
 20
173.0838942482951
 30
0
  0
VERTEX
  5
B5
  8
FIXTURES
  6
BYLAYER
 62
    8
 10
-689.1860028292722
 20
171.267210072896
 30
0
  0
VERTEX
  5
B6
  8
FIXTURES
  6
BYLAYER
 62
    8
 10
-694.3283605695615
 20
169.4051182983094
 30
0
  0
VERTEX
  5
B7
  8
FIXTURES
  6
BYLAYER
 62
    8
 10
-699.2888411581953
 20
167.5213268316002
 30
0
  0
VERTEX
  5
B8
  8
FIXTURES
  6
BYLAYER
 62
    8
 10
-704.0330225470534
 20
165.6395435797167
 30
0
  0
VERTEX
  5
B9
  8
FIXTURES
  6
BYLAYER
 62
    8
 10
-708.526482687972
 20
163.7834764497238
 30
0
  0
VERTEX
  5
BA
  8
FIXTURES
  6
BYLAYER
 62
    8
 10
-712.7347995328018
 20
161.9768333486281
 30
0
  0
VERTEX
  5
BB
  8
FIXTURES
  6
BYLAYER
 62
    8
 10
-716.6235510334081
 20
160.2433221835527
 30
0
  0
VERTEX
  5
BC
  8
FIXTURES
  6
BYLAYER
 62
    8
 10
-720.1709257549228
 20
158.6002454291447
 30
0
  0
VERTEX
  5
BD
  8
FIXTURES
  6
BYLAYER
 62
    8
 10
-723.4055547155003
 20
157.0392838309635
 30
0
  0
VERTEX
  5
BE
  8
FIXTURES
  6
BYLAYER
 62
    8
 10
-726.3686795466201
 20
155.5457127023838
 30
0
  0
VERTEX
  5
BF
  8
FIXTURES
  6
BYLAYER
 62
    8
 10
-729.1015418797324
 20
154.1048073566053
 30
0
  0
VERTEX
  5
C0
  8
FIXTURES
  6
BYLAYER
 62
    8
 10
-731.6453833462583
 20
152.7018431068864
 30
0
  0
VERTEX
  5
C1
  8
FIXTURES
  6
BYLAYER
 62
    8
 10
-734.0414455776918
 20
151.3220952666015
 30
0
  0
VERTEX
  5
C2
  8
FIXTURES
  6
BYLAYER
 62
    8
 10
-736.3309702054539
 20
149.950839149009
 30
0
  0
VERTEX
  5
C3
  8
FIXTURES
  6
BYLAYER
 62
    8
 10
-738.5551988610096
 20
148.5733500673086
 30
0
  0
VERTEX
  5
C4
  8
FIXTURES
  6
BYLAYER
 62
    8
 10
-740.748469003971
 20
147.1773730618297
 30
0
  0
VERTEX
  5
C5
  8
FIXTURES
  6
BYLAYER
 62
    8
 10
-742.9175014066423
 20
145.7605320807197
 30
0
  0
VERTEX
  5
C6
  8
FIXTURES
  6
BYLAYER
 62
    8
 10
-745.062112669475
 20
144.3229207990225
 30
0
  0
VERTEX
  5
C7
  8
FIXTURES
  6
BYLAYER
 62
    8
 10
-747.1821193929354
 20
142.8646328918985
 30
0
  0
VERTEX
  5
C8
  8
FIXTURES
  6
BYLAYER
 62
    8
 10
-749.277338177475
 20
141.3857620343915
 30
0
  0
VERTEX
  5
C9
  8
FIXTURES
  6
BYLAYER
 62
    8
 10
-751.3475856235455
 20
139.8864019016619
 30
0
  0
VERTEX
  5
CA
  8
FIXTURES
  6
BYLAYER
 62
    8
 10
-753.3926783316274
 20
138.3666461688117
 30
0
  0
VERTEX
  5
CB
  8
FIXTURES
  6
BYLAYER
 62
    8
 10
-755.4124329021724
 20
136.8265885108849
 30
0
  0
VERTEX
  5
CC
  8
FIXTURES
  6
BYLAYER
 62
    8
 10
-757.4066659356467
 20
135.2663226031
 30
0
  0
VERTEX
  5
CD
  8
FIXTURES
  6
BYLAYER
 62
    8
 10
-759.3751940325019
 20
133.6859421204426
 30
0
  0
VERTEX
  5
CE
  8
FIXTURES
  6
BYLAYER
 62
    8
 10
-761.317833793204
 20
132.0855407380732
 30
0
  0
VERTEX
  5
CF
  8
FIXTURES
  6
BYLAYER
 62
    8
 10
-763.2344018182048
 20
130.4652121311519
 30
0
  0
VERTEX
  5
D0
  8
FIXTURES
  6
BYLAYER
 62
    8
 10
-765.1247147079848
 20
128.8250499747228
 30
0
  0
VERTEX
  5
D1
  8
FIXTURES
  6
BYLAYER
 62
    8
 10
-766.9885890629812
 20
127.1651479438297
 30
0
  0
VERTEX
  5
D2
  8
FIXTURES
  6
BYLAYER
 62
    8
 10
-768.82584148366
 20
125.4855997137493
 30
0
  0
VERTEX
  5
D3
  8
FIXTURES
  6
BYLAYER
 62
    8
 10
-770.636288570473
 20
123.7864989594091
 30
0
  0
VERTEX
  5
D4
  8
FIXTURES
  6
BYLAYER
 62
    8
 10
-772.4197469239152
 20
122.0679393560276
 30
0
  0
VERTEX
  5
D5
  8
FIXTURES
  6
BYLAYER
 62
    8
 10
-774.1760331444093
 20
120.3300145787071
 30
0
  0
VERTEX
  5
D6
  8
FIXTURES
  6
BYLAYER
 62
    8
 10
-775.9049638324213
 20
118.5728183024912
 30
0
  0
VERTEX
  5
D7
  8
FIXTURES
  6
BYLAYER
 62
    8
 10
-777.6063555884321
 20
116.7964442025404
 30
0
  0
VERTEX
  5
D8
  8
FIXTURES
  6
BYLAYER
 62
    8
 10
-779.280025012893
 20
115.0009859538986
 30
0
  0
VERTEX
  5
D9
  8
FIXTURES
  6
BYLAYER
 62
    8
 10
-780.9257887062558
 20
113.1865372317261
 30
0
  0
VERTEX
  5
DA
  8
FIXTURES
  6
BYLAYER
 62
    8
 10
-782.5434632689867
 20
111.353191711125
 30
0
  0
VERTEX
  5
DB
  8
FIXTURES
  6
BYLAYER
 62
    8
 10
-784.1328653015371
 20
109.5010430671973
 30
0
  0
VERTEX
  5
DC
  8
FIXTURES
  6
BYLAYER
 62
    8
 10
-785.6938114043733
 20
107.6301849750453
 30
0
  0
VERTEX
  5
DD
  8
FIXTURES
  6
BYLAYER
 62
    8
 10
-787.2261181779759
 20
105.7407111097709
 30
0
  0
VERTEX
  5
DE
  8
FIXTURES
  6
BYLAYER
 62
    8
 10
-788.7296022227674
 20
103.8327151464764
 30
0
  0
VERTEX
  5
DF
  8
FIXTURES
  6
BYLAYER
 62
    8
 10
-790.2040801392286
 20
101.9062907602638
 30
0
  0
VERTEX
  5
E0
  8
FIXTURES
  6
BYLAYER
 62
    8
 10
-791.6493685278256
 20
99.96153162629344
 30
0
  0
VERTEX
  5
E1
  8
FIXTURES
  6
BYLAYER
 62
    8
 10
-793.0652839890099
 20
97.99853141960921
 30
0
  0
VERTEX
  5
E2
  8
FIXTURES
  6
BYLAYER
 62
    8
 10
-794.4516431232478
 20
96.01738381531322
 30
0
  0
VERTEX
  5
E3
  8
FIXTURES
  6
BYLAYER
 62
    8
 10
-795.8082625309762
 20
94.0181824885658
 30
0
  0
VERTEX
  5
E4
  8
FIXTURES
  6
BYLAYER
 62
    8
 10
-797.1349588126905
 20
92.00102111441083
 30
0
  0
VERTEX
  5
E5
  8
FIXTURES
  6
BYLAYER
 62
    8
 10
-798.4315485688276
 20
89.96599336800864
 30
0
  0
VERTEX
  5
E6
  8
FIXTURES
  6
BYLAYER
 62
    8
 10
-799.6978483998537
 20
87.91319292440312
 30
0
  0
VERTEX
  5
E7
  8
FIXTURES
  6
BYLAYER
 62
    8
 10
-800.933674906235
 20
85.84271345875459
 30
0
  0
VERTEX
  5
E8
  8
FIXTURES
  6
BYLAYER
 62
    8
 10
-802.138844688423
 20
83.75464864616515
 30
0
  0
VERTEX
  5
E9
  8
FIXTURES
  6
BYLAYER
 62
    8
 10
-803.3131743468839
 20
81.64909216173692
 30
0
  0
VERTEX
  5
EA
  8
FIXTURES
  6
BYLAYER
 62
    8
 10
-804.4564804820693
 20
79.52613768051378
 30
0
  0
VERTEX
  5
EB
  8
FIXTURES
  6
BYLAYER
 62
    8
 10
-805.5685796944454
 20
77.38587887771428
 30
0
  0
VERTEX
  5
EC
  8
FIXTURES
  6
BYLAYER
 62
    8
 10
-806.6492885844782
 20
75.22840942838229
 30
0
  0
VERTEX
  5
ED
  8
FIXTURES
  6
BYLAYER
 62
    8
 10
-807.6984237526049
 20
73.05382300761994
 30
0
  0
VERTEX
  5
EE
  8
FIXTURES
  6
BYLAYER
 62
    8
 10
-808.7158017993206
 20
70.86221329052933
 30
0
  0
VERTEX
  5
EF
  8
FIXTURES
  6
BYLAYER
 62
    8
 10
-809.7012393250625
 20
68.65367395221256
 30
0
  0
VERTEX
  5
F0
  8
FIXTURES
  6
BYLAYER
 62
    8
 10
-810.6545529302966
 20
66.42829866782995
 30
0
  0
VERTEX
  5
F1
  8
FIXTURES
  6
BYLAYER
 62
    8
 10
-811.5755592154746
 20
64.1861811124254
 30
0
  0
VERTEX
  5
F2
  8
FIXTURES
  6
BYLAYER
 62
    8
 10
-812.4640747810772
 20
61.92741496110102
 30
0
  0
VERTEX
  5
F3
  8
FIXTURES
  6
BYLAYER
 62
    8
 10
-813.3199162275414
 20
59.65209388901712
 30
0
  0
VERTEX
  5
F4
  8
FIXTURES
  6
BYLAYER
 62
    8
 10
-814.1429001553479
 20
57.36031157127582
 30
0
  0
VERTEX
  5
F5
  8
FIXTURES
  6
BYLAYER
 62
    8
 10
-814.9328431649483
 20
55.052161682921
 30
0
  0
VERTEX
  5
F6
  8
FIXTURES
  6
BYLAYER
 62
    8
 10
-815.6895618567942
 20
52.72773789911298
 30
0
  0
VERTEX
  5
F7
  8
FIXTURES
  6
BYLAYER
 62
    8
 10
-816.4128728313517
 20
50.38713389495388
 30
0
  0
VERTEX
  5
F8
  8
FIXTURES
  6
BYLAYER
 62
    8
 10
-817.102592689087
 20
48.03044334548758
 30
0
  0
VERTEX
  5
F9
  8
FIXTURES
  6
BYLAYER
 62
    8
 10
-817.7585380304517
 20
45.65775992593262
 30
0
  0
VERTEX
  5
FA
  8
FIXTURES
  6
BYLAYER
 62
    8
 10
-818.380525455912
 20
43.2691773113329
 30
0
  0
VERTEX
  5
FB
  8
FIXTURES
  6
BYLAYER
 62
    8
 10
-818.9683715659194
 20
40.8647891767323
 30
0
  0
VERTEX
  5
FC
  8
FIXTURES
  6
BYLAYER
 62
    8
 10
-819.5218929609546
 20
38.44468919734936
 30
0
  0
VERTEX
  5
FD
  8
FIXTURES
  6
BYLAYER
 62
    8
 10
-820.0409062414546
 20
36.00897104822798
 30
0
  0
VERTEX
  5
FE
  8
FIXTURES
  6
BYLAYER
 62
    8
 10
-820.5252280078857
 20
33.55772840447025
 30
0
  0
VERTEX
  5
FF
  8
FIXTURES
  6
BYLAYER
 62
    8
 10
-820.974674860714
 20
31.09105494123651
 30
0
  0
VERTEX
  5
100
  8
FIXTURES
  6
BYLAYER
 62
    8
 10
-821.3890634004056
 20
28.60904433357064
 30
0
  0
VERTEX
  5
101
  8
FIXTURES
  6
BYLAYER
 62
    8
 10
-821.7682102274121
 20
26.11179025657475
 30
0
  0
VERTEX
  5
102
  8
FIXTURES
  6
BYLAYER
 62
    8
 10
-822.111931942185
 20
23.59938638540916
 30
0
  0
VERTEX
  5
103
  8
FIXTURES
  6
BYLAYER
 62
    8
 10
-822.4200451451907
 20
21.07192639517598
 30
0
  0
VERTEX
  5
104
  8
FIXTURES
  6
BYLAYER
 62
    8
 10
-822.69237662667
 20
18.5297767832526
 30
0
  0
VERTEX
  5
105
  8
FIXTURES
  6
BYLAYER
 62
    8
 10
-822.9287939359492
 20
15.9743953361176
 30
0
  0
VERTEX
  5
106
  8
FIXTURES
  6
BYLAYER
 62
    8
 10
-823.1291748120857
 20
13.40751266269945
 30
0
  0
VERTEX
  5
107
  8
FIXTURES
  6
BYLAYER
 62
    8
 10
-823.2933969942242
 20
10.83085937175201
 30
0
  0
VERTEX
  5
108
  8
FIXTURES
  6
BYLAYER
 62
    8
 10
-823.4213382214075
 20
8.24616607214557
 30
0
  0
VERTEX
  5
109
  8
FIXTURES
  6
BYLAYER
 62
    8
 10
-823.5128762327658
 20
5.655163372692186
 30
0
  0
VERTEX
  5
10A
  8
FIXTURES
  6
BYLAYER
 62
    8
 10
-823.5678887673857
 20
3.059581882203929
 30
0
  0
VERTEX
  5
10B
  8
FIXTURES
  6
BYLAYER
 62
    8
 10
-823.5862535643391
 20
0.4611522095510736
 30
0
  0
VERTEX
  5
10C
  8
FIXTURES
  6
BYLAYER
 62
    8
 10
-823.5678891179414
 20
-2.138342560909223
 30
0
  0
VERTEX
  5
10D
  8
FIXTURES
  6
BYLAYER
 62
    8
 10
-823.512876943365
 20
-4.736909442639444
 30
0
  0
VERTEX
  5
10E
  8
FIXTURES
  6
BYLAYER
 62
    8
 10
-823.4213393109239
 20
-7.332502973440569
 30
0
  0
VERTEX
  5
10F
  8
FIXTURES
  6
BYLAYER
 62
    8
 10
-823.2933984910196
 20
-9.923077691288199
 30
0
  0
VERTEX
  5
110
  8
FIXTURES
  6
BYLAYER
 62
    8
 10
-823.1291767539806
 20
-12.50658813398331
 30
0
  0
VERTEX
  5
111
  8
FIXTURES
  6
BYLAYER
 62
    8
 10
-822.9287963701645
 20
-15.0809888393851
 30
0
  0
VERTEX
  5
112
  8
FIXTURES
  6
BYLAYER
 62
    8
 10
-822.6923796099582
 20
-17.64423434546916
 30
0
  0
VERTEX
  5
113
  8
FIXTURES
  6
BYLAYER
 62
    8
 10
-822.4200487437047
 20
-20.19427919003647
 30
0
  0
VERTEX
  5
114
  8
FIXTURES
  6
BYLAYER
 62
    8
 10
-822.1119362295867
 20
-22.72940381255466
 30
0
  0
VERTEX
  5
115
  8
FIXTURES
  6
BYLAYER
 62
    8
 10
-821.7682152771449
 20
-25.24919225875055
 30
0
  0
VERTEX
  5
116
  8
FIXTURES
  6
BYLAYER
 62
    8
 10
-821.3890692837304
 20
-27.75355447590118
 30
0
  0
VERTEX
  5
117
  8
FIXTURES
  6
BYLAYER
 62
    8
 10
-820.9746816466941
 20
-30.24240041134181
 30
0
  0
VERTEX
  5
118
  8
FIXTURES
  6
BYLAYER
 62
    8
 10
-820.5252357634163
 20
-32.71564001229126
 30
0
  0
VERTEX
  5
119
  8
FIXTURES
  6
BYLAYER
 62
    8
 10
-820.0409150312335
 20
-35.1731832260848
 30
0
  0
VERTEX
  5
11A
  8
FIXTURES
  6
BYLAYER
 62
    8
 10
-819.5219028475112
 20
-37.61493999999948
 30
0
  0
VERTEX
  5
11B
  8
FIXTURES
  6
BYLAYER
 62
    8
 10
-818.9683826096152
 20
-40.04082028131234
 30
0
  0
VERTEX
  5
11C
  8
FIXTURES
  6
BYLAYER
 62
    8
 10
-818.3805377148965
 20
-42.45073401735863
 30
0
  0
VERTEX
  5
11D
  8
FIXTURES
  6
BYLAYER
 62
    8
 10
-817.7585515607207
 20
-44.8445911554154
 30
0
  0
VERTEX
  5
11E
  8
FIXTURES
  6
BYLAYER
 62
    8
 10
-817.1026075444388
 20
-47.2223016427597
 30
0
  0
VERTEX
  5
11F
  8
FIXTURES
  6
BYLAYER
 62
    8
 10
-816.4128890634165
 20
-49.58377542666858
 30
0
  0
VERTEX
  5
120
  8
FIXTURES
  6
BYLAYER
 62
    8
 10
-815.6895795150049
 20
-51.92892245447729
 30
0
  0
VERTEX
  5
121
  8
FIXTURES
  6
BYLAYER
 62
    8
 10
-814.932862296555
 20
-54.25765267340466
 30
0
  0
VERTEX
  5
122
  8
FIXTURES
  6
BYLAYER
 62
    8
 10
-814.1429208054469
 20
-56.56987603084417
 30
0
  0
VERTEX
  5
123
  8
FIXTURES
  6
BYLAYER
 62
    8
 10
-813.3199384390318
 20
-58.86550247395644
 30
0
  0
VERTEX
  5
124
  8
FIXTURES
  6
BYLAYER
 62
    8
 10
-812.4640985946608
 20
-61.14444195013493
 30
0
  0
VERTEX
  5
125
  8
FIXTURES
  6
BYLAYER
 62
    8
 10
-811.5755846696993
 20
-63.4066044066567
 30
0
  0
VERTEX
  5
126
  8
FIXTURES
  6
BYLAYER
 62
    8
 10
-810.6545800614986
 20
-65.65189979079878
 30
0
  0
VERTEX
  5
127
  8
FIXTURES
  6
BYLAYER
 62
    8
 10
-809.7012681674241
 20
-67.88023804983823
 30
0
  0
VERTEX
  5
128
  8
FIXTURES
  6
BYLAYER
 62
    8
 10
-808.7158323848271
 20
-70.09152913105208
 30
0
  0
VERTEX
  5
129
  8
FIXTURES
  6
BYLAYER
 62
    8
 10
-807.698456111073
 20
-72.28568298177561
 30
0
  0
VERTEX
  5
12A
  8
FIXTURES
  6
BYLAYER
 62
    8
 10
-806.6493227435276
 20
-74.46260954928584
 30
0
  0
VERTEX
  5
12B
  8
FIXTURES
  6
BYLAYER
 62
    8
 10
-805.5686156795273
 20
-76.62221878085984
 30
0
  0
VERTEX
  5
12C
  8
FIXTURES
  6
BYLAYER
 62
    8
 10
-804.4565183164523
 20
-78.76442062377464
 30
0
  0
VERTEX
  5
12D
  8
FIXTURES
  6
BYLAYER
 62
    8
 10
-803.3132140516536
 20
-80.8891250253655
 30
0
  0
VERTEX
  5
12E
  8
FIXTURES
  6
BYLAYER
 62
    8
 10
-802.1388862824824
 20
-82.99624193290947
 30
0
  0
VERTEX
  5
12F
  8
FIXTURES
  6
BYLAYER
 62
    8
 10
-800.9337184063188
 20
-85.08568129368359
 30
0
  0
VERTEX
  5
130
  8
FIXTURES
  6
BYLAYER
 62
    8
 10
-799.6978938204848
 20
-87.15735305496491
 30
0
  0
VERTEX
  5
131
  8
FIXTURES
  6
BYLAYER
 62
    8
 10
-798.431595922375
 20
-89.21116716408869
 30
0
  0
VERTEX
  5
132
  8
FIXTURES
  6
BYLAYER
 62
    8
 10
-797.135008109326
 20
-91.24703356827376
 30
0
  0
VERTEX
  5
133
  8
FIXTURES
  6
BYLAYER
 62
    8
 10
-795.808313778718
 20
-93.26486221491359
 30
0
  0
VERTEX
  5
134
  8
FIXTURES
  6
BYLAYER
 62
    8
 10
-794.4516963278729
 20
-95.26456305122701
 30
0
  0
VERTEX
  5
135
  8
FIXTURES
  6
BYLAYER
 62
    8
 10
-793.0653391541855
 20
-97.24604602449108
 30
0
  0
VERTEX
  5
136
  8
FIXTURES
  6
BYLAYER
 62
    8
 10
-791.6494256550068
 20
-99.20922108204104
 30
0
  0
VERTEX
  5
137
  8
FIXTURES
  6
BYLAYER
 62
    8
 10
-790.2041392276878
 20
-101.1539981711539
 30
0
  0
VERTEX
  5
138
  8
FIXTURES
  6
BYLAYER
 62
    8
 10
-788.7296632695798
 20
-103.0802872391068
 30
0
  0
VERTEX
  5
139
  8
FIXTURES
  6
BYLAYER
 62
    8
 10
-787.2261811780481
 20
-104.987998233235
 30
0
  0
VERTEX
  5
13A
  8
FIXTURES
  6
BYLAYER
 62
    8
 10
-785.6938763504586
 20
-106.8770411007572
 30
0
  0
VERTEX
  5
13B
  8
FIXTURES
  6
BYLAYER
 62
    8
 10
-784.1329321841622
 20
-108.7473257890088
 30
0
  0
VERTEX
  5
13C
  8
FIXTURES
  6
BYLAYER
 62
    8
 10
-782.5435320765246
 20
-110.5987622453249
 30
0
  0
VERTEX
  5
13D
  8
FIXTURES
  6
BYLAYER
 62
    8
 10
-780.9258594248968
 20
-112.4312604169245
 30
0
  0
VERTEX
  5
13E
  8
FIXTURES
  6
BYLAYER
 62
    8
 10
-779.2800976266444
 20
-114.2447302510845
 30
0
  0
VERTEX
  5
13F
  8
FIXTURES
  6
BYLAYER
 62
    8
 10
-777.6064300791186
 20
-116.0390816951403
 30
0
  0
VERTEX
  5
140
  8
FIXTURES
  6
BYLAYER
 62
    8
 10
-775.9050401796849
 20
-117.8142246964271
 30
0
  0
VERTEX
  5
141
  8
FIXTURES
  6
BYLAYER
 62
    8
 10
-774.1761113256944
 20
-119.5700692021055
 30
0
  0
VERTEX
  5
142
  8
FIXTURES
  6
BYLAYER
 62
    8
 10
-772.4198269145127
 20
-121.3065251596272
 30
0
  0
VERTEX
  5
143
  8
FIXTURES
  6
BYLAYER
 62
    8
 10
-770.6363703434909
 20
-123.0235025161528
 30
0
  0
VERTEX
  5
144
  8
FIXTURES
  6
BYLAYER
 62
    8
 10
-768.8259250099945
 20
-124.7209112190176
 30
0
  0
VERTEX
  5
145
  8
FIXTURES
  6
BYLAYER
 62
    8
 10
-766.9886743113748
 20
-126.3986612154986
 30
0
  0
VERTEX
  5
146
  8
FIXTURES
  6
BYLAYER
 62
    8
 10
-765.1248016449972
 20
-128.0566624529311
 30
0
  0
VERTEX
  5
147
  8
FIXTURES
  6
BYLAYER
 62
    8
 10
-763.2344904082274
 20
-129.694824878592
 30
0
  0
VERTEX
  5
148
  8
FIXTURES
  6
BYLAYER
 62
    8
 10
-761.317923998402
 20
-131.3130584397586
 30
0
  0
VERTEX
  5
149
  8
FIXTURES
  6
BYLAYER
 62
    8
 10
-759.375285812901
 20
-132.9112730837078
 30
0
  0
VERTEX
  5
14A
  8
FIXTURES
  6
BYLAYER
 62
    8
 10
-757.4067592490755
 20
-134.4893787577166
 30
0
  0
VERTEX
  5
14B
  8
FIXTURES
  6
BYLAYER
 62
    8
 10
-755.4125277042767
 20
-136.0472854091204
 30
0
  0
VERTEX
  5
14C
  8
FIXTURES
  6
BYLAYER
 62
    8
 10
-753.3927745758701
 20
-137.5849029851961
 30
0
  0
VERTEX
  5
14D
  8
FIXTURES
  6
BYLAYER
 62
    8
 10
-751.3476832612214
 20
-139.102141433279
 30
0
  0
VERTEX
  5
14E
  8
FIXTURES
  6
BYLAYER
 62
    8
 10
-749.277437157667
 20
-140.5989107005298
 30
0
  0
VERTEX
  5
14F
  8
FIXTURES
  6
BYLAYER
 62
    8
 10
-747.1822196625872
 20
-142.0751207343419
 30
0
  0
VERTEX
  5
150
  8
FIXTURES
  6
BYLAYER
 62
    8
 10
-745.0622141733329
 20
-143.5306814820506
 30
0
  0
VERTEX
  5
151
  8
FIXTURES
  6
BYLAYER
 62
    8
 10
-742.9176040872699
 20
-144.9655028908164
 30
0
  0
VERTEX
  5
152
  8
FIXTURES
  6
BYLAYER
 62
    8
 10
-740.7485728017346
 20
-146.3794949080329
 30
0
  0
VERTEX
  5
153
  8
FIXTURES
  6
BYLAYER
 62
    8
 10
-738.5553037141217
 20
-147.772567480919
 30
0
  0
VERTEX
  5
154
  8
FIXTURES
  6
BYLAYER
 62
    8
 10
-736.3310760481545
 20
-149.1470917619881
 30
0
  0
VERTEX
  5
155
  8
FIXTURES
  6
BYLAYER
 62
    8
 10
-734.0415523332922
 20
-150.5152837241185
 30
0
  0
VERTEX
  5
156
  8
FIXTURES
  6
BYLAYER
 62
    8
 10
-731.6454909253371
 20
-151.8918205454829
 30
0
  0
VERTEX
  5
157
  8
FIXTURES
  6
BYLAYER
 62
    8
 10
-729.1016501801059
 20
-153.2913794041961
 30
0
  0
VERTEX
  5
158
  8
FIXTURES
  6
BYLAYER
 62
    8
 10
-726.3687884534447
 20
-154.7286374784308
 30
0
  0
VERTEX
  5
159
  8
FIXTURES
  6
BYLAYER
 62
    8
 10
-723.4056641011557
 20
-156.2182719461853
 30
0
  0
VERTEX
  5
15A
  8
FIXTURES
  6
BYLAYER
 62
    8
 10
-720.1710354790848
 20
-157.7749599856907
 30
0
  0
VERTEX
  5
15B
  8
FIXTURES
  6
BYLAYER
 62
    8
 10
-716.6236609430489
 20
-159.4133787750034
 30
0
  0
VERTEX
  5
15C
  8
FIXTURES
  6
BYLAYER
 62
    8
 10
-712.7386672905704
 20
-161.141819900542
 30
0
  0
VERTEX
  5
15D
  8
FIXTURES
  6
BYLAYER
 62
    8
 10
-708.5566550860531
 20
-162.9430325820576
 30
0
  0
VERTEX
  5
15E
  8
FIXTURES
  6
BYLAYER
 62
    8
 10
-704.1345933355915
 20
-164.7933804474887
 30
0
  0
VERTEX
  5
15F
  8
FIXTURES
  6
BYLAYER
 62
    8
 10
-699.529451045295
 20
-166.6692271248321
 30
0
  0
VERTEX
  5
160
  8
FIXTURES
  6
BYLAYER
 62
    8
 10
-694.7981972212438
 20
-168.5469362420845
 30
0
  0
VERTEX
  5
161
  8
FIXTURES
  6
BYLAYER
 62
    8
 10
-689.9978008695471
 20
-170.4028714273009
 30
0
  0
VERTEX
  5
162
  8
FIXTURES
  6
BYLAYER
 62
    8
 10
-685.1852309962997
 20
-172.2133963084198
 30
0
  0
VERTEX
  5
163
  8
FIXTURES
  6
BYLAYER
 62
    8
 10
-680.4174566076108
 20
-173.9548745133798
 30
0
  0
VERTEX
  5
164
  8
FIXTURES
  6
BYLAYER
 62
    8
 10
-675.7346807399008
 20
-175.6074889953597
 30
0
  0
VERTEX
  5
165
  8
FIXTURES
  6
BYLAYER
 62
    8
 10
-671.1100425509212
 20
-177.1667000075686
 30
0
  0
VERTEX
  5
166
  8
FIXTURES
  6
BYLAYER
 62
    8
 10
-666.4999152287201
 20
-178.6317871282808
 30
0
  0
VERTEX
  5
167
  8
FIXTURES
  6
BYLAYER
 62
    8
 10
-661.8606719614036
 20
-180.0020299359458
 30
0
  0
VERTEX
  5
168
  8
FIXTURES
  6
BYLAYER
 62
    8
 10
-657.1486859370052
 20
-181.2767080087797
 30
0
  0
VERTEX
  5
169
  8
FIXTURES
  6
BYLAYER
 62
    8
 10
-652.3203303436312
 20
-182.4551009251736
 30
0
  0
VERTEX
  5
16A
  8
FIXTURES
  6
BYLAYER
 62
    8
 10
-647.3319783693441
 20
-183.5364882634021
 30
0
  0
VERTEX
  5
16B
  8
FIXTURES
  6
BYLAYER
 62
    8
 10
-642.1400032022066
 20
-184.520149601798
 30
0
  0
VERTEX
  5
16C
  8
FIXTURES
  6
BYLAYER
 62
    8
 10
-636.720132788585
 20
-185.405741505383
 30
0
  0
VERTEX
  5
16D
  8
FIXTURES
  6
BYLAYER
 62
    8
 10
-631.1255141079746
 20
-186.1944284855272
 30
0
  0
VERTEX
  5
16E
  8
FIXTURES
  6
BYLAYER
 62
    8
 10
-625.4286488981888
 20
-186.8877520404058
 30
0
  0
VERTEX
  5
16F
  8
FIXTURES
  6
BYLAYER
 62
    8
 10
-619.7020388970122
 20
-187.4872536680778
 30
0
  0
VERTEX
  5
170
  8
FIXTURES
  6
BYLAYER
 62
    8
 10
-614.0181858422293
 20
-187.9944748666021
 30
0
  0
VERTEX
  5
171
  8
FIXTURES
  6
BYLAYER
 62
    8
 10
-608.4495914716535
 20
-188.4109571340377
 30
0
  0
VERTEX
  5
172
  8
FIXTURES
  6
BYLAYER
 62
    8
 10
-603.068757523055
 20
-188.73824196856
 30
0
  0
VERTEX
  5
173
  8
FIXTURES
  6
BYLAYER
 62
    8
 10
-597.9481857342616
 20
-188.9778708682279
 30
0
  0
VERTEX
  5
174
  8
FIXTURES
  6
BYLAYER
 62
    8
 10
-593.1406768334127
 20
-189.1318510523997
 30
0
  0
VERTEX
  5
175
  8
FIXTURES
  6
BYLAYER
 62
    8
 10
-588.6202275102551
 20
-189.2040526259807
 30
0
  0
VERTEX
  5
176
  8
FIXTURES
  6
BYLAYER
 62
    8
 10
-584.3411334448756
 20
-189.1988114150008
 30
0
  0
VERTEX
  5
177
  8
FIXTURES
  6
BYLAYER
 62
    8
 10
-580.2576903173613
 20
-189.1204632456647
 30
0
  0
VERTEX
  5
178
  8
FIXTURES
  6
BYLAYER
 62
    8
 10
-576.3241938078136
 20
-188.9733439440024
 30
0
  0
VERTEX
  5
179
  8
FIXTURES
  6
BYLAYER
 62
    8
 10
-572.494939596334
 20
-188.7617893362767
 30
0
  0
VERTEX
  5
17A
  8
FIXTURES
  6
BYLAYER
 62
    8
 10
-568.7242233630095
 20
-188.4901352484594
 30
0
  0
VERTEX
  5
17B
  8
FIXTURES
  6
BYLAYER
 62
    8
 10
-564.9663407879561
 20
-188.1627175068134
 30
0
  0
VERTEX
  5
17C
  8
FIXTURES
  6
BYLAYER
 62
    8
 10
-561.185081438176
 20
-187.783419612213
 30
0
  0
VERTEX
  5
17D
  8
FIXTURES
  6
BYLAYER
 62
    8
 10
-557.3822104283608
 20
-187.3543157649692
 30
0
  0
VERTEX
  5
17E
  8
FIXTURES
  6
BYLAYER
 62
    8
 10
-553.568986760074
 20
-186.8770278401207
 30
0
  0
VERTEX
  5
17F
  8
FIXTURES
  6
BYLAYER
 62
    8
 10
-549.7566694349225
 20
-186.3531777128228
 30
0
  0
VERTEX
  5
180
  8
FIXTURES
  6
BYLAYER
 62
    8
 10
-545.9565174545132
 20
-185.7843872581143
 30
0
  0
VERTEX
  5
181
  8
FIXTURES
  6
BYLAYER
 62
    8
 10
-542.1797898204095
 20
-185.1722783511505
 30
0
  0
VERTEX
  5
182
  8
FIXTURES
  6
BYLAYER
 62
    8
 10
-538.4377455342328
 20
-184.5184728669701
 30
0
  0
VERTEX
  5
183
  8
FIXTURES
  6
BYLAYER
 62
    8
 10
-534.7416435975611
 20
-183.8245926807285
 30
0
  0
VERTEX
  5
184
  8
FIXTURES
  6
BYLAYER
 62
    8
 10
-531.1008797958348
 20
-183.0922596674645
 30
0
  0
VERTEX
  5
185
  8
FIXTURES
  6
BYLAYER
 62
    8
 10
-527.5173970499309
 20
-182.3230957022752
 30
0
  0
VERTEX
  5
186
  8
FIXTURES
  6
BYLAYER
 62
    8
 10
-523.9912750645599
 20
-181.5187226602575
 30
0
  0
VERTEX
  5
187
  8
FIXTURES
  6
BYLAYER
 62
    8
 10
-520.5225935444469
 20
-180.6807624165667
 30
0
  0
VERTEX
  5
188
  8
FIXTURES
  6
BYLAYER
 62
    8
 10
-517.1114321943023
 20
-179.8108368461835
 30
0
  0
VERTEX
  5
189
  8
FIXTURES
  6
BYLAYER
 62
    8
 10
-513.7578707188368
 20
-178.9105678243213
 30
0
  0
VERTEX
  5
18A
  8
FIXTURES
  6
BYLAYER
 62
    8
 10
-510.4619888227899
 20
-177.9815772259608
 30
0
  0
VERTEX
  5
18B
  8
FIXTURES
  6
BYLAYER
 62
    8
 10
-507.223866210843
 20
-177.0254869263154
 30
0
  0
VERTEX
  5
18C
  8
FIXTURES
  6
BYLAYER
 62
    8
 10
-504.0382775530743
 20
-176.0408790711081
 30
0
  0
VERTEX
  5
18D
  8
FIXTURES
  6
BYLAYER
 62
    8
 10
-500.8787773807417
 20
-175.0141768892645
 30
0
  0
VERTEX
  5
18E
  8
FIXTURES
  6
BYLAYER
 62
    8
 10
-497.713615190456
 20
-173.9287638803362
 30
0
  0
VERTEX
  5
18F
  8
FIXTURES
  6
BYLAYER
 62
    8
 10
-494.5110404788429
 20
-172.7680235439329
 30
0
  0
VERTEX
  5
190
  8
FIXTURES
  6
BYLAYER
 62
    8
 10
-491.2393027424987
 20
-171.5153393796063
 30
0
  0
VERTEX
  5
191
  8
FIXTURES
  6
BYLAYER
 62
    8
 10
-487.8666514780198
 20
-170.154094886966
 30
0
  0
VERTEX
  5
192
  8
FIXTURES
  6
BYLAYER
 62
    8
 10
-484.3613361820171
 20
-168.667673565622
 30
0
  0
VERTEX
  5
193
  8
FIXTURES
  6
BYLAYER
 62
    8
 10
-480.6916063511162
 20
-167.0394589151256
 30
0
  0
VERTEX
  5
194
  8
FIXTURES
  6
BYLAYER
 62
    8
 10
-476.8400693292788
 20
-165.2600246545626
 30
0
  0
VERTEX
  5
195
  8
FIXTURES
  6
BYLAYER
 62
    8
 10
-472.8467638499569
 20
-163.3487053812132
 30
0
  0
VERTEX
  5
196
  8
FIXTURES
  6
BYLAYER
 62
    8
 10
-468.766086493968
 20
-161.332025911659
 30
0
  0
VERTEX
  5
197
  8
FIXTURES
  6
BYLAYER
 62
    8
 10
-464.6524338421295
 20
-159.2365110626561
 30
0
  0
VERTEX
  5
198
  8
FIXTURES
  6
BYLAYER
 62
    8
 10
-460.5602024752588
 20
-157.0886856508441
 30
0
  0
VERTEX
  5
199
  8
FIXTURES
  6
BYLAYER
 62
    8
 10
-456.5437889741734
 20
-154.9150744930375
 30
0
  0
VERTEX
  5
19A
  8
FIXTURES
  6
BYLAYER
 62
    8
 10
-452.6575899196905
 20
-152.7422024057596
 30
0
  0
VERTEX
  5
19B
  8
FIXTURES
  6
BYLAYER
 62
    8
 10
-448.9560018926422
 20
-150.5965942058247
 30
0
  0
VERTEX
  5
19C
  8
FIXTURES
  6
BYLAYER
 62
    8
 10
-445.4848041746736
 20
-148.5027960400912
 30
0
  0
VERTEX
  5
19D
  8
FIXTURES
  6
BYLAYER
 62
    8
 10
-442.2553068507841
 20
-146.4774393762928
 30
0
  0
VERTEX
  5
19E
  8
FIXTURES
  6
BYLAYER
 62
    8
 10
-439.2702027068299
 20
-144.5351770123816
 30
0
  0
VERTEX
  5
19F
  8
FIXTURES
  6
BYLAYER
 62
    8
 10
-436.532184528638
 20
-142.6906617462519
 30
0
  0
VERTEX
  5
1A0
  8
FIXTURES
  6
BYLAYER
 62
    8
 10
-434.0439451020502
 20
-140.9585463758558
 30
0
  0
VERTEX
  5
1A1
  8
FIXTURES
  6
BYLAYER
 62
    8
 10
-431.8081772129226
 20
-139.3534836991457
 30
0
  0
VERTEX
  5
1A2
  8
FIXTURES
  6
BYLAYER
 62
    8
 10
-429.8275736470823
 20
-137.8901265140739
 30
0
  0
VERTEX
  5
1A3
  8
FIXTURES
  6
BYLAYER
 62
    8
 10
-428.1048271903855
 20
-136.5831276184763
 30
0
  0
VERTEX
  5
1A4
  8
FIXTURES
  6
BYLAYER
 62
    8
 10
-426.6376785211178
 20
-135.4418893642724
 30
0
  0
VERTEX
  5
1A5
  8
FIXTURES
  6
BYLAYER
 62
    8
 10
-425.4040598874126
 20
-134.4548123189597
 30
0
  0
VERTEX
  5
1A6
  8
FIXTURES
  6
BYLAYER
 62
    8
 10
-424.3769514298619
 20
-133.6050466039451
 30
0
  0
VERTEX
  5
1A7
  8
FIXTURES
  6
BYLAYER
 62
    8
 10
-423.5293332890433
 20
-132.875742340635
 30
0
  0
VERTEX
  5
1A8
  8
FIXTURES
  6
BYLAYER
 62
    8
 10
-422.8341856055631
 20
-132.2500496504363
 30
0
  0
VERTEX
  5
1A9
  8
FIXTURES
  6
BYLAYER
 62
    8
 10
-422.2644885199843
 20
-131.7111186548136
 30
0
  0
VERTEX
  5
1AA
  8
FIXTURES
  6
BYLAYER
 62
    8
 10
-421.7932221729134
 20
-131.2420994750573
 30
0
  0
VERTEX
  5
1AB
  8
FIXTURES
  6
BYLAYER
 62
    8
 10
-421.3933667049278
 20
-130.8261422327487
 30
0
  0
VERTEX
  5
1AC
  8
FIXTURES
  6
BYLAYER
 62
    8
 10
-421.0416021331912
 20
-130.4484838272328
 30
0
  0
VERTEX
  5
1AD
  8
FIXTURES
  6
BYLAYER
 62
    8
 10
-420.7294079811691
 20
-130.1027082703076
 30
0
  0
VERTEX
  5
1AE
  8
FIXTURES
  6
BYLAYER
 62
    8
 10
-420.4519636489276
 20
-129.784486351884
 30
0
  0
VERTEX
  5
1AF
  8
FIXTURES
  6
BYLAYER
 62
    8
 10
-420.2044485364895
 20
-129.4894888617564
 30
0
  0
VERTEX
  5
1B0
  8
FIXTURES
  6
BYLAYER
 62
    8
 10
-419.9820420439064
 20
-129.2133865898359
 30
0
  0
VERTEX
  5
1B1
  8
FIXTURES
  6
BYLAYER
 62
    8
 10
-419.7799235712446
 20
-128.9518503259169
 30
0
  0
VERTEX
  5
1B2
  8
FIXTURES
  6
BYLAYER
 62
    8
 10
-419.5932725185266
 20
-128.7005508598522
 30
0
  0
VERTEX
  5
1B3
  8
FIXTURES
  6
BYLAYER
 62
    8
 10
-419.4172682858043
 20
-128.4551589815528
 30
0
  0
VERTEX
  5
1B4
  8
FIXTURES
  6
BYLAYER
 62
    8
 10
-419.247880876821
 20
-128.2120659606298
 30
0
  0
VERTEX
  5
1B5
  8
FIXTURES
  6
BYLAYER
 62
    8
 10
-419.0842427101452
 20
-127.9705449862522
 30
0
  0
VERTEX
  5
1B6
  8
FIXTURES
  6
BYLAYER
 62
    8
 10
-418.9262768079789
 20
-127.7305897274055
 30
0
  0
VERTEX
  5
1B7
  8
FIXTURES
  6
BYLAYER
 62
    8
 10
-418.7739061925677
 20
-127.4921938530169
 30
0
  0
VERTEX
  5
1B8
  8
FIXTURES
  6
BYLAYER
 62
    8
 10
-418.6270538861718
 20
-127.2553510320722
 30
0
  0
VERTEX
  5
1B9
  8
FIXTURES
  6
BYLAYER
 62
    8
 10
-418.4856429110223
 20
-127.0200549335568
 30
0
  0
VERTEX
  5
1BA
  8
FIXTURES
  6
BYLAYER
 62
    8
 10
-418.3495962893503
 20
-126.7862992264563
 30
0
  0
VERTEX
  5
1BB
  8
FIXTURES
  6
BYLAYER
 62
    8
 10
-418.2188370433869
 20
-126.5540775796399
 30
0
  0
VERTEX
  5
1BC
  8
FIXTURES
  6
BYLAYER
 62
    8
 10
-418.0932881953922
 20
-126.3233836622094
 30
0
  0
VERTEX
  5
1BD
  8
FIXTURES
  6
BYLAYER
 62
    8
 10
-417.9728727675974
 20
-126.0942111430923
 30
0
  0
VERTEX
  5
1BE
  8
FIXTURES
  6
BYLAYER
 62
    8
 10
-417.8575137822481
 20
-125.8665536912158
 30
0
  0
VERTEX
  5
1BF
  8
FIXTURES
  6
BYLAYER
 62
    8
 10
-417.7471342615609
 20
-125.6404049755656
 30
0
  0
VERTEX
  5
1C0
  8
FIXTURES
  6
BYLAYER
 62
    8
 10
-417.6416572278104
 20
-125.4157586651272
 30
0
  0
VERTEX
  5
1C1
  8
FIXTURES
  6
BYLAYER
 62
    8
 10
-417.5410057031986
 20
-125.1926084288862
 30
0
  0
VERTEX
  5
1C2
  8
FIXTURES
  6
BYLAYER
 62
    8
 10
-417.4451027099858
 20
-124.9709479357698
 30
0
  0
VERTEX
  5
1C3
  8
FIXTURES
  6
BYLAYER
 62
    8
 10
-417.3538712704176
 20
-124.7507708547637
 30
0
  0
VERTEX
  5
1C4
  8
FIXTURES
  6
BYLAYER
 62
    8
 10
-417.2672344067105
 20
-124.5320708548534
 30
0
  0
VERTEX
  5
1C5
  8
FIXTURES
  6
BYLAYER
 62
    8
 10
-417.1851151411247
 20
-124.3148416050244
 30
0
  0
VERTEX
  5
1C6
  8
FIXTURES
  6
BYLAYER
 62
    8
 10
-417.1074364958913
 20
-124.0990767742041
 30
0
  0
VERTEX
  5
1C7
  8
FIXTURES
  6
BYLAYER
 62
    8
 10
-417.034121493256
 20
-123.8847700313781
 30
0
  0
VERTEX
  5
1C8
  8
FIXTURES
  6
BYLAYER
 62
    8
 10
-416.9650931554497
 20
-123.6719150455319
 30
0
  0
VERTEX
  5
1C9
  8
FIXTURES
  6
BYLAYER
 62
    8
 10
-416.9002745047037
 20
-123.4605054855929
 30
0
  0
VERTEX
  5
1CA
  8
FIXTURES
  6
BYLAYER
 62
    8
 10
-416.8395885632781
 20
-123.2505350206047
 30
0
  0
VERTEX
  5
1CB
  8
FIXTURES
  6
BYLAYER
 62
    8
 10
-416.7829583533894
 20
-123.0419973194366
 30
0
  0
VERTEX
  5
1CC
  8
FIXTURES
  6
BYLAYER
 62
    8
 10
-416.7302986016293
 20
-122.8293988897931
 30
0
  0
VERTEX
  5
1CD
  8
FIXTURES
  6
BYLAYER
 62
    8
 10
-416.6814908518281
 20
-122.5852975936141
 30
0
  0
VERTEX
  5
1CE
  8
FIXTURES
  6
BYLAYER
 62
    8
 10
-416.6364083521621
 20
-122.276764131675
 30
0
  0
VERTEX
  5
1CF
  8
FIXTURES
  6
BYLAYER
 62
    8
 10
-416.5949243508367
 20
-121.8708692046348
 30
0
  0
VERTEX
  5
1D0
  8
FIXTURES
  6
BYLAYER
 62
    8
 10
-416.556912095999
 20
-121.3346835132106
 30
0
  0
VERTEX
  5
1D1
  8
FIXTURES
  6
BYLAYER
 62
    8
 10
-416.52224483584
 20
-120.6352777580032
 30
0
  0
VERTEX
  5
1D2
  8
FIXTURES
  6
BYLAYER
 62
    8
 10
-416.4907958185504
 20
-119.7397226397297
 30
0
  0
VERTEX
  5
1D3
  8
FIXTURES
  6
BYLAYER
 62
    8
 10
-416.4624382922775
 20
-118.6150888591073
 30
0
  0
VERTEX
  5
1D4
  8
FIXTURES
  6
BYLAYER
 62
    8
 10
-416.4370148703165
 20
-117.2452769749216
 30
0
  0
VERTEX
  5
1D5
  8
FIXTURES
  6
BYLAYER
 62
    8
 10
-416.4142456262489
 20
-115.6815069782315
 30
0
  0
VERTEX
  5
1D6
  8
FIXTURES
  6
BYLAYER
 62
    8
 10
-416.3938199987751
 20
-113.9918287182227
 30
0
  0
VERTEX
  5
1D7
  8
FIXTURES
  6
BYLAYER
 62
    8
 10
-416.3754274265812
 20
-112.2442920441972
 30
0
  0
VERTEX
  5
1D8
  8
FIXTURES
  6
BYLAYER
 62
    8
 10
-416.3587573483674
 20
-110.5069468053407
 30
0
  0
VERTEX
  5
1D9
  8
FIXTURES
  6
BYLAYER
 62
    8
 10
-416.3434992027906
 20
-108.8478428508388
 30
0
  0
VERTEX
  5
1DA
  8
FIXTURES
  6
BYLAYER
 62
    8
 10
-416.3293424285657
 20
-107.3350300299353
 30
0
  0
VERTEX
  5
1DB
  8
FIXTURES
  6
BYLAYER
 62
    8
 10
-416.3159764643788
 20
-106.0365581918159
 30
0
  0
VERTEX
  5
1DC
  8
FIXTURES
  6
BYLAYER
 62
    8
 10
-416.3031128722068
 20
-105.0032602020074
 30
0
  0
VERTEX
  5
1DD
  8
FIXTURES
  6
BYLAYER
 62
    8
 10
-416.2905517072068
 20
-104.2171009913436
 30
0
  0
VERTEX
  5
1DE
  8
FIXTURES
  6
BYLAYER
 62
    8
 10
-416.2781151478266
 20
-103.642828506825
 30
0
  0
VERTEX
  5
1DF
  8
FIXTURES
  6
BYLAYER
 62
    8
 10
-416.265625372529
 20
-103.2451906956849
 30
0
  0
VERTEX
  5
1E0
  8
FIXTURES
  6
BYLAYER
 62
    8
 10
-416.2529045597767
 20
-102.9889355049818
 30
0
  0
VERTEX
  5
1E1
  8
FIXTURES
  6
BYLAYER
 62
    8
 10
-416.239774888003
 20
-102.8388108817744
 30
0
  0
VERTEX
  5
1E2
  8
FIXTURES
  6
BYLAYER
 62
    8
 10
-416.2260585356562
 20
-102.7595647732378
 30
0
  0
VERTEX
  5
1E3
  8
FIXTURES
  6
BYLAYER
 62
    8
 10
-416.2115776812134
 20
-102.7159451264888
 30
0
  0
VERTEX
  5
1E4
  8
FIXTURES
  6
BYLAYER
 62
    8
 10
-416.1961875380803
 20
-102.6785804594401
 30
0
  0
VERTEX
  5
1E5
  8
FIXTURES
  6
BYLAYER
 62
    8
 10
-416.1798754596093
 20
-102.6416215738282
 30
0
  0
VERTEX
  5
1E6
  8
FIXTURES
  6
BYLAYER
 62
    8
 10
-416.1626618341252
 20
-102.6050998421269
 30
0
  0
VERTEX
  5
1E7
  8
FIXTURES
  6
BYLAYER
 62
    8
 10
-416.1445670499525
 20
-102.5690466369269
 30
0
  0
VERTEX
  5
1E8
  8
FIXTURES
  6
BYLAYER
 62
    8
 10
-416.1256114953867
 20
-102.5334933307604
 30
0
  0
VERTEX
  5
1E9
  8
FIXTURES
  6
BYLAYER
 62
    8
 10
-416.1058155587671
 20
-102.4984712961596
 30
0
  0
VERTEX
  5
1EA
  8
FIXTURES
  6
BYLAYER
 62
    8
 10
-416.0851996284182
 20
-102.4640119056567
 30
0
  0
VERTEX
  5
1EB
  8
FIXTURES
  6
BYLAYER
 62
    8
 10
-416.0637840926502
 20
-102.430146531784
 30
0
  0
VERTEX
  5
1EC
  8
FIXTURES
  6
BYLAYER
 62
    8
 10
-416.0415876599145
 20
-102.396902169392
 30
0
  0
VERTEX
  5
1ED
  8
FIXTURES
  6
BYLAYER
 62
    8
 10
-416.018622319214
 20
-102.3642883021384
 30
0
  0
VERTEX
  5
1EE
  8
FIXTURES
  6
BYLAYER
 62
    8
 10
-415.9948983796494
 20
-102.332310036174
 30
0
  0
VERTEX
  5
1EF
  8
FIXTURES
  6
BYLAYER
 62
    8
 10
-415.9704261503357
 20
-102.3009724775329
 30
0
  0
VERTEX
  5
1F0
  8
FIXTURES
  6
BYLAYER
 62
    8
 10
-415.9452159404027
 20
-102.270280732133
 30
0
  0
VERTEX
  5
1F1
  8
FIXTURES
  6
BYLAYER
 62
    8
 10
-415.9192780589801
 20
-102.2402399061248
 30
0
  0
VERTEX
  5
1F2
  8
FIXTURES
  6
BYLAYER
 62
    8
 10
-415.892622815154
 20
-102.2108551054844
 30
0
  0
VERTEX
  5
1F3
  8
FIXTURES
  6
BYLAYER
 62
    8
 10
-415.8652605180832
 20
-102.1821314363042
 30
0
  0
VERTEX
  5
1F4
  8
FIXTURES
  6
BYLAYER
 62
    8
 10
-415.8372008902807
 20
-102.1540754251764
 30
0
  0
VERTEX
  5
1F5
  8
FIXTURES
  6
BYLAYER
 62
    8
 10
-415.8084513080103
 20
-102.1266992812743
 30
0
  0
VERTEX
  5
1F6
  8
FIXTURES
  6
BYLAYER
 62
    8
 10
-415.7790185609483
 20
-102.1000166345038
 30
0
  0
VERTEX
  5
1F7
  8
FIXTURES
  6
BYLAYER
 62
    8
 10
-415.7489094387856
 20
-102.0740411145962
 30
0
  0
VERTEX
  5
1F8
  8
FIXTURES
  6
BYLAYER
 62
    8
 10
-415.7181307311985
 20
-102.048786351399
 30
0
  0
VERTEX
  5
1F9
  8
FIXTURES
  6
BYLAYER
 62
    8
 10
-415.6866892278631
 20
-102.0242659747018
 30
0
  0
VERTEX
  5
1FA
  8
FIXTURES
  6
BYLAYER
 62
    8
 10
-415.6545917184558
 20
-102.0004936142941
 30
0
  0
VERTEX
  5
1FB
  8
FIXTURES
  6
BYLAYER
 62
    8
 10
-415.6218449926673
 20
-101.9774829000817
 30
0
  0
VERTEX
  5
1FC
  8
FIXTURES
  6
BYLAYER
 62
    8
 10
-415.5884598611447
 20
-101.9552487154724
 30
0
  0
VERTEX
  5
1FD
  8
FIXTURES
  6
BYLAYER
 62
    8
 10
-415.554463218461
 20
-101.9338109587552
 30
0
  0
VERTEX
  5
1FE
  8
FIXTURES
  6
BYLAYER
 62
    8
 10
-415.5198859801458
 20
-101.9131907818373
 30
0
  0
VERTEX
  5
1FF
  8
FIXTURES
  6
BYLAYER
 62
    8
 10
-415.4847590617283
 20
-101.8934093366843
 30
0
  0
VERTEX
  5
200
  8
FIXTURES
  6
BYLAYER
 62
    8
 10
-415.4491133787669
 20
-101.8744877752033
 30
0
  0
VERTEX
  5
201
  8
FIXTURES
  6
BYLAYER
 62
    8
 10
-415.4129798467766
 20
-101.8564472493599
 30
0
  0
VERTEX
  5
202
  8
FIXTURES
  6
BYLAYER
 62
    8
 10
-415.3763893813011
 20
-101.8393089110614
 30
0
  0
VERTEX
  5
203
  8
FIXTURES
  6
BYLAYER
 62
    8
 10
-415.3393728978845
 20
-101.823093912215
 30
0
  0
VERTEX
  5
204
  8
FIXTURES
  6
BYLAYER
 62
    8
 10
-415.302013728302
 20
-101.8078236498986
 30
0
  0
VERTEX
  5
205
  8
FIXTURES
  6
BYLAYER
 62
    8
 10
-415.2646048692695
 20
-101.7935205014655
 30
0
  0
VERTEX
  5
206
  8
FIXTURES
  6
BYLAYER
 62
    8
 10
-415.227491733749
 20
-101.7802070893231
 30
0
  0
VERTEX
  5
207
  8
FIXTURES
  6
BYLAYER
 62
    8
 10
-415.1910197347024
 20
-101.7679060360533
 30
0
  0
VERTEX
  5
208
  8
FIXTURES
  6
BYLAYER
 62
    8
 10
-415.1555342850916
 20
-101.7566399640637
 30
0
  0
VERTEX
  5
209
  8
FIXTURES
  6
BYLAYER
 62
    8
 10
-415.1213807978784
 20
-101.7464314958197
 30
0
  0
VERTEX
  5
20A
  8
FIXTURES
  6
BYLAYER
 62
    8
 10
-415.0889046860248
 20
-101.7373032538453
 30
0
  0
VERTEX
  5
20B
  8
FIXTURES
  6
BYLAYER
 62
    8
 10
-415.0584513624926
 20
-101.7292778604897
 30
0
  0
VERTEX
  5
20C
  8
FIXTURES
  6
BYLAYER
 62
    8
 10
-415.0255998870853
 20
-101.7223460918176
 30
0
  0
VERTEX
  5
20D
  8
FIXTURES
  6
BYLAYER
 62
    8
 10
-414.9668639069569
 20
-101.7163713377086
 30
0
  0
VERTEX
  5
20E
  8
FIXTURES
  6
BYLAYER
 62
    8
 10
-414.8539907161321
 20
-101.711185141583
 30
0
  0
VERTEX
  5
20F
  8
FIXTURES
  6
BYLAYER
 62
    8
 10
-414.6587276086211
 20
-101.7066190469195
 30
0
  0
VERTEX
  5
210
  8
FIXTURES
  6
BYLAYER
 62
    8
 10
-414.3528218784195
 20
-101.7025045970804
 30
0
  0
VERTEX
  5
211
  8
FIXTURES
  6
BYLAYER
 62
    8
 10
-413.9080208195519
 20
-101.6986733355443
 30
0
  0
VERTEX
  5
212
  8
FIXTURES
  6
BYLAYER
 62
    8
 10
-413.2960717260285
 20
-101.6949568056734
 30
0
  0
VERTEX
  5
213
  8
FIXTURES
  6
BYLAYER
 62
    8
 10
-412.4887218918593
 20
-101.6911865508882
 30
0
  0
VERTEX
  5
214
  8
FIXTURES
  6
BYLAYER
 62
    8
 10
-411.4716973137402
 20
-101.6872088568634
 30
0
  0
VERTEX
  5
215
  8
FIXTURES
  6
BYLAYER
 62
    8
 10
-410.2866387991671
 20
-101.682928977767
 30
0
  0
VERTEX
  5
216
  8
FIXTURES
  6
BYLAYER
 62
    8
 10
-408.9891658583219
 20
-101.6782669099048
 30
0
  0
VERTEX
  5
217
  8
FIXTURES
  6
BYLAYER
 62
    8
 10
-407.6348980013718
 20
-101.6731426498154
 30
0
  0
VERTEX
  5
218
  8
FIXTURES
  6
BYLAYER
 62
    8
 10
-406.2794547385274
 20
-101.6674761937466
 30
0
  0
VERTEX
  5
219
  8
FIXTURES
  6
BYLAYER
 62
    8
 10
-404.9784555799415
 20
-101.6611875381204
 30
0
  0
VERTEX
  5
21A
  8
FIXTURES
  6
BYLAYER
 62
    8
 10
-403.7875200358249
 20
-101.6541966793593
 30
0
  0
VERTEX
  5
21B
  8
FIXTURES
  6
BYLAYER
 62
    8
 10
-402.7622676163446
 20
-101.646423613769
 30
0
  0
VERTEX
  5
21C
  8
FIXTURES
  6
BYLAYER
 62
    8
 10
-401.944445453395
 20
-101.6378003236605
 30
0
  0
VERTEX
  5
21D
  8
FIXTURES
  6
BYLAYER
 62
    8
 10
-401.3203111656767
 20
-101.6283067347831
 30
0
  0
VERTEX
  5
21E
  8
FIXTURES
  6
BYLAYER
 62
    8
 10
-400.8622499935882
 20
-101.6179347587749
 30
0
  0
VERTEX
  5
21F
  8
FIXTURES
  6
BYLAYER
 62
    8
 10
-400.5426471775572
 20
-101.606676307274
 30
0
  0
VERTEX
  5
220
  8
FIXTURES
  6
BYLAYER
 62
    8
 10
-400.3338879579678
 20
-101.5945232919184
 30
0
  0
VERTEX
  5
221
  8
FIXTURES
  6
BYLAYER
 62
    8
 10
-400.2083575752476
 20
-101.5814676243463
 30
0
  0
VERTEX
  5
222
  8
FIXTURES
  6
BYLAYER
 62
    8
 10
-400.1384412697807
 20
-101.5675012161955
 30
0
  0
VERTEX
  5
223
  8
FIXTURES
  6
BYLAYER
 62
    8
 10
-400.0965242820093
 20
-101.5526159791043
 30
0
  0
VERTEX
  5
224
  8
FIXTURES
  6
BYLAYER
 62
    8
 10
-400.0595993910247
 20
-101.5368085684022
 30
0
  0
VERTEX
  5
225
  8
FIXTURES
  6
BYLAYER
 62
    8
 10
-400.023089530805
 20
-101.5200946141267
 30
0
  0
VERTEX
  5
226
  8
FIXTURES
  6
BYLAYER
 62
    8
 10
-399.9870251740358
 20
-101.5024944900069
 30
0
  0
VERTEX
  5
227
  8
FIXTURES
  6
BYLAYER
 62
    8
 10
-399.951436793388
 20
-101.4840285698301
 30
0
  0
VERTEX
  5
228
  8
FIXTURES
  6
BYLAYER
 62
    8
 10
-399.9163548615325
 20
-101.4647172273835
 30
0
  0
VERTEX
  5
229
  8
FIXTURES
  6
BYLAYER
 62
    8
 10
-399.8818098511692
 20
-101.4445808362798
 30
0
  0
VERTEX
  5
22A
  8
FIXTURES
  6
BYLAYER
 62
    8
 10
-399.8478322349838
 20
-101.4236397703062
 30
0
  0
VERTEX
  5
22B
  8
FIXTURES
  6
BYLAYER
 62
    8
 10
-399.8144524856325
 20
-101.4019144033082
 30
0
  0
VERTEX
  5
22C
  8
FIXTURES
  6
BYLAYER
 62
    8
 10
-399.7816971029679
 20
-101.3794234666275
 30
0
  0
VERTEX
  5
22D
  8
FIXTURES
  6
BYLAYER
 62
    8
 10
-399.7495766955835
 20
-101.3561791230459
 30
0
  0
VERTEX
  5
22E
  8
FIXTURES
  6
BYLAYER
 62
    8
 10
-399.7180978991819
 20
-101.3321918927832
 30
0
  0
VERTEX
  5
22F
  8
FIXTURES
  6
BYLAYER
 62
    8
 10
-399.6872673495091
 20
-101.3074722963502
 30
0
  0
VERTEX
  5
230
  8
FIXTURES
  6
BYLAYER
 62
    8
 10
-399.6570916822966
 20
-101.2820308540249
 30
0
  0
VERTEX
  5
231
  8
FIXTURES
  6
BYLAYER
 62
    8
 10
-399.6275775332761
 20
-101.2558780862601
 30
0
  0
VERTEX
  5
232
  8
FIXTURES
  6
BYLAYER
 62
    8
 10
-399.598731538179
 20
-101.2290245133918
 30
0
  0
VERTEX
  5
233
  8
FIXTURES
  6
BYLAYER
 62
    8
 10
-399.5705603327515
 20
-101.2014806557563
 30
0
  0
VERTEX
  5
234
  8
FIXTURES
  6
BYLAYER
 62
    8
 10
-399.5430710747751
 20
-101.1732564550475
 30
0
  0
VERTEX
  5
235
  8
FIXTURES
  6
BYLAYER
 62
    8
 10
-399.5162730102456
 20
-101.1443595377496
 30
0
  0
VERTEX
  5
236
  8
FIXTURES
  6
BYLAYER
 62
    8
 10
-399.490175907209
 20
-101.1147969517624
 30
0
  0
VERTEX
  5
237
  8
FIXTURES
  6
BYLAYER
 62
    8
 10
-399.4647895337257
 20
-101.0845757448114
 30
0
  0
VERTEX
  5
238
  8
FIXTURES
  6
BYLAYER
 62
    8
 10
-399.4401236578269
 20
-101.0537029646803
 30
0
  0
VERTEX
  5
239
  8
FIXTURES
  6
BYLAYER
 62
    8
 10
-399.4161880475876
 20
-101.0221856592689
 30
0
  0
VERTEX
  5
23A
  8
FIXTURES
  6
BYLAYER
 62
    8
 10
-399.3929924710392
 20
-100.9900308762444
 30
0
  0
VERTEX
  5
23B
  8
FIXTURES
  6
BYLAYER
 62
    8
 10
-399.3705466962419
 20
-100.9572456635069
 30
0
  0
VERTEX
  5
23C
  8
FIXTURES
  6
BYLAYER
 62
    8
 10
-399.3488622305449
 20
-100.9238409446552
 30
0
  0
VERTEX
  5
23D
  8
FIXTURES
  6
BYLAYER
 62
    8
 10
-399.3279575385386
 20
-100.8898431466077
 30
0
  0
VERTEX
  5
23E
  8
FIXTURES
  6
BYLAYER
 62
    8
 10
-399.3078528241458
 20
-100.8552825722145
 30
0
  0
VERTEX
  5
23F
  8
FIXTURES
  6
BYLAYER
 62
    8
 10
-399.2885682912311
 20
-100.8201895242091
 30
0
  0
VERTEX
  5
240
  8
FIXTURES
  6
BYLAYER
 62
    8
 10
-399.2701241437171
 20
-100.7845943053835
 30
0
  0
VERTEX
  5
241
  8
FIXTURES
  6
BYLAYER
 62
    8
 10
-399.2525405854976
 20
-100.7485272184713
 30
0
  0
VERTEX
  5
242
  8
FIXTURES
  6
BYLAYER
 62
    8
 10
-399.2358378204663
 20
-100.7120185663807
 30
0
  0
VERTEX
  5
243
  8
FIXTURES
  6
BYLAYER
 62
    8
 10
-399.2200360525312
 20
-100.6750986517873
 30
0
  0
VERTEX
  5
244
  8
FIXTURES
  6
BYLAYER
 62
    8
 10
-399.2051557678933
 20
-100.6378498552367
 30
0
  0
VERTEX
  5
245
  8
FIXTURES
  6
BYLAYER
 62
    8
 10
-399.1912185819965
 20
-100.6005628678831
 30
0
  0
VERTEX
  5
246
  8
FIXTURES
  6
BYLAYER
 62
    8
 10
-399.1782463926211
 20
-100.5635804586927
 30
0
  0
VERTEX
  5
247
  8
FIXTURES
  6
BYLAYER
 62
    8
 10
-399.1662610975036
 20
-100.5272453965736
 30
0
  0
VERTEX
  5
248
  8
FIXTURES
  6
BYLAYER
 62
    8
 10
-399.1552845944243
 20
-100.4919004504336
 30
0
  0
VERTEX
  5
249
  8
FIXTURES
  6
BYLAYER
 62
    8
 10
-399.1453387811198
 20
-100.4578883891809
 30
0
  0
VERTEX
  5
24A
  8
FIXTURES
  6
BYLAYER
 62
    8
 10
-399.1364455553703
 20
-100.4255519817816
 30
0
  0
VERTEX
  5
24B
  8
FIXTURES
  6
BYLAYER
 62
    8
 10
-399.1286268149415
 20
-100.3952339971438
 30
0
  0
VERTEX
  5
24C
  8
FIXTURES
  6
BYLAYER
 62
    8
 10
-399.1218853891187
 20
-100.36115964083
 30
0
  0
VERTEX
  5
24D
  8
FIXTURES
  6
BYLAYER
 62
    8
 10
-399.116147833367
 20
-100.2930838650209
 30
0
  0
VERTEX
  5
24E
  8
FIXTURES
  6
BYLAYER
 62
    8
 10
-399.1113216347294
 20
-100.1546440585516
 30
0
  0
VERTEX
  5
24F
  8
FIXTURES
  6
BYLAYER
 62
    8
 10
-399.1073142802052
 20
-99.90947761031566
 30
0
  0
VERTEX
  5
250
  8
FIXTURES
  6
BYLAYER
 62
    8
 10
-399.1040332568082
 20
-99.52122190914815
 30
0
  0
VERTEX
  5
251
  8
FIXTURES
  6
BYLAYER
 62
    8
 10
-399.1013860515523
 20
-98.9535143438261
 30
0
  0
VERTEX
  5
252
  8
FIXTURES
  6
BYLAYER
 62
    8
 10
-399.0992801514658
 20
-98.16999230330111
 30
0
  0
VERTEX
  5
253
  8
FIXTURES
  6
BYLAYER
 62
    8
 10
-399.0976230435626
 20
-97.13429317635018
 30
0
  0
VERTEX
  5
254
  8
FIXTURES
  6
BYLAYER
 62
    8
 10
-399.0963503731327
 20
-95.82808625767939
 30
0
  0
VERTEX
  5
255
  8
FIXTURES
  6
BYLAYER
 62
    8
 10
-399.0955104186578
 20
-94.30516846507089
 30
0
  0
VERTEX
  5
256
  8
FIXTURES
  6
BYLAYER
 62
    8
 10
-399.0951796168811
 20
-92.63736862235237
 30
0
  0
VERTEX
  5
257
  8
FIXTURES
  6
BYLAYER
 62
    8
 10
-399.0954344045604
 20
-90.89651555311866
 30
0
  0
VERTEX
  5
258
  8
FIXTURES
  6
BYLAYER
 62
    8
 10
-399.0963512184535
 20
-89.15443808102282
 30
0
  0
VERTEX
  5
259
  8
FIXTURES
  6
BYLAYER
 62
    8
 10
-399.0980064953037
 20
-87.48296502989251
 30
0
  0
VERTEX
  5
25A
  8
FIXTURES
  6
BYLAYER
 62
    8
 10
-399.1004766718688
 20
-85.95392522326438
 30
0
  0
VERTEX
  5
25B
  8
FIXTURES
  6
BYLAYER
 62
    8
 10
-399.1038381848921
 20
-84.63914748484967
 30
0
  0
VERTEX
  5
25C
  8
FIXTURES
  6
BYLAYER
 62
    8
 10
-399.1081547717476
 20
-83.59253399888985
 30
0
  0
VERTEX
  5
25D
  8
FIXTURES
  6
BYLAYER
 62
    8
 10
-399.1134393721877
 20
-82.79628039128147
 30
0
  0
VERTEX
  5
25E
  8
FIXTURES
  6
BYLAYER
 62
    8
 10
-399.1196922265372
 20
-82.21465564839309
 30
0
  0
VERTEX
  5
25F
  8
FIXTURES
  6
BYLAYER
 62
    8
 10
-399.1269135751645
 20
-81.81192875676788
 30
0
  0
VERTEX
  5
260
  8
FIXTURES
  6
BYLAYER
 62
    8
 10
-399.1351036584092
 20
-81.55236870271619
 30
0
  0
VERTEX
  5
261
  8
FIXTURES
  6
BYLAYER
 62
    8
 10
-399.1442627166398
 20
-81.40024447272299
 30
0
  0
VERTEX
  5
262
  8
FIXTURES
  6
BYLAYER
 62
    8
 10
-399.1543909902102
 20
-81.31982505321503
 30
0
  0
VERTEX
  5
263
  8
FIXTURES
  6
BYLAYER
 62
    8
 10
-399.1654887194454
 20
-81.27537943056086
 30
0
  0
VERTEX
  5
264
  8
FIXTURES
  6
BYLAYER
 62
    8
 10
-399.1775537590293
 20
-81.23713743378175
 30
0
  0
VERTEX
  5
265
  8
FIXTURES
  6
BYLAYER
 62
    8
 10
-399.1905744208489
 20
-81.19917226204416
 30
0
  0
VERTEX
  5
266
  8
FIXTURES
  6
BYLAYER
 62
    8
 10
-399.2045366310922
 20
-81.16151795716723
 30
0
  0
VERTEX
  5
267
  8
FIXTURES
  6
BYLAYER
 62
    8
 10
-399.2194263160054
 20
-81.12420856091194
 30
0
  0
VERTEX
  5
268
  8
FIXTURES
  6
BYLAYER
 62
    8
 10
-399.2352294017473
 20
-81.08727811509743
 30
0
  0
VERTEX
  5
269
  8
FIXTURES
  6
BYLAYER
 62
    8
 10
-399.2519318145496
 20
-81.05076066142647
 30
0
  0
VERTEX
  5
26A
  8
FIXTURES
  6
BYLAYER
 62
    8
 10
-399.2695194806147
 20
-81.01469024165999
 30
0
  0
VERTEX
  5
26B
  8
FIXTURES
  6
BYLAYER
 62
    8
 10
-399.2879783261451
 20
-80.97910089767538
 30
0
  0
VERTEX
  5
26C
  8
FIXTURES
  6
BYLAYER
 62
    8
 10
-399.307293095655
 20
-80.94402463833103
 30
0
  0
VERTEX
  5
26D
  8
FIXTURES
  6
BYLAYER
 62
    8
 10
-399.3274438069348
 20
-80.90948534145718
 30
0
  0
VERTEX
  5
26E
  8
FIXTURES
  6
BYLAYER
 62
    8
 10
-399.3484092960862
 20
-80.87550485192332
 30
0
  0
VERTEX
  5
26F
  8
FIXTURES
  6
BYLAYER
 62
    8
 10
-399.3701683992113
 20
-80.84210501465714
 30
0
  0
VERTEX
  5
270
  8
FIXTURES
  6
BYLAYER
 62
    8
 10
-399.3926999524265
 20
-80.80930767458631
 30
0
  0
VERTEX
  5
271
  8
FIXTURES
  6
BYLAYER
 62
    8
 10
-399.4159827918193
 20
-80.77713467669673
 30
0
  0
VERTEX
  5
272
  8
FIXTURES
  6
BYLAYER
 62
    8
 10
-399.4399957534915
 20
-80.7456078659161
 30
0
  0
VERTEX
  5
273
  8
FIXTURES
  6
BYLAYER
 62
    8
 10
-399.4647176735598
 20
-80.71474908711389
 30
0
  0
VERTEX
  5
274
  8
FIXTURES
  6
BYLAYER
 62
    8
 10
-399.4901308651752
 20
-80.68457645538729
 30
0
  0
VERTEX
  5
275
  8
FIXTURES
  6
BYLAYER
 62
    8
 10
-399.5162315497437
 20
-80.65509316610405
 30
0
  0
VERTEX
  5
276
  8
FIXTURES
  6
BYLAYER
 62
    8
 10
-399.5430194257351
 20
-80.62629868474323
 30
0
  0
VERTEX
  5
277
  8
FIXTURES
  6
BYLAYER
 62
    8
 10
-399.5704941916338
 20
-80.59819247690029
 30
0
  0
VERTEX
  5
278
  8
FIXTURES
  6
BYLAYER
 62
    8
 10
-399.5986555458803
 20
-80.57077400799608
 30
0
  0
VERTEX
  5
279
  8
FIXTURES
  6
BYLAYER
 62
    8
 10
-399.6275031869591
 20
-80.54404274356784
 30
0
  0
VERTEX
  5
27A
  8
FIXTURES
  6
BYLAYER
 62
    8
 10
-399.6570368133252
 20
-80.51799814915285
 30
0
  0
VERTEX
  5
27B
  8
FIXTURES
  6
BYLAYER
 62
    8
 10
-399.6872561234632
 20
-80.49263969023013
 30
0
  0
VERTEX
  5
27C
  8
FIXTURES
  6
BYLAYER
 62
    8
 10
-399.7181572271656
 20
-80.46797038655495
 30
0
  0
VERTEX
  5
27D
  8
FIXTURES
  6
BYLAYER
 62
    8
 10
-399.7497218796489
 20
-80.44400747452164
 30
0
  0
VERTEX
  5
27E
  8
FIXTURES
  6
BYLAYER
 62
    8
 10
-399.7819282474666
 20
-80.42077174485894
 30
0
  0
VERTEX
  5
27F
  8
FIXTURES
  6
BYLAYER
 62
    8
 10
-399.8147544971725
 20
-80.39828398829559
 30
0
  0
VERTEX
  5
280
  8
FIXTURES
  6
BYLAYER
 62
    8
 10
-399.8481787953206
 20
-80.37656499556033
 30
0
  0
VERTEX
  5
281
  8
FIXTURES
  6
BYLAYER
 62
    8
 10
-399.8821793084498
 20
-80.35563555720728
 30
0
  0
VERTEX
  5
282
  8
FIXTURES
  6
BYLAYER
 62
    8
 10
-399.9167342031287
 20
-80.33551646408159
 30
0
  0
VERTEX
  5
283
  8
FIXTURES
  6
BYLAYER
 62
    8
 10
-399.9518216458964
 20
-80.3162285067956
 30
0
  0
VERTEX
  5
284
  8
FIXTURES
  6
BYLAYER
 62
    8
 10
-399.9874178057507
 20
-80.29779134120326
 30
0
  0
VERTEX
  5
285
  8
FIXTURES
  6
BYLAYER
 62
    8
 10
-400.0234908615093
 20
-80.28022008377593
 30
0
  0
VERTEX
  5
286
  8
FIXTURES
  6
BYLAYER
 62
    8
 10
-400.0600069944194
 20
-80.26352871605195
 30
0
  0
VERTEX
  5
287
  8
FIXTURES
  6
BYLAYER
 62
    8
 10
-400.0969323856989
 20
-80.2477312196861
 30
0
  0
VERTEX
  5
288
  8
FIXTURES
  6
BYLAYER
 62
    8
 10
-400.1342332166241
 20
-80.23284157627495
 30
0
  0
VERTEX
  5
289
  8
FIXTURES
  6
BYLAYER
 62
    8
 10
-400.1718756684422
 20
-80.21887376729865
 30
0
  0
VERTEX
  5
28A
  8
FIXTURES
  6
BYLAYER
 62
    8
 10
-400.2098259223712
 20
-80.20584177447017
 30
0
  0
VERTEX
  5
28B
  8
FIXTURES
  6
BYLAYER
 62
    8
 10
-400.2480501596874
 20
-80.19375957932789
 30
0
  0
VERTEX
  5
28C
  8
FIXTURES
  6
BYLAYER
 62
    8
 10
-400.2911230600585
 20
-80.18262768228306
 30
0
  0
VERTEX
  5
28D
  8
FIXTURES
  6
BYLAYER
 62
    8
 10
-400.3620532968635
 20
-80.17239265877288
 30
0
  0
VERTEX
  5
28E
  8
FIXTURES
  6
BYLAYER
 62
    8
 10
-400.4884580419312
 20
-80.16298760310747
 30
0
  0
VERTEX
  5
28F
  8
FIXTURES
  6
BYLAYER
 62
    8
 10
-400.6979544670612
 20
-80.15434560953872
 30
0
  0
VERTEX
  5
290
  8
FIXTURES
  6
BYLAYER
 62
    8
 10
-401.0181597440678
 20
-80.14639977237675
 30
0
  0
VERTEX
  5
291
  8
FIXTURES
  6
BYLAYER
 62
    8
 10
-401.4766910447797
 20
-80.13908318581525
 30
0
  0
VERTEX
  5
292
  8
FIXTURES
  6
BYLAYER
 62
    8
 10
-402.1011655410111
 20
-80.13232894416433
 30
0
  0
VERTEX
  5
293
  8
FIXTURES
  6
BYLAYER
 62
    8
 10
-402.9192004045763
 20
-80.12607014167588
 30
0
  0
VERTEX
  5
294
  8
FIXTURES
  6
BYLAYER
 62
    8
 10
-403.9445920616563
 20
-80.12022404110758
 30
0
  0
VERTEX
  5
295
  8
FIXTURES
  6
BYLAYER
 62
    8
 10
-405.1358539559733
 20
-80.1146445790655
 30
0
  0
VERTEX
  5
296
  8
FIXTURES
  6
BYLAYER
 62
    8
 10
-406.4376787856163
 20
-80.1091698606615
 30
0
  0
VERTEX
  5
297
  8
FIXTURES
  6
BYLAYER
 62
    8
 10
-407.7947592486453
 20
-80.10363799094921
 30
0
  0
VERTEX
  5
298
  8
FIXTURES
  6
BYLAYER
 62
    8
 10
-409.1517880431929
 20
-80.09788707504049
 30
0
  0
VERTEX
  5
299
  8
FIXTURES
  6
BYLAYER
 62
    8
 10
-410.4534578673047
 20
-80.09175521798898
 30
0
  0
VERTEX
  5
29A
  8
FIXTURES
  6
BYLAYER
 62
    8
 10
-411.6444614190987
 20
-80.08508052490652
 30
0
  0
VERTEX
  5
29B
  8
FIXTURES
  6
BYLAYER
 62
    8
 10
-412.6694913966348
 20
-80.07770110084675
 30
0
  0
VERTEX
  5
29C
  8
FIXTURES
  6
BYLAYER
 62
    8
 10
-413.4870605072792
 20
-80.06948070420185
 30
0
  0
VERTEX
  5
29D
  8
FIXTURES
  6
BYLAYER
 62
    8
 10
-414.1109614954185
 20
-80.060385706136
 30
0
  0
VERTEX
  5
29E
  8
FIXTURES
  6
BYLAYER
 62
    8
 10
-414.5688071146869
 20
-80.05040813109372
 30
0
  0
VERTEX
  5
29F
  8
FIXTURES
  6
BYLAYER
 62
    8
 10
-414.8882101187482
 20
-80.03954000357771
 30
0
  0
VERTEX
  5
2A0
  8
FIXTURES
  6
BYLAYER
 62
    8
 10
-415.0967832612514
 20
-80.0277733480325
 30
0
  0
VERTEX
  5
2A1
  8
FIXTURES
  6
BYLAYER
 62
    8
 10
-415.2221392958309
 20
-80.01510018890258
 30
0
  0
VERTEX
  5
2A2
  8
FIXTURES
  6
BYLAYER
 62
    8
 10
-415.2918909761356
 20
-80.00151255063247
 30
0
  0
VERTEX
  5
2A3
  8
FIXTURES
  6
BYLAYER
 62
    8
 10
-415.3336510558147
 20
-79.98700245772488
 30
0
  0
VERTEX
  5
2A4
  8
FIXTURES
  6
BYLAYER
 62
    8
 10
-415.3704250338342
 20
-79.97156665183138
 30
0
  0
VERTEX
  5
2A5
  8
FIXTURES
  6
BYLAYER
 62
    8
 10
-415.4067893903557
 20
-79.95522074372275
 30
0
  0
VERTEX
  5
2A6
  8
FIXTURES
  6
BYLAYER
 62
    8
 10
-415.4427133509016
 20
-79.93798506131861
 30
0
  0
VERTEX
  5
2A7
  8
FIXTURES
  6
BYLAYER
 62
    8
 10
-415.4781661409361
 20
-79.91987993253861
 30
0
  0
VERTEX
  5
2A8
  8
FIXTURES
  6
BYLAYER
 62
    8
 10
-415.5131169859524
 20
-79.90092568536056
 30
0
  0
VERTEX
  5
2A9
  8
FIXTURES
  6
BYLAYER
 62
    8
 10
-415.5475351114728
 20
-79.88114264776232
 30
0
  0
VERTEX
  5
2AA
  8
FIXTURES
  6
BYLAYER
 62
    8
 10
-415.5813897429471
 20
-79.8605511476635
 30
0
  0
VERTEX
  5
2AB
  8
FIXTURES
  6
BYLAYER
 62
    8
 10
-415.6146501058975
 20
-79.83917151304195
 30
0
  0
VERTEX
  5
2AC
  8
FIXTURES
  6
BYLAYER
 62
    8
 10
-415.6472894473263
 20
-79.81702247209614
 30
0
  0
VERTEX
  5
2AD
  8
FIXTURES
  6
BYLAYER
 62
    8
 10
-415.6792971003742
 20
-79.79411635379074
 30
0
  0
VERTEX
  5
2AE
  8
FIXTURES
  6
BYLAYER
 62
    8
 10
-415.7106664197054
 20
-79.77046388754388
 30
0
  0
VERTEX
  5
2AF
  8
FIXTURES
  6
BYLAYER
 62
    8
 10
-415.7413907599694
 20
-79.74607580259908
 30
0
  0
VERTEX
  5
2B0
  8
FIXTURES
  6
BYLAYER
 62
    8
 10
-415.7714634758304
 20
-79.72096282825805
 30
0
  0
VERTEX
  5
2B1
  8
FIXTURES
  6
BYLAYER
 62
    8
 10
-415.8008779219672
 20
-79.69513569376431
 30
0
  0
VERTEX
  5
2B2
  8
FIXTURES
  6
BYLAYER
 62
    8
 10
-415.8296274530148
 20
-79.66860512847779
 30
0
  0
VERTEX
  5
2B3
  8
FIXTURES
  6
BYLAYER
 62
    8
 10
-415.8577054236521
 20
-79.641381861642
 30
0
  0
VERTEX
  5
2B4
  8
FIXTURES
  6
BYLAYER
 62
    8
 10
-415.8851046814962
 20
-79.61347602662863
 30
0
  0
VERTEX
  5
2B5
  8
FIXTURES
  6
BYLAYER
 62
    8
 10
-415.9118160459911
 20
-79.58489537291462
 30
0
  0
VERTEX
  5
2B6
  8
FIXTURES
  6
BYLAYER
 62
    8
 10
-415.9378298295342
 20
-79.55564705410507
 30
0
  0
VERTEX
  5
2B7
  8
FIXTURES
  6
BYLAYER
 62
    8
 10
-415.9631363445224
 20
-79.52573822374688
 30
0
  0
VERTEX
  5
2B8
  8
FIXTURES
  6
BYLAYER
 62
    8
 10
-415.9877259033528
 20
-79.49517603538698
 30
0
  0
VERTEX
  5
2B9
  8
FIXTURES
  6
BYLAYER
 62
    8
 10
-416.0115888184519
 20
-79.46396764263045
 30
0
  0
VERTEX
  5
2BA
  8
FIXTURES
  6
BYLAYER
 62
    8
 10
-416.034715402202
 20
-79.432120198966
 30
0
  0
VERTEX
  5
2BB
  8
FIXTURES
  6
BYLAYER
 62
    8
 10
-416.0570959670004
 20
-79.39964085805696
 30
0
  0
VERTEX
  5
2BC
  8
FIXTURES
  6
BYLAYER
 62
    8
 10
-416.0787190470292
 20
-79.36654063744936
 30
0
  0
VERTEX
  5
2BD
  8
FIXTURES
  6
BYLAYER
 62
    8
 10
-416.0995660634362
 20
-79.33284601109335
 30
0
  0
VERTEX
  5
2BE
  8
FIXTURES
  6
BYLAYER
 62
    8
 10
-416.1196166591835
 20
-79.29858731699642
 30
0
  0
VERTEX
  5
2BF
  8
FIXTURES
  6
BYLAYER
 62
    8
 10
-416.1388504771894
 20
-79.26379489310784
 30
0
  0
VERTEX
  5
2C0
  8
FIXTURES
  6
BYLAYER
 62
    8
 10
-416.1572471603868
 20
-79.22849907755153
 30
0
  0
VERTEX
  5
2C1
  8
FIXTURES
  6
BYLAYER
 62
    8
 10
-416.1747863517376
 20
-79.19273020821856
 30
0
  0
VERTEX
  5
2C2
  8
FIXTURES
  6
BYLAYER
 62
    8
 10
-416.1914476941602
 20
-79.15651862317463
 30
0
  0
VERTEX
  5
2C3
  8
FIXTURES
  6
BYLAYER
 62
    8
 10
-416.2072108305874
 20
-79.11989466036903
 30
0
  0
VERTEX
  5
2C4
  8
FIXTURES
  6
BYLAYER
 62
    8
 10
-416.2220551438659
 20
-79.08294037019368
 30
0
  0
VERTEX
  5
2C5
  8
FIXTURES
  6
BYLAYER
 62
    8
 10
-416.2359589765256
 20
-79.04594465222908
 30
0
  0
VERTEX
  5
2C6
  8
FIXTURES
  6
BYLAYER
 62
    8
 10
-416.2489004109812
 20
-79.00924811844015
 30
0
  0
VERTEX
  5
2C7
  8
FIXTURES
  6
BYLAYER
 62
    8
 10
-416.2608575296472
 20
-78.97319138079183
 30
0
  0
VERTEX
  5
2C8
  8
FIXTURES
  6
BYLAYER
 62
    8
 10
-416.2718084149674
 20
-78.93811505130725
 30
0
  0
VERTEX
  5
2C9
  8
FIXTURES
  6
BYLAYER
 62
    8
 10
-416.2817311493563
 20
-78.90435974189313
 30
0
  0
VERTEX
  5
2CA
  8
FIXTURES
  6
BYLAYER
 62
    8
 10
-416.2906038152287
 20
-78.8722660644562
 30
0
  0
VERTEX
  5
2CB
  8
FIXTURES
  6
BYLAYER
 62
    8
 10
-416.2984044950281
 20
-78.8421746310778
 30
0
  0
VERTEX
  5
2CC
  8
FIXTURES
  6
BYLAYER
 62
    8
 10
-416.305130666442
 20
-78.76285203226143
 30
0
  0
VERTEX
  5
2CD
  8
FIXTURES
  6
BYLAYER
 62
    8
 10
-416.3108573883219
 20
-78.37676877283957
 30
0
  0
VERTEX
  5
2CE
  8
FIXTURES
  6
BYLAYER
 62
    8
 10
-416.315679114763
 20
-77.37482133635785
 30
0
  0
VERTEX
  5
2CF
  8
FIXTURES
  6
BYLAYER
 62
    8
 10
-416.3196902998898
 20
-75.44790620624553
 30
0
  0
VERTEX
  5
2D0
  8
FIXTURES
  6
BYLAYER
 62
    8
 10
-416.3229853978119
 20
-72.28691986599006
 30
0
  0
VERTEX
  5
2D1
  8
FIXTURES
  6
BYLAYER
 62
    8
 10
-416.3256588626391
 20
-67.58275879907887
 30
0
  0
VERTEX
  5
2D2
  8
FIXTURES
  6
BYLAYER
 62
    8
 10
-416.3278051484958
 20
-61.02631948894123
 30
0
  0
VERTEX
  5
2D3
  8
FIXTURES
  6
BYLAYER
 62
    8
 10
-416.3295187094773
 20
-52.30849841906456
 30
0
  0
VERTEX
  5
2D4
  8
FIXTURES
  6
BYLAYER
 62
    8
 10
-416.3308652354463
 20
-41.27459525433369
 30
0
  0
VERTEX
  5
2D5
  8
FIXTURES
  6
BYLAYER
 62
    8
 10
-416.3317953592341
 20
-28.38752238522284
 30
0
  0
VERTEX
  5
2D6
  8
FIXTURES
  6
BYLAYER
 62
    8
 10
-416.3322309493669
 20
-14.26459538360359
 30
0
  0
VERTEX
  5
2D7
  8
FIXTURES
  6
BYLAYER
 62
    8
 10
-416.3320938744437
 20
0.4768701786524616
 30
0
  0
VERTEX
  5
2D8
  8
FIXTURES
  6
BYLAYER
 62
    8
 10
-416.331306003005
 20
15.21955872973194
 30
0
  0
VERTEX
  5
2D9
  8
FIXTURES
  6
BYLAYER
 62
    8
 10
-416.3297892036062
 20
29.34615469770506
 30
0
  0
VERTEX
  5
2DA
  8
FIXTURES
  6
BYLAYER
 62
    8
 10
-416.327465344817
 20
42.23934251070023
 30
0
  0
VERTEX
  5
2DB
  8
FIXTURES
  6
BYLAYER
 62
    8
 10
-416.3242562952073
 20
53.28180659684585
 30
0
  0
VERTEX
  5
2DC
  8
FIXTURES
  6
BYLAYER
 62
    8
 10
-416.3200964101852
 20
62.01052928168792
 30
0
  0
VERTEX
  5
2DD
  8
FIXTURES
  6
BYLAYER
 62
    8
 10
-416.3149699926289
 20
68.57968447986059
 30
0
  0
VERTEX
  5
2DE
  8
FIXTURES
  6
BYLAYER
 62
    8
 10
-416.3088738322986
 20
73.2977440035902
 30
0
  0
VERTEX
  5
2DF
  8
FIXTURES
  6
BYLAYER
 62
    8
 10
-416.3018047189253
 20
76.47317966498667
 30
0
  0
VERTEX
  5
2E0
  8
FIXTURES
  6
BYLAYER
 62
    8
 10
-416.2937594422692
 20
78.41446327610174
 30
0
  0
VERTEX
  5
2E1
  8
FIXTURES
  6
BYLAYER
 62
    8
 10
-416.2847347920615
 20
79.43006664904533
 30
0
  0
VERTEX
  5
2E2
  8
FIXTURES
  6
BYLAYER
 62
    8
 10
-416.2747275580623
 20
79.82846159598557
 30
0
  0
VERTEX
  5
2E3
  8
FIXTURES
  6
BYLAYER
 62
    8
 10
-416.2637345300027
 20
79.91811992897419
 30
0
  0
VERTEX
  5
2E4
  8
FIXTURES
  6
BYLAYER
 62
    8
 10
-416.2517554125079
 20
79.95609578117728
 30
0
  0
VERTEX
  5
2E5
  8
FIXTURES
  6
BYLAYER
 62
    8
 10
-416.2388015697361
 20
79.99377256975276
 30
0
  0
VERTEX
  5
2E6
  8
FIXTURES
  6
BYLAYER
 62
    8
 10
-416.2248872806813
 20
80.03111603291472
 30
0
  0
VERTEX
  5
2E7
  8
FIXTURES
  6
BYLAYER
 62
    8
 10
-416.2100268243521
 20
80.06809190887725
 30
0
  0
VERTEX
  5
2E8
  8
FIXTURES
  6
BYLAYER
 62
    8
 10
-416.1942344797862
 20
80.10466593579622
 30
0
  0
VERTEX
  5
2E9
  8
FIXTURES
  6
BYLAYER
 62
    8
 10
-416.1775245259778
 20
80.14080385188572
 30
0
  0
VERTEX
  5
2EA
  8
FIXTURES
  6
BYLAYER
 62
    8
 10
-416.1599112419499
 20
80.17647139535984
 30
0
  0
VERTEX
  5
2EB
  8
FIXTURES
  6
BYLAYER
 62
    8
 10
-416.1414089067257
 20
80.21163430443266
 30
0
  0
VERTEX
  5
2EC
  8
FIXTURES
  6
BYLAYER
 62
    8
 10
-416.1220331605437
 20
80.24626044207253
 30
0
  0
VERTEX
  5
2ED
  8
FIXTURES
  6
BYLAYER
 62
    8
 10
-416.1018050886778
 20
80.28032617084682
 30
0
  0
VERTEX
  5
2EE
  8
FIXTURES
  6
BYLAYER
 62
    8
 10
-416.0807471376174
 20
80.31380997784436
 30
0
  0
VERTEX
  5
2EF
  8
FIXTURES
  6
BYLAYER
 62
    8
 10
-416.0588817538519
 20
80.3466903505032
 30
0
  0
VERTEX
  5
2F0
  8
FIXTURES
  6
BYLAYER
 62
    8
 10
-416.036231383885
 20
80.37894577597035
 30
0
  0
VERTEX
  5
2F1
  8
FIXTURES
  6
BYLAYER
 62
    8
 10
-416.0128184742061
 20
80.41055474150926
 30
0
  0
VERTEX
  5
2F2
  8
FIXTURES
  6
BYLAYER
 62
    8
 10
-415.9886654713191
 20
80.44149573449977
 30
0
  0
VERTEX
  5
2F3
  8
FIXTURES
  6
BYLAYER
 62
    8
 10
-415.9637948217132
 20
80.4717472420889
 30
0
  0
VERTEX
  5
2F4
  8
FIXTURES
  6
BYLAYER
 62
    8
 10
-415.9382259993727
 20
80.50129195366753
 30
0
  0
VERTEX
  5
2F5
  8
FIXTURES
  6
BYLAYER
 62
    8
 10
-415.9119665882026
 20
80.53012936701998
 30
0
  0
VERTEX
  5
2F6
  8
FIXTURES
  6
BYLAYER
 62
    8
 10
-415.8850211995596
 20
80.55826318176696
 30
0
  0
VERTEX
  5
2F7
  8
FIXTURES
  6
BYLAYER
 62
    8
 10
-415.8573944448435
 20
80.58569709787844
 30
0
  0
VERTEX
  5
2F8
  8
FIXTURES
  6
BYLAYER
 62
    8
 10
-415.8290909354255
 20
80.61243481503334
 30
0
  0
VERTEX
  5
2F9
  8
FIXTURES
  6
BYLAYER
 62
    8
 10
-415.8001152826764
 20
80.63848003308522
 30
0
  0
VERTEX
  5
2FA
  8
FIXTURES
  6
BYLAYER
 62
    8
 10
-415.7704720979818
 20
80.663836451713
 30
0
  0
VERTEX
  5
2FB
  8
FIXTURES
  6
BYLAYER
 62
    8
 10
-415.7401659927127
 20
80.68850777082844
 30
0
  0
VERTEX
  5
2FC
  8
FIXTURES
  6
BYLAYER
 62
    8
 10
-415.7092044192395
 20
80.71249398810323
 30
0
  0
VERTEX
  5
2FD
  8
FIXTURES
  6
BYLAYER
 62
    8
 10
-415.677606193829
 20
80.73578029294731
 30
0
  0
VERTEX
  5
2FE
  8
FIXTURES
  6
BYLAYER
 62
    8
 10
-415.6453929737181
 20
80.75834817270515
 30
0
  0
VERTEX
  5
2FF
  8
FIXTURES
  6
BYLAYER
 62
    8
 10
-415.6125864161731
 20
80.78017911466304
 30
0
  0
VERTEX
  5
300
  8
FIXTURES
  6
BYLAYER
 62
    8
 10
-415.5792081784311
 20
80.80125460616546
 30
0
  0
VERTEX
  5
301
  8
FIXTURES
  6
BYLAYER
 62
    8
 10
-415.5452799177438
 20
80.82155613461509
 30
0
  0
VERTEX
  5
302
  8
FIXTURES
  6
BYLAYER
 62
    8
 10
-415.5108232913626
 20
80.84106518729823
 30
0
  0
VERTEX
  5
303
  8
FIXTURES
  6
BYLAYER
 62
    8
 10
-415.4758599565248
 20
80.85976325150114
 30
0
  0
VERTEX
  5
304
  8
FIXTURES
  6
BYLAYER
 62
    8
 10
-415.4404133310891
 20
80.87763273634482
 30
0
  0
VERTEX
  5
305
  8
FIXTURES
  6
BYLAYER
 62
    8
 10
-415.4045138753427
 20
80.8946597375907
 30
0
  0
VERTEX
  5
306
  8
FIXTURES
  6
BYLAYER
 62
    8
 10
-415.3681938101363
 20
80.91083127283491
 30
0
  0
VERTEX
  5
307
  8
FIXTURES
  6
BYLAYER
 62
    8
 10
-415.3314853563788
 20
80.92613435949897
 30
0
  0
VERTEX
  5
308
  8
FIXTURES
  6
BYLAYER
 62
    8
 10
-415.2944207349501
 20
80.94055601512082
 30
0
  0
VERTEX
  5
309
  8
FIXTURES
  6
BYLAYER
 62
    8
 10
-415.2570321667008
 20
80.95408325729659
 30
0
  0
VERTEX
  5
30A
  8
FIXTURES
  6
BYLAYER
 62
    8
 10
-415.2193518725398
 20
80.96670310350601
 30
0
  0
VERTEX
  5
30B
  8
FIXTURES
  6
BYLAYER
 62
    8
 10
-415.1814120733179
 20
80.9784025712288
 30
0
  0
VERTEX
  5
30C
  8
FIXTURES
  6
BYLAYER
 62
    8
 10
-415.1386415023444
 20
80.98918201529887
 30
0
  0
VERTEX
  5
30D
  8
FIXTURES
  6
BYLAYER
 62
    8
 10
-415.0680549424142
 20
80.99909513932653
 30
0
  0
VERTEX
  5
30E
  8
FIXTURES
  6
BYLAYER
 62
    8
 10
-414.9420636887662
 20
81.00820898421807
 30
0
  0
VERTEX
  5
30F
  8
FIXTURES
  6
BYLAYER
 62
    8
 10
-414.7330790366104
 20
81.01659059093799
 30
0
  0
VERTEX
  5
310
  8
FIXTURES
  6
BYLAYER
 62
    8
 10
-414.4135122812004
 20
81.02430700027617
 30
0
  0
VERTEX
  5
311
  8
FIXTURES
  6
BYLAYER
 62
    8
 10
-413.9557747177314
 20
81.03142525319709
 30
0
  0
VERTEX
  5
312
  8
FIXTURES
  6
BYLAYER
 62
    8
 10
-413.3322776414279
 20
81.03801239060704
 30
0
  0
VERTEX
  5
313
  8
FIXTURES
  6
BYLAYER
 62
    8
 10
-412.515432347529
 20
81.04413545341231
 30
0
  0
VERTEX
  5
314
  8
FIXTURES
  6
BYLAYER
 62
    8
 10
-411.491456611795
 20
81.04987573577091
 30
0
  0
VERTEX
  5
315
  8
FIXTURES
  6
BYLAYER
 62
    8
 10
-410.3017941321887
 20
81.05537154525518
 30
0
  0
VERTEX
  5
316
  8
FIXTURES
  6
BYLAYER
 62
    8
 10
-409.0016950872232
 20
81.0607754427474
 30
0
  0
VERTEX
  5
317
  8
FIXTURES
  6
BYLAYER
 62
    8
 10
-407.6464096554264
 20
81.0662399889552
 30
0
  0
VERTEX
  5
318
  8
FIXTURES
  6
BYLAYER
 62
    8
 10
-406.2911880152969
 20
81.07191774487728
 30
0
  0
VERTEX
  5
319
  8
FIXTURES
  6
BYLAYER
 62
    8
 10
-404.9912803453481
 20
81.07796127122128
 30
0
  0
VERTEX
  5
31A
  8
FIXTURES
  6
BYLAYER
 62
    8
 10
-403.8019368241075
 20
81.08452312892769
 30
0
  0
VERTEX
  5
31B
  8
FIXTURES
  6
BYLAYER
 62
    8
 10
-402.7784076300886
 20
81.09175587882055
 30
0
  0
VERTEX
  5
31C
  8
FIXTURES
  6
BYLAYER
 62
    8
 10
-401.9621327971254
 20
81.09979034727439
 30
0
  0
VERTEX
  5
31D
  8
FIXTURES
  6
BYLAYER
 62
    8
 10
-401.3393117804517
 20
81.10867042321479
 30
0
  0
VERTEX
  5
31E
  8
FIXTURES
  6
BYLAYER
 62
    8
 10
-400.8823338906077
 20
81.11841826105956
 30
0
  0
VERTEX
  5
31F
  8
FIXTURES
  6
BYLAYER
 62
    8
 10
-400.5635884381772
 20
81.12905601528473
 30
0
  0
VERTEX
  5
320
  8
FIXTURES
  6
BYLAYER
 62
    8
 10
-400.3554647336859
 20
81.14060584030813
 30
0
  0
VERTEX
  5
321
  8
FIXTURES
  6
BYLAYER
 62
    8
 10
-400.2303520877031
 20
81.15308989060577
 30
0
  0
VERTEX
  5
322
  8
FIXTURES
  6
BYLAYER
 62
    8
 10
-400.1606398107833
 20
81.16653032065369
 30
0
  0
VERTEX
  5
323
  8
FIXTURES
  6
BYLAYER
 62
    8
 10
-400.1187172134814
 20
81.18094928486971
 30
0
  0
VERTEX
  5
324
  8
FIXTURES
  6
BYLAYER
 62
    8
 10
-400.0815818640694
 20
81.19636408786755
 30
0
  0
VERTEX
  5
325
  8
FIXTURES
  6
BYLAYER
 62
    8
 10
-400.0446643616451
 20
81.21277263475349
 30
0
  0
VERTEX
  5
326
  8
FIXTURES
  6
BYLAYER
 62
    8
 10
-400.0080035629944
 20
81.23016798088793
 30
0
  0
VERTEX
  5
327
  8
FIXTURES
  6
BYLAYER
 62
    8
 10
-399.9716383249179
 20
81.24854318157304
 30
0
  0
VERTEX
  5
328
  8
FIXTURES
  6
BYLAYER
 62
    8
 10
-399.9356075042451
 20
81.26789129205281
 30
0
  0
VERTEX
  5
329
  8
FIXTURES
  6
BYLAYER
 62
    8
 10
-399.8999499577476
 20
81.28820536768762
 30
0
  0
VERTEX
  5
32A
  8
FIXTURES
  6
BYLAYER
 62
    8
 10
-399.8647045422549
 20
81.30947846377967
 30
0
  0
VERTEX
  5
32B
  8
FIXTURES
  6
BYLAYER
 62
    8
 10
-399.8299101145676
 20
81.33170363551471
 30
0
  0
VERTEX
  5
32C
  8
FIXTURES
  6
BYLAYER
 62
    8
 10
-399.7956047821062
 20
81.35487133398419
 30
0
  0
VERTEX
  5
32D
  8
FIXTURES
  6
BYLAYER
 62
    8
 10
-399.7618236548733
 20
81.37896159291267
 30
0
  0
VERTEX
  5
32E
  8
FIXTURES
  6
BYLAYER
 62
    8
 10
-399.7286010935059
 20
81.40395184175577
 30
0
  0
VERTEX
  5
32F
  8
FIXTURES
  6
BYLAYER
 62
    8
 10
-399.695971458641
 20
81.42981950985268
 30
0
  0
VERTEX
  5
330
  8
FIXTURES
  6
BYLAYER
 62
    8
 10
-399.6639691109012
 20
81.45654202665901
 30
0
  0
VERTEX
  5
331
  8
FIXTURES
  6
BYLAYER
 62
    8
 10
-399.6326284109236
 20
81.48409682163037
 30
0
  0
VERTEX
  5
332
  8
FIXTURES
  6
BYLAYER
 62
    8
 10
-399.6019837193307
 20
81.51246132416418
 30
0
  0
VERTEX
  5
333
  8
FIXTURES
  6
BYLAYER
 62
    8
 10
-399.5720693967596
 20
81.54161296371603
 30
0
  0
VERTEX
  5
334
  8
FIXTURES
  6
BYLAYER
 62
    8
 10
-399.5429178386257
 20
81.57152720488375
 30
0
  0
VERTEX
  5
335
  8
FIXTURES
  6
BYLAYER
 62
    8
 10
-399.5145535794727
 20
81.60217165306676
 30
0
  0
VERTEX
  5
336
  8
FIXTURES
  6
BYLAYER
 62
    8
 10
-399.4869991885935
 20
81.63351194898132
 30
0
  0
VERTEX
  5
337
  8
FIXTURES
  6
BYLAYER
 62
    8
 10
-399.4602772353246
 20
81.66551373316906
 30
0
  0
VERTEX
  5
338
  8
FIXTURES
  6
BYLAYER
 62
    8
 10
-399.4344102889736
 20
81.69814264628803
 30
0
  0
VERTEX
  5
339
  8
FIXTURES
  6
BYLAYER
 62
    8
 10
-399.4094209188625
 20
81.73136432893807
 30
0
  0
VERTEX
  5
33A
  8
FIXTURES
  6
BYLAYER
 62
    8
 10
-399.3853316942987
 20
81.76514442183543
 30
0
  0
VERTEX
  5
33B
  8
FIXTURES
  6
BYLAYER
 62
    8
 10
-399.3621651846188
 20
81.79944856546354
 30
0
  0
VERTEX
  5
33C
  8
FIXTURES
  6
BYLAYER
 62
    8
 10
-399.3399413544394
 20
81.83424165158067
 30
0
  0
VERTEX
  5
33D
  8
FIXTURES
  6
BYLAYER
 62
    8
 10
-399.318669749744
 20
81.86948557570577
 30
0
  0
VERTEX
  5
33E
  8
FIXTURES
  6
BYLAYER
 62
    8
 10
-399.2983573118254
 20
81.90514148451621
 30
0
  0
VERTEX
  5
33F
  8
FIXTURES
  6
BYLAYER
 62
    8
 10
-399.2790109819762
 20
81.94117052451475
 30
0
  0
VERTEX
  5
340
  8
FIXTURES
  6
BYLAYER
 62
    8
 10
-399.2606377015036
 20
81.97753384237876
 30
0
  0
VERTEX
  5
341
  8
FIXTURES
  6
BYLAYER
 62
    8
 10
-399.2432444116857
 20
82.01419258472743
 30
0
  0
VERTEX
  5
342
  8
FIXTURES
  6
BYLAYER
 62
    8
 10
-399.2268380538299
 20
82.05110789806349
 30
0
  0
VERTEX
  5
343
  8
FIXTURES
  6
BYLAYER
 62
    8
 10
-399.211425569214
 20
82.08824092912255
 30
0
  0
VERTEX
  5
344
  8
FIXTURES
  6
BYLAYER
 62
    8
 10
-399.1970135878073
 20
82.12550565967103
 30
0
  0
VERTEX
  5
345
  8
FIXTURES
  6
BYLAYER
 62
    8
 10
-399.1836074941821
 20
82.16262741264654
 30
0
  0
VERTEX
  5
346
  8
FIXTURES
  6
BYLAYER
 62
    8
 10
-399.171212361558
 20
82.19928434625035
 30
0
  0
VERTEX
  5
347
  8
FIXTURES
  6
BYLAYER
 62
    8
 10
-399.1598332631547
 20
82.23515461862553
 30
0
  0
VERTEX
  5
348
  8
FIXTURES
  6
BYLAYER
 62
    8
 10
-399.1494752722356
 20
82.26991638785694
 30
0
  0
VERTEX
  5
349
  8
FIXTURES
  6
BYLAYER
 62
    8
 10
-399.1401434619911
 20
82.30324781226227
 30
0
  0
VERTEX
  5
34A
  8
FIXTURES
  6
BYLAYER
 62
    8
 10
-399.1318429056701
 20
82.33482704986818
 30
0
  0
VERTEX
  5
34B
  8
FIXTURES
  6
BYLAYER
 62
    8
 10
-399.1245786765066
 20
82.36433225893416
 30
0
  0
VERTEX
  5
34C
  8
FIXTURES
  6
BYLAYER
 62
    8
 10
-399.1183402416209
 20
82.3975568729802
 30
0
  0
VERTEX
  5
34D
  8
FIXTURES
  6
BYLAYER
 62
    8
 10
-399.1130546438653
 20
82.4647554269759
 30
0
  0
VERTEX
  5
34E
  8
FIXTURES
  6
BYLAYER
 62
    8
 10
-399.1086333199491
 20
82.60229773132596
 30
0
  0
VERTEX
  5
34F
  8
FIXTURES
  6
BYLAYER
 62
    8
 10
-399.1049877066253
 20
82.84655359643511
 30
0
  0
VERTEX
  5
350
  8
FIXTURES
  6
BYLAYER
 62
    8
 10
-399.1020292406174
 20
83.23389283259166
 30
0
  0
VERTEX
  5
351
  8
FIXTURES
  6
BYLAYER
 62
    8
 10
-399.099669358664
 20
83.80068525020033
 30
0
  0
VERTEX
  5
352
  8
FIXTURES
  6
BYLAYER
 62
    8
 10
-399.0978194975032
 20
84.58330065966584
 30
0
  0
VERTEX
  5
353
  8
FIXTURES
  6
BYLAYER
 62
    8
 10
-399.0963910938735
 20
85.61810887139291
 30
0
  0
VERTEX
  5
354
  8
FIXTURES
  6
BYLAYER
 62
    8
 10
-399.0953232518659
 20
86.92344816727564
 30
0
  0
VERTEX
  5
355
  8
FIXTURES
  6
BYLAYER
 62
    8
 10
-399.0946657450404
 20
88.44553071574774
 30
0
  0
VERTEX
  5
356
  8
FIXTURES
  6
BYLAYER
 62
    8
 10
-399.094496014266
 20
90.1125371568487
 30
0
  0
VERTEX
  5
357
  8
FIXTURES
  6
BYLAYER
 62
    8
 10
-399.0948915004847
 20
91.85264813061804
 30
0
  0
VERTEX
  5
358
  8
FIXTURES
  6
BYLAYER
 62
    8
 10
-399.0959296445653
 20
93.59404427709524
 30
0
  0
VERTEX
  5
359
  8
FIXTURES
  6
BYLAYER
 62
    8
 10
-399.0976878874353
 20
95.26490623620339
 30
0
  0
VERTEX
  5
35A
  8
FIXTURES
  6
BYLAYER
 62
    8
 10
-399.1002436700073
 20
96.7934146480402
 30
0
  0
VERTEX
  5
35B
  8
FIXTURES
  6
BYLAYER
 62
    8
 10
-399.103674433165
 20
98.10775015264517
 30
0
  0
VERTEX
  5
35C
  8
FIXTURES
  6
BYLAYER
 62
    8
 10
-399.1080450708832
 20
99.15401639754418
 30
0
  0
VERTEX
  5
35D
  8
FIXTURES
  6
BYLAYER
 62
    8
 10
-399.1133702894149
 20
99.95000906067435
 30
0
  0
VERTEX
  5
35E
  8
FIXTURES
  6
BYLAYER
 62
    8
 10
-399.119652248075
 20
100.5314468275756
 30
0
  0
VERTEX
  5
35F
  8
FIXTURES
  6
BYLAYER
 62
    8
 10
-399.1268931061932
 20
100.9340483836713
 30
0
  0
VERTEX
  5
360
  8
FIXTURES
  6
BYLAYER
 62
    8
 10
-399.1350950230699
 20
101.1935324145015
 30
0
  0
VERTEX
  5
361
  8
FIXTURES
  6
BYLAYER
 62
    8
 10
-399.1442601580202
 20
101.3456176056061
 30
0
  0
VERTEX
  5
362
  8
FIXTURES
  6
BYLAYER
 62
    8
 10
-399.1543906703737
 20
101.4260226423503
 30
0
  0
VERTEX
  5
363
  8
FIXTURES
  6
BYLAYER
 62
    8
 10
-399.1654887194454
 20
101.4704662103322
 30
0
  0
VERTEX
  5
364
  8
FIXTURES
  6
BYLAYER
 62
    8
 10
-399.1775537590293
 20
101.5087082071113
 30
0
  0
VERTEX
  5
365
  8
FIXTURES
  6
BYLAYER
 62
    8
 10
-399.1905744208489
 20
101.5466733788489
 30
0
  0
VERTEX
  5
366
  8
FIXTURES
  6
BYLAYER
 62
    8
 10
-399.2045366310922
 20
101.5843276836677
 30
0
  0
VERTEX
  5
367
  8
FIXTURES
  6
BYLAYER
 62
    8
 10
-399.2194263160054
 20
101.6216370799229
 30
0
  0
VERTEX
  5
368
  8
FIXTURES
  6
BYLAYER
 62
    8
 10
-399.2352294017473
 20
101.6585675257957
 30
0
  0
VERTEX
  5
369
  8
FIXTURES
  6
BYLAYER
 62
    8
 10
-399.2519318145496
 20
101.6950849794666
 30
0
  0
VERTEX
  5
36A
  8
FIXTURES
  6
BYLAYER
 62
    8
 10
-399.2695194806147
 20
101.7311553991749
 30
0
  0
VERTEX
  5
36B
  8
FIXTURES
  6
BYLAYER
 62
    8
 10
-399.2879783261451
 20
101.7667447432177
 30
0
  0
VERTEX
  5
36C
  8
FIXTURES
  6
BYLAYER
 62
    8
 10
-399.307293095655
 20
101.8018210025039
 30
0
  0
VERTEX
  5
36D
  8
FIXTURES
  6
BYLAYER
 62
    8
 10
-399.3274438069348
 20
101.8363602994359
 30
0
  0
VERTEX
  5
36E
  8
FIXTURES
  6
BYLAYER
 62
    8
 10
-399.3484092960862
 20
101.8703407889698
 30
0
  0
VERTEX
  5
36F
  8
FIXTURES
  6
BYLAYER
 62
    8
 10
-399.3701683992113
 20
101.903740626236
 30
0
  0
VERTEX
  5
370
  8
FIXTURES
  6
BYLAYER
 62
    8
 10
-399.3926999524265
 20
101.9365379662486
 30
0
  0
VERTEX
  5
371
  8
FIXTURES
  6
BYLAYER
 62
    8
 10
-399.4159827918193
 20
101.9687109641382
 30
0
  0
VERTEX
  5
372
  8
FIXTURES
  6
BYLAYER
 62
    8
 10
-399.4399957534915
 20
102.000237774977
 30
0
  0
VERTEX
  5
373
  8
FIXTURES
  6
BYLAYER
 62
    8
 10
-399.4647176735598
 20
102.031096553721
 30
0
  0
VERTEX
  5
374
  8
FIXTURES
  6
BYLAYER
 62
    8
 10
-399.4901308651752
 20
102.0612691855058
 30
0
  0
VERTEX
  5
375
  8
FIXTURES
  6
BYLAYER
 62
    8
 10
-399.5162315497437
 20
102.090752474789
 30
0
  0
VERTEX
  5
376
  8
FIXTURES
  6
BYLAYER
 62
    8
 10
-399.5430194257351
 20
102.1195469560917
 30
0
  0
VERTEX
  5
377
  8
FIXTURES
  6
BYLAYER
 62
    8
 10
-399.5704941916338
 20
102.1476531639928
 30
0
  0
VERTEX
  5
378
  8
FIXTURES
  6
BYLAYER
 62
    8
 10
-399.5986555458803
 20
102.175071632897
 30
0
  0
VERTEX
  5
379
  8
FIXTURES
  6
BYLAYER
 62
    8
 10
-399.6275031869591
 20
102.201802897267
 30
0
  0
VERTEX
  5
37A
  8
FIXTURES
  6
BYLAYER
 62
    8
 10
-399.6570368133252
 20
102.227847491682
 30
0
  0
VERTEX
  5
37B
  8
FIXTURES
  6
BYLAYER
 62
    8
 10
-399.6872561234632
 20
102.2532059506048
 30
0
  0
VERTEX
  5
37C
  8
FIXTURES
  6
BYLAYER
 62
    8
 10
-399.7181572271656
 20
102.2778752543381
 30
0
  0
VERTEX
  5
37D
  8
FIXTURES
  6
BYLAYER
 62
    8
 10
-399.7497218796489
 20
102.3018381663715
 30
0
  0
VERTEX
  5
37E
  8
FIXTURES
  6
BYLAYER
 62
    8
 10
-399.7819282474666
 20
102.3250738959759
 30
0
  0
VERTEX
  5
37F
  8
FIXTURES
  6
BYLAYER
 62
    8
 10
-399.8147544971725
 20
102.3475616525393
 30
0
  0
VERTEX
  5
380
  8
FIXTURES
  6
BYLAYER
 62
    8
 10
-399.8481787953206
 20
102.3692806453328
 30
0
  0
VERTEX
  5
381
  8
FIXTURES
  6
BYLAYER
 62
    8
 10
-399.8821793084498
 20
102.3902100836276
 30
0
  0
VERTEX
  5
382
  8
FIXTURES
  6
BYLAYER
 62
    8
 10
-399.9167342031287
 20
102.4103291768115
 30
0
  0
VERTEX
  5
383
  8
FIXTURES
  6
BYLAYER
 62
    8
 10
-399.9518216458964
 20
102.4296171340975
 30
0
  0
VERTEX
  5
384
  8
FIXTURES
  6
BYLAYER
 62
    8
 10
-399.9874178057507
 20
102.4480542996316
 30
0
  0
VERTEX
  5
385
  8
FIXTURES
  6
BYLAYER
 62
    8
 10
-400.0234908615093
 20
102.4656255571172
 30
0
  0
VERTEX
  5
386
  8
FIXTURES
  6
BYLAYER
 62
    8
 10
-400.0600069944194
 20
102.4823169247829
 30
0
  0
VERTEX
  5
387
  8
FIXTURES
  6
BYLAYER
 62
    8
 10
-400.0969323856989
 20
102.4981144211488
 30
0
  0
VERTEX
  5
388
  8
FIXTURES
  6
BYLAYER
 62
    8
 10
-400.1342332166241
 20
102.5130040646181
 30
0
  0
VERTEX
  5
389
  8
FIXTURES
  6
BYLAYER
 62
    8
 10
-400.1718756684422
 20
102.5269718735362
 30
0
  0
VERTEX
  5
38A
  8
FIXTURES
  6
BYLAYER
 62
    8
 10
-400.2098259223712
 20
102.5400038663647
 30
0
  0
VERTEX
  5
38B
  8
FIXTURES
  6
BYLAYER
 62
    8
 10
-400.2480501596874
 20
102.552086061507
 30
0
  0
VERTEX
  5
38C
  8
FIXTURES
  6
BYLAYER
 62
    8
 10
-400.2911175656918
 20
102.5632198930252
 30
0
  0
VERTEX
  5
38D
  8
FIXTURES
  6
BYLAYER
 62
    8
 10
-400.3620093419158
 20
102.5734684576164
 30
0
  0
VERTEX
  5
38E
  8
FIXTURES
  6
BYLAYER
 62
    8
 10
-400.4883096939884
 20
102.5829102676944
 30
0
  0
VERTEX
  5
38F
  8
FIXTURES
  6
BYLAYER
 62
    8
 10
-400.6976028275094
 20
102.5916238356731
 30
0
  0
VERTEX
  5
390
  8
FIXTURES
  6
BYLAYER
 62
    8
 10
-401.0174729480786
 20
102.5996876739082
 30
0
  0
VERTEX
  5
391
  8
FIXTURES
  6
BYLAYER
 62
    8
 10
-401.4755042613106
 20
102.6071802948136
 30
0
  0
VERTEX
  5
392
  8
FIXTURES
  6
BYLAYER
 62
    8
 10
-402.099280972805
 20
102.614180210745
 30
0
  0
VERTEX
  5
393
  8
FIXTURES
  6
BYLAYER
 62
    8
 10
-402.9163872881763
 20
102.6207659341162
 30
0
  0
VERTEX
  5
394
  8
FIXTURES
  6
BYLAYER
 62
    8
 10
-403.9406013298722
 20
102.6270268536173
 30
0
  0
VERTEX
  5
395
  8
FIXTURES
  6
BYLAYER
 62
    8
 10
-405.1304768876726
 20
102.6330958628096
 30
0
  0
VERTEX
  5
396
  8
FIXTURES
  6
BYLAYER
 62
    8
 10
-406.4307616682199
 20
102.6391167317051
 30
0
  0
VERTEX
  5
397
  8
FIXTURES
  6
BYLAYER
 62
    8
 10
-407.7862033781275
 20
102.6452332302579
 30
0
  0
VERTEX
  5
398
  8
FIXTURES
  6
BYLAYER
 62
    8
 10
-409.1415497240378
 20
102.6515891283634
 30
0
  0
VERTEX
  5
399
  8
FIXTURES
  6
BYLAYER
 62
    8
 10
-410.4415484125784
 20
102.6583281959174
 30
0
  0
VERTEX
  5
39A
  8
FIXTURES
  6
BYLAYER
 62
    8
 10
-411.6309471503773
 20
102.6655942028738
 30
0
  0
VERTEX
  5
39B
  8
FIXTURES
  6
BYLAYER
 62
    8
 10
-412.6544936440623
 20
102.6735309191281
 30
0
  0
VERTEX
  5
39C
  8
FIXTURES
  6
BYLAYER
 62
    8
 10
-413.4707466564287
 20
102.6822617660509
 30
0
  0
VERTEX
  5
39D
  8
FIXTURES
  6
BYLAYER
 62
    8
 10
-414.0935091749707
 20
102.6918287703302
 30
0
  0
VERTEX
  5
39E
  8
FIXTURES
  6
BYLAYER
 62
    8
 10
-414.550395243321
 20
102.7022536100703
 30
0
  0
VERTEX
  5
39F
  8
FIXTURES
  6
BYLAYER
 62
    8
 10
-414.8690189051267
 20
102.7135579633177
 30
0
  0
VERTEX
  5
3A0
  8
FIXTURES
  6
BYLAYER
 62
    8
 10
-415.0769942040642
 20
102.7257635082351
 30
0
  0
VERTEX
  5
3A1
  8
FIXTURES
  6
BYLAYER
 62
    8
 10
-415.2019351837662
 20
102.7388919228688
 30
0
  0
VERTEX
  5
3A2
  8
FIXTURES
  6
BYLAYER
 62
    8
 10
-415.2714558878943
 20
102.7529648853233
 30
0
  0
VERTEX
  5
3A3
  8
FIXTURES
  6
BYLAYER
 62
    8
 10
-415.3131703600811
 20
102.7680040737032
 30
0
  0
VERTEX
  5
3A4
  8
FIXTURES
  6
BYLAYER
 62
    8
 10
-415.3500839998596
 20
102.7840263061225
 30
0
  0
VERTEX
  5
3A5
  8
FIXTURES
  6
BYLAYER
 62
    8
 10
-415.3867676301743
 20
102.8010289611411
 30
0
  0
VERTEX
  5
3A6
  8
FIXTURES
  6
BYLAYER
 62
    8
 10
-415.4231834298698
 20
102.8190045573283
 30
0
  0
VERTEX
  5
3A7
  8
FIXTURES
  6
BYLAYER
 62
    8
 10
-415.4592935777764
 20
102.8379456132534
 30
0
  0
VERTEX
  5
3A8
  8
FIXTURES
  6
BYLAYER
 62
    8
 10
-415.4950602527242
 20
102.8578446474858
 30
0
  0
VERTEX
  5
3A9
  8
FIXTURES
  6
BYLAYER
 62
    8
 10
-415.5304456335289
 20
102.8786941785947
 30
0
  0
VERTEX
  5
3AA
  8
FIXTURES
  6
BYLAYER
 62
    8
 10
-415.5654118990205
 20
102.9004867251497
 30
0
  0
VERTEX
  5
3AB
  8
FIXTURES
  6
BYLAYER
 62
    8
 10
-415.5999212280294
 20
102.9232148057781
 30
0
  0
VERTEX
  5
3AC
  8
FIXTURES
  6
BYLAYER
 62
    8
 10
-415.6339365580643
 20
102.946868433035
 30
0
  0
VERTEX
  5
3AD
  8
FIXTURES
  6
BYLAYER
 62
    8
 10
-415.6674238612904
 20
102.9714275957085
 30
0
  0
VERTEX
  5
3AE
  8
FIXTURES
  6
BYLAYER
 62
    8
 10
-415.7003498685372
 20
102.9968697767472
 30
0
  0
VERTEX
  5
3AF
  8
FIXTURES
  6
BYLAYER
 62
    8
 10
-415.7326813106774
 20
103.023172458983
 30
0
  0
VERTEX
  5
3B0
  8
FIXTURES
  6
BYLAYER
 62
    8
 10
-415.7643849185406
 20
103.0503131251899
 30
0
  0
VERTEX
  5
3B1
  8
FIXTURES
  6
BYLAYER
 62
    8
 10
-415.7954274229851
 20
103.0782692582579
 30
0
  0
VERTEX
  5
3B2
  8
FIXTURES
  6
BYLAYER
 62
    8
 10
-415.8257755548257
 20
103.1070183411357
 30
0
  0
VERTEX
  5
3B3
  8
FIXTURES
  6
BYLAYER
 62
    8
 10
-415.8553960449208
 20
103.1365378565388
 30
0
  0
VERTEX
  5
3B4
  8
FIXTURES
  6
BYLAYER
 62
    8
 10
-415.8842575346935
 20
103.1668034094037
 30
0
  0
VERTEX
  5
3B5
  8
FIXTURES
  6
BYLAYER
 62
    8
 10
-415.9123363079125
 20
103.1977830928518
 30
0
  0
VERTEX
  5
3B6
  8
FIXTURES
  6
BYLAYER
 62
    8
 10
-415.9396105588821
 20
103.2294431220507
 30
0
  0
VERTEX
  5
3B7
  8
FIXTURES
  6
BYLAYER
 62
    8
 10
-415.9660584819358
 20
103.2617497121682
 30
0
  0
VERTEX
  5
3B8
  8
FIXTURES
  6
BYLAYER
 62
    8
 10
-415.9916582714068
 20
103.2946690782555
 30
0
  0
VERTEX
  5
3B9
  8
FIXTURES
  6
BYLAYER
 62
    8
 10
-416.0163881216286
 20
103.3281674355967
 30
0
  0
VERTEX
  5
3BA
  8
FIXTURES
  6
BYLAYER
 62
    8
 10
-416.0402262269345
 20
103.3622109991848
 30
0
  0
VERTEX
  5
3BB
  8
FIXTURES
  6
BYLAYER
 62
    8
 10
-416.0631507816433
 20
103.3967659843038
 30
0
  0
VERTEX
  5
3BC
  8
FIXTURES
  6
BYLAYER
 62
    8
 10
-416.0851424944267
 20
103.4317978949402
 30
0
  0
VERTEX
  5
3BD
  8
FIXTURES
  6
BYLAYER
 62
    8
 10
-416.1061921313376
 20
103.4672693903558
 30
0
  0
VERTEX
  5
3BE
  8
FIXTURES
  6
BYLAYER
 62
    8
 10
-416.1262929727818
 20
103.5031424187473
 30
0
  0
VERTEX
  5
3BF
  8
FIXTURES
  6
BYLAYER
 62
    8
 10
-416.1454382991215
 20
103.5393789284281
 30
0
  0
VERTEX
  5
3C0
  8
FIXTURES
  6
BYLAYER
 62
    8
 10
-416.1636213907768
 20
103.5759408674203
 30
0
  0
VERTEX
  5
3C1
  8
FIXTURES
  6
BYLAYER
 62
    8
 10
-416.18083552811
 20
103.6127901840955
 30
0
  0
VERTEX
  5
3C2
  8
FIXTURES
  6
BYLAYER
 62
    8
 10
-416.1970739915268
 20
103.6498888264759
 30
0
  0
VERTEX
  5
3C3
  8
FIXTURES
  6
BYLAYER
 62
    8
 10
-416.2123300614185
 20
103.6871987428749
 30
0
  0
VERTEX
  5
3C4
  8
FIXTURES
  6
BYLAYER
 62
    8
 10
-416.2265972635651
 20
103.7246344975429
 30
0
  0
VERTEX
  5
3C5
  8
FIXTURES
  6
BYLAYER
 62
    8
 10
-416.2398701053025
 20
103.7619211191777
 30
0
  0
VERTEX
  5
3C6
  8
FIXTURES
  6
BYLAYER
 62
    8
 10
-416.2521433393267
 20
103.7987362525892
 30
0
  0
VERTEX
  5
3C7
  8
FIXTURES
  6
BYLAYER
 62
    8
 10
-416.2634117183625
 20
103.8347575426451
 30
0
  0
VERTEX
  5
3C8
  8
FIXTURES
  6
BYLAYER
 62
    8
 10
-416.2736699951347
 20
103.8696626341552
 30
0
  0
VERTEX
  5
3C9
  8
FIXTURES
  6
BYLAYER
 62
    8
 10
-416.2829129223683
 20
103.9031291718711
 30
0
  0
VERTEX
  5
3CA
  8
FIXTURES
  6
BYLAYER
 62
    8
 10
-416.291135252759
 20
103.9348348007188
 30
0
  0
VERTEX
  5
3CB
  8
FIXTURES
  6
BYLAYER
 62
    8
 10
-416.2983317390317
 20
103.9644571653917
 30
0
  0
VERTEX
  5
3CC
  8
FIXTURES
  6
BYLAYER
 62
    8
 10
-416.3045457015542
 20
103.997657654807
 30
0
  0
VERTEX
  5
3CD
  8
FIXTURES
  6
BYLAYER
 62
    8
 10
-416.3100147312362
 20
104.0640326339053
 30
0
  0
VERTEX
  5
3CE
  8
FIXTURES
  6
BYLAYER
 62
    8
 10
-416.3150249866303
 20
104.1991622116184
 30
0
  0
VERTEX
  5
3CF
  8
FIXTURES
  6
BYLAYER
 62
    8
 10
-416.3198626263038
 20
104.438626496878
 30
0
  0
VERTEX
  5
3D0
  8
FIXTURES
  6
BYLAYER
 62
    8
 10
-416.3248138087947
 20
104.8180055987323
 30
0
  0
VERTEX
  5
3D1
  8
FIXTURES
  6
BYLAYER
 62
    8
 10
-416.3301646926702
 20
105.3728796260548
 30
0
  0
VERTEX
  5
3D2
  8
FIXTURES
  6
BYLAYER
 62
    8
 10
-416.3362014364975
 20
106.1388286878937
 30
0
  0
VERTEX
  5
3D3
  8
FIXTURES
  6
BYLAYER
 62
    8
 10
-416.3432101988146
 20
107.1514328931225
 30
0
  0
VERTEX
  5
3D4
  8
FIXTURES
  6
BYLAYER
 62
    8
 10
-416.3514711430325
 20
108.4290596341598
 30
0
  0
VERTEX
  5
3D5
  8
FIXTURES
  6
BYLAYER
 62
    8
 10
-416.3612404518935
 20
109.9212254367885
 30
0
  0
VERTEX
  5
3D6
  8
FIXTURES
  6
BYLAYER
 62
    8
 10
-416.3727683129837
 20
111.5602341102203
 30
0
  0
VERTEX
  5
3D7
  8
FIXTURES
  6
BYLAYER
 62
    8
 10
-416.386304913889
 20
113.2783894636668
 30
0
  0
VERTEX
  5
3D8
  8
FIXTURES
  6
BYLAYER
 62
    8
 10
-416.4021004421957
 20
115.0079953063396
 30
0
  0
VERTEX
  5
3D9
  8
FIXTURES
  6
BYLAYER
 62
    8
 10
-416.4204050854896
 20
116.6813554474502
 30
0
  0
VERTEX
  5
3DA
  8
FIXTURES
  6
BYLAYER
 62
    8
 10
-416.4414690313715
 20
118.2307736962102
 30
0
  0
VERTEX
  5
3DB
  8
FIXTURES
  6
BYLAYER
 62
    8
 10
-416.4655424674129
 20
119.5885538618313
 30
0
  0
VERTEX
  5
3DC
  8
FIXTURES
  6
BYLAYER
 62
    8
 10
-416.4928488562437
 20
120.7037151384284
 30
0
  0
VERTEX
  5
3DD
  8
FIXTURES
  6
BYLAYER
 62
    8
 10
-416.5235047606402
 20
121.5921382599627
 30
0
  0
VERTEX
  5
3DE
  8
FIXTURES
  6
BYLAYER
 62
    8
 10
-416.5576000184228
 20
122.2864193451242
 30
0
  0
VERTEX
  5
3DF
  8
FIXTURES
  6
BYLAYER
 62
    8
 10
-416.5952244673972
 20
122.8191545128357
 30
0
  0
VERTEX
  5
3E0
  8
FIXTURES
  6
BYLAYER
 62
    8
 10
-416.6364679453545
 20
123.2229398818454
 30
0
  0
VERTEX
  5
3E1
  8
FIXTURES
  6
BYLAYER
 62
    8
 10
-416.6814202901442
 20
123.5303715710179
 30
0
  0
VERTEX
  5
3E2
  8
FIXTURES
  6
BYLAYER
 62
    8
 10
-416.7301713395573
 20
123.7740456991014
 30
0
  0
VERTEX
  5
3E3
  8
FIXTURES
  6
BYLAYER
 62
    8
 10
-416.7828109314141
 20
123.9865583850187
 30
0
  0
VERTEX
  5
3E4
  8
FIXTURES
  6
BYLAYER
 62
    8
 10
-416.8394267718541
 20
124.1950740510365
 30
0
  0
VERTEX
  5
3E5
  8
FIXTURES
  6
BYLAYER
 62
    8
 10
-416.9000980403507
 20
124.4050303336699
 30
0
  0
VERTEX
  5
3E6
  8
FIXTURES
  6
BYLAYER
 62
    8
 10
-416.9649017846968
 20
124.6164331729524
 30
0
  0
VERTEX
  5
3E7
  8
FIXTURES
  6
BYLAYER
 62
    8
 10
-417.0339150526852
 20
124.8292885089759
 30
0
  0
VERTEX
  5
3E8
  8
FIXTURES
  6
BYLAYER
 62
    8
 10
-417.107214892123
 20
125.0436022817739
 30
0
  0
VERTEX
  5
3E9
  8
FIXTURES
  6
BYLAYER
 62
    8
 10
-417.184878350803
 20
125.2593804313801
 30
0
  0
VERTEX
  5
3EA
  8
FIXTURES
  6
BYLAYER
 62
    8
 10
-417.2669824765326
 20
125.476628897828
 30
0
  0
VERTEX
  5
3EB
  8
FIXTURES
  6
BYLAYER
 62
    8
 10
-417.3536043171043
 20
125.6953536212095
 30
0
  0
VERTEX
  5
3EC
  8
FIXTURES
  6
BYLAYER
 62
    8
 10
-417.4448209203256
 20
125.9155605414999
 30
0
  0
VERTEX
  5
3ED
  8
FIXTURES
  6
BYLAYER
 62
    8
 10
-417.5407093339745
 20
126.1372555987909
 30
0
  0
VERTEX
  5
3EE
  8
FIXTURES
  6
BYLAYER
 62
    8
 10
-417.641346605873
 20
126.3604447331163
 30
0
  0
VERTEX
  5
3EF
  8
FIXTURES
  6
BYLAYER
 62
    8
 10
-417.7468097838137
 20
126.5851338845678
 30
0
  0
VERTEX
  5
3F0
  8
FIXTURES
  6
BYLAYER
 62
    8
 10
-417.8571759155748
 20
126.8113289931207
 30
0
  0
VERTEX
  5
3F1
  8
FIXTURES
  6
BYLAYER
 62
    8
 10
-417.9725220489781
 20
127.0390359988669
 30
0
  0
VERTEX
  5
3F2
  8
FIXTURES
  6
BYLAYER
 62
    8
 10
-418.0929252318165
 20
127.2682608418399
 30
0
  0
VERTEX
  5
3F3
  8
FIXTURES
  6
BYLAYER
 62
    8
 10
-418.2184625118825
 20
127.4990094620152
 30
0
  0
VERTEX
  5
3F4
  8
FIXTURES
  6
BYLAYER
 62
    8
 10
-418.3492109369836
 20
127.731287799601
 30
0
  0
VERTEX
  5
3F5
  8
FIXTURES
  6
BYLAYER
 62
    8
 10
-418.4852475549123
 20
127.9651017944561
 30
0
  0
VERTEX
  5
3F6
  8
FIXTURES
  6
BYLAYER
 62
    8
 10
-418.6266494134761
 20
128.2004573867889
 30
0
  0
VERTEX
  5
3F7
  8
FIXTURES
  6
BYLAYER
 62
    8
 10
-418.7734935604531
 20
128.4373605165165
 30
0
  0
VERTEX
  5
3F8
  8
FIXTURES
  6
BYLAYER
 62
    8
 10
-418.925857043665
 20
128.6758171237889
 30
0
  0
VERTEX
  5
3F9
  8
FIXTURES
  6
BYLAYER
 62
    8
 10
-419.0838169109047
 20
128.9158331485814
 30
0
  0
VERTEX
  5
3FA
  8
FIXTURES
  6
BYLAYER
 62
    8
 10
-419.2474502099503
 20
129.1574145309278
 30
0
  0
VERTEX
  5
3FB
  8
FIXTURES
  6
BYLAYER
 62
    8
 10
-419.354673696158
 20
129.3837433423614
 30
0
  0
VERTEX
  5
3FC
  8
FIXTURES
  6
BYLAYER
 62
    8
 10
-420.9194321822724
 20
131.3857374188374
 30
0
  0
VERTEX
  5
3FD
  8
FIXTURES
  6
BYLAYER
 62
    8
 10
-425.3256283106311
 20
135.7047204197152
 30
0
  0
VERTEX
  5
3FE
  8
FIXTURES
  6
BYLAYER
 62
    8
 10
-446.4070772701962
 20
150.96653634432
 30
0
  0
VERTEX
  5
3FF
  8
FIXTURES
  6
BYLAYER
 62
    8
 10
-482.7844760444714
 20
169.6731062470353
 30
0
  0
VERTEX
  5
400
  8
FIXTURES
  6
BYLAYER
 62
    8
 10
-506.6072332623444
 20
178.2414328224258
 30
0
  0
VERTEX
  5
401
  8
FIXTURES
  6
BYLAYER
 62
    8
 10
-534.1316699141753
 20
185.1788585510221
 30
0
  0
VERTEX
  5
402
  8
FIXTURES
  6
BYLAYER
 62
    8
 10
-565.3170166600466
 20
189.6546869855956
 30
0
  0
VERTEX
  5
403
  8
FIXTURES
  6
BYLAYER
 62
    8
 10
-594.3987041600776
 20
190.8382216791506
 30
0
  0
VERTEX
  5
404
  8
FIXTURES
  6
BYLAYER
 62
    8
 10
-633.2332019796158
 20
186.4920963438926
 30
0
  0
VERTEX
  5
405
  8
FIXTURES
  6
BYLAYER
 62
    8
 10
-679.3318614965829
 20
175.8215793255367
 30
0
  0
VERTEX
  5
406
  8
FIXTURES
  6
BYLAYER
 62
    8
 10
-720.3994165520417
 20
159.2103638583794
 30
0
  0
VERTEX
  5
407
  8
FIXTURES
  6
BYLAYER
 62
    8
 10
-738.8117784957576
 20
148.7968983422033
 30
0
  0
VERTEX
  5
408
  8
FIXTURES
  6
BYLAYER
 62
    8
 10
-755.6846626309853
 20
137.0421431767172
 30
0
  0
VERTEX
  5
409
  8
FIXTURES
  6
BYLAYER
 62
    8
 10
-770.9241683933506
 20
123.9940600162372
 30
0
  0
VERTEX
  5
40A
  8
FIXTURES
  6
BYLAYER
 62
    8
 10
-784.4363952184794
 20
109.700610514963
 30
0
  0
VERTEX
  5
40B
  8
FIXTURES
  6
BYLAYER
 62
    8
 10
-796.1274425419833
 20
94.20975632721093
 30
0
  0
VERTEX
  5
40C
  8
FIXTURES
  6
BYLAYER
 62
    8
 10
-805.9034097995027
 20
77.56945910735521
 30
0
  0
VERTEX
  5
40D
  8
FIXTURES
  6
BYLAYER
 62
    8
 10
-813.6703964266635
 20
59.82768050959567
 30
0
  0
VERTEX
  5
40E
  8
FIXTURES
  6
BYLAYER
 62
    8
 10
-819.3345018591062
 20
41.03238218830666
 30
0
  0
VERTEX
  5
40F
  8
FIXTURES
  6
BYLAYER
 62
    8
 10
-822.8018255324423
 20
21.23152579768794
 30
0
  0
VERTEX
  5
410
  8
FIXTURES
  6
BYLAYER
 62
    8
 10
-823.9784668822977
 20
0.4730729920556769
 30
0
  0
VERTEX
  5
411
  8
FIXTURES
  6
BYLAYER
 62
    8
 10
-822.8018283243873
 20
-20.35690450866241
 30
0
  0
VERTEX
  5
412
  8
FIXTURES
  6
BYLAYER
 62
    8
 10
-819.3345122823666
 20
-40.21113009779947
 30
0
  0
VERTEX
  5
413
  8
FIXTURES
  6
BYLAYER
 62
    8
 10
-813.670418203852
 20
-59.04349678824656
 30
0
  0
VERTEX
  5
414
  8
FIXTURES
  6
BYLAYER
 62
    8
 10
-805.9034455364163
 20
-76.80789759301115
 30
0
  0
VERTEX
  5
415
  8
FIXTURES
  6
BYLAYER
 62
    8
 10
-796.1274937276612
 20
-93.45822552492609
 30
0
  0
VERTEX
  5
416
  8
FIXTURES
  6
BYLAYER
 62
    8
 10
-784.4364622251887
 20
-108.9483735968824
 30
0
  0
VERTEX
  5
417
  8
FIXTURES
  6
BYLAYER
 62
    8
 10
-770.9242504765862
 20
-123.2322348218295
 30
0
  0
VERTEX
  5
418
  8
FIXTURES
  6
BYLAYER
 62
    8
 10
-755.6847579294263
 20
-136.2637022126582
 30
0
  0
VERTEX
  5
419
  8
FIXTURES
  6
BYLAYER
 62
    8
 10
-738.81188403134
 20
-147.996668782318
 30
0
  0
VERTEX
  5
41A
  8
FIXTURES
  6
BYLAYER
 62
    8
 10
-720.3995282299002
 20
-158.3850275436416
 30
0
  0
VERTEX
  5
41B
  8
FIXTURES
  6
BYLAYER
 62
    8
 10
-679.3319687073235
 20
-174.9434936931357
 30
0
  0
VERTEX
  5
41C
  8
FIXTURES
  6
BYLAYER
 62
    8
 10
-644.7773365864559
 20
-185.5702447643271
 30
0
  0
VERTEX
  5
41D
  8
FIXTURES
  6
BYLAYER
 62
    8
 10
-594.3987041600776
 20
-189.8964248605189
 30
0
  0
VERTEX
  5
41E
  8
FIXTURES
  6
BYLAYER
 62
    8
 10
-565.3169611788035
 20
-188.7112810029066
 30
0
  0
VERTEX
  5
41F
  8
FIXTURES
  6
BYLAYER
 62
    8
 10
-534.1314958525036
 20
-184.234756168793
 30
0
  0
VERTEX
  5
420
  8
FIXTURES
  6
BYLAYER
 62
    8
 10
-506.6069169965631
 20
-177.2972504063509
 30
0
  0
VERTEX
  5
421
  8
FIXTURES
  6
BYLAYER
 62
    8
 10
-482.7840334263601
 20
-168.7291637636372
 30
0
  0
VERTEX
  5
422
  8
FIXTURES
  6
BYLAYER
 62
    8
 10
-446.4065874047228
 20
-150.0228480297956
 30
0
  0
VERTEX
  5
423
  8
FIXTURES
  6
BYLAYER
 62
    8
 10
-425.3256283106311
 20
-134.7590093521285
 30
0
  0
VERTEX
  5
424
  8
FIXTURES
  6
BYLAYER
 62
    8
 10
-420.9198624950659
 20
-130.4398802725482
 30
0
  0
VERTEX
  5
425
  8
FIXTURES
  6
BYLAYER
 62
    8
 10
-419.3551219386427
 20
-128.4383229541709
 30
0
  0
VERTEX
  5
426
  8
FIXTURES
  6
BYLAYER
 62
    8
 10
-418.1632594651455
 20
-126.5377818001434
 30
0
  0
VERTEX
  5
427
  8
FIXTURES
  6
BYLAYER
 62
    8
 10
-417.3048624610965
 20
-124.7350153231528
 30
0
  0
VERTEX
  5
428
  8
FIXTURES
  6
BYLAYER
 62
    8
 10
-416.7405183129886
 20
-123.0267820357694
 30
0
  0
VERTEX
  5
429
  8
FIXTURES
  6
BYLAYER
 62
    8
 10
-416.4308144073439
 20
-121.4098404504475
 30
0
  0
VERTEX
  5
42A
  8
FIXTURES
  6
BYLAYER
 62
    8
 10
-416.3108538113302
 20
-103.0243893171428
 30
0
  0
VERTEX
  5
42B
  8
FIXTURES
  6
BYLAYER
 62
    8
 10
-416.2216291335644
 20
-102.7119514319347
 30
0
  0
VERTEX
  5
42C
  8
FIXTURES
  6
BYLAYER
 62
    8
 10
-416.0720957416779
 20
-102.4234757138183
 30
0
  0
VERTEX
  5
42D
  8
FIXTURES
  6
BYLAYER
 62
    8
 10
-415.872692455654
 20
-102.1750249034958
 30
0
  0
VERTEX
  5
42E
  8
FIXTURES
  6
BYLAYER
 62
    8
 10
-415.6286975442054
 20
-101.9692132899654
 30
0
  0
VERTEX
  5
42F
  8
FIXTURES
  6
BYLAYER
 62
    8
 10
-415.3435873235721
 20
-101.8130193370744
 30
0
  0
VERTEX
  5
430
  8
FIXTURES
  6
BYLAYER
 62
    8
 10
-415.033190548842
 20
-101.7172728348523
 30
0
  0
VERTEX
  5
431
  8
FIXTURES
  6
BYLAYER
 62
    8
 10
-414.8743586560158
 20
-101.6935564864543
 30
0
  0
VERTEX
  5
432
  8
FIXTURES
  6
BYLAYER
 62
    8
 10
-400.4017061782361
 20
-101.6556205247762
 30
0
  0
VERTEX
  5
433
  8
FIXTURES
  6
BYLAYER
 62
    8
 10
-400.0924223291076
 20
-101.5625030969968
 30
0
  0
VERTEX
  5
434
  8
FIXTURES
  6
BYLAYER
 62
    8
 10
-399.8077501973603
 20
-101.4100629618042
 30
0
  0
VERTEX
  5
435
  8
FIXTURES
  6
BYLAYER
 62
    8
 10
-399.563291795188
 20
-101.2087314754608
 30
0
  0
VERTEX
  5
436
  8
FIXTURES
  6
BYLAYER
 62
    8
 10
-399.3624446183967
 20
-100.9638950709486
 30
0
  0
VERTEX
  5
437
  8
FIXTURES
  6
BYLAYER
 62
    8
 10
-399.2102099086478
 20
-100.6791622217861
 30
0
  0
VERTEX
  5
438
  8
FIXTURES
  6
BYLAYER
 62
    8
 10
-399.1169320622139
 20
-100.370047952747
 30
0
  0
VERTEX
  5
439
  8
FIXTURES
  6
BYLAYER
 62
    8
 10
-399.0938227321603
 20
-100.2120499502635
 30
0
  0
VERTEX
  5
43A
  8
FIXTURES
  6
BYLAYER
 62
    8
 10
-399.0935152705351
 20
-81.58751130424207
 30
0
  0
VERTEX
  5
43B
  8
FIXTURES
  6
BYLAYER
 62
    8
 10
-399.1551452951098
 20
-81.27278974198271
 30
0
  0
VERTEX
  5
43C
  8
FIXTURES
  6
BYLAYER
 62
    8
 10
-399.2788358656835
 20
-80.97360631107586
 30
0
  0
VERTEX
  5
43D
  8
FIXTURES
  6
BYLAYER
 62
    8
 10
-399.4573811989831
 20
-80.70739039970795
 30
0
  0
VERTEX
  5
43E
  8
FIXTURES
  6
BYLAYER
 62
    8
 10
-399.6799453796993
 20
-80.48532661289209
 30
0
  0
VERTEX
  5
43F
  8
FIXTURES
  6
BYLAYER
 62
    8
 10
-399.9463740229839
 20
-80.30714129027911
 30
0
  0
VERTEX
  5
440
  8
FIXTURES
  6
BYLAYER
 62
    8
 10
-400.2454884036997
 20
-80.18347926688148
 30
0
  0
VERTEX
  5
441
  8
FIXTURES
  6
BYLAYER
 62
    8
 10
-400.5599733203708
 20
-80.12149911822053
 30
0
  0
VERTEX
  5
442
  8
FIXTURES
  6
BYLAYER
 62
    8
 10
-415.0298207423039
 20
-80.08694511011709
 30
0
  0
VERTEX
  5
443
  8
FIXTURES
  6
BYLAYER
 62
    8
 10
-415.3376920902228
 20
-79.99692704656627
 30
0
  0
VERTEX
  5
444
  8
FIXTURES
  6
BYLAYER
 62
    8
 10
-415.621317231693
 20
-79.84736144990893
 30
0
  0
VERTEX
  5
445
  8
FIXTURES
  6
BYLAYER
 62
    8
 10
-415.8649396183609
 20
-79.6486562321079
 30
0
  0
VERTEX
  5
446
  8
FIXTURES
  6
BYLAYER
 62
    8
 10
-416.0651568367903
 20
-79.40630479127867
 30
0
  0
VERTEX
  5
447
  8
FIXTURES
  6
BYLAYER
 62
    8
 10
-416.2170088364946
 20
-79.12396975088632
 30
0
  0
VERTEX
  5
448
  8
FIXTURES
  6
BYLAYER
 62
    8
 10
-416.3100728006975
 20
-78.81718416744843
 30
0
  0
VERTEX
  5
449
  8
FIXTURES
  6
BYLAYER
 62
    8
 10
-416.3331269308546
 20
-78.66034136578673
 30
0
  0
VERTEX
  5
44A
  8
FIXTURES
  6
BYLAYER
 62
    8
 10
-416.3345317327767
 20
79.60755911632441
 30
0
  0
VERTEX
  5
44B
  8
FIXTURES
  6
BYLAYER
 62
    8
 10
-416.2742839092825
 20
79.92094448173884
 30
0
  0
VERTEX
  5
44C
  8
FIXTURES
  6
BYLAYER
 62
    8
 10
-416.1507398100803
 20
80.2173825307982
 30
0
  0
VERTEX
  5
44D
  8
FIXTURES
  6
BYLAYER
 62
    8
 10
-415.9712102907069
 20
80.47933122166432
 30
0
  0
VERTEX
  5
44E
  8
FIXTURES
  6
BYLAYER
 62
    8
 10
-415.7471879574005
 20
80.69577603501966
 30
0
  0
VERTEX
  5
44F
  8
FIXTURES
  6
BYLAYER
 62
    8
 10
-415.4810338359966
 20
80.86861126322765
 30
0
  0
VERTEX
  5
450
  8
FIXTURES
  6
BYLAYER
 62
    8
 10
-415.1838364377618
 20
80.98835842113476
 30
0
  0
VERTEX
  5
451
  8
FIXTURES
  6
BYLAYER
 62
    8
 10
-414.8720928529365
 20
81.04837047978071
 30
0
  0
VERTEX
  5
452
  8
FIXTURES
  6
BYLAYER
 62
    8
 10
-400.4203862356517
 20
81.08297238004161
 30
0
  0
VERTEX
  5
453
  8
FIXTURES
  6
BYLAYER
 62
    8
 10
-400.1168079849449
 20
81.17027527280152
 30
0
  0
VERTEX
  5
454
  8
FIXTURES
  6
BYLAYER
 62
    8
 10
-399.824685105501
 20
81.32162223797059
 30
0
  0
VERTEX
  5
455
  8
FIXTURES
  6
BYLAYER
 62
    8
 10
-399.5639122804423
 20
81.53345758852083
 30
0
  0
VERTEX
  5
456
  8
FIXTURES
  6
BYLAYER
 62
    8
 10
-399.352082153302
 20
81.79422519018408
 30
0
  0
VERTEX
  5
457
  8
FIXTURES
  6
BYLAYER
 62
    8
 10
-399.2007502140477
 20
82.08633304369869
 30
0
  0
VERTEX
  5
458
  8
FIXTURES
  6
BYLAYER
 62
    8
 10
-399.1134704058059
 20
82.38988820987288
 30
0
  0
VERTEX
  5
459
  8
FIXTURES
  6
BYLAYER
 62
    8
 10
-399.0928402217251
 20
82.54010767041473
 30
0
  0
VERTEX
  5
45A
  8
FIXTURES
  6
BYLAYER
 62
    8
 10
-399.0935152705351
 20
101.1583343365928
 30
0
  0
VERTEX
  5
45B
  8
FIXTURES
  6
BYLAYER
 62
    8
 10
-399.1551452951098
 20
101.4730558989104
 30
0
  0
VERTEX
  5
45C
  8
FIXTURES
  6
BYLAYER
 62
    8
 10
-399.2788358656835
 20
101.772239329759
 30
0
  0
VERTEX
  5
45D
  8
FIXTURES
  6
BYLAYER
 62
    8
 10
-399.4573811989831
 20
102.0384552411851
 30
0
  0
VERTEX
  5
45E
  8
FIXTURES
  6
BYLAYER
 62
    8
 10
-399.6799453796993
 20
102.260519028001
 30
0
  0
VERTEX
  5
45F
  8
FIXTURES
  6
BYLAYER
 62
    8
 10
-399.9463740229839
 20
102.438704350614
 30
0
  0
VERTEX
  5
460
  8
FIXTURES
  6
BYLAYER
 62
    8
 10
-400.2454884036997
 20
102.5623663739534
 30
0
  0
VERTEX
  5
461
  8
FIXTURES
  6
BYLAYER
 62
    8
 10
-400.5599733203708
 20
102.6243465226144
 30
0
  0
VERTEX
  5
462
  8
FIXTURES
  6
BYLAYER
 62
    8
 10
-415.0129420439043
 20
102.6648431402864
 30
0
  0
VERTEX
  5
463
  8
FIXTURES
  6
BYLAYER
 62
    8
 10
-415.3152203684003
 20
102.7574664309504
 30
0
  0
VERTEX
  5
464
  8
FIXTURES
  6
BYLAYER
 62
    8
 10
-415.6051986429811
 20
102.9133155779564
 30
0
  0
VERTEX
  5
465
  8
FIXTURES
  6
BYLAYER
 62
    8
 10
-415.8635124278662
 20
103.1285600918927
 30
0
  0
VERTEX
  5
466
  8
FIXTURES
  6
BYLAYER
 62
    8
 10
-416.0731279151078
 20
103.391671193589
 30
0
  0
VERTEX
  5
467
  8
FIXTURES
  6
BYLAYER
 62
    8
 10
-416.2228806015337
 20
103.6853510397486
 30
0
  0
VERTEX
  5
468
  8
FIXTURES
  6
BYLAYER
 62
    8
 10
-416.3093300472829
 20
103.9901171045494
 30
0
  0
VERTEX
  5
469
  8
FIXTURES
  6
BYLAYER
 62
    8
 10
-416.3297896435688
 20
104.1409235342871
 30
0
  0
VERTEX
  5
46A
  8
FIXTURES
  6
BYLAYER
 62
    8
 10
-416.4307725713734
 20
122.3547861171537
 30
0
  0
VERTEX
  5
46B
  8
FIXTURES
  6
BYLAYER
 62
    8
 10
-416.7403748753859
 20
123.9712551681441
 30
0
  0
VERTEX
  5
46C
  8
FIXTURES
  6
BYLAYER
 62
    8
 10
-417.3045935155969
 20
125.6795435203821
 30
0
  0
SEQEND
  5
46D
  8
FIXTURES
  6
BYLAYER
 62
    8
  0
ARC
  5
46E
  8
FIXTURES
  6
BYLAYER
 62
    8
 10
141
 20
0
 40
285
 50
135.0086337009681
 51
224.9913763156513
  0
LINE
  5
46F
  8
FIXTURES
  6
BYLAYER
 62
    8
 10
0
 20
-205
 11
-51.98989868164062
 21
-205
  0
LINE
  5
470
  8
FIXTURES
  6
BYLAYER
 62
    8
 10
-369.9784653673269
 20
-26.40052032470703
 11
-142.7745804799779
 21
-26.40052032470703
  0
LINE
  5
471
  8
FIXTURES
  6
BYLAYER
 62
    8
 10
-369.9784653673269
 20
26.59947967529297
 11
-142.756000255511
 21
26.59947967529297
  0
ARC
  5
472
  8
FIXTURES
  6
BYLAYER
 62
  142
 10
-220.1581229013391
 20
95.12110369978473
 40
50.03927120890582
 50
196.1105373587751
 51
244.0852200058185
  0
POLYLINE
  5
473
  8
FIXTURES
  6
BYLAYER
 62
    8
 66
    1
 10
0
 20
0
 30
0
 70
    0
  0
VERTEX
  5
474
  8
FIXTURES
  6
BYLAYER
 62
    8
 10
-220.9569152275944
 20
26.59947967529297
 30
0
  0
VERTEX
  5
475
  8
FIXTURES
  6
BYLAYER
 62
    8
 10
-221.1697342522966
 20
31.14886239136104
 30
0
  0
VERTEX
  5
476
  8
FIXTURES
  6
BYLAYER
 62
    8
 10
-221.8853978325351
 20
41.14114634197904
 30
0
  0
VERTEX
  5
477
  8
FIXTURES
  6
BYLAYER
 62
    8
 10
-222.6913391905691
 20
48.49454140366288
 30
0
  0
VERTEX
  5
478
  8
FIXTURES
  6
BYLAYER
 62
    8
 10
-223.5898731411871
 20
53.99608461355092
 30
0
  0
VERTEX
  5
479
  8
FIXTURES
  6
BYLAYER
 62
    8
 10
-224.5833144992066
 20
58.4328130086069
 30
0
  0
VERTEX
  5
47A
  8
FIXTURES
  6
BYLAYER
 62
    8
 10
-225.6816941288416
 20
62.46830683579901
 30
0
  0
VERTEX
  5
47B
  8
FIXTURES
  6
BYLAYER
 62
    8
 10
-226.9259070918051
 20
66.27231918147299
 30
0
  0
VERTEX
  5
47C
  8
FIXTURES
  6
BYLAYER
 62
    8
 10
-228.3645644992066
 20
69.89114634197904
 30
0
  0
VERTEX
  5
47D
  8
FIXTURES
  6
BYLAYER
 62
    8
 10
-230.0462774621701
 20
73.37108461355092
 30
0
  0
VERTEX
  5
47E
  8
FIXTURES
  6
BYLAYER
 62
    8
 10
-232.0196570918051
 20
76.75843029259704
 30
0
  0
VERTEX
  5
47F
  8
FIXTURES
  6
BYLAYER
 62
    8
 10
-234.3333144992066
 20
80.09947967529297
 30
0
  0
VERTEX
  5
480
  8
FIXTURES
  6
BYLAYER
 62
    8
 10
-237.0200428942626
 20
83.4250969592249
 30
0
  0
VERTEX
  5
481
  8
FIXTURES
  6
BYLAYER
 62
    8
 10
-240.0493638819171
 20
86.70441794692306
 30
0
  0
VERTEX
  5
482
  8
FIXTURES
  6
BYLAYER
 62
    8
 10
-243.3749811658781
 20
89.89114634197904
 30
0
  0
VERTEX
  5
483
  8
FIXTURES
  6
BYLAYER
 62
    8
 10
-246.9505984498246
 20
92.93898584810086
 30
0
  0
VERTEX
  5
484
  8
FIXTURES
  6
BYLAYER
 62
    8
 10
-250.7299194374791
 20
95.80164016911294
 30
0
  0
VERTEX
  5
485
  8
FIXTURES
  6
BYLAYER
 62
    8
 10
-254.6666478325351
 20
98.4328130086069
 30
0
  0
VERTEX
  5
486
  8
FIXTURES
  6
BYLAYER
 62
    8
 10
-258.7144873387151
 20
100.7985537493369
 30
0
  0
VERTEX
  5
487
  8
FIXTURES
  6
BYLAYER
 62
    8
 10
-262.8271416596981
 20
102.914294490125
 30
0
  0
VERTEX
  5
488
  8
FIXTURES
  6
BYLAYER
 62
    8
 10
-266.9583144992066
 20
104.8078130086069
 30
0
  0
VERTEX
  5
489
  8
FIXTURES
  6
BYLAYER
 62
    8
 10
-271.0617095609341
 20
106.506887082709
 30
0
  0
VERTEX
  5
48A
  8
FIXTURES
  6
BYLAYER
 62
    8
 10
-275.0910305485886
 20
108.039294490125
 30
0
  0
VERTEX
  5
48B
  8
FIXTURES
  6
BYLAYER
 62
    8
 10
-278.9999811658781
 20
109.4328130086069
 30
0
  0
VERTEX
  5
48C
  8
FIXTURES
  6
BYLAYER
 62
    8
 10
-282.7700428942626
 20
110.7136772061349
 30
0
  0
VERTEX
  5
48D
  8
FIXTURES
  6
BYLAYER
 62
    8
 10
-286.4938083263696
 20
111.9019488110789
 30
0
  0
VERTEX
  5
48E
  8
FIXTURES
  6
BYLAYER
 62
    8
 10
-290.2916478325351
 20
113.016146341979
 30
0
  0
VERTEX
  5
48F
  8
FIXTURES
  6
BYLAYER
 62
    8
 10
-294.2839317831531
 20
114.0747883172589
 30
0
  0
VERTEX
  5
490
  8
FIXTURES
  6
BYLAYER
 62
    8
 10
-298.5910305485886
 20
115.0963932555169
 30
0
  0
VERTEX
  5
491
  8
FIXTURES
  6
BYLAYER
 62
    8
 10
-303.3333144992066
 20
116.099479675293
 30
0
  0
VERTEX
  5
492
  8
FIXTURES
  6
BYLAYER
 62
    8
 10
-308.5956601782236
 20
117.0979364654049
 30
0
  0
VERTEX
  5
493
  8
FIXTURES
  6
BYLAYER
 62
    8
 10
-314.3209688201896
 20
118.0871339963051
 30
0
  0
VERTEX
  5
494
  8
FIXTURES
  6
BYLAYER
 62
    8
 10
-320.4166478325351
 20
119.0578130086069
 30
0
  0
VERTEX
  5
495
  8
FIXTURES
  6
BYLAYER
 62
    8
 10
-326.7901046226616
 20
120.000714243215
 30
0
  0
VERTEX
  5
496
  8
FIXTURES
  6
BYLAYER
 62
    8
 10
-333.3487465979706
 20
120.906578440743
 30
0
  0
VERTEX
  5
497
  8
FIXTURES
  6
BYLAYER
 62
    8
 10
-339.9999811658781
 20
121.766146341979
 30
0
  0
VERTEX
  5
498
  8
FIXTURES
  6
BYLAYER
 62
    8
 10
-346.6589317831531
 20
122.570158687653
 30
0
  0
VERTEX
  5
499
  8
FIXTURES
  6
BYLAYER
 62
    8
 10
-353.2715861041506
 20
123.3093562184949
 30
0
  0
VERTEX
  5
49A
  8
FIXTURES
  6
BYLAYER
 62
    8
 10
-359.7916478325351
 20
123.974479675293
 30
0
  0
VERTEX
  5
49B
  8
FIXTURES
  6
BYLAYER
 62
    8
 10
-366.1728206720436
 20
124.5562697987189
 30
0
  0
VERTEX
  5
49C
  8
FIXTURES
  6
BYLAYER
 62
    8
 10
-369.9784653673269
 20
124.8567403761554
 30
0
  0
SEQEND
  5
49D
  8
FIXTURES
  6
BYLAYER
 62
    8
  0
POLYLINE
  5
49E
  8
FIXTURES
  6
BYLAYER
 62
    8
 66
    1
 10
0
 20
0
 30
0
 70
    0
  0
VERTEX
  5
49F
  8
FIXTURES
  6
BYLAYER
 62
    8
 10
-220.9569152275944
 20
-26.40052032470703
 30
0
  0
VERTEX
  5
4A0
  8
FIXTURES
  6
BYLAYER
 62
    8
 10
-221.1697342522966
 20
-30.9499030407751
 30
0
  0
VERTEX
  5
4A1
  8
FIXTURES
  6
BYLAYER
 62
    8
 10
-221.8853978325351
 20
-40.9421869913931
 30
0
  0
VERTEX
  5
4A2
  8
FIXTURES
  6
BYLAYER
 62
    8
 10
-222.6913391905691
 20
-48.29558205313515
 30
0
  0
VERTEX
  5
4A3
  8
FIXTURES
  6
BYLAYER
 62
    8
 10
-223.5898731411871
 20
-53.79712526296498
 30
0
  0
VERTEX
  5
4A4
  8
FIXTURES
  6
BYLAYER
 62
    8
 10
-224.5833144992066
 20
-58.23385365802096
 30
0
  0
VERTEX
  5
4A5
  8
FIXTURES
  6
BYLAYER
 62
    8
 10
-225.6816941288416
 20
-62.26934748521307
 30
0
  0
VERTEX
  5
4A6
  8
FIXTURES
  6
BYLAYER
 62
    8
 10
-226.9259070918051
 20
-66.07335983088706
 30
0
  0
VERTEX
  5
4A7
  8
FIXTURES
  6
BYLAYER
 62
    8
 10
-228.3645644992066
 20
-69.6921869913931
 30
0
  0
VERTEX
  5
4A8
  8
FIXTURES
  6
BYLAYER
 62
    8
 10
-230.0462774621701
 20
-73.17212526296498
 30
0
  0
VERTEX
  5
4A9
  8
FIXTURES
  6
BYLAYER
 62
    8
 10
-232.0196570918051
 20
-76.5594709420111
 30
0
  0
VERTEX
  5
4AA
  8
FIXTURES
  6
BYLAYER
 62
    8
 10
-234.3333144992066
 20
-79.90052032470703
 30
0
  0
VERTEX
  5
4AB
  8
FIXTURES
  6
BYLAYER
 62
    8
 10
-237.0200428942626
 20
-83.22613760863896
 30
0
  0
VERTEX
  5
4AC
  8
FIXTURES
  6
BYLAYER
 62
    8
 10
-240.0493638819171
 20
-86.50545859633712
 30
0
  0
VERTEX
  5
4AD
  8
FIXTURES
  6
BYLAYER
 62
    8
 10
-243.3749811658781
 20
-89.6921869913931
 30
0
  0
VERTEX
  5
4AE
  8
FIXTURES
  6
BYLAYER
 62
    8
 10
-246.9505984498246
 20
-92.74002649757313
 30
0
  0
VERTEX
  5
4AF
  8
FIXTURES
  6
BYLAYER
 62
    8
 10
-250.7299194374791
 20
-95.60268081852701
 30
0
  0
VERTEX
  5
4B0
  8
FIXTURES
  6
BYLAYER
 62
    8
 10
-254.6666478325351
 20
-98.23385365802096
 30
0
  0
VERTEX
  5
4B1
  8
FIXTURES
  6
BYLAYER
 62
    8
 10
-258.7144873387151
 20
-100.5995943988091
 30
0
  0
VERTEX
  5
4B2
  8
FIXTURES
  6
BYLAYER
 62
    8
 10
-262.8271416596981
 20
-102.7153351395391
 30
0
  0
VERTEX
  5
4B3
  8
FIXTURES
  6
BYLAYER
 62
    8
 10
-266.9583144992066
 20
-104.608853658021
 30
0
  0
VERTEX
  5
4B4
  8
FIXTURES
  6
BYLAYER
 62
    8
 10
-271.0617095609341
 20
-106.3079277321231
 30
0
  0
VERTEX
  5
4B5
  8
FIXTURES
  6
BYLAYER
 62
    8
 10
-275.0910305485886
 20
-107.8403351395391
 30
0
  0
VERTEX
  5
4B6
  8
FIXTURES
  6
BYLAYER
 62
    8
 10
-278.9999811658781
 20
-109.233853658021
 30
0
  0
VERTEX
  5
4B7
  8
FIXTURES
  6
BYLAYER
 62
    8
 10
-282.7700428942626
 20
-110.514717855549
 30
0
  0
VERTEX
  5
4B8
  8
FIXTURES
  6
BYLAYER
 62
    8
 10
-286.4938083263696
 20
-111.702989460493
 30
0
  0
VERTEX
  5
4B9
  8
FIXTURES
  6
BYLAYER
 62
    8
 10
-290.2916478325351
 20
-112.8171869913931
 30
0
  0
VERTEX
  5
4BA
  8
FIXTURES
  6
BYLAYER
 62
    8
 10
-294.2839317831531
 20
-113.875828966673
 30
0
  0
VERTEX
  5
4BB
  8
FIXTURES
  6
BYLAYER
 62
    8
 10
-298.5910305485886
 20
-114.8974339049309
 30
0
  0
VERTEX
  5
4BC
  8
FIXTURES
  6
BYLAYER
 62
    8
 10
-303.3333144992066
 20
-115.900520324707
 30
0
  0
VERTEX
  5
4BD
  8
FIXTURES
  6
BYLAYER
 62
    8
 10
-308.5956601782236
 20
-116.898977114819
 30
0
  0
VERTEX
  5
4BE
  8
FIXTURES
  6
BYLAYER
 62
    8
 10
-314.3209688201896
 20
-117.8881746457191
 30
0
  0
VERTEX
  5
4BF
  8
FIXTURES
  6
BYLAYER
 62
    8
 10
-320.4166478325351
 20
-118.858853658021
 30
0
  0
VERTEX
  5
4C0
  8
FIXTURES
  6
BYLAYER
 62
    8
 10
-326.7901046226616
 20
-119.8017548926291
 30
0
  0
VERTEX
  5
4C1
  8
FIXTURES
  6
BYLAYER
 62
    8
 10
-333.3487465979706
 20
-120.7076190901571
 30
0
  0
VERTEX
  5
4C2
  8
FIXTURES
  6
BYLAYER
 62
    8
 10
-339.9999811658781
 20
-121.5671869913931
 30
0
  0
VERTEX
  5
4C3
  8
FIXTURES
  6
BYLAYER
 62
    8
 10
-346.6589317831531
 20
-122.3711993370671
 30
0
  0
VERTEX
  5
4C4
  8
FIXTURES
  6
BYLAYER
 62
    8
 10
-353.2715861041506
 20
-123.110396867909
 30
0
  0
VERTEX
  5
4C5
  8
FIXTURES
  6
BYLAYER
 62
    8
 10
-359.7916478325351
 20
-123.775520324707
 30
0
  0
VERTEX
  5
4C6
  8
FIXTURES
  6
BYLAYER
 62
    8
 10
-366.1728206720436
 20
-124.3573104481911
 30
0
  0
VERTEX
  5
4C7
  8
FIXTURES
  6
BYLAYER
 62
    8
 10
-369.9784653673269
 20
-124.6577810256276
 30
0
  0
SEQEND
  5
4C8
  8
FIXTURES
  6
BYLAYER
 62
    8
  0
ARC
  5
4C9
  8
FIXTURES
  6
BYLAYER
 62
  142
 10
386.7792648512986
 20
-129.7320623276755
 40
4.49657638382003
 50
183.9283926874139
 51
356.148904242289
  0
ARC
  5
4CA
  8
FIXTURES
  6
BYLAYER
 62
  142
 10
-246.3533589628787
 20
-44.28232345642755
 40
7.102095847267896
 50
307.5294956378662
 51
7.390548282345751
  0
ARC
  5
4CB
  8
FIXTURES
  6
BYLAYER
 62
  142
 10
-220.1581229013391
 20
-94.92214434919879
 40
50.03927120890582
 50
115.9147799941815
 51
163.8894626412249
  0
ARC
  5
4CC
  8
FIXTURES
  6
BYLAYER
 62
  142
 10
-273.2246286459558
 20
-77.75780680216849
 40
5.972835550840276
 50
253.4374292642412
 51
326.7040195777392
  0
LINE
  5
4CD
  8
FIXTURES
  6
BYLAYER
 62
  142
 10
-252.9999811658781
 20
-72.40052032470703
 11
-246.9999811658781
 21
-72.40052032470703
  0
CIRCLE
  5
4CE
  8
FIXTURES
  6
BYLAYER
 62
  142
 10
-249.9999811658781
 20
-72.40052032470703
 40
4
  0
CIRCLE
  5
4CF
  8
FIXTURES
  6
BYLAYER
 62
  142
 10
-249.9999811658781
 20
-72.40052032470703
 40
7
  0
LINE
  5
4D0
  8
FIXTURES
  6
BYLAYER
 62
  142
 10
-249.9999811658781
 20
-75.40052032470703
 11
-249.9999811658781
 21
-69.40052032470703
  0
ARC
  5
4D1
  8
FIXTURES
  6
BYLAYER
 62
  142
 10
-246.3533589628787
 20
44.48128280701349
 40
7.102095847267896
 50
352.6094517176542
 51
52.4705043621338
  0
ARC
  5
4D2
  8
FIXTURES
  6
BYLAYER
 62
  142
 10
386.7792648512986
 20
129.9310216782615
 40
4.49657638382003
 50
3.851095757710954
 51
176.0716073125861
  0
ARC
  5
4D3
  8
FIXTURES
  6
BYLAYER
 62
  142
 10
-273.2246286459558
 20
77.95676615275443
 40
5.972835550840276
 50
33.29598042226078
 51
106.5625707357588
  0
LINE
  5
4D4
  8
FIXTURES
  6
BYLAYER
 62
  142
 10
-252.9999811658781
 20
72.59947967529297
 11
-246.9999811658781
 21
72.59947967529297
  0
CIRCLE
  5
4D5
  8
FIXTURES
  6
BYLAYER
 62
  142
 10
-249.9999811658781
 20
72.59947967529297
 40
4
  0
CIRCLE
  5
4D6
  8
FIXTURES
  6
BYLAYER
 62
  142
 10
-249.9999811658781
 20
72.59947967529297
 40
7
  0
LINE
  5
4D7
  8
FIXTURES
  6
BYLAYER
 62
  142
 10
-249.9999811658781
 20
69.59947967529297
 11
-249.9999811658781
 21
75.59947967529297
  0
ARC
  5
4D8
  8
FIXTURES
  6
BYLAYER
 62
    8
 10
-81.58798914875661
 20
-0.1131055140285753
 40
33
 50
0.8681510894366207
 51
179.1318489105634
  0
LINE
  5
4D9
  8
FIXTURES
  6
BYLAYER
 62
    8
 10
-114.5842010525521
 20
0.3868944859714247
 11
-48.59177724496112
 21
0.3868944859714247
  0
LINE
  5
4DA
  8
FIXTURES
  6
BYLAYER
 62
    8
 10
-114.5842010525521
 20
-0.6131055140285753
 11
-48.59177724496112
 21
-0.6131055140285753
  0
ARC
  5
4DB
  8
FIXTURES
  6
BYLAYER
 62
    8
 10
-81.58798914875661
 20
-0.1131055140285753
 40
33
 50
180.8681510894366
 51
359.1318489105633
  0
CIRCLE
  5
4DC
  8
FIXTURES
  6
BYLAYER
 62
  142
 10
-81.58798914875661
 20
-23.11310551402858
 40
0.75
  0
CIRCLE
  5
4DD
  8
FIXTURES
  6
BYLAYER
 62
  142
 10
-81.58798914875661
 20
-8.113105514028575
 40
0.75
  0
CIRCLE
  5
4DE
  8
FIXTURES
  6
BYLAYER
 62
  142
 10
-74.08798914875661
 20
-15.61310551402858
 40
0.75
  0
CIRCLE
  5
4DF
  8
FIXTURES
  6
BYLAYER
 62
  142
 10
-76.28468828985933
 20
-20.9164063729113
 40
0.75
  0
CIRCLE
  5
4E0
  8
FIXTURES
  6
BYLAYER
 62
  142
 10
-76.28468828985933
 20
-10.30980465508765
 40
0.75
  0
CIRCLE
  5
4E1
  8
FIXTURES
  6
BYLAYER
 62
  142
 10
-86.89129000765388
 20
-20.9164063729113
 40
0.75
  0
CIRCLE
  5
4E2
  8
FIXTURES
  6
BYLAYER
 62
  142
 10
-89.08798914875661
 20
-15.61310551402858
 40
0.75
  0
CIRCLE
  5
4E3
  8
FIXTURES
  6
BYLAYER
 62
  142
 10
-86.89129000765388
 20
-10.30980465508765
 40
0.75
  0
CIRCLE
  5
4E4
  8
FIXTURES
  6
BYLAYER
 62
  142
 10
-81.58798914875661
 20
22.88689448597142
 40
0.75
  0
CIRCLE
  5
4E5
  8
FIXTURES
  6
BYLAYER
 62
  142
 10
-74.08798914875661
 20
15.38689448597142
 40
0.75
  0
CIRCLE
  5
4E6
  8
FIXTURES
  6
BYLAYER
 62
  142
 10
-76.28468828985933
 20
20.69019534491235
 40
0.75
  0
CIRCLE
  5
4E7
  8
FIXTURES
  6
BYLAYER
 62
  142
 10
-89.08798914875661
 20
15.38689448597142
 40
0.75
  0
CIRCLE
  5
4E8
  8
FIXTURES
  6
BYLAYER
 62
  142
 10
-86.89129000765388
 20
20.69019534491235
 40
0.75
  0
LINE
  5
4E9
  8
FIXTURES
  6
BYLAYER
 62
    8
 10
0
 20
205
 11
-51.98989868164062
 21
205
  0
LINE
  5
4EA
  8
FIXTURES
  6
BYLAYER
 62
    8
 10
0
 20
-205
 11
1.455191522836685e-11
 21
205
  0
ENDBLK
  8
0
  0
BLOCK
  8
0
  2
*MODEL_SPACE
 70
   64
 10
0
 20
0
  3
*MODEL_SPACE
  1

  0
ENDBLK
  8
0
  0
BLOCK
  8
0
  2
_ARCHTICK
 70
   64
 10
0
 20
0
  3
_ARCHTICK
  1

  0
ENDBLK
  8
0
  0
ENDSEC
  0
SECTION
  2
ENTITIES
  0
INSERT
  5
4EB
  8
FIXTURES
  6
BYLAYER
 62
  256
  2
BFA BASIN-CAROMA CUBE CARE WB-PLAN
 10
117762.6925957132
 20
-361764.4677347574
 30
0
 41
-1
 42
1
 43
1
 50
270
 70
    1
 71
    1
 44
0
 45
0
  0
LINE
  5
4EC
  8
FIXTURES
  6
HIDDEN
 62
  256
 10
117747.6936340004
 20
-361967.4677347574
 11
117747.6936340004
 21
-361561.7350534571
  0
LINE
  5
4ED
  8
WALL
  6
BYLAYER
 62
  256
 10
115362.6936340002
 20
-362164.4687730434
 11
117762.6936340003
 21
-362164.4687730431
  0
LINE
  5
4EE
  8
WALL
  6
BYLAYER
 62
  256
 10
115272.6936340003
 20
-362314.4687730434
 11
117852.6936340004
 21
-362314.4687730432
  0
LINE
  5
4EF
  8
WALL
  6
BYLAYER
 62
  256
 10
117952.6936340003
 20
-360154.4687730428
 11
117952.6936340003
 21
-360064.4687730429
  0
ARC
  5
4F0
  8
HTCH-BNDY
  6
HIDDEN
 62
  256
 10
117762.6936340003
 20
-360244.4687730431
 40
1170
 50
175.5882742142266
 51
270
  0
ARC
  5
4F1
  8
DOOR
  6
BYLAYER
 62
    8
 10
117762.6936340004
 20
-360229.4687730431
 40
870
 50
182.3056248298056
 51
270
  0
ARC
  5
4F2
  8
HTCH-BNDY
  6
HIDDEN
 62
  256
 10
116033.1549720193
 20
-361715.4095226795
 40
1253.121657679644
 50
338.9548691837687
 51
47.71616625280637
  0
ARC
  5
4F3
  8
HTCH-BNDY
  6
HIDDEN
 62
  256
 10
115952.9942617299
 20
-361784.2445494017
 40
1358.041831201662
 50
47.16802097922564
 51
115.7643247298256
  0
POLYLINE
  5
4F4
  8
ELEV-01
  6
BYLAYER
 62
  256
 66
    1
 10
0
 20
0
 30
0
 70
    0
  0
VERTEX
  5
4F5
  8
ELEV-01
  6
BYLAYER
 62
  256
 10
115378.6936340005
 20
-361445.4832522558
 30
0
  0
VERTEX
  5
4F6
  8
ELEV-01
  6
BYLAYER
 62
  256
 10
115378.6815885625
 20
-361444.3785191227
 30
0
  0
VERTEX
  5
4F7
  8
ELEV-01
  6
BYLAYER
 62
  256
 10
115378.6454812672
 20
-361443.2764473885
 30
0
  0
VERTEX
  5
4F8
  8
ELEV-01
  6
BYLAYER
 62
  256
 10
115378.5853991001
 20
-361442.1796920405
 30
0
  0
VERTEX
  5
4F9
  8
ELEV-01
  6
BYLAYER
 62
  256
 10
115378.5014868045
 20
-361441.0908952584
 30
0
  0
VERTEX
  5
4FA
  8
ELEV-01
  6
BYLAYER
 62
  256
 10
115378.3939465324
 20
-361440.0126800491
 30
0
  0
VERTEX
  5
4FB
  8
ELEV-01
  6
BYLAYER
 62
  256
 10
115378.2630373578
 20
-361438.9476439273
 30
0
  0
VERTEX
  5
4FC
  8
ELEV-01
  6
BYLAYER
 62
  256
 10
115378.1090746523
 20
-361437.8983526585
 30
0
  0
VERTEX
  5
4FD
  8
ELEV-01
  6
BYLAYER
 62
  256
 10
115377.9324293256
 20
-361436.8673340771
 30
0
  0
VERTEX
  5
4FE
  8
ELEV-01
  6
BYLAYER
 62
  256
 10
115377.7335269317
 20
-361435.8570719974
 30
0
  0
VERTEX
  5
4FF
  8
ELEV-01
  6
BYLAYER
 62
  256
 10
115377.5128466439
 20
-361434.8700002289
 30
0
  0
VERTEX
  5
500
  8
ELEV-01
  6
BYLAYER
 62
  256
 10
115377.2709201005
 20
-361433.9084967143
 30
0
  0
VERTEX
  5
501
  8
ELEV-01
  6
BYLAYER
 62
  256
 10
115377.0083301235
 20
-361432.9748777996
 30
0
  0
VERTEX
  5
502
  8
ELEV-01
  6
BYLAYER
 62
  256
 10
115376.7257093153
 20
-361432.0713926546
 30
0
  0
VERTEX
  5
503
  8
ELEV-01
  6
BYLAYER
 62
  256
 10
115376.4237385341
 20
-361431.200217854
 30
0
  0
VERTEX
  5
504
  8
ELEV-01
  6
BYLAYER
 62
  256
 10
115376.103145254
 20
-361430.3634521344
 30
0
  0
VERTEX
  5
505
  8
ELEV-01
  6
BYLAYER
 62
  256
 10
115375.7647018123
 20
-361429.5631113377
 30
0
  0
VERTEX
  5
506
  8
ELEV-01
  6
BYLAYER
 62
  256
 10
115375.4092235489
 20
-361428.8011235548
 30
0
  0
VERTEX
  5
507
  8
ELEV-01
  6
BYLAYER
 62
  256
 10
115375.0375668421
 20
-361428.0793244811
 30
0
  0
VERTEX
  5
508
  8
ELEV-01
  6
BYLAYER
 62
  256
 10
115374.6506270454
 20
-361427.3994529939
 30
0
  0
VERTEX
  5
509
  8
ELEV-01
  6
BYLAYER
 62
  256
 10
115374.2493363306
 20
-361426.763146963
 30
0
  0
VERTEX
  5
50A
  8
ELEV-01
  6
BYLAYER
 62
  256
 10
115373.8346614424
 20
-361426.1719393056
 30
0
  0
VERTEX
  5
50B
  8
ELEV-01
  6
BYLAYER
 62
  256
 10
115373.4076013687
 20
-361425.6272542924
 30
0
  0
VERTEX
  5
50C
  8
ELEV-01
  6
BYLAYER
 62
  256
 10
115372.9691849347
 20
-361425.1304041175
 30
0
  0
VERTEX
  5
50D
  8
ELEV-01
  6
BYLAYER
 62
  256
 10
115372.5204683241
 20
-361424.6825857365
 30
0
  0
VERTEX
  5
50E
  8
ELEV-01
  6
BYLAYER
 62
  256
 10
115372.0625325344
 20
-361424.284877983
 30
0
  0
VERTEX
  5
50F
  8
ELEV-01
  6
BYLAYER
 62
  256
 10
115371.596480773
 20
-361423.93823897
 30
0
  0
VERTEX
  5
510
  8
ELEV-01
  6
BYLAYER
 62
  256
 10
115371.1234357995
 20
-361423.6435037811
 30
0
  0
VERTEX
  5
511
  8
ELEV-01
  6
BYLAYER
 62
  256
 10
115370.6445372206
 20
-361423.4013824592
 30
0
  0
VERTEX
  5
512
  8
ELEV-01
  6
BYLAYER
 62
  256
 10
115370.160938745
 20
-361423.2124582957
 30
0
  0
VERTEX
  5
513
  8
ELEV-01
  6
BYLAYER
 62
  256
 10
115369.6738054037
 20
-361423.0771864256
 30
0
  0
VERTEX
  5
514
  8
ELEV-01
  6
BYLAYER
 62
  256
 10
115369.1843107437
 20
-361422.9958927307
 30
0
  0
SEQEND
  5
515
  8
ELEV-01
  6
BYLAYER
 62
  256
  0
LINE
  5
516
  8
ELEV-01
  6
BYLAYER
 62
  256
 10
115362.6936340004
 20
-361422.9687730544
 11
115368.6936340004
 21
-361422.9687730544
  0
POLYLINE
  5
517
  8
ELEV-01
  6
BYLAYER
 62
  256
 66
    1
 10
0
 20
0
 30
0
 70
    0
210
0
220
0
230
-1
  0
VERTEX
  5
518
  8
ELEV-01
  6
BYLAYER
 62
  256
 10
115358.6936340004
 20
-361483.4542938531
 30
0
  0
VERTEX
  5
519
  8
ELEV-01
  6
BYLAYER
 62
  256
 10
115358.7056794383
 20
-361484.5590269862
 30
0
  0
VERTEX
  5
51A
  8
ELEV-01
  6
BYLAYER
 62
  256
 10
115358.7417867336
 20
-361485.6610987204
 30
0
  0
VERTEX
  5
51B
  8
ELEV-01
  6
BYLAYER
 62
  256
 10
115358.8018689007
 20
-361486.7578540685
 30
0
  0
VERTEX
  5
51C
  8
ELEV-01
  6
BYLAYER
 62
  256
 10
115358.8857811963
 20
-361487.8466508506
 30
0
  0
VERTEX
  5
51D
  8
ELEV-01
  6
BYLAYER
 62
  256
 10
115358.9933214684
 20
-361488.9248660599
 30
0
  0
VERTEX
  5
51E
  8
ELEV-01
  6
BYLAYER
 62
  256
 10
115359.124230643
 20
-361489.9899021817
 30
0
  0
VERTEX
  5
51F
  8
ELEV-01
  6
BYLAYER
 62
  256
 10
115359.2781933485
 20
-361491.0391934505
 30
0
  0
VERTEX
  5
520
  8
ELEV-01
  6
BYLAYER
 62
  256
 10
115359.4548386753
 20
-361492.0702120318
 30
0
  0
VERTEX
  5
521
  8
ELEV-01
  6
BYLAYER
 62
  256
 10
115359.6537410691
 20
-361493.0804741116
 30
0
  0
VERTEX
  5
522
  8
ELEV-01
  6
BYLAYER
 62
  256
 10
115359.8744213569
 20
-361494.06754588
 30
0
  0
VERTEX
  5
523
  8
ELEV-01
  6
BYLAYER
 62
  256
 10
115360.1163479004
 20
-361495.0290493947
 30
0
  0
VERTEX
  5
524
  8
ELEV-01
  6
BYLAYER
 62
  256
 10
115360.3789378774
 20
-361495.9626683094
 30
0
  0
VERTEX
  5
525
  8
ELEV-01
  6
BYLAYER
 62
  256
 10
115360.6615586856
 20
-361496.8661534544
 30
0
  0
VERTEX
  5
526
  8
ELEV-01
  6
BYLAYER
 62
  256
 10
115360.9635294667
 20
-361497.737328255
 30
0
  0
VERTEX
  5
527
  8
ELEV-01
  6
BYLAYER
 62
  256
 10
115361.2841227468
 20
-361498.5740939745
 30
0
  0
VERTEX
  5
528
  8
ELEV-01
  6
BYLAYER
 62
  256
 10
115361.6225661885
 20
-361499.3744347713
 30
0
  0
VERTEX
  5
529
  8
ELEV-01
  6
BYLAYER
 62
  256
 10
115361.9780444519
 20
-361500.1364225542
 30
0
  0
VERTEX
  5
52A
  8
ELEV-01
  6
BYLAYER
 62
  256
 10
115362.3497011587
 20
-361500.8582216278
 30
0
  0
VERTEX
  5
52B
  8
ELEV-01
  6
BYLAYER
 62
  256
 10
115362.7366409555
 20
-361501.5380931151
 30
0
  0
VERTEX
  5
52C
  8
ELEV-01
  6
BYLAYER
 62
  256
 10
115363.1379316702
 20
-361502.1743991459
 30
0
  0
VERTEX
  5
52D
  8
ELEV-01
  6
BYLAYER
 62
  256
 10
115363.5526065585
 20
-361502.7656068034
 30
0
  0
VERTEX
  5
52E
  8
ELEV-01
  6
BYLAYER
 62
  256
 10
115363.9796666321
 20
-361503.3102918166
 30
0
  0
VERTEX
  5
52F
  8
ELEV-01
  6
BYLAYER
 62
  256
 10
115364.4180830661
 20
-361503.8071419914
 30
0
  0
VERTEX
  5
530
  8
ELEV-01
  6
BYLAYER
 62
  256
 10
115364.8667996767
 20
-361504.2549603725
 30
0
  0
VERTEX
  5
531
  8
ELEV-01
  6
BYLAYER
 62
  256
 10
115365.3247354665
 20
-361504.6526681259
 30
0
  0
VERTEX
  5
532
  8
ELEV-01
  6
BYLAYER
 62
  256
 10
115365.7907872279
 20
-361504.999307139
 30
0
  0
VERTEX
  5
533
  8
ELEV-01
  6
BYLAYER
 62
  256
 10
115366.2638322014
 20
-361505.2940423279
 30
0
  0
VERTEX
  5
534
  8
ELEV-01
  6
BYLAYER
 62
  256
 10
115366.7427307802
 20
-361505.5361636498
 30
0
  0
VERTEX
  5
535
  8
ELEV-01
  6
BYLAYER
 62
  256
 10
115367.2263292558
 20
-361505.7250878133
 30
0
  0
VERTEX
  5
536
  8
ELEV-01
  6
BYLAYER
 62
  256
 10
115367.7134625971
 20
-361505.8603596833
 30
0
  0
VERTEX
  5
537
  8
ELEV-01
  6
BYLAYER
 62
  256
 10
115368.2029572571
 20
-361505.9416533783
 30
0
  0
SEQEND
  5
538
  8
ELEV-01
  6
BYLAYER
 62
  256
  0
LINE
  5
539
  8
ELEV-01
  6
BYLAYER
 62
  256
 10
115378.6936340004
 20
-361483.4542938531
 11
115378.6936340004
 21
-361445.4832522558
  0
LINE
  5
53A
  8
ELEV-01
  6
BYLAYER
 62
  256
 10
115362.6936340004
 20
-361505.9687730545
 11
115368.6936340004
 21
-361505.9687730545
  0
ARC
  5
53B
  8
ELEV-01
  6
BYLAYER
 62
  256
 10
115388.6936340004
 20
-361424.4687730545
 40
23.99999999994179
 50
270
 51
7.016709298534876e-15
  0
ARC
  5
53C
  8
ELEV-01
  6
BYLAYER
 62
  256
 10
115388.6936340004
 20
-361424.4687730545
 40
55.99999999994179
 50
270
 51
7.016709298534876e-15
  0
LINE
  5
53D
  8
ELEV-01
  6
BYLAYER
 62
  256
 10
115378.6936340004
 20
-361448.4687730545
 11
115388.6936340004
 21
-361448.4687730545
  0
LINE
  5
53E
  8
ELEV-01
  6
BYLAYER
 62
  256
 10
115378.6936340004
 20
-361480.4687730545
 11
115388.6936340004
 21
-361480.4687730545
  0
POLYLINE
  5
53F
  8
ELEV-01
  6
BYLAYER
 62
  256
 66
    1
 10
0
 20
0
 30
0
 70
    0
210
0
220
0
230
-1
  0
VERTEX
  5
540
  8
ELEV-01
  6
BYLAYER
 62
  256
 10
115358.6936340004
 20
-361183.4542938531
 30
0
  0
VERTEX
  5
541
  8
ELEV-01
  6
BYLAYER
 62
  256
 10
115358.7056794383
 20
-361184.5590269862
 30
0
  0
VERTEX
  5
542
  8
ELEV-01
  6
BYLAYER
 62
  256
 10
115358.7417867336
 20
-361185.6610987204
 30
0
  0
VERTEX
  5
543
  8
ELEV-01
  6
BYLAYER
 62
  256
 10
115358.8018689007
 20
-361186.7578540685
 30
0
  0
VERTEX
  5
544
  8
ELEV-01
  6
BYLAYER
 62
  256
 10
115358.8857811963
 20
-361187.8466508506
 30
0
  0
VERTEX
  5
545
  8
ELEV-01
  6
BYLAYER
 62
  256
 10
115358.9933214684
 20
-361188.9248660599
 30
0
  0
VERTEX
  5
546
  8
ELEV-01
  6
BYLAYER
 62
  256
 10
115359.124230643
 20
-361189.9899021817
 30
0
  0
VERTEX
  5
547
  8
ELEV-01
  6
BYLAYER
 62
  256
 10
115359.2781933485
 20
-361191.0391934505
 30
0
  0
VERTEX
  5
548
  8
ELEV-01
  6
BYLAYER
 62
  256
 10
115359.4548386753
 20
-361192.0702120318
 30
0
  0
VERTEX
  5
549
  8
ELEV-01
  6
BYLAYER
 62
  256
 10
115359.6537410691
 20
-361193.0804741116
 30
0
  0
VERTEX
  5
54A
  8
ELEV-01
  6
BYLAYER
 62
  256
 10
115359.8744213569
 20
-361194.06754588
 30
0
  0
VERTEX
  5
54B
  8
ELEV-01
  6
BYLAYER
 62
  256
 10
115360.1163479004
 20
-361195.0290493947
 30
0
  0
VERTEX
  5
54C
  8
ELEV-01
  6
BYLAYER
 62
  256
 10
115360.3789378774
 20
-361195.9626683094
 30
0
  0
VERTEX
  5
54D
  8
ELEV-01
  6
BYLAYER
 62
  256
 10
115360.6615586856
 20
-361196.8661534544
 30
0
  0
VERTEX
  5
54E
  8
ELEV-01
  6
BYLAYER
 62
  256
 10
115360.9635294667
 20
-361197.737328255
 30
0
  0
VERTEX
  5
54F
  8
ELEV-01
  6
BYLAYER
 62
  256
 10
115361.2841227468
 20
-361198.5740939745
 30
0
  0
VERTEX
  5
550
  8
ELEV-01
  6
BYLAYER
 62
  256
 10
115361.6225661885
 20
-361199.3744347713
 30
0
  0
VERTEX
  5
551
  8
ELEV-01
  6
BYLAYER
 62
  256
 10
115361.9780444519
 20
-361200.1364225542
 30
0
  0
VERTEX
  5
552
  8
ELEV-01
  6
BYLAYER
 62
  256
 10
115362.3497011587
 20
-361200.8582216278
 30
0
  0
VERTEX
  5
553
  8
ELEV-01
  6
BYLAYER
 62
  256
 10
115362.7366409555
 20
-361201.5380931151
 30
0
  0
VERTEX
  5
554
  8
ELEV-01
  6
BYLAYER
 62
  256
 10
115363.1379316702
 20
-361202.1743991459
 30
0
  0
VERTEX
  5
555
  8
ELEV-01
  6
BYLAYER
 62
  256
 10
115363.5526065585
 20
-361202.7656068034
 30
0
  0
VERTEX
  5
556
  8
ELEV-01
  6
BYLAYER
 62
  256
 10
115363.9796666321
 20
-361203.3102918166
 30
0
  0
VERTEX
  5
557
  8
ELEV-01
  6
BYLAYER
 62
  256
 10
115364.4180830661
 20
-361203.8071419914
 30
0
  0
VERTEX
  5
558
  8
ELEV-01
  6
BYLAYER
 62
  256
 10
115364.8667996767
 20
-361204.2549603725
 30
0
  0
VERTEX
  5
559
  8
ELEV-01
  6
BYLAYER
 62
  256
 10
115365.3247354665
 20
-361204.6526681259
 30
0
  0
VERTEX
  5
55A
  8
ELEV-01
  6
BYLAYER
 62
  256
 10
115365.7907872279
 20
-361204.999307139
 30
0
  0
VERTEX
  5
55B
  8
ELEV-01
  6
BYLAYER
 62
  256
 10
115366.2638322014
 20
-361205.2940423279
 30
0
  0
VERTEX
  5
55C
  8
ELEV-01
  6
BYLAYER
 62
  256
 10
115366.7427307802
 20
-361205.5361636498
 30
0
  0
VERTEX
  5
55D
  8
ELEV-01
  6
BYLAYER
 62
  256
 10
115367.2263292558
 20
-361205.7250878133
 30
0
  0
VERTEX
  5
55E
  8
ELEV-01
  6
BYLAYER
 62
  256
 10
115367.7134625971
 20
-361205.8603596833
 30
0
  0
VERTEX
  5
55F
  8
ELEV-01
  6
BYLAYER
 62
  256
 10
115368.2029572571
 20
-361205.9416533783
 30
0
  0
SEQEND
  5
560
  8
ELEV-01
  6
BYLAYER
 62
  256
  0
LINE
  5
561
  8
ELEV-01
  6
BYLAYER
 62
  256
 10
115362.6936340004
 20
-361205.9687730545
 11
115368.6936340004
 21
-361205.9687730545
  0
POLYLINE
  5
562
  8
ELEV-01
  6
BYLAYER
 62
  256
 66
    1
 10
0
 20
0
 30
0
 70
    0
  0
VERTEX
  5
563
  8
ELEV-01
  6
BYLAYER
 62
  256
 10
115378.6936340005
 20
-361145.4832522558
 30
0
  0
VERTEX
  5
564
  8
ELEV-01
  6
BYLAYER
 62
  256
 10
115378.6815885625
 20
-361144.3785191227
 30
0
  0
VERTEX
  5
565
  8
ELEV-01
  6
BYLAYER
 62
  256
 10
115378.6454812672
 20
-361143.2764473885
 30
0
  0
VERTEX
  5
566
  8
ELEV-01
  6
BYLAYER
 62
  256
 10
115378.5853991001
 20
-361142.1796920405
 30
0
  0
VERTEX
  5
567
  8
ELEV-01
  6
BYLAYER
 62
  256
 10
115378.5014868045
 20
-361141.0908952584
 30
0
  0
VERTEX
  5
568
  8
ELEV-01
  6
BYLAYER
 62
  256
 10
115378.3939465324
 20
-361140.0126800491
 30
0
  0
VERTEX
  5
569
  8
ELEV-01
  6
BYLAYER
 62
  256
 10
115378.2630373578
 20
-361138.9476439273
 30
0
  0
VERTEX
  5
56A
  8
ELEV-01
  6
BYLAYER
 62
  256
 10
115378.1090746523
 20
-361137.8983526585
 30
0
  0
VERTEX
  5
56B
  8
ELEV-01
  6
BYLAYER
 62
  256
 10
115377.9324293256
 20
-361136.8673340771
 30
0
  0
VERTEX
  5
56C
  8
ELEV-01
  6
BYLAYER
 62
  256
 10
115377.7335269317
 20
-361135.8570719974
 30
0
  0
VERTEX
  5
56D
  8
ELEV-01
  6
BYLAYER
 62
  256
 10
115377.5128466439
 20
-361134.8700002289
 30
0
  0
VERTEX
  5
56E
  8
ELEV-01
  6
BYLAYER
 62
  256
 10
115377.2709201005
 20
-361133.9084967143
 30
0
  0
VERTEX
  5
56F
  8
ELEV-01
  6
BYLAYER
 62
  256
 10
115377.0083301235
 20
-361132.9748777996
 30
0
  0
VERTEX
  5
570
  8
ELEV-01
  6
BYLAYER
 62
  256
 10
115376.7257093153
 20
-361132.0713926546
 30
0
  0
VERTEX
  5
571
  8
ELEV-01
  6
BYLAYER
 62
  256
 10
115376.4237385341
 20
-361131.200217854
 30
0
  0
VERTEX
  5
572
  8
ELEV-01
  6
BYLAYER
 62
  256
 10
115376.103145254
 20
-361130.3634521344
 30
0
  0
VERTEX
  5
573
  8
ELEV-01
  6
BYLAYER
 62
  256
 10
115375.7647018123
 20
-361129.5631113377
 30
0
  0
VERTEX
  5
574
  8
ELEV-01
  6
BYLAYER
 62
  256
 10
115375.4092235489
 20
-361128.8011235548
 30
0
  0
VERTEX
  5
575
  8
ELEV-01
  6
BYLAYER
 62
  256
 10
115375.0375668421
 20
-361128.0793244811
 30
0
  0
VERTEX
  5
576
  8
ELEV-01
  6
BYLAYER
 62
  256
 10
115374.6506270454
 20
-361127.3994529939
 30
0
  0
VERTEX
  5
577
  8
ELEV-01
  6
BYLAYER
 62
  256
 10
115374.2493363306
 20
-361126.763146963
 30
0
  0
VERTEX
  5
578
  8
ELEV-01
  6
BYLAYER
 62
  256
 10
115373.8346614424
 20
-361126.1719393056
 30
0
  0
VERTEX
  5
579
  8
ELEV-01
  6
BYLAYER
 62
  256
 10
115373.4076013687
 20
-361125.6272542924
 30
0
  0
VERTEX
  5
57A
  8
ELEV-01
  6
BYLAYER
 62
  256
 10
115372.9691849347
 20
-361125.1304041175
 30
0
  0
VERTEX
  5
57B
  8
ELEV-01
  6
BYLAYER
 62
  256
 10
115372.5204683241
 20
-361124.6825857365
 30
0
  0
VERTEX
  5
57C
  8
ELEV-01
  6
BYLAYER
 62
  256
 10
115372.0625325344
 20
-361124.284877983
 30
0
  0
VERTEX
  5
57D
  8
ELEV-01
  6
BYLAYER
 62
  256
 10
115371.596480773
 20
-361123.93823897
 30
0
  0
VERTEX
  5
57E
  8
ELEV-01
  6
BYLAYER
 62
  256
 10
115371.1234357995
 20
-361123.6435037811
 30
0
  0
VERTEX
  5
57F
  8
ELEV-01
  6
BYLAYER
 62
  256
 10
115370.6445372206
 20
-361123.4013824592
 30
0
  0
VERTEX
  5
580
  8
ELEV-01
  6
BYLAYER
 62
  256
 10
115370.160938745
 20
-361123.2124582957
 30
0
  0
VERTEX
  5
581
  8
ELEV-01
  6
BYLAYER
 62
  256
 10
115369.6738054037
 20
-361123.0771864256
 30
0
  0
VERTEX
  5
582
  8
ELEV-01
  6
BYLAYER
 62
  256
 10
115369.1843107437
 20
-361122.9958927307
 30
0
  0
SEQEND
  5
583
  8
ELEV-01
  6
BYLAYER
 62
  256
  0
LINE
  5
584
  8
ELEV-01
  6
BYLAYER
 62
  256
 10
115378.6936340004
 20
-361145.4832522558
 11
115378.6936340004
 21
-361183.4542938531
  0
LINE
  5
585
  8
ELEV-01
  6
BYLAYER
 62
  256
 10
115362.6936340004
 20
-361122.9687730544
 11
115368.6936340004
 21
-361122.9687730544
  0
ARC
  5
586
  8
ELEV-01
  6
BYLAYER
 62
  256
 10
115388.6936340004
 20
-361204.4687730544
 40
23.99999999994179
 50
7.016709298534876e-15
 51
90
  0
ARC
  5
587
  8
ELEV-01
  6
BYLAYER
 62
  256
 10
115388.6936340004
 20
-361204.4687730544
 40
55.99999999994179
 50
7.016709298534876e-15
 51
90
  0
LINE
  5
588
  8
ELEV-01
  6
BYLAYER
 62
  256
 10
115378.6936340004
 20
-361180.4687730545
 11
115388.6936340004
 21
-361180.4687730545
  0
LINE
  5
589
  8
ELEV-01
  6
BYLAYER
 62
  256
 10
115378.6936340004
 20
-361148.4687730545
 11
115388.6936340004
 21
-361148.4687730545
  0
LINE
  5
58A
  8
FIXTURES
  6
BYLAYER
 62
    8
 10
115444.693633964
 20
-361424.4707915551
 30
-6.776263578034403e-21
 11
115444.6936339639
 21
-361204.4674508162
 31
-6.776263578034403e-21
  0
LINE
  5
58B
  8
FIXTURES
  6
BYLAYER
 62
    8
 10
115412.693633964
 20
-361424.4700944733
 30
-6.776263578034403e-21
 11
115412.6936339639
 21
-361204.4674508162
 31
-6.776263578034403e-21
  0
CIRCLE
  5
58C
  8
FIXTURES
  6
BYLAYER
 62
    8
 10
116312.6936340004
 20
-362098.4687730796
 40
16
  0
POLYLINE
  5
58D
  8
FIXTURES
  6
BYLAYER
 62
    8
 66
    1
 10
0
 20
0
 30
0
 70
    0
210
0
220
0
230
-1
  0
VERTEX
  5
58E
  8
FIXTURES
  6
BYLAYER
 62
    8
 10
116181.679154799
 20
-362168.4687730433
 30
0
  0
VERTEX
  5
58F
  8
FIXTURES
  6
BYLAYER
 62
    8
 10
116182.7838879321
 20
-362168.4567276054
 30
0
  0
VERTEX
  5
590
  8
FIXTURES
  6
BYLAYER
 62
    8
 10
116183.8859596663
 20
-362168.42062031
 30
0
  0
VERTEX
  5
591
  8
FIXTURES
  6
BYLAYER
 62
    8
 10
116184.9827150143
 20
-362168.360538143
 30
0
  0
VERTEX
  5
592
  8
FIXTURES
  6
BYLAYER
 62
    8
 10
116186.0715117964
 20
-362168.2766258473
 30
0
  0
VERTEX
  5
593
  8
FIXTURES
  6
BYLAYER
 62
    8
 10
116187.1497270058
 20
-362168.1690855753
 30
0
  0
VERTEX
  5
594
  8
FIXTURES
  6
BYLAYER
 62
    8
 10
116188.2147631275
 20
-362168.0381764006
 30
0
  0
VERTEX
  5
595
  8
FIXTURES
  6
BYLAYER
 62
    8
 10
116189.2640543963
 20
-362167.8842136951
 30
0
  0
VERTEX
  5
596
  8
FIXTURES
  6
BYLAYER
 62
    8
 10
116190.2950729777
 20
-362167.7075683684
 30
0
  0
VERTEX
  5
597
  8
FIXTURES
  6
BYLAYER
 62
    8
 10
116191.3053350575
 20
-362167.5086659745
 30
0
  0
VERTEX
  5
598
  8
FIXTURES
  6
BYLAYER
 62
    8
 10
116192.2924068259
 20
-362167.2879856868
 30
0
  0
VERTEX
  5
599
  8
FIXTURES
  6
BYLAYER
 62
    8
 10
116193.2539103405
 20
-362167.0460591433
 30
0
  0
VERTEX
  5
59A
  8
FIXTURES
  6
BYLAYER
 62
    8
 10
116194.1875292552
 20
-362166.7834691663
 30
0
  0
VERTEX
  5
59B
  8
FIXTURES
  6
BYLAYER
 62
    8
 10
116195.0910144003
 20
-362166.5008483581
 30
0
  0
VERTEX
  5
59C
  8
FIXTURES
  6
BYLAYER
 62
    8
 10
116195.9621892008
 20
-362166.1988775769
 30
0
  0
VERTEX
  5
59D
  8
FIXTURES
  6
BYLAYER
 62
    8
 10
116196.7989549204
 20
-362165.8782842968
 30
0
  0
VERTEX
  5
59E
  8
FIXTURES
  6
BYLAYER
 62
    8
 10
116197.5992957172
 20
-362165.5398408552
 30
0
  0
VERTEX
  5
59F
  8
FIXTURES
  6
BYLAYER
 62
    8
 10
116198.3612835
 20
-362165.1843625918
 30
0
  0
VERTEX
  5
5A0
  8
FIXTURES
  6
BYLAYER
 62
    8
 10
116199.0830825737
 20
-362164.8127058849
 30
0
  0
VERTEX
  5
5A1
  8
FIXTURES
  6
BYLAYER
 62
    8
 10
116199.7629540609
 20
-362164.4257660882
 30
0
  0
VERTEX
  5
5A2
  8
FIXTURES
  6
BYLAYER
 62
    8
 10
116200.3992600918
 20
-362164.0244753735
 30
0
  0
VERTEX
  5
5A3
  8
FIXTURES
  6
BYLAYER
 62
    8
 10
116200.9904677493
 20
-362163.6098004852
 30
0
  0
VERTEX
  5
5A4
  8
FIXTURES
  6
BYLAYER
 62
    8
 10
116201.5351527624
 20
-362163.1827404115
 30
0
  0
VERTEX
  5
5A5
  8
FIXTURES
  6
BYLAYER
 62
    8
 10
116202.0320029373
 20
-362162.7443239776
 30
0
  0
VERTEX
  5
5A6
  8
FIXTURES
  6
BYLAYER
 62
    8
 10
116202.4798213183
 20
-362162.2956073669
 30
0
  0
VERTEX
  5
5A7
  8
FIXTURES
  6
BYLAYER
 62
    8
 10
116202.8775290717
 20
-362161.8376715772
 30
0
  0
VERTEX
  5
5A8
  8
FIXTURES
  6
BYLAYER
 62
    8
 10
116203.2241680848
 20
-362161.3716198158
 30
0
  0
VERTEX
  5
5A9
  8
FIXTURES
  6
BYLAYER
 62
    8
 10
116203.5189032737
 20
-362160.8985748423
 30
0
  0
VERTEX
  5
5AA
  8
FIXTURES
  6
BYLAYER
 62
    8
 10
116203.7610245957
 20
-362160.4196762634
 30
0
  0
VERTEX
  5
5AB
  8
FIXTURES
  6
BYLAYER
 62
    8
 10
116203.9499487591
 20
-362159.9360777878
 30
0
  0
VERTEX
  5
5AC
  8
FIXTURES
  6
BYLAYER
 62
    8
 10
116204.0852206292
 20
-362159.4489444466
 30
0
  0
VERTEX
  5
5AD
  8
FIXTURES
  6
BYLAYER
 62
    8
 10
116204.1665143242
 20
-362158.9594497865
 30
0
  0
SEQEND
  5
5AE
  8
FIXTURES
  6
BYLAYER
 62
    8
  0
LINE
  5
5AF
  8
FIXTURES
  6
BYLAYER
 62
    8
 10
116204.1936340004
 20
-362164.4687730432
 11
116204.1936340004
 21
-362158.4687730432
  0
POLYLINE
  5
5B0
  8
FIXTURES
  6
BYLAYER
 62
    8
 66
    1
 10
0
 20
0
 30
0
 70
    0
  0
VERTEX
  5
5B1
  8
FIXTURES
  6
BYLAYER
 62
    8
 10
116143.7081132017
 20
-362148.4687730432
 30
0
  0
VERTEX
  5
5B2
  8
FIXTURES
  6
BYLAYER
 62
    8
 10
116142.6033800686
 20
-362148.4808184811
 30
0
  0
VERTEX
  5
5B3
  8
FIXTURES
  6
BYLAYER
 62
    8
 10
116141.5013083344
 20
-362148.5169257765
 30
0
  0
VERTEX
  5
5B4
  8
FIXTURES
  6
BYLAYER
 62
    8
 10
116140.4045529863
 20
-362148.5770079435
 30
0
  0
VERTEX
  5
5B5
  8
FIXTURES
  6
BYLAYER
 62
    8
 10
116139.3157562042
 20
-362148.6609202392
 30
0
  0
VERTEX
  5
5B6
  8
FIXTURES
  6
BYLAYER
 62
    8
 10
116138.2375409949
 20
-362148.7684605112
 30
0
  0
VERTEX
  5
5B7
  8
FIXTURES
  6
BYLAYER
 62
    8
 10
116137.1725048731
 20
-362148.8993696859
 30
0
  0
VERTEX
  5
5B8
  8
FIXTURES
  6
BYLAYER
 62
    8
 10
116136.1232136043
 20
-362149.0533323914
 30
0
  0
VERTEX
  5
5B9
  8
FIXTURES
  6
BYLAYER
 62
    8
 10
116135.092195023
 20
-362149.2299777181
 30
0
  0
VERTEX
  5
5BA
  8
FIXTURES
  6
BYLAYER
 62
    8
 10
116134.0819329432
 20
-362149.428880112
 30
0
  0
VERTEX
  5
5BB
  8
FIXTURES
  6
BYLAYER
 62
    8
 10
116133.0948611748
 20
-362149.6495603997
 30
0
  0
VERTEX
  5
5BC
  8
FIXTURES
  6
BYLAYER
 62
    8
 10
116132.1333576601
 20
-362149.8914869432
 30
0
  0
VERTEX
  5
5BD
  8
FIXTURES
  6
BYLAYER
 62
    8
 10
116131.1997387454
 20
-362150.1540769202
 30
0
  0
VERTEX
  5
5BE
  8
FIXTURES
  6
BYLAYER
 62
    8
 10
116130.2962536004
 20
-362150.4366977284
 30
0
  0
VERTEX
  5
5BF
  8
FIXTURES
  6
BYLAYER
 62
    8
 10
116129.4250787999
 20
-362150.7386685096
 30
0
  0
VERTEX
  5
5C0
  8
FIXTURES
  6
BYLAYER
 62
    8
 10
116128.5883130803
 20
-362151.0592617897
 30
0
  0
VERTEX
  5
5C1
  8
FIXTURES
  6
BYLAYER
 62
    8
 10
116127.7879722835
 20
-362151.3977052313
 30
0
  0
VERTEX
  5
5C2
  8
FIXTURES
  6
BYLAYER
 62
    8
 10
116127.0259845006
 20
-362151.7531834947
 30
0
  0
VERTEX
  5
5C3
  8
FIXTURES
  6
BYLAYER
 62
    8
 10
116126.304185427
 20
-362152.1248402016
 30
0
  0
VERTEX
  5
5C4
  8
FIXTURES
  6
BYLAYER
 62
    8
 10
116125.6243139397
 20
-362152.5117799983
 30
0
  0
VERTEX
  5
5C5
  8
FIXTURES
  6
BYLAYER
 62
    8
 10
116124.9880079089
 20
-362152.913070713
 30
0
  0
VERTEX
  5
5C6
  8
FIXTURES
  6
BYLAYER
 62
    8
 10
116124.3968002514
 20
-362153.3277456013
 30
0
  0
VERTEX
  5
5C7
  8
FIXTURES
  6
BYLAYER
 62
    8
 10
116123.8521152382
 20
-362153.754805675
 30
0
  0
VERTEX
  5
5C8
  8
FIXTURES
  6
BYLAYER
 62
    8
 10
116123.3552650634
 20
-362154.1932221089
 30
0
  0
VERTEX
  5
5C9
  8
FIXTURES
  6
BYLAYER
 62
    8
 10
116122.9074466824
 20
-362154.6419387195
 30
0
  0
VERTEX
  5
5CA
  8
FIXTURES
  6
BYLAYER
 62
    8
 10
116122.5097389289
 20
-362155.0998745093
 30
0
  0
VERTEX
  5
5CB
  8
FIXTURES
  6
BYLAYER
 62
    8
 10
116122.1630999159
 20
-362155.5659262707
 30
0
  0
VERTEX
  5
5CC
  8
FIXTURES
  6
BYLAYER
 62
    8
 10
116121.8683647269
 20
-362156.0389712442
 30
0
  0
VERTEX
  5
5CD
  8
FIXTURES
  6
BYLAYER
 62
    8
 10
116121.626243405
 20
-362156.5178698231
 30
0
  0
VERTEX
  5
5CE
  8
FIXTURES
  6
BYLAYER
 62
    8
 10
116121.4373192416
 20
-362157.0014682987
 30
0
  0
VERTEX
  5
5CF
  8
FIXTURES
  6
BYLAYER
 62
    8
 10
116121.3020473715
 20
-362157.4886016399
 30
0
  0
VERTEX
  5
5D0
  8
FIXTURES
  6
BYLAYER
 62
    8
 10
116121.2207536765
 20
-362157.9780963
 30
0
  0
SEQEND
  5
5D1
  8
FIXTURES
  6
BYLAYER
 62
    8
  0
LINE
  5
5D2
  8
FIXTURES
  6
BYLAYER
 62
    8
 10
116143.7081132017
 20
-362148.4687730432
 11
116181.679154799
 21
-362148.4687730432
  0
LINE
  5
5D3
  8
FIXTURES
  6
BYLAYER
 62
    8
 10
116121.1936340003
 20
-362164.4687730432
 11
116121.1936340003
 21
-362158.4687730432
  0
LINE
  5
5D4
  8
FIXTURES
  6
BYLAYER
 62
    8
 10
116156.6936340003
 20
-362148.4687730432
 11
116156.6936340003
 21
-362114.4687730796
  0
LINE
  5
5D5
  8
FIXTURES
  6
BYLAYER
 62
    8
 10
116168.6936340004
 20
-362148.4687730432
 11
116168.6936340003
 21
-362114.4687730796
  0
POLYLINE
  5
5D6
  8
FIXTURES
  6
BYLAYER
 62
    8
 66
    1
 10
0
 20
0
 30
0
 70
    0
210
0
220
0
230
-1
  0
VERTEX
  5
5D7
  8
FIXTURES
  6
BYLAYER
 62
    8
 10
115447.6791547991
 20
-362168.4687730433
 30
0
  0
VERTEX
  5
5D8
  8
FIXTURES
  6
BYLAYER
 62
    8
 10
115448.7838879322
 20
-362168.4567276054
 30
0
  0
VERTEX
  5
5D9
  8
FIXTURES
  6
BYLAYER
 62
    8
 10
115449.8859596664
 20
-362168.42062031
 30
0
  0
VERTEX
  5
5DA
  8
FIXTURES
  6
BYLAYER
 62
    8
 10
115450.9827150144
 20
-362168.360538143
 30
0
  0
VERTEX
  5
5DB
  8
FIXTURES
  6
BYLAYER
 62
    8
 10
115452.0715117965
 20
-362168.2766258473
 30
0
  0
VERTEX
  5
5DC
  8
FIXTURES
  6
BYLAYER
 62
    8
 10
115453.1497270059
 20
-362168.1690855753
 30
0
  0
VERTEX
  5
5DD
  8
FIXTURES
  6
BYLAYER
 62
    8
 10
115454.2147631276
 20
-362168.0381764006
 30
0
  0
VERTEX
  5
5DE
  8
FIXTURES
  6
BYLAYER
 62
    8
 10
115455.2640543964
 20
-362167.8842136951
 30
0
  0
VERTEX
  5
5DF
  8
FIXTURES
  6
BYLAYER
 62
    8
 10
115456.2950729778
 20
-362167.7075683684
 30
0
  0
VERTEX
  5
5E0
  8
FIXTURES
  6
BYLAYER
 62
    8
 10
115457.3053350576
 20
-362167.5086659745
 30
0
  0
VERTEX
  5
5E1
  8
FIXTURES
  6
BYLAYER
 62
    8
 10
115458.2924068259
 20
-362167.2879856868
 30
0
  0
VERTEX
  5
5E2
  8
FIXTURES
  6
BYLAYER
 62
    8
 10
115459.2539103406
 20
-362167.0460591433
 30
0
  0
VERTEX
  5
5E3
  8
FIXTURES
  6
BYLAYER
 62
    8
 10
115460.1875292553
 20
-362166.7834691663
 30
0
  0
VERTEX
  5
5E4
  8
FIXTURES
  6
BYLAYER
 62
    8
 10
115461.0910144004
 20
-362166.5008483581
 30
0
  0
VERTEX
  5
5E5
  8
FIXTURES
  6
BYLAYER
 62
    8
 10
115461.9621892009
 20
-362166.1988775769
 30
0
  0
VERTEX
  5
5E6
  8
FIXTURES
  6
BYLAYER
 62
    8
 10
115462.7989549205
 20
-362165.8782842968
 30
0
  0
VERTEX
  5
5E7
  8
FIXTURES
  6
BYLAYER
 62
    8
 10
115463.5992957173
 20
-362165.5398408552
 30
0
  0
VERTEX
  5
5E8
  8
FIXTURES
  6
BYLAYER
 62
    8
 10
115464.3612835001
 20
-362165.1843625918
 30
0
  0
VERTEX
  5
5E9
  8
FIXTURES
  6
BYLAYER
 62
    8
 10
115465.0830825738
 20
-362164.8127058849
 30
0
  0
VERTEX
  5
5EA
  8
FIXTURES
  6
BYLAYER
 62
    8
 10
115465.762954061
 20
-362164.4257660882
 30
0
  0
VERTEX
  5
5EB
  8
FIXTURES
  6
BYLAYER
 62
    8
 10
115466.3992600919
 20
-362164.0244753735
 30
0
  0
VERTEX
  5
5EC
  8
FIXTURES
  6
BYLAYER
 62
    8
 10
115466.9904677494
 20
-362163.6098004852
 30
0
  0
VERTEX
  5
5ED
  8
FIXTURES
  6
BYLAYER
 62
    8
 10
115467.5351527625
 20
-362163.1827404115
 30
0
  0
VERTEX
  5
5EE
  8
FIXTURES
  6
BYLAYER
 62
    8
 10
115468.0320029374
 20
-362162.7443239776
 30
0
  0
VERTEX
  5
5EF
  8
FIXTURES
  6
BYLAYER
 62
    8
 10
115468.4798213184
 20
-362162.2956073669
 30
0
  0
VERTEX
  5
5F0
  8
FIXTURES
  6
BYLAYER
 62
    8
 10
115468.8775290718
 20
-362161.8376715772
 30
0
  0
VERTEX
  5
5F1
  8
FIXTURES
  6
BYLAYER
 62
    8
 10
115469.2241680849
 20
-362161.3716198158
 30
0
  0
VERTEX
  5
5F2
  8
FIXTURES
  6
BYLAYER
 62
    8
 10
115469.5189032738
 20
-362160.8985748423
 30
0
  0
VERTEX
  5
5F3
  8
FIXTURES
  6
BYLAYER
 62
    8
 10
115469.7610245957
 20
-362160.4196762634
 30
0
  0
VERTEX
  5
5F4
  8
FIXTURES
  6
BYLAYER
 62
    8
 10
115469.9499487592
 20
-362159.9360777878
 30
0
  0
VERTEX
  5
5F5
  8
FIXTURES
  6
BYLAYER
 62
    8
 10
115470.0852206293
 20
-362159.4489444466
 30
0
  0
VERTEX
  5
5F6
  8
FIXTURES
  6
BYLAYER
 62
    8
 10
115470.1665143243
 20
-362158.9594497865
 30
0
  0
SEQEND
  5
5F7
  8
FIXTURES
  6
BYLAYER
 62
    8
  0
LINE
  5
5F8
  8
FIXTURES
  6
BYLAYER
 62
    8
 10
115470.1936340005
 20
-362164.4687730432
 11
115470.1936340005
 21
-362158.4687730432
  0
POLYLINE
  5
5F9
  8
FIXTURES
  6
BYLAYER
 62
    8
 66
    1
 10
0
 20
0
 30
0
 70
    0
  0
VERTEX
  5
5FA
  8
FIXTURES
  6
BYLAYER
 62
    8
 10
115409.7081132018
 20
-362148.4687730432
 30
0
  0
VERTEX
  5
5FB
  8
FIXTURES
  6
BYLAYER
 62
    8
 10
115408.6033800687
 20
-362148.4808184811
 30
0
  0
VERTEX
  5
5FC
  8
FIXTURES
  6
BYLAYER
 62
    8
 10
115407.5013083344
 20
-362148.5169257765
 30
0
  0
VERTEX
  5
5FD
  8
FIXTURES
  6
BYLAYER
 62
    8
 10
115406.4045529864
 20
-362148.5770079435
 30
0
  0
VERTEX
  5
5FE
  8
FIXTURES
  6
BYLAYER
 62
    8
 10
115405.3157562043
 20
-362148.6609202392
 30
0
  0
VERTEX
  5
5FF
  8
FIXTURES
  6
BYLAYER
 62
    8
 10
115404.237540995
 20
-362148.7684605112
 30
0
  0
VERTEX
  5
600
  8
FIXTURES
  6
BYLAYER
 62
    8
 10
115403.1725048732
 20
-362148.8993696859
 30
0
  0
VERTEX
  5
601
  8
FIXTURES
  6
BYLAYER
 62
    8
 10
115402.1232136044
 20
-362149.0533323914
 30
0
  0
VERTEX
  5
602
  8
FIXTURES
  6
BYLAYER
 62
    8
 10
115401.0921950231
 20
-362149.2299777181
 30
0
  0
VERTEX
  5
603
  8
FIXTURES
  6
BYLAYER
 62
    8
 10
115400.0819329433
 20
-362149.428880112
 30
0
  0
VERTEX
  5
604
  8
FIXTURES
  6
BYLAYER
 62
    8
 10
115399.0948611749
 20
-362149.6495603997
 30
0
  0
VERTEX
  5
605
  8
FIXTURES
  6
BYLAYER
 62
    8
 10
115398.1333576602
 20
-362149.8914869432
 30
0
  0
VERTEX
  5
606
  8
FIXTURES
  6
BYLAYER
 62
    8
 10
115397.1997387455
 20
-362150.1540769202
 30
0
  0
VERTEX
  5
607
  8
FIXTURES
  6
BYLAYER
 62
    8
 10
115396.2962536005
 20
-362150.4366977284
 30
0
  0
VERTEX
  5
608
  8
FIXTURES
  6
BYLAYER
 62
    8
 10
115395.4250787999
 20
-362150.7386685096
 30
0
  0
VERTEX
  5
609
  8
FIXTURES
  6
BYLAYER
 62
    8
 10
115394.5883130803
 20
-362151.0592617897
 30
0
  0
VERTEX
  5
60A
  8
FIXTURES
  6
BYLAYER
 62
    8
 10
115393.7879722836
 20
-362151.3977052313
 30
0
  0
VERTEX
  5
60B
  8
FIXTURES
  6
BYLAYER
 62
    8
 10
115393.0259845007
 20
-362151.7531834947
 30
0
  0
VERTEX
  5
60C
  8
FIXTURES
  6
BYLAYER
 62
    8
 10
115392.3041854271
 20
-362152.1248402016
 30
0
  0
VERTEX
  5
60D
  8
FIXTURES
  6
BYLAYER
 62
    8
 10
115391.6243139398
 20
-362152.5117799983
 30
0
  0
VERTEX
  5
60E
  8
FIXTURES
  6
BYLAYER
 62
    8
 10
115390.988007909
 20
-362152.913070713
 30
0
  0
VERTEX
  5
60F
  8
FIXTURES
  6
BYLAYER
 62
    8
 10
115390.3968002515
 20
-362153.3277456013
 30
0
  0
VERTEX
  5
610
  8
FIXTURES
  6
BYLAYER
 62
    8
 10
115389.8521152383
 20
-362153.754805675
 30
0
  0
VERTEX
  5
611
  8
FIXTURES
  6
BYLAYER
 62
    8
 10
115389.3552650634
 20
-362154.1932221089
 30
0
  0
VERTEX
  5
612
  8
FIXTURES
  6
BYLAYER
 62
    8
 10
115388.9074466824
 20
-362154.6419387195
 30
0
  0
VERTEX
  5
613
  8
FIXTURES
  6
BYLAYER
 62
    8
 10
115388.509738929
 20
-362155.0998745093
 30
0
  0
VERTEX
  5
614
  8
FIXTURES
  6
BYLAYER
 62
    8
 10
115388.1630999159
 20
-362155.5659262707
 30
0
  0
VERTEX
  5
615
  8
FIXTURES
  6
BYLAYER
 62
    8
 10
115387.868364727
 20
-362156.0389712442
 30
0
  0
VERTEX
  5
616
  8
FIXTURES
  6
BYLAYER
 62
    8
 10
115387.6262434051
 20
-362156.5178698231
 30
0
  0
VERTEX
  5
617
  8
FIXTURES
  6
BYLAYER
 62
    8
 10
115387.4373192416
 20
-362157.0014682987
 30
0
  0
VERTEX
  5
618
  8
FIXTURES
  6
BYLAYER
 62
    8
 10
115387.3020473715
 20
-362157.4886016399
 30
0
  0
VERTEX
  5
619
  8
FIXTURES
  6
BYLAYER
 62
    8
 10
115387.2207536766
 20
-362157.9780963
 30
0
  0
SEQEND
  5
61A
  8
FIXTURES
  6
BYLAYER
 62
    8
  0
LINE
  5
61B
  8
FIXTURES
  6
BYLAYER
 62
    8
 10
115409.7081132018
 20
-362148.4687730432
 11
115447.6791547991
 21
-362148.4687730432
  0
LINE
  5
61C
  8
FIXTURES
  6
BYLAYER
 62
    8
 10
115387.1936340004
 20
-362164.4687730432
 11
115387.1936340004
 21
-362158.4687730432
  0
ARC
  5
61D
  8
FIXTURES
  6
BYLAYER
 62
    8
 10
115468.6936340004
 20
-362138.4687730432
 40
23.99999999994179
 50
90
 51
180
  0
ARC
  5
61E
  8
FIXTURES
  6
BYLAYER
 62
    8
 10
115468.6936340004
 20
-362138.4687730432
 40
55.99999999994179
 50
90
 51
180
  0
LINE
  5
61F
  8
FIXTURES
  6
BYLAYER
 62
    8
 10
115444.6936340004
 20
-362148.4687730432
 11
115444.6936340004
 21
-362138.4687730432
  0
LINE
  5
620
  8
FIXTURES
  6
BYLAYER
 62
    8
 10
115412.6936340004
 20
-362148.4687730432
 11
115412.6936340004
 21
-362138.4687730432
  0
LINE
  5
621
  8
WALL
  6
BYLAYER
 62
  256
 10
117762.6936340003
 20
-360154.4687730431
 11
117762.6936340003
 21
-360189.4687730431
  0
LINE
  5
622
  8
WALL
  6
BYLAYER
 62
  256
 10
117852.6936340004
 20
-361139.4687730432
 11
117852.6936340004
 21
-362314.4687730432
  0
LINE
  5
623
  8
WALL
  6
BYLAYER
 62
  256
 10
117852.6936340003
 20
-360154.468773043
 11
117852.6936340003
 21
-360189.4687730431
  0
LINE
  5
624
  8
WALL
  6
BYLAYER
 62
  256
 10
115272.6936340004
 20
-360064.4687730432
 11
117952.6936340003
 21
-360064.468773043
  0
LINE
  5
625
  8
WALL
  6
BYLAYER
 62
  256
 10
117762.6936340004
 20
-361139.4687730431
 11
117852.6936340004
 21
-361139.4687730432
  0
LINE
  5
626
  8
WALL
  6
BYLAYER
 62
  256
 10
115362.6936340005
 20
-360154.4687730432
 11
117762.6936340003
 21
-360154.4687730431
  0
LINE
  5
627
  8
WALL
  6
BYLAYER
 62
  256
 10
117852.6936340003
 20
-360154.4687730427
 11
117952.6936340003
 21
-360154.4687730429
  0
LINE
  5
628
  8
WALL
  6
BYLAYER
 62
  256
 10
117762.6936340004
 20
-360189.4687730431
 11
117852.6936340004
 21
-360189.4687730431
  0
LINE
  5
629
  8
WALL
  6
BYLAYER
 62
  256
 10
117762.6936340003
 20
-361139.4687730431
 11
117762.6936340003
 21
-362164.4687730434
  0
LINE
  5
62A
  8
WALL
  6
BYLAYER
 62
  256
 10
115362.6936340005
 20
-360154.4687730432
 11
115362.6936340002
 21
-362164.4687730434
  0
LINE
  5
62B
  8
WALL
  6
BYLAYER
 62
  256
 10
115272.6936340004
 20
-360064.4687730432
 11
115272.6936340003
 21
-362314.4687730434
  0
LINE
  5
62C
  8
FIXTURES
  6
BYLAYER
 62
    8
 10
116312.6936340004
 20
-362114.4687730795
 30
-6.776263578034403e-21
 11
115468.6923117621
 21
-362114.4687730797
 31
-6.776263578034403e-21
  0
LINE
  5
62D
  8
FIXTURES
  6
BYLAYER
 62
    8
 10
116312.6936340004
 20
-362082.4687730795
 30
-6.776263578034403e-21
 11
115468.6923117621
 21
-362082.4687730797
 31
-6.776263578034403e-21
  0
INSERT
  5
62E
  8
FIXTURES
  6
BYLAYER
 62
  256
  2
BFA WC-CAROMA CARE 200-PLAN
 10
115362.6936340004
 20
-361714.4687730177
 30
0
 41
1
 42
1
 43
1
 50
180
 70
    1
 71
    1
 44
0
 45
0
  0
ENDSEC
  0
EOF
