999
dxfrw 0.6.3
  0
SECTION
  2
HEADER
  9
$ACADVER
  1
AC1021
  9
$DWGCODEPAGE
  3
ANSI_1252
  9
$INSBASE
 10
0
 20
0
 30
0
  9
$EXTMIN
 10
1e+20
 20
1e+20
 30
1e+20
  9
$EXTMAX
 10
-1e+20
 20
-1e+20
 30
-1e+20
  9
$LIMMIN
 10
0
 20
0
  9
$LIMMAX
 10
420
 20
297
  9
$ORTHOMODE
 70
    0
  9
$REGENMODE
 70
    1
  9
$FILLMODE
 70
    1
  9
$QTEXTMODE
 70
    0
  9
$MIRRTEXT
 70
    0
  9
$LTSCALE
 40
1
  9
$ATTMODE
 70
    0
  9
$TEXTSIZE
 40
2.5
  9
$TRACEWID
 40
15.68
  9
$TEXTSTYLE
  7
STANDARD
  9
$CLAYER
  8
0
  9
$CELTYPE
  6
BYLAYER
  9
$CECOLOR
 62
  256
  9
$DIMSCALE
 40
2.5
  9
$DIMASZ
 40
2.5
  9
$DIMEXO
 40
0.625
  9
$DIMDLI
 40
3.75
  9
$DIMRND
 40
0
  9
$DIMDLE
 40
0
  9
$DIMEXE
 40
1.25
  9
$DIMTP
 40
0
  9
$DIMTM
 40
0
  9
$DIMTXT
 40
2.5
  9
$DIMCEN
 40
2.5
  9
$DIMTSZ
 40
0
  9
$DIMTOL
 70
    0
  9
$DIMLIM
 70
    0
  9
$DIMTIH
 70
    0
  9
$DIMTOH
 70
    0
  9
$DIMSE1
 70
    0
  9
$DIMSE2
 70
    0
  9
$DIMTAD
 70
    1
  9
$DIMZIN
 70
    8
  9
$DIMBLK
  1

  9
$DIMASO
 70
    1
  9
$DIMSHO
 70
    1
  9
$DIMPOST
  1

  9
$DIMAPOST
  1

  9
$DIMALT
 70
    0
  9
$DIMALTD
 70
    3
  9
$DIMALTF
 40
0.03937
  9
$DIMLFAC
 40
1
  9
$DIMTOFL
 70
    1
  9
$DIMTVP
 40
0
  9
$DIMTIX
 70
    0
  9
$DIMSOXD
 70
    0
  9
$DIMSAH
 70
    0
  9
$DIMBLK1
  1

  9
$DIMBLK2
  1

  9
$DIMSTYLE
  2
STANDARD
  9
$DIMCLRD
 70
    0
  9
$DIMCLRE
 70
    0
  9
$DIMCLRT
 70
    0
  9
$DIMTFAC
 40
1
  9
$DIMGAP
 40
0.625
  9
$LUNITS
 70
    2
  9
$LUPREC
 70
    4
  9
$SKETCHINC
 40
1
  9
$FILLETRAD
 40
0
  9
$AUNITS
 70
    0
  9
$AUPREC
 70
    2
  9
$MENU
  1
.
  9
$ELEVATION
 40
0
  9
$PELEVATION
 40
0
  9
$THICKNESS
 40
0
  9
$LIMCHECK
 70
    0
  9
$BLIPMODE
 70
    0
  9
$CHAMFERA
 40
0
  9
$CHAMFERB
 40
0
  9
$SKPOLY
 70
    0
  9
$USRTIMER
 70
    1
  9
$ANGBASE
 50
0
  9
$ANGDIR
 70
    0
  9
$PDMODE
 70
   34
  9
$PDSIZE
 40
0
  9
$PLINEWID
 40
0
  9
$COORDS
 70
    2
  9
$SPLFRAME
 70
    0
  9
$SPLINETYPE
 70
    2
  9
$SPLINESEGS
 70
    8
  9
$ATTDIA
 70
    1
  9
$ATTREQ
 70
    1
  9
$HANDLING
 70
    1
  9
$HANDSEED
  5
20000
  9
$SURFTAB1
 70
    6
  9
$SURFTAB2
 70
    6
  9
$SURFTYPE
 70
    6
  9
$SURFU
 70
    6
  9
$SURFV
 70
    6
  9
$UCSNAME
  2

  9
$UCSORG
 10
0
 20
0
 30
0
  9
$UCSXDIR
 10
1
 20
0
 30
0
  9
$UCSYDIR
 10
0
 20
1
 30
0
  9
$PUCSNAME
  2

  9
$PUCSORG
 10
0
 20
0
 30
0
  9
$PUCSXDIR
 10
1
 20
0
 30
0
  9
$PUCSYDIR
 10
0
 20
1
 30
0
  9
$USERI1
 70
    0
  9
$USERI2
 70
    0
  9
$USERI3
 70
    0
  9
$USERI4
 70
    0
  9
$USERI5
 70
    0
  9
$USERR1
 40
0
  9
$USERR2
 40
0
  9
$USERR3
 40
0
  9
$USERR4
 40
0
  9
$USERR5
 40
0
  9
$WORLDVIEW
 70
    1
  9
$SHADEDGE
 70
    3
  9
$SHADEDIF
 70
   70
  9
$TILEMODE
 70
    1
  9
$MAXACTVP
 70
   64
  9
$PLIMCHECK
 70
    0
  9
$PEXTMIN
 10
0
 20
0
 30
0
  9
$PEXTMAX
 10
0
 20
0
 30
0
  9
$PLIMMIN
 10
0
 20
0
  9
$PLIMMAX
 10
297
 20
210
  9
$UNITMODE
 70
    0
  9
$VISRETAIN
 70
    1
  9
$PLINEGEN
 70
    0
  9
$PSLTSCALE
 70
    1
  0
ENDSEC
  0
SECTION
  2
TABLES
  0
TABLE
  2
VPORT
 70
    1
  0
VPORT
  2
*ACTIVE
 70
   64
 10
0
 20
0
 11
1
 21
1
 12
9937.619626607044
 22
1490.920962885519
 13
0
 23
0
 14
0.5
 24
0.5
 15
0.5
 25
0.5
 16
0
 26
0
 36
2742.170172008042
 17
24943.39389247891
 27
-2674.391798649594
 37
0
 40
483.7023183564615
 41
1407.233728914604
 42
50
 43
0
 44
0
 50
0
 51
0
 71
   16
 72
10000
 73
    1
 74
    1
 75
    0
 76
    0
 77
    0
 78
    0
  0
ENDTAB
  0
TABLE
  2
LTYPE
 70
    4
  0
LTYPE
  2
BYBLOCK
 70
    0
  3

 72
   65
 73
    0
 40
0
  0
LTYPE
  2
BYLAYER
 70
    0
  3

 72
   65
 73
    0
 40
0
  0
LTYPE
  2
CONTINUOUS
 70
    0
  3
Solid line
 72
   65
 73
    0
 40
0
  0
LTYPE
  2
HIDDEN
 70
   64
  3
Hidden __ __ __ __ __ __ __ __ __ __ __ __ __ _
 72
   65
 73
    2
 40
0.375
 49
0.25
 49
-0.125
  0
LTYPE
  2
PHANTOM2
 70
   64
  3
Phantom (.5x) ___ _ _ ___ _ _ ___ _ _ ___ _ _
 72
   65
 73
    6
 40
1.25
 49
0.625
 49
-0.125
 49
0.125
 49
-0.125
 49
0.125
 49
-0.125
  0
ENDTAB
  0
TABLE
  2
LAYER
 70
    1
  0
LAYER
  2
WALL
 70
   64
 62
    7
  6
CONTINUOUS
  0
LAYER
  2
LEADER
 70
   64
 62
    3
  6
CONTINUOUS
  0
LAYER
  2
HATCH
 70
   64
 62
  252
  6
CONTINUOUS
  0
LAYER
  2
DOOR
 70
   64
 62
    1
  6
CONTINUOUS
  0
LAYER
  2
RAIL
 70
   64
 62
    3
  6
CONTINUOUS
  0
LAYER
  2
STAIR
 70
   64
 62
  252
  6
CONTINUOUS
  0
LAYER
  2
TEXT-1
 70
   64
 62
  230
  6
CONTINUOUS
  0
LAYER
  2
SLAB LINE
 70
   64
 62
   50
  6
CONTINUOUS
  0
LAYER
  2
WINDOW
 70
   64
 62
  116
  6
CONTINUOUS
  0
LAYER
  2
PINCAD.COM
 70
   64
 62
    7
  6
CONTINUOUS
  0
LAYER
  2
DEFPOINTS
 70
   64
 62
    7
  6
CONTINUOUS
  0
LAYER
  2
0
 70
   64
 62
    7
  6
CONTINUOUS
  0
ENDTAB
  0
TABLE
  2
STYLE
 70
    3
  0
STYLE
  2
ISO
 70
   64
 40
-9.011969552545334e+252
 41
6.934884366432308e-169
 50
0
 71
  144
 42
-7.125044824308159
  3
ISO.SHX
  4

  0
STYLE
  2
ROOM TEXT
 70
   68
 40
1
 41
0
 50
0
 71
  153
 42
0
  3
ARIAL.TTF
  4

  0
STYLE
  2
PLAN
 70
   64
 40
2.56633758499149e-289
 41
-3.697639292934439e+154
 50
2.824834128901124e-278
 71
   32
 42
4.102504860858404e-308
  3
TREBUC.TTF
  4

  0
STYLE
  2
STANDARD
 70
   64
 40
1.026535033996596e-288
 41
-3.697638014312608e+154
 50
3.546271409154057e-308
 71
   16
 42
0
  3
SWISSCB.TTF
  4

  0
ENDTAB
  0
TABLE
  2
VIEW
 70
    0
  0
ENDTAB
  0
TABLE
  2
UCS
 70
    0
  0
ENDTAB
  0
TABLE
  2
APPID
 70
    1
  0
APPID
  2
ACAD
 70
    0
  0
APPID
  2
ACAD_EXEMPT_FROM_CAD_STANDARDS
 70
   64
  0
APPID
  2
GRADIENTCOLOR1ACI
 70
   80
  0
APPID
  2
ACCMTRANSPARENCY
 70
   64
  0
APPID
  2
ACAD_DSTYLE_DIMTALN
 70
   80
  0
APPID
  2
ACAD_DSTYLE_DIMJAG
 70
   64
  0
APPID
  2
ACAD_PSEXT
 70
   64
  0
APPID
  2
ACAD_DSTYLE_DIMJOGGED_JOGANGLE_SYMBOL
 70
   80
  0
APPID
  2
ACAECLAYERSTANDARD
 70
   64
  0
APPID
  2
GRADIENTCOLOR2ACI
 70
   80
  0
APPID
  2
ACAD_NAV_VCDISPLAY
 70
   64
  0
ENDTAB
  0
TABLE
  2
DIMSTYLE
 70
    1
  0
DIMSTYLE
  2
ISO-25
 70
    0
 40
1
 41
0.18
 42
0.0625
 43
0.38
 44
0.18
 45
0
 46
0
 47
0
 48
0
 49
1
140
0.18
141
0.09
142
0
143
25.4
144
1
145
0
146
1
147
0.09
 71
    0
 72
    0
 73
    0
 74
    1
 75
    0
 76
    0
 77
    0
 78
    0
170
    0
171
    2
172
    0
173
    0
174
    0
175
    0
176
    0
177
    0
178
    0
  0
DIMSTYLE
  2
WOKING
 70
    0
 40
1
 41
0.18
 42
0.0625
 43
0.38
 44
0.18
 45
0
 46
0
 47
0
 48
0
 49
1
140
0.18
141
0.09
142
0
143
25.4
144
1
145
0
146
1
147
0.09
 71
    0
 72
    0
 73
    0
 74
    1
 75
    0
 76
    0
 77
    0
 78
    0
170
    0
171
    2
172
    0
173
    0
174
    0
175
    0
176
    0
177
    0
178
    0
  0
DIMSTYLE
  2
WORKING
 70
    0
 40
1
 41
0.18
 42
0.0625
 43
0.38
 44
0.18
 45
0
 46
0
 47
0
 48
0
 49
1
140
0.18
141
0.09
142
0
143
25.4
144
1
145
0
146
1
147
0.09
 71
    0
 72
    0
 73
    0
 74
    1
 75
    0
 76
    0
 77
    0
 78
    0
170
    0
171
    2
172
    0
173
    0
174
    0
175
    0
176
    0
177
    0
178
    0
  0
DIMSTYLE
  2
PLAN
 70
    0
 40
1
 41
0.18
 42
0.0625
 43
0.38
 44
0.18
 45
0
 46
0
 47
0
 48
0
 49
1
140
0.18
141
0.09
142
0
143
25.4
144
1
145
0
146
1
147
0.09
 71
    0
 72
    0
 73
    0
 74
    1
 75
    0
 76
    0
 77
    0
 78
    0
170
    0
171
    2
172
    0
173
    0
174
    0
175
    0
176
    0
177
    0
178
    0
  0
DIMSTYLE
  2
STANDARD
 70
    0
 40
1
 41
0.18
 42
0.0625
 43
0.38
 44
0.18
 45
0
 46
0
 47
0
 48
0
 49
1
140
0.18
141
0.09
142
0
143
25.4
144
1
145
0
146
1
147
0.09
 71
    0
 72
    0
 73
    0
 74
    1
 75
    0
 76
    0
 77
    0
 78
    0
170
    0
171
    2
172
    0
173
    0
174
    0
175
    0
176
    0
177
    0
178
    0
  0
ENDTAB
  0
ENDSEC
  0
SECTION
  2
BLOCKS
  0
BLOCK
  8
0
  2
$MODEL_SPACE
 70
    0
 10
0
 20
0
 30
0
  3
$MODEL_SPACE
  1

  0
ENDBLK
  8
0
  0
BLOCK
  8
0
  2
$PAPER_SPACE
 70
    0
 10
0
 20
0
 30
0
  3
$PAPER_SPACE
  1

  0
ENDBLK
  8
0
  0
BLOCK
  8
0
  2
*D19
 70
   65
 10
0
 20
0
  3
*D19
  1

  0
LINE
  5
31
  8
HATCH
  6
BYLAYER
 62
  256
 10
34869.24937286715
 20
-1088.061833958578
 11
34869.08125262828
 21
-1088.061833958578
  0
LINE
  5
32
  8
HATCH
  6
BYLAYER
 62
  256
 10
34866.75335390348
 20
-1022.061833958579
 11
34869.08125262828
 21
-1022.061833958579
  0
LINE
  5
33
  8
HATCH
  6
BYLAYER
 62
  256
 10
34866.08125262828
 20
-1085.061833958578
 11
34866.08125262828
 21
-1063.502237998982
  0
LINE
  5
34
  8
HATCH
  6
BYLAYER
 62
  256
 10
34866.08125262828
 20
-1025.061833958579
 11
34866.08125262828
 21
-1046.621429918174
  0
SOLID
  5
35
  8
HATCH
  6
BYLAYER
 62
  256
 10
34865.58125262828
 20
-1085.061833958578
 30
0
 11
34866.58125262828
 21
-1085.061833958578
 31
0
 12
34866.08125262828
 22
-1088.061833958578
 32
0
 13
34866.08125262828
 23
-1088.061833958578
 33
0
  0
SOLID
  5
36
  8
HATCH
  6
BYLAYER
 62
  256
 10
34865.58125262828
 20
-1025.061833958579
 30
0
 11
34866.58125262828
 21
-1025.061833958579
 31
0
 12
34866.08125262828
 22
-1022.061833958579
 32
0
 13
34866.08125262828
 23
-1022.061833958579
 33
0
  0
POINT
  5
37
  8
DEFPOINTS
  6
BYLAYER
 62
    0
 10
34865.24937286715
 20
-1088.061833958578
  0
POINT
  5
38
  8
DEFPOINTS
  6
BYLAYER
 62
    0
 10
34862.75335390348
 20
-1022.061833958579
  0
POINT
  5
39
  8
DEFPOINTS
  6
BYLAYER
 62
    0
 10
34866.08125262828
 20
-1022.061833958579
  0
ENDBLK
  8
0
  0
BLOCK
  8
0
  2
*D17
 70
   65
 10
0
 20
0
  3
*D17
  1

  0
LINE
  5
3A
  8
HATCH
  6
BYLAYER
 62
  256
 10
34750.78756867841
 20
-1288.061854673089
 11
34749.78756867847
 21
-1288.061854673089
  0
LINE
  5
3B
  8
HATCH
  6
BYLAYER
 62
  256
 10
34750.78756867841
 20
-1372.061833958579
 11
34749.78756867847
 21
-1372.061833958579
  0
LINE
  5
3C
  8
HATCH
  6
BYLAYER
 62
  256
 10
34746.78756867847
 20
-1291.061854673089
 11
34746.78756867847
 21
-1321.528510982501
  0
LINE
  5
3D
  8
HATCH
  6
BYLAYER
 62
  256
 10
34746.78756867847
 20
-1369.061833958579
 11
34746.78756867847
 21
-1338.595177649168
  0
SOLID
  5
3E
  8
HATCH
  6
BYLAYER
 62
  256
 10
34746.28756867847
 20
-1291.061854673089
 30
0
 11
34747.28756867847
 21
-1291.061854673089
 31
0
 12
34746.78756867847
 22
-1288.061854673089
 32
0
 13
34746.78756867847
 23
-1288.061854673089
 33
0
  0
SOLID
  5
3F
  8
HATCH
  6
BYLAYER
 62
  256
 10
34746.28756867847
 20
-1369.061833958579
 30
0
 11
34747.28756867847
 21
-1369.061833958579
 31
0
 12
34746.78756867847
 22
-1372.061833958579
 32
0
 13
34746.78756867847
 23
-1372.061833958579
 33
0
  0
POINT
  5
40
  8
DEFPOINTS
  6
BYLAYER
 62
    0
 10
34746.78756867841
 20
-1288.061854673089
  0
POINT
  5
41
  8
DEFPOINTS
  6
BYLAYER
 62
    0
 10
34746.78756867841
 20
-1372.061833958579
  0
POINT
  5
42
  8
DEFPOINTS
  6
BYLAYER
 62
    0
 10
34746.78756867847
 20
-1372.061833958579
  0
ENDBLK
  8
0
  0
BLOCK
  8
0
  2
*D16
 70
   65
 10
0
 20
0
  3
*D16
  1

  0
LINE
  5
43
  8
HATCH
  6
BYLAYER
 62
  256
 10
35009.67213434991
 20
-1223.36706526655
 11
35009.67213434991
 21
-1224.36706526655
  0
LINE
  5
44
  8
HATCH
  6
BYLAYER
 62
  256
 10
35070.17213434991
 20
-1223.36706526655
 11
35070.17213434991
 21
-1224.36706526655
  0
LINE
  5
45
  8
HATCH
  6
BYLAYER
 62
  256
 10
35012.67213434991
 20
-1227.36706526655
 11
35029.52011414789
 21
-1227.36706526655
  0
LINE
  5
46
  8
HATCH
  6
BYLAYER
 62
  256
 10
35067.17213434991
 20
-1227.36706526655
 11
35050.32415455193
 21
-1227.36706526655
  0
SOLID
  5
47
  8
HATCH
  6
BYLAYER
 62
  256
 10
35012.67213434991
 20
-1226.86706526655
 30
0
 11
35012.67213434991
 21
-1227.86706526655
 31
0
 12
35009.67213434991
 22
-1227.36706526655
 32
0
 13
35009.67213434991
 23
-1227.36706526655
 33
0
  0
SOLID
  5
48
  8
HATCH
  6
BYLAYER
 62
  256
 10
35067.17213434991
 20
-1226.86706526655
 30
0
 11
35067.17213434991
 21
-1227.86706526655
 31
0
 12
35070.17213434991
 22
-1227.36706526655
 32
0
 13
35070.17213434991
 23
-1227.36706526655
 33
0
  0
POINT
  5
49
  8
DEFPOINTS
  6
BYLAYER
 62
    0
 10
35009.67213434991
 20
-1227.36706526655
  0
POINT
  5
4A
  8
DEFPOINTS
  6
BYLAYER
 62
    0
 10
35070.17213434991
 20
-1227.36706526655
  0
POINT
  5
4B
  8
DEFPOINTS
  6
BYLAYER
 62
    0
 10
35070.17213434991
 20
-1227.36706526655
  0
ENDBLK
  8
0
  0
BLOCK
  8
0
  2
*D15
 70
   65
 10
0
 20
0
  3
*D15
  1

  0
LINE
  5
4C
  8
HATCH
  6
BYLAYER
 62
  256
 10
35016.52005300188
 20
-1248.061833958579
 11
35016.86877455217
 21
-1248.061833958579
  0
LINE
  5
4D
  8
HATCH
  6
BYLAYER
 62
  256
 10
35016.52005300187
 20
-1342.061833958569
 11
35016.86877455217
 21
-1342.061833958569
  0
LINE
  5
4E
  8
HATCH
  6
BYLAYER
 62
  256
 10
35019.86877455217
 20
-1251.061833958579
 11
35019.86877455217
 21
-1284.358803655544
  0
LINE
  5
4F
  8
HATCH
  6
BYLAYER
 62
  256
 10
35019.86877455217
 20
-1339.061833958569
 11
35019.86877455217
 21
-1305.764864261604
  0
SOLID
  5
50
  8
HATCH
  6
BYLAYER
 62
  256
 10
35019.36877455217
 20
-1251.061833958579
 30
0
 11
35020.36877455217
 21
-1251.061833958579
 31
0
 12
35019.86877455217
 22
-1248.061833958579
 32
0
 13
35019.86877455217
 23
-1248.061833958579
 33
0
  0
SOLID
  5
51
  8
HATCH
  6
BYLAYER
 62
  256
 10
35019.36877455217
 20
-1339.061833958569
 30
0
 11
35020.36877455217
 21
-1339.061833958569
 31
0
 12
35019.86877455217
 22
-1342.061833958569
 32
0
 13
35019.86877455217
 23
-1342.061833958569
 33
0
  0
POINT
  5
52
  8
DEFPOINTS
  6
BYLAYER
 62
    0
 10
35020.52005300188
 20
-1248.061833958579
  0
POINT
  5
53
  8
DEFPOINTS
  6
BYLAYER
 62
    0
 10
35020.52005300187
 20
-1342.061833958569
  0
POINT
  5
54
  8
DEFPOINTS
  6
BYLAYER
 62
    0
 10
35019.86877455217
 20
-1342.061833958569
  0
ENDBLK
  8
0
  0
BLOCK
  8
0
  2
*D14
 70
   65
 10
0
 20
0
  3
*D14
  1

  0
LINE
  5
55
  8
HATCH
  6
BYLAYER
 62
  256
 10
34851.17213434991
 20
-1266.50106486549
 11
34851.17213434991
 21
-1267.778958900028
  0
LINE
  5
56
  8
HATCH
  6
BYLAYER
 62
  256
 10
35070.17213434991
 20
-1266.50106486549
 11
35070.17213434991
 21
-1267.778958900028
  0
LINE
  5
57
  8
HATCH
  6
BYLAYER
 62
  256
 10
34854.17213434991
 20
-1264.778958900028
 11
34950.20344748122
 21
-1264.778958900028
  0
LINE
  5
58
  8
HATCH
  6
BYLAYER
 62
  256
 10
35067.17213434991
 20
-1264.778958900028
 11
34971.14082121859
 21
-1264.778958900028
  0
SOLID
  5
59
  8
HATCH
  6
BYLAYER
 62
  256
 10
34854.17213434991
 20
-1264.278958900028
 30
0
 11
34854.17213434991
 21
-1265.278958900028
 31
0
 12
34851.17213434991
 22
-1264.778958900028
 32
0
 13
34851.17213434991
 23
-1264.778958900028
 33
0
  0
SOLID
  5
5A
  8
HATCH
  6
BYLAYER
 62
  256
 10
35067.17213434991
 20
-1264.278958900028
 30
0
 11
35067.17213434991
 21
-1265.278958900028
 31
0
 12
35070.17213434991
 22
-1264.778958900028
 32
0
 13
35070.17213434991
 23
-1264.778958900028
 33
0
  0
POINT
  5
5B
  8
DEFPOINTS
  6
BYLAYER
 62
    0
 10
34851.17213434991
 20
-1262.50106486549
  0
POINT
  5
5C
  8
DEFPOINTS
  6
BYLAYER
 62
    0
 10
35070.17213434991
 20
-1262.50106486549
  0
POINT
  5
5D
  8
DEFPOINTS
  6
BYLAYER
 62
    0
 10
35070.17213434991
 20
-1264.778958900028
  0
ENDBLK
  8
0
  0
BLOCK
  8
0
  2
A$C0F6E0D10
 70
   64
 10
0
 20
0
  3
A$C0F6E0D10
  1

  0
ENDBLK
  8
0
  0
BLOCK
  8
0
  2
*D20
 70
   65
 10
0
 20
0
  3
*D20
  1

  0
LINE
  5
5E
  8
HATCH
  6
BYLAYER
 62
  256
 10
34711.17213434991
 20
-1017.061833958578
 11
34684.78027372212
 21
-1017.061833958578
  0
LINE
  5
5F
  8
HATCH
  6
BYLAYER
 62
  256
 10
34711.17213434991
 20
-1377.061833958578
 11
34684.78027372212
 21
-1377.061833958578
  0
LINE
  5
60
  8
HATCH
  6
BYLAYER
 62
  256
 10
34687.78027372212
 20
-1020.061833958578
 11
34687.78027372212
 21
-1186.409308706053
  0
LINE
  5
61
  8
HATCH
  6
BYLAYER
 62
  256
 10
34687.78027372212
 20
-1374.061833958578
 11
34687.78027372212
 21
-1207.714359211104
  0
SOLID
  5
62
  8
HATCH
  6
BYLAYER
 62
  256
 10
34687.28027372212
 20
-1020.061833958578
 30
0
 11
34688.28027372212
 21
-1020.061833958578
 31
0
 12
34687.78027372212
 22
-1017.061833958578
 32
0
 13
34687.78027372212
 23
-1017.061833958578
 33
0
  0
SOLID
  5
63
  8
HATCH
  6
BYLAYER
 62
  256
 10
34687.28027372212
 20
-1374.061833958578
 30
0
 11
34688.28027372212
 21
-1374.061833958578
 31
0
 12
34687.78027372212
 22
-1377.061833958578
 32
0
 13
34687.78027372212
 23
-1377.061833958578
 33
0
  0
POINT
  5
64
  8
DEFPOINTS
  6
BYLAYER
 62
    0
 10
34715.17213434991
 20
-1017.061833958578
  0
POINT
  5
65
  8
DEFPOINTS
  6
BYLAYER
 62
    0
 10
34715.17213434991
 20
-1377.061833958578
  0
POINT
  5
66
  8
DEFPOINTS
  6
BYLAYER
 62
    0
 10
34687.78027372212
 20
-1377.061833958578
  0
ENDBLK
  8
0
  0
BLOCK
  8
0
  2
*D13
 70
   65
 10
0
 20
0
  3
*D13
  1

  0
LINE
  5
67
  8
HATCH
  6
BYLAYER
 62
  256
 10
34846.17213434991
 20
-1269.56184431583
 11
34846.17213434991
 21
-1268.831927102274
  0
LINE
  5
68
  8
HATCH
  6
BYLAYER
 62
  256
 10
34720.17213434991
 20
-1269.56184431583
 11
34720.17213434991
 21
-1268.831927102274
  0
LINE
  5
69
  8
HATCH
  6
BYLAYER
 62
  256
 10
34843.17213434991
 20
-1265.831927102274
 11
34793.64082121859
 21
-1265.831927102274
  0
LINE
  5
6A
  8
HATCH
  6
BYLAYER
 62
  256
 10
34723.17213434991
 20
-1265.831927102274
 11
34772.70344748122
 21
-1265.831927102274
  0
SOLID
  5
6B
  8
HATCH
  6
BYLAYER
 62
  256
 10
34843.17213434991
 20
-1265.331927102274
 30
0
 11
34843.17213434991
 21
-1266.331927102274
 31
0
 12
34846.17213434991
 22
-1265.831927102274
 32
0
 13
34846.17213434991
 23
-1265.831927102274
 33
0
  0
SOLID
  5
6C
  8
HATCH
  6
BYLAYER
 62
  256
 10
34723.17213434991
 20
-1265.331927102274
 30
0
 11
34723.17213434991
 21
-1266.331927102274
 31
0
 12
34720.17213434991
 22
-1265.831927102274
 32
0
 13
34720.17213434991
 23
-1265.831927102274
 33
0
  0
POINT
  5
6D
  8
DEFPOINTS
  6
BYLAYER
 62
    0
 10
34846.17213434991
 20
-1265.56184431583
  0
POINT
  5
6E
  8
DEFPOINTS
  6
BYLAYER
 62
    0
 10
34720.17213434991
 20
-1265.56184431583
  0
POINT
  5
6F
  8
DEFPOINTS
  6
BYLAYER
 62
    0
 10
34720.17213434991
 20
-1265.831927102274
  0
ENDBLK
  8
0
  0
BLOCK
  8
0
  2
*MODEL_SPACE
 70
   64
 10
0
 20
0
  3
*MODEL_SPACE
  1

  0
ENDBLK
  8
0
  0
BLOCK
  8
0
  2
*D18
 70
   65
 10
0
 20
0
  3
*D18
  1

  0
LINE
  5
70
  8
HATCH
  6
BYLAYER
 62
  256
 10
34742.1000940303
 20
-1154.061833958579
 11
34742.93683145743
 21
-1154.061833958579
  0
LINE
  5
71
  8
HATCH
  6
BYLAYER
 62
  256
 10
34742.1000940303
 20
-1022.061833958579
 11
34742.93683145743
 21
-1022.061833958579
  0
LINE
  5
72
  8
HATCH
  6
BYLAYER
 62
  256
 10
34745.93683145743
 20
-1151.061833958579
 11
34745.93683145743
 21
-1098.530520827266
  0
LINE
  5
73
  8
HATCH
  6
BYLAYER
 62
  256
 10
34745.93683145743
 20
-1025.061833958579
 11
34745.93683145743
 21
-1077.593147089892
  0
SOLID
  5
74
  8
HATCH
  6
BYLAYER
 62
  256
 10
34745.43683145743
 20
-1151.061833958579
 30
0
 11
34746.43683145743
 21
-1151.061833958579
 31
0
 12
34745.93683145743
 22
-1154.061833958579
 32
0
 13
34745.93683145743
 23
-1154.061833958579
 33
0
  0
SOLID
  5
75
  8
HATCH
  6
BYLAYER
 62
  256
 10
34745.43683145743
 20
-1025.061833958579
 30
0
 11
34746.43683145743
 21
-1025.061833958579
 31
0
 12
34745.93683145743
 22
-1022.061833958579
 32
0
 13
34745.93683145743
 23
-1022.061833958579
 33
0
  0
POINT
  5
76
  8
DEFPOINTS
  6
BYLAYER
 62
    0
 10
34746.1000940303
 20
-1154.061833958579
  0
POINT
  5
77
  8
DEFPOINTS
  6
BYLAYER
 62
    0
 10
34746.1000940303
 20
-1022.061833958579
  0
POINT
  5
78
  8
DEFPOINTS
  6
BYLAYER
 62
    0
 10
34745.93683145743
 20
-1022.061833958579
  0
ENDBLK
  8
0
  0
BLOCK
  8
0
  2
_DOT
 70
   64
 10
0
 20
0
  3
_DOT
  1

  0
LINE
  5
79
  8
0
  6
BYBLOCK
 62
    0
 10
-0.5
 20
0
 11
-1
 21
0
  0
ENDBLK
  8
0
  0
BLOCK
  8
0
  2
DOOR40
 70
   64
 10
0
 20
0
  3
DOOR40
  1

  0
LINE
  5
7A
  8
DOOR
  6
BYLAYER
 62
  256
 10
2
 20
5
 11
2
 21
40.99999999999977
  0
LINE
  5
7B
  8
DOOR
  6
BYLAYER
 62
  256
 10
3.5
 20
5
 11
3.500000000003638
 21
40.96873642484502
  0
LINE
  5
7C
  8
DOOR
  6
BYLAYER
 62
  256
 10
2
 20
5
 11
3.5
 21
5
  0
ARC
  5
7D
  8
DOOR
  6
BYLAYER
 62
  256
 10
2
 20
5
 40
36
 50
0
 51
90
  0
ENDBLK
  8
0
  0
BLOCK
  8
0
  2
*D9
 70
   65
 10
0
 20
0
  3
*D9
  1

  0
LINE
  5
7E
  8
HATCH
  6
BYLAYER
 62
  256
 10
34944.1721343499
 20
-1222.182841674588
 11
34944.1721343499
 21
-1223.182841674583
  0
LINE
  5
7F
  8
HATCH
  6
BYLAYER
 62
  256
 10
35004.6721343499
 20
-1222.182841674583
 11
35004.6721343499
 21
-1223.182841674583
  0
LINE
  5
80
  8
HATCH
  6
BYLAYER
 62
  256
 10
34947.1721343499
 20
-1226.182841674583
 11
34964.02011414788
 21
-1226.182841674583
  0
LINE
  5
81
  8
HATCH
  6
BYLAYER
 62
  256
 10
35001.6721343499
 20
-1226.182841674583
 11
34984.82415455192
 21
-1226.182841674583
  0
SOLID
  5
82
  8
HATCH
  6
BYLAYER
 62
  256
 10
34947.1721343499
 20
-1225.682841674583
 30
0
 11
34947.1721343499
 21
-1226.682841674583
 31
0
 12
34944.1721343499
 22
-1226.182841674583
 32
0
 13
34944.1721343499
 23
-1226.182841674583
 33
0
  0
SOLID
  5
83
  8
HATCH
  6
BYLAYER
 62
  256
 10
35001.6721343499
 20
-1225.682841674583
 30
0
 11
35001.6721343499
 21
-1226.682841674583
 31
0
 12
35004.6721343499
 22
-1226.182841674583
 32
0
 13
35004.6721343499
 23
-1226.182841674583
 33
0
  0
POINT
  5
84
  8
DEFPOINTS
  6
BYLAYER
 62
    0
 10
34944.1721343499
 20
-1226.182841674588
  0
POINT
  5
85
  8
DEFPOINTS
  6
BYLAYER
 62
    0
 10
35004.6721343499
 20
-1226.182841674583
  0
POINT
  5
86
  8
DEFPOINTS
  6
BYLAYER
 62
    0
 10
35004.6721343499
 20
-1226.182841674583
  0
ENDBLK
  8
0
  0
BLOCK
  8
0
  2
*D8
 70
   65
 10
0
 20
0
  3
*D8
  1

  0
LINE
  5
87
  8
HATCH
  6
BYLAYER
 62
  256
 10
34996.56107634828
 20
-1159.061833958579
 11
34992.90511941109
 21
-1159.061833958579
  0
LINE
  5
88
  8
HATCH
  6
BYLAYER
 62
  256
 10
34996.56107634828
 20
-1243.061833958579
 11
34992.90511941109
 21
-1243.061833958579
  0
LINE
  5
89
  8
HATCH
  6
BYLAYER
 62
  256
 10
34995.90511941109
 20
-1162.061833958579
 11
34995.90511941109
 21
-1192.528500625245
  0
LINE
  5
8A
  8
HATCH
  6
BYLAYER
 62
  256
 10
34995.90511941109
 20
-1240.061833958579
 11
34995.90511941109
 21
-1209.595167291912
  0
SOLID
  5
8B
  8
HATCH
  6
BYLAYER
 62
  256
 10
34995.40511941109
 20
-1162.061833958579
 30
0
 11
34996.40511941109
 21
-1162.061833958579
 31
0
 12
34995.90511941109
 22
-1159.061833958579
 32
0
 13
34995.90511941109
 23
-1159.061833958579
 33
0
  0
SOLID
  5
8C
  8
HATCH
  6
BYLAYER
 62
  256
 10
34995.40511941109
 20
-1240.061833958579
 30
0
 11
34996.40511941109
 21
-1240.061833958579
 31
0
 12
34995.90511941109
 22
-1243.061833958579
 32
0
 13
34995.90511941109
 23
-1243.061833958579
 33
0
  0
POINT
  5
8D
  8
DEFPOINTS
  6
BYLAYER
 62
    0
 10
35000.56107634828
 20
-1159.061833958579
  0
POINT
  5
8E
  8
DEFPOINTS
  6
BYLAYER
 62
    0
 10
35000.56107634828
 20
-1243.061833958579
  0
POINT
  5
8F
  8
DEFPOINTS
  6
BYLAYER
 62
    0
 10
34995.90511941109
 20
-1243.061833958579
  0
ENDBLK
  8
0
  0
BLOCK
  8
0
  2
_ARCHTICK
 70
   64
 10
0
 20
0
  3
_ARCHTICK
  1

  0
ENDBLK
  8
0
  0
BLOCK
  8
0
  2
*D3
 70
   65
 10
0
 20
0
  3
*D3
  1

  0
LINE
  5
90
  8
HATCH
  6
BYLAYER
 62
  256
 10
34851.17213434991
 20
-1040.928193458423
 11
34851.17213434991
 21
-1042.188055727781
  0
LINE
  5
91
  8
HATCH
  6
BYLAYER
 62
  256
 10
34939.17213434991
 20
-1040.92819345844
 11
34939.17213434991
 21
-1042.188055727781
  0
LINE
  5
92
  8
HATCH
  6
BYLAYER
 62
  256
 10
34854.17213434991
 20
-1039.188055727781
 11
34886.63880101658
 21
-1039.188055727781
  0
LINE
  5
93
  8
HATCH
  6
BYLAYER
 62
  256
 10
34936.17213434991
 20
-1039.188055727781
 11
34903.70546768324
 21
-1039.188055727781
  0
SOLID
  5
94
  8
HATCH
  6
BYLAYER
 62
  256
 10
34854.17213434991
 20
-1038.688055727781
 30
0
 11
34854.17213434991
 21
-1039.688055727781
 31
0
 12
34851.17213434991
 22
-1039.188055727781
 32
0
 13
34851.17213434991
 23
-1039.188055727781
 33
0
  0
SOLID
  5
95
  8
HATCH
  6
BYLAYER
 62
  256
 10
34936.17213434991
 20
-1038.688055727781
 30
0
 11
34936.17213434991
 21
-1039.688055727781
 31
0
 12
34939.17213434991
 22
-1039.188055727781
 32
0
 13
34939.17213434991
 23
-1039.188055727781
 33
0
  0
POINT
  5
96
  8
DEFPOINTS
  6
BYLAYER
 62
    0
 10
34851.17213434991
 20
-1036.928193458423
  0
POINT
  5
97
  8
DEFPOINTS
  6
BYLAYER
 62
    0
 10
34939.17213434991
 20
-1036.92819345844
  0
POINT
  5
98
  8
DEFPOINTS
  6
BYLAYER
 62
    0
 10
34939.17213434991
 20
-1039.188055727781
  0
ENDBLK
  8
0
  0
BLOCK
  8
0
  2
*D6
 70
   65
 10
0
 20
0
  3
*D6
  1

  0
LINE
  5
99
  8
HATCH
  6
BYLAYER
 62
  256
 10
34715.17213434991
 20
-1013.061833958578
 11
34715.17213434991
 21
-992.898515086654
  0
LINE
  5
9A
  8
HATCH
  6
BYLAYER
 62
  256
 10
35075.17213434991
 20
-1013.061833958578
 11
35075.17213434991
 21
-992.898515086654
  0
LINE
  5
9B
  8
HATCH
  6
BYLAYER
 62
  256
 10
34718.17213434991
 20
-995.898515086654
 11
34884.51960909738
 21
-995.898515086654
  0
LINE
  5
9C
  8
HATCH
  6
BYLAYER
 62
  256
 10
35072.17213434991
 20
-995.898515086654
 11
34905.82465960243
 21
-995.898515086654
  0
SOLID
  5
9D
  8
HATCH
  6
BYLAYER
 62
  256
 10
34718.17213434991
 20
-995.398515086654
 30
0
 11
34718.17213434991
 21
-996.398515086654
 31
0
 12
34715.17213434991
 22
-995.898515086654
 32
0
 13
34715.17213434991
 23
-995.898515086654
 33
0
  0
SOLID
  5
9E
  8
HATCH
  6
BYLAYER
 62
  256
 10
35072.17213434991
 20
-995.398515086654
 30
0
 11
35072.17213434991
 21
-996.398515086654
 31
0
 12
35075.17213434991
 22
-995.898515086654
 32
0
 13
35075.17213434991
 23
-995.898515086654
 33
0
  0
POINT
  5
9F
  8
DEFPOINTS
  6
BYLAYER
 62
    0
 10
34715.17213434991
 20
-1017.061833958578
  0
POINT
  5
A0
  8
DEFPOINTS
  6
BYLAYER
 62
    0
 10
35075.17213434991
 20
-1017.061833958578
  0
POINT
  5
A1
  8
DEFPOINTS
  6
BYLAYER
 62
    0
 10
35075.17213434991
 20
-995.898515086654
  0
ENDBLK
  8
0
  0
BLOCK
  8
0
  2
*D4
 70
   65
 10
0
 20
0
  3
*D4
  1

  0
LINE
  5
A2
  8
HATCH
  6
BYLAYER
 62
  256
 10
34944.17213434991
 20
-1041.715815725784
 11
34944.17213434991
 21
-1041.734728748605
  0
LINE
  5
A3
  8
HATCH
  6
BYLAYER
 62
  256
 10
35070.17213434991
 20
-1041.715815725782
 11
35070.17213434991
 21
-1041.734728748605
  0
LINE
  5
A4
  8
HATCH
  6
BYLAYER
 62
  256
 10
34947.17213434991
 20
-1038.734728748605
 11
34996.70344748122
 21
-1038.734728748605
  0
LINE
  5
A5
  8
HATCH
  6
BYLAYER
 62
  256
 10
35067.17213434991
 20
-1038.734728748605
 11
35017.64082121859
 21
-1038.734728748605
  0
SOLID
  5
A6
  8
HATCH
  6
BYLAYER
 62
  256
 10
34947.17213434991
 20
-1038.234728748605
 30
0
 11
34947.17213434991
 21
-1039.234728748605
 31
0
 12
34944.17213434991
 22
-1038.734728748605
 32
0
 13
34944.17213434991
 23
-1038.734728748605
 33
0
  0
SOLID
  5
A7
  8
HATCH
  6
BYLAYER
 62
  256
 10
35067.17213434991
 20
-1038.234728748605
 30
0
 11
35067.17213434991
 21
-1039.234728748605
 31
0
 12
35070.17213434991
 22
-1038.734728748605
 32
0
 13
35070.17213434991
 23
-1038.734728748605
 33
0
  0
POINT
  5
A8
  8
DEFPOINTS
  6
BYLAYER
 62
    0
 10
34944.17213434991
 20
-1037.715815725784
  0
POINT
  5
A9
  8
DEFPOINTS
  6
BYLAYER
 62
    0
 10
35070.17213434991
 20
-1037.715815725782
  0
POINT
  5
AA
  8
DEFPOINTS
  6
BYLAYER
 62
    0
 10
35070.17213434991
 20
-1038.734728748605
  0
ENDBLK
  8
0
  0
BLOCK
  8
0
  2
*D5
 70
   65
 10
0
 20
0
  3
*D5
  1

  0
LINE
  5
AB
  8
HATCH
  6
BYLAYER
 62
  256
 10
34846.17213434991
 20
-1039.751232832885
 11
34846.17213434991
 21
-1037.694463472992
  0
LINE
  5
AC
  8
HATCH
  6
BYLAYER
 62
  256
 10
34720.17213434991
 20
-1039.751232832881
 11
34720.17213434991
 21
-1037.694463472992
  0
LINE
  5
AD
  8
HATCH
  6
BYLAYER
 62
  256
 10
34843.17213434991
 20
-1040.694463472992
 11
34793.64082121859
 21
-1040.694463472992
  0
LINE
  5
AE
  8
HATCH
  6
BYLAYER
 62
  256
 10
34723.17213434991
 20
-1040.694463472992
 11
34772.70344748122
 21
-1040.694463472992
  0
SOLID
  5
AF
  8
HATCH
  6
BYLAYER
 62
  256
 10
34843.17213434991
 20
-1040.194463472992
 30
0
 11
34843.17213434991
 21
-1041.194463472992
 31
0
 12
34846.17213434991
 22
-1040.694463472992
 32
0
 13
34846.17213434991
 23
-1040.694463472992
 33
0
  0
SOLID
  5
B0
  8
HATCH
  6
BYLAYER
 62
  256
 10
34723.17213434991
 20
-1040.194463472992
 30
0
 11
34723.17213434991
 21
-1041.194463472992
 31
0
 12
34720.17213434991
 22
-1040.694463472992
 32
0
 13
34720.17213434991
 23
-1040.694463472992
 33
0
  0
POINT
  5
B1
  8
DEFPOINTS
  6
BYLAYER
 62
    0
 10
34846.17213434991
 20
-1043.751232832885
  0
POINT
  5
B2
  8
DEFPOINTS
  6
BYLAYER
 62
    0
 10
34720.17213434991
 20
-1043.751232832881
  0
POINT
  5
B3
  8
DEFPOINTS
  6
BYLAYER
 62
    0
 10
34720.17213434991
 20
-1040.694463472992
  0
ENDBLK
  8
0
  0
BLOCK
  8
0
  2
*D7
 70
   65
 10
0
 20
0
  3
*D7
  1

  0
LINE
  5
B4
  8
HATCH
  6
BYLAYER
 62
  256
 10
34987.43957900812
 20
-1022.061833958579
 11
34998.1079171267
 21
-1022.061833958579
  0
LINE
  5
B5
  8
HATCH
  6
BYLAYER
 62
  256
 10
34987.43957900812
 20
-1154.061833958579
 11
34998.1079171267
 21
-1154.061833958579
  0
LINE
  5
B6
  8
HATCH
  6
BYLAYER
 62
  256
 10
34995.1079171267
 20
-1025.061833958579
 11
34995.1079171267
 21
-1077.593147089892
  0
LINE
  5
B7
  8
HATCH
  6
BYLAYER
 62
  256
 10
34995.1079171267
 20
-1151.061833958579
 11
34995.1079171267
 21
-1098.530520827266
  0
SOLID
  5
B8
  8
HATCH
  6
BYLAYER
 62
  256
 10
34994.6079171267
 20
-1025.061833958579
 30
0
 11
34995.6079171267
 21
-1025.061833958579
 31
0
 12
34995.1079171267
 22
-1022.061833958579
 32
0
 13
34995.1079171267
 23
-1022.061833958579
 33
0
  0
SOLID
  5
B9
  8
HATCH
  6
BYLAYER
 62
  256
 10
34994.6079171267
 20
-1151.061833958579
 30
0
 11
34995.6079171267
 21
-1151.061833958579
 31
0
 12
34995.1079171267
 22
-1154.061833958579
 32
0
 13
34995.1079171267
 23
-1154.061833958579
 33
0
  0
POINT
  5
BA
  8
DEFPOINTS
  6
BYLAYER
 62
    0
 10
34983.43957900812
 20
-1022.061833958579
  0
POINT
  5
BB
  8
DEFPOINTS
  6
BYLAYER
 62
    0
 10
34983.43957900812
 20
-1154.061833958579
  0
POINT
  5
BC
  8
DEFPOINTS
  6
BYLAYER
 62
    0
 10
34995.1079171267
 20
-1154.061833958579
  0
ENDBLK
  8
0
  0
BLOCK
  8
0
  2
*D12
 70
   65
 10
0
 20
0
  3
*D12
  1

  0
LINE
  5
BD
  8
HATCH
  6
BYLAYER
 62
  256
 10
34745.19448930771
 20
-1159.061833958579
 11
34743.24956154866
 21
-1159.061833958579
  0
LINE
  5
BE
  8
HATCH
  6
BYLAYER
 62
  256
 10
34745.19448930771
 20
-1283.061854673082
 11
34743.24956154866
 21
-1283.061854673082
  0
LINE
  5
BF
  8
HATCH
  6
BYLAYER
 62
  256
 10
34746.24956154866
 20
-1162.061833958579
 11
34746.24956154866
 21
-1210.593157447143
  0
LINE
  5
C0
  8
HATCH
  6
BYLAYER
 62
  256
 10
34746.24956154866
 20
-1280.061854673082
 11
34746.24956154866
 21
-1231.530531184517
  0
SOLID
  5
C1
  8
HATCH
  6
BYLAYER
 62
  256
 10
34745.74956154866
 20
-1162.061833958579
 30
0
 11
34746.74956154866
 21
-1162.061833958579
 31
0
 12
34746.24956154866
 22
-1159.061833958579
 32
0
 13
34746.24956154866
 23
-1159.061833958579
 33
0
  0
SOLID
  5
C2
  8
HATCH
  6
BYLAYER
 62
  256
 10
34745.74956154866
 20
-1280.061854673082
 30
0
 11
34746.74956154866
 21
-1280.061854673082
 31
0
 12
34746.24956154866
 22
-1283.061854673082
 32
0
 13
34746.24956154866
 23
-1283.061854673082
 33
0
  0
POINT
  5
C3
  8
DEFPOINTS
  6
BYLAYER
 62
    0
 10
34749.19448930771
 20
-1159.061833958579
  0
POINT
  5
C4
  8
DEFPOINTS
  6
BYLAYER
 62
    0
 10
34749.19448930771
 20
-1283.061854673082
  0
POINT
  5
C5
  8
DEFPOINTS
  6
BYLAYER
 62
    0
 10
34746.24956154866
 20
-1283.061854673082
  0
ENDBLK
  8
0
  0
BLOCK
  8
0
  2
*D10
 70
   65
 10
0
 20
0
  3
*D10
  1

  0
LINE
  5
C6
  8
HATCH
  6
BYLAYER
 62
  256
 10
34868.85943372732
 20
-1093.061833958578
 11
34863.77100535883
 21
-1093.061833958578
  0
LINE
  5
C7
  8
HATCH
  6
BYLAYER
 62
  256
 10
34868.1007057785
 20
-1243.061833958579
 11
34863.77100535883
 21
-1243.061833958579
  0
LINE
  5
C8
  8
HATCH
  6
BYLAYER
 62
  256
 10
34866.77100535883
 20
-1096.061833958578
 11
34866.77100535883
 21
-1157.593147089892
  0
LINE
  5
C9
  8
HATCH
  6
BYLAYER
 62
  256
 10
34866.77100535883
 20
-1240.061833958579
 11
34866.77100535883
 21
-1178.530520827266
  0
SOLID
  5
CA
  8
HATCH
  6
BYLAYER
 62
  256
 10
34866.27100535883
 20
-1096.061833958578
 30
0
 11
34867.27100535883
 21
-1096.061833958578
 31
0
 12
34866.77100535883
 22
-1093.061833958578
 32
0
 13
34866.77100535883
 23
-1093.061833958578
 33
0
  0
SOLID
  5
CB
  8
HATCH
  6
BYLAYER
 62
  256
 10
34866.27100535883
 20
-1240.061833958579
 30
0
 11
34867.27100535883
 21
-1240.061833958579
 31
0
 12
34866.77100535883
 22
-1243.061833958579
 32
0
 13
34866.77100535883
 23
-1243.061833958579
 33
0
  0
POINT
  5
CC
  8
DEFPOINTS
  6
BYLAYER
 62
    0
 10
34872.85943372732
 20
-1093.061833958578
  0
POINT
  5
CD
  8
DEFPOINTS
  6
BYLAYER
 62
    0
 10
34872.1007057785
 20
-1243.061833958579
  0
POINT
  5
CE
  8
DEFPOINTS
  6
BYLAYER
 62
    0
 10
34866.77100535883
 20
-1243.061833958579
  0
ENDBLK
  8
0
  0
BLOCK
  8
0
  2
*PAPER_SPACE
 70
   64
 10
0
 20
0
  3
*PAPER_SPACE
  1

  0
ENDBLK
  8
0
  0
BLOCK
  8
0
  2
*D11
 70
   65
 10
0
 20
0
  3
*D11
  1

  0
LINE
  5
CF
  8
HATCH
  6
BYLAYER
 62
  256
 10
34939.17213434989
 20
-1155.164567402961
 11
34939.17213434989
 21
-1154.164567402961
  0
LINE
  5
D0
  8
HATCH
  6
BYLAYER
 62
  256
 10
34851.17213434991
 20
-1155.164567402961
 11
34851.17213434991
 21
-1154.164567402961
  0
LINE
  5
D1
  8
HATCH
  6
BYLAYER
 62
  256
 10
34936.17213434989
 20
-1151.164567402961
 11
34903.70546768323
 21
-1151.164567402961
  0
LINE
  5
D2
  8
HATCH
  6
BYLAYER
 62
  256
 10
34854.17213434991
 20
-1151.164567402961
 11
34886.63880101657
 21
-1151.164567402961
  0
SOLID
  5
D3
  8
HATCH
  6
BYLAYER
 62
  256
 10
34936.17213434989
 20
-1150.664567402961
 30
0
 11
34936.17213434989
 21
-1151.664567402961
 31
0
 12
34939.17213434989
 22
-1151.164567402961
 32
0
 13
34939.17213434989
 23
-1151.164567402961
 33
0
  0
SOLID
  5
D4
  8
HATCH
  6
BYLAYER
 62
  256
 10
34854.17213434991
 20
-1150.664567402961
 30
0
 11
34854.17213434991
 21
-1151.664567402961
 31
0
 12
34851.17213434991
 22
-1151.164567402961
 32
0
 13
34851.17213434991
 23
-1151.164567402961
 33
0
  0
POINT
  5
D5
  8
DEFPOINTS
  6
BYLAYER
 62
    0
 10
34939.17213434989
 20
-1151.164567402961
  0
POINT
  5
D6
  8
DEFPOINTS
  6
BYLAYER
 62
    0
 10
34851.17213434991
 20
-1151.164567402961
  0
POINT
  5
D7
  8
DEFPOINTS
  6
BYLAYER
 62
    0
 10
34851.17213434991
 20
-1151.164567402961
  0
ENDBLK
  8
0
  0
ENDSEC
  0
SECTION
  2
ENTITIES
  0
TEXT
  5
D8
  8
TEXT-1
  6
BYLAYER
 62
  256
 10
34798.67677099882
 20
-1343.985402781818
 30
0
 40
7.009105888449128
  1
STAIR 
 50
0
 41
1
 51
0
  7
ROOM TEXT
 71
    0
 72
    1
 11
34814.45443091143
 21
-1340.480849837594
 31
0
210
0
220
0
230
1
 73
    2
  0
TEXT
  5
D9
  8
TEXT-1
  6
BYLAYER
 62
  256
 10
34895.2620074839
 20
-1365.575343184025
 30
0
 40
7.009105888449128
  1
MAIN GATE 
 50
0
 41
1
 51
0
  7
ROOM TEXT
 71
    0
 72
    1
 11
34923.55182981811
 21
-1362.0707902398
 31
0
210
0
220
0
230
1
 73
    2
  0
ARC
  5
DA
  8
DOOR
  6
HIDDEN
 62
    3
 10
34922.18922819679
 20
-1344.724620884638
 40
0.6323138583262637
 50
46.8754508612907
 51
146.832095251889
  0
ARC
  5
DB
  8
DOOR
  6
HIDDEN
 62
    3
 10
34922.18922819679
 20
-1344.724620884638
 40
0.9681737925858518
 50
46.8754508612907
 51
146.832095251889
  0
ARC
  5
DC
  8
DOOR
  6
HIDDEN
 62
    3
 10
34922.18922819679
 20
-1344.724620884638
 40
0.8002438254560578
 50
46.8754508612907
 51
146.832095251889
  0
POLYLINE
  5
DD
  8
DOOR
  6
HIDDEN
 62
    3
 66
    1
 10
0
 20
0
 30
0
 70
    0
  0
SEQEND
  5
DE
  8
DOOR
  6
HIDDEN
 62
    3
  0
POLYLINE
  5
DF
  8
DOOR
  6
HIDDEN
 62
    3
 66
    1
 10
0
 20
0
 30
0
 70
    0
  0
SEQEND
  5
E0
  8
DOOR
  6
HIDDEN
 62
    3
  0
POLYLINE
  5
E1
  8
DOOR
  6
HIDDEN
 62
    3
 66
    1
 10
0
 20
0
 30
0
 70
    0
  0
SEQEND
  5
E2
  8
DOOR
  6
HIDDEN
 62
    3
  0
POLYLINE
  5
E3
  8
DOOR
  6
HIDDEN
 62
    3
 66
    1
 10
0
 20
0
 30
0
 70
    0
  0
SEQEND
  5
E4
  8
DOOR
  6
HIDDEN
 62
    3
  0
POLYLINE
  5
E5
  8
DOOR
  6
HIDDEN
 62
    3
 66
    1
 10
0
 20
0
 30
0
 70
    0
  0
SEQEND
  5
E6
  8
DOOR
  6
HIDDEN
 62
    3
  0
POLYLINE
  5
E7
  8
DOOR
  6
HIDDEN
 62
    3
 66
    1
 10
0
 20
0
 30
0
 70
    0
  0
SEQEND
  5
E8
  8
DOOR
  6
HIDDEN
 62
    3
  0
LINE
  5
E9
  8
WALL
  6
BYLAYER
 62
  256
 10
34887.17215957548
 20
-1342.061833958577
 11
34892.17213886097
 21
-1342.061833958577
  0
LINE
  5
EA
  8
WALL
  6
BYLAYER
 62
  256
 10
34887.17215957548
 20
-1372.061854673093
 11
34887.17215957548
 21
-1342.061833958577
  0
LINE
  5
EB
  8
WALL
  6
BYLAYER
 62
  256
 10
34892.17213886097
 20
-1377.061833958578
 11
34892.17213886097
 21
-1342.061833958577
  0
LINE
  5
EC
  8
WALL
  6
BYLAYER
 62
  256
 10
34753.17213434991
 20
-1022.061833958575
 11
34753.17213434991
 21
-1017.06183395858
  0
LINE
  5
ED
  8
LEADER
  6
BYLAYER
 62
  256
 10
35072.67213434991
 20
-1248.061833958578
 11
35072.67213434991
 21
-1344.561833958576
  0
LINE
  5
EE
  8
WALL
  6
BYLAYER
 62
  256
 10
35075.17213434991
 20
-1248.061833958578
 11
35075.17213434991
 21
-1347.061833958577
  0
LINE
  5
EF
  8
WALL
  6
BYLAYER
 62
  256
 10
34952.17213886097
 20
-1347.061833958543
 11
34952.17213886097
 21
-1342.061833958562
  0
LINE
  5
F0
  8
LEADER
  6
BYLAYER
 62
  256
 10
34952.17213886097
 20
-1344.561833958564
 11
35072.67213434991
 21
-1344.561833958576
  0
LINE
  5
F1
  8
WALL
  6
BYLAYER
 62
  256
 10
34952.17213886097
 20
-1347.061833958563
 11
35075.17213434991
 21
-1347.061833958577
  0
LINE
  5
F2
  8
WALL
  6
BYLAYER
 62
  256
 10
34952.17213886097
 20
-1342.061833958563
 11
35070.17213434991
 21
-1342.061833958576
  0
LINE
  5
F3
  8
WALL
  6
BYLAYER
 62
  256
 10
34934.17213434991
 20
-1248.061833958578
 11
34939.17213434989
 21
-1248.061833958578
  0
LINE
  5
F4
  8
WALL
  6
BYLAYER
 62
  256
 10
34851.17213434991
 20
-1243.061833958579
 11
34893.02927720705
 21
-1243.061833958579
  0
INSERT
  5
F5
  8
DOOR
  6
BYLAYER
 62
  256
  2
DOOR40
 10
34939.17213434989
 20
-1164.061833958578
 30
0
 41
0.7714285714284634
 42
0.7714285714284634
 43
0.7714285714284634
 50
270
 70
    1
 71
    1
 44
0
 45
0
  0
LINE
  5
F6
  8
WALL
  6
BYLAYER
 62
  256
 10
34903.31499149275
 20
-1093.061833958577
 11
34903.31499149275
 21
-1088.061833958584
  0
LINE
  5
F7
  8
WALL
  6
BYLAYER
 62
  256
 10
34934.17213434989
 20
-1088.061833958577
 11
34934.17213434989
 21
-1093.061833958577
  0
INSERT
  5
F8
  8
DOOR
  6
BYLAYER
 62
  256
  2
DOOR40
 10
34934.17213434989
 20
-1093.061833958577
 30
0
 41
-0.7714285714284634
 42
0.7714285714284634
 43
0.7714285714284634
 50
0
 70
    1
 71
    1
 44
0
 45
0
  0
LINE
  5
F9
  8
WALL
  6
BYLAYER
 62
  256
 10
34939.17213434989
 20
-1194.918976815717
 11
34944.17213434989
 21
-1194.918976815717
  0
LINE
  5
FA
  8
WALL
  6
BYLAYER
 62
  256
 10
34939.17213434989
 20
-1164.061833958578
 11
34944.17213434989
 21
-1164.061833958578
  0
LINE
  5
FB
  8
WALL
  6
BYLAYER
 62
  256
 10
34893.02927720705
 20
-1248.061833958578
 11
34893.02927720705
 21
-1243.061833958579
  0
LINE
  5
FC
  8
WALL
  6
BYLAYER
 62
  256
 10
34934.17213434991
 20
-1248.061833958578
 11
34934.17213434991
 21
-1243.061833958578
  0
INSERT
  5
FD
  8
DOOR
  6
BYLAYER
 62
  256
  2
DOOR40
 10
34934.17213434991
 20
-1248.061833958578
 30
0
 41
-1.028571428571428
 42
1.028571428571428
 43
1.028571428571428
 50
0
 70
    1
 71
    1
 44
0
 45
0
  0
LINE
  5
FE
  8
WALL
  6
BYLAYER
 62
  256
 10
34939.17213434989
 20
-1107.918976815721
 11
34944.17213434989
 21
-1107.918976815721
  0
LINE
  5
FF
  8
WALL
  6
BYLAYER
 62
  256
 10
34939.17213434989
 20
-1149.061833958578
 11
34944.17213434989
 21
-1149.061833958578
  0
INSERT
  5
100
  8
DOOR
  6
BYLAYER
 62
  256
  2
DOOR40
 10
34939.17213434989
 20
-1149.061833958578
 30
0
 41
-1.028571428571428
 42
1.028571428571428
 43
1.028571428571428
 50
270
 70
    1
 71
    1
 44
0
 45
0
  0
LINE
  5
101
  8
WALL
  6
BYLAYER
 62
  256
 10
34851.17213434991
 20
-1107.918976815721
 11
34846.17213434991
 21
-1107.918976815721
  0
LINE
  5
102
  8
WALL
  6
BYLAYER
 62
  256
 10
34851.17213434991
 20
-1149.061833958578
 11
34846.17213434991
 21
-1149.061833958578
  0
INSERT
  5
103
  8
DOOR
  6
BYLAYER
 62
  256
  2
DOOR40
 10
34851.17213434991
 20
-1149.061833958578
 30
0
 41
1.028571428571428
 42
1.028571428571428
 43
1.028571428571428
 50
90.00000000000003
 70
    1
 71
    1
 44
0
 45
0
  0
LINE
  5
104
  8
STAIR
  6
BYLAYER
 62
  256
 10
34976.17213886097
 20
-1347.061833958566
 11
34976.17213886097
 21
-1377.061833958582
  0
LINE
  5
105
  8
STAIR
  6
BYLAYER
 62
  256
 10
34892.17213886097
 20
-1377.061833958578
 11
34976.17213886099
 21
-1377.061833958578
  0
LINE
  5
106
  8
STAIR
  6
BYLAYER
 62
  256
 10
34892.17213886097
 20
-1367.061833958578
 11
34976.17213886097
 21
-1367.061833958578
  0
LINE
  5
107
  8
STAIR
  6
BYLAYER
 62
  256
 10
34892.17213886097
 20
-1347.061833958579
 11
34976.17213886097
 21
-1347.061833958579
  0
LINE
  5
108
  8
STAIR
  6
BYLAYER
 62
  256
 10
34892.17213886097
 20
-1357.061833958578
 11
34976.17213886097
 21
-1357.061833958578
  0
LINE
  5
109
  8
WALL
  6
BYLAYER
 62
  256
 10
34851.17213434991
 20
-1248.061833958578
 11
34851.17213434991
 21
-1288.061854673089
  0
LINE
  5
10A
  8
WALL
  6
BYLAYER
 62
  256
 10
34851.17213434991
 20
-1205.689284015951
 11
34851.17213434991
 21
-1243.061833958579
  0
LINE
  5
10B
  8
WALL
  6
BYLAYER
 62
  256
 10
34851.17213434991
 20
-1149.061833958578
 11
34851.17213434991
 21
-1164.546426873094
  0
LINE
  5
10C
  8
WALL
  6
BYLAYER
 62
  256
 10
34851.17213434991
 20
-1093.061833958578
 11
34851.17213434991
 21
-1107.918976815721
  0
LINE
  5
10D
  8
WALL
  6
BYLAYER
 62
  256
 10
34851.17213434991
 20
-1022.061833958578
 11
34851.17213434991
 21
-1088.061833958578
  0
LINE
  5
10E
  8
WALL
  6
BYLAYER
 62
  256
 10
34846.17213434991
 20
-1248.061833958578
 11
34846.17213434991
 21
-1283.061854673082
  0
LINE
  5
10F
  8
WALL
  6
BYLAYER
 62
  256
 10
34846.17213434991
 20
-1205.689284015951
 11
34846.17213434991
 21
-1248.061833958578
  0
LINE
  5
110
  8
WALL
  6
BYLAYER
 62
  256
 10
34846.17213434991
 20
-1149.061833958578
 11
34846.17213434991
 21
-1164.546426873094
  0
LINE
  5
111
  8
WALL
  6
BYLAYER
 62
  256
 10
34846.17213434991
 20
-1022.061833958578
 11
34846.17213434991
 21
-1107.918976815721
  0
LINE
  5
112
  8
WALL
  6
BYLAYER
 62
  256
 10
34720.17213434991
 20
-1359.838517310309
 11
34720.17213434991
 21
-1372.061833958578
  0
LINE
  5
113
  8
WALL
  6
BYLAYER
 62
  256
 10
34720.17213434991
 20
-1251.06184431583
 11
34720.17213434991
 21
-1299.838517310309
  0
LINE
  5
114
  8
WALL
  6
BYLAYER
 62
  256
 10
34720.17213434991
 20
-1159.061833958578
 11
34720.17213434989
 21
-1191.06184431583
  0
LINE
  5
115
  8
WALL
  6
BYLAYER
 62
  256
 10
34720.17213434991
 20
-1118.061833958578
 11
34720.17213434991
 21
-1154.061833958578
  0
LINE
  5
116
  8
WALL
  6
BYLAYER
 62
  256
 10
34720.17213434991
 20
-1022.061833958578
 11
34720.17213434991
 21
-1058.061833958578
  0
LINE
  5
117
  8
WALL
  6
BYLAYER
 62
  256
 10
34893.02927720704
 20
-1248.061833958578
 11
34851.17213434991
 21
-1248.061833958578
  0
LINE
  5
118
  8
WALL
  6
BYLAYER
 62
  256
 10
35075.17213434991
 20
-1248.061833958578
 11
34939.17213434989
 21
-1248.061833958578
  0
LINE
  5
119
  8
WALL
  6
BYLAYER
 62
  256
 10
34939.17213434989
 20
-1243.061833958578
 11
34934.17213434991
 21
-1243.061833958578
  0
LINE
  5
11A
  8
WALL
  6
BYLAYER
 62
  256
 10
35070.17213434991
 20
-1243.061833958578
 11
34944.17213434989
 21
-1243.061833958578
  0
LINE
  5
11B
  8
WALL
  6
BYLAYER
 62
  256
 10
34846.17213434991
 20
-1159.061833958578
 11
34720.17213434991
 21
-1159.061833958578
  0
LINE
  5
11C
  8
WALL
  6
BYLAYER
 62
  256
 10
35034.31499149276
 20
-1159.061833958578
 11
34944.17213434989
 21
-1159.061833958578
  0
LINE
  5
11D
  8
WALL
  6
BYLAYER
 62
  256
 10
35070.17213434991
 20
-1159.061833958578
 11
35065.17213434991
 21
-1159.061833958578
  0
LINE
  5
11E
  8
WALL
  6
BYLAYER
 62
  256
 10
34846.17213434991
 20
-1154.061833958578
 11
34720.17213434991
 21
-1154.061833958578
  0
LINE
  5
11F
  8
WALL
  6
BYLAYER
 62
  256
 10
35034.31499149276
 20
-1154.061833958578
 11
34944.17213434989
 21
-1154.061833958578
  0
LINE
  5
120
  8
WALL
  6
BYLAYER
 62
  256
 10
35070.17213434991
 20
-1154.061833958578
 11
35065.17213434991
 21
-1154.061833958578
  0
LINE
  5
121
  8
WALL
  6
BYLAYER
 62
  256
 10
34903.31499149275
 20
-1088.061833958578
 11
34851.17213434991
 21
-1088.061833958578
  0
LINE
  5
122
  8
WALL
  6
BYLAYER
 62
  256
 10
34939.17213434989
 20
-1088.061833958578
 11
34934.17213434989
 21
-1088.061833958578
  0
LINE
  5
123
  8
WINDOW
  6
HIDDEN
 62
  256
 10
34748.17213434991
 20
-1017.061833958582
 11
34748.17213434989
 21
-1009.061833958575
  0
LINE
  5
124
  8
WALL
  6
BYLAYER
 62
  256
 10
34903.31499149275
 20
-1093.061833958578
 11
34851.17213434991
 21
-1093.061833958578
  0
LINE
  5
125
  8
WINDOW
  6
HIDDEN
 62
  256
 10
34818.17213434991
 20
-1017.061833958582
 11
34818.17213434991
 21
-1009.061833958582
  0
LINE
  5
126
  8
LEADER
  6
BYLAYER
 62
  256
 10
34851.17213886097
 20
-1303.253965177919
 11
34851.17213886097
 21
-1313.869744168266
  0
LINE
  5
127
  8
WALL
  6
BYLAYER
 62
  256
 10
34939.17213434989
 20
-1093.061833958578
 11
34934.17213434989
 21
-1093.061833958578
  0
LINE
  5
128
  8
WALL
  6
BYLAYER
 62
  256
 10
34753.17213434991
 20
-1022.061833958578
 11
34720.17213434991
 21
-1022.061833958578
  0
LINE
  5
129
  8
WALL
  6
BYLAYER
 62
  256
 10
34846.17213434991
 20
-1022.061833958578
 11
34813.17213434991
 21
-1022.061833958578
  0
LINE
  5
12A
  8
WALL
  6
BYLAYER
 62
  256
 10
34939.17213434991
 20
-1022.061833958578
 11
34925.17213434991
 21
-1022.061833958578
  0
LINE
  5
12B
  8
WALL
  6
BYLAYER
 62
  256
 10
34977.17213434991
 20
-1022.061833958578
 11
34944.17213434991
 21
-1022.061833958578
  0
LINE
  5
12C
  8
WINDOW
  6
HIDDEN
 62
  256
 10
34818.17213434991
 20
-1009.061833958582
 11
34748.17213434989
 21
-1009.061833958575
  0
LINE
  5
12D
  8
WALL
  6
BYLAYER
 62
  256
 10
35070.17213434991
 20
-1022.061833958578
 11
35037.17213434991
 21
-1022.061833958578
  0
LINE
  5
12E
  8
WALL
  6
BYLAYER
 62
  256
 10
34813.17213434991
 20
-1022.061833958575
 11
34813.17213434991
 21
-1017.061833958579
  0
LINE
  5
12F
  8
WALL
  6
BYLAYER
 62
  256
 10
34939.17213434989
 20
-1088.061833958578
 11
34939.17213434991
 21
-1022.061833958578
  0
LINE
  5
130
  8
WALL
  6
BYLAYER
 62
  256
 10
34715.17213434991
 20
-1377.061833958578
 11
34892.17213886097
 21
-1377.061833958578
  0
LINE
  5
131
  8
WALL
  6
BYLAYER
 62
  256
 10
35075.17213434989
 20
-1248.061833958578
 11
35075.17213434989
 21
-1118.061833958578
  0
LINE
  5
132
  8
WALL
  6
BYLAYER
 62
  256
 10
35075.17213434989
 20
-1058.061833958578
 11
35075.17213434991
 21
-1017.061833958578
  0
LINE
  5
133
  8
WALL
  6
BYLAYER
 62
  256
 10
35075.17213434991
 20
-1017.061833958578
 11
35037.17213434991
 21
-1017.061833958578
  0
LINE
  5
134
  8
WALL
  6
BYLAYER
 62
  256
 10
34977.17213434991
 20
-1017.061833958578
 11
34925.17213434991
 21
-1017.061833958578
  0
LINE
  5
135
  8
WALL
  6
BYLAYER
 62
  256
 10
34865.17213434991
 20
-1017.061833958578
 11
34813.17213434991
 21
-1017.061833958578
  0
LINE
  5
136
  8
WALL
  6
BYLAYER
 62
  256
 10
34753.17213434991
 20
-1017.061833958578
 11
34715.17213434991
 21
-1017.061833958578
  0
LINE
  5
137
  8
WALL
  6
BYLAYER
 62
  256
 10
34715.17213434991
 20
-1017.061833958578
 11
34715.17213434991
 21
-1058.061833958578
  0
LINE
  5
138
  8
WALL
  6
BYLAYER
 62
  256
 10
34715.17213434991
 20
-1118.061833958578
 11
34715.17213434991
 21
-1191.06184431583
  0
LINE
  5
139
  8
WALL
  6
BYLAYER
 62
  256
 10
34715.17213434991
 20
-1251.06184431583
 11
34715.17213434991
 21
-1299.838517310309
  0
LINE
  5
13A
  8
WALL
  6
BYLAYER
 62
  256
 10
34715.17213434991
 20
-1359.838517310309
 11
34715.17213434991
 21
-1377.061833958578
  0
LINE
  5
13B
  8
WALL
  6
BYLAYER
 62
  256
 10
35070.17213434991
 20
-1342.061833958576
 11
35070.17213434991
 21
-1248.061833958578
  0
LINE
  5
13C
  8
WALL
  6
BYLAYER
 62
  256
 10
35070.17213434991
 20
-1243.061833958578
 11
35070.17213434991
 21
-1159.061833958578
  0
LINE
  5
13D
  8
WALL
  6
BYLAYER
 62
  256
 10
35070.17213434991
 20
-1154.061833958578
 11
35070.17213434991
 21
-1118.061833958578
  0
LINE
  5
13E
  8
WALL
  6
BYLAYER
 62
  256
 10
35070.17213434991
 20
-1058.061833958578
 11
35070.17213434991
 21
-1022.061833958578
  0
LINE
  5
13F
  8
WALL
  6
BYLAYER
 62
  256
 10
34944.17213434991
 20
-1243.061833958578
 11
34944.17213434989
 21
-1194.918976815717
  0
LINE
  5
140
  8
WALL
  6
BYLAYER
 62
  256
 10
34944.17213434989
 20
-1164.061833958578
 11
34944.17213434989
 21
-1159.061833958578
  0
LINE
  5
141
  8
WALL
  6
BYLAYER
 62
  256
 10
34944.17213434989
 20
-1154.061833958578
 11
34944.17213434989
 21
-1149.061833958578
  0
LINE
  5
142
  8
WALL
  6
BYLAYER
 62
  256
 10
34944.17213434989
 20
-1107.918976815721
 11
34944.17213434991
 21
-1022.061833958578
  0
LINE
  5
143
  8
WALL
  6
BYLAYER
 62
  256
 10
34939.17213434989
 20
-1243.061833958578
 11
34939.17213434989
 21
-1194.918976815717
  0
LINE
  5
144
  8
WALL
  6
BYLAYER
 62
  256
 10
34939.17213434989
 20
-1164.061833958578
 11
34939.17213434989
 21
-1149.061833958578
  0
LINE
  5
145
  8
WALL
  6
BYLAYER
 62
  256
 10
34939.17213434989
 20
-1107.918976815721
 11
34939.17213434989
 21
-1093.061833958578
  0
LINE
  5
146
  8
WALL
  6
BYLAYER
 62
  256
 10
34865.17213434991
 20
-1022.061833958578
 11
34851.17213434991
 21
-1022.061833958578
  0
LINE
  5
147
  8
WALL
  6
BYLAYER
 62
  256
 10
34977.17213434991
 20
-1022.061833958575
 11
34977.17213434991
 21
-1017.06183395858
  0
LINE
  5
148
  8
WALL
  6
BYLAYER
 62
  256
 10
35037.17213434991
 20
-1022.061833958575
 11
35037.17213434991
 21
-1017.061833958579
  0
LINE
  5
149
  8
WINDOW
  6
HIDDEN
 62
  256
 10
35042.17213434991
 20
-1009.061833958582
 11
34972.17213434989
 21
-1009.061833958575
  0
LINE
  5
14A
  8
WINDOW
  6
HIDDEN
 62
  256
 10
35042.17213434991
 20
-1017.061833958582
 11
35042.17213434991
 21
-1009.061833958582
  0
LINE
  5
14B
  8
WINDOW
  6
HIDDEN
 62
  256
 10
34972.17213434991
 20
-1017.061833958582
 11
34972.17213434989
 21
-1009.061833958575
  0
LINE
  5
14C
  8
WALL
  6
BYLAYER
 62
  256
 10
34865.17213434991
 20
-1022.061833958574
 11
34865.17213434991
 21
-1017.061833958579
  0
LINE
  5
14D
  8
WALL
  6
BYLAYER
 62
  256
 10
34925.17213434991
 20
-1022.061833958574
 11
34925.17213434991
 21
-1017.061833958579
  0
LINE
  5
14E
  8
WINDOW
  6
HIDDEN
 62
  256
 10
34930.17213434991
 20
-1009.061833958582
 11
34860.17213434989
 21
-1009.061833958574
  0
LINE
  5
14F
  8
WINDOW
  6
HIDDEN
 62
  256
 10
34930.17213434991
 20
-1017.061833958582
 11
34930.17213434991
 21
-1009.061833958582
  0
LINE
  5
150
  8
WINDOW
  6
HIDDEN
 62
  256
 10
34860.17213434991
 20
-1017.061833958582
 11
34860.17213434989
 21
-1009.061833958574
  0
LINE
  5
151
  8
WALL
  6
BYLAYER
 62
  256
 10
35070.17213434991
 20
-1058.061833958578
 11
35075.17213434991
 21
-1058.061833958578
  0
LINE
  5
152
  8
WALL
  6
BYLAYER
 62
  256
 10
35070.17213434991
 20
-1118.061833958578
 11
35075.17213434991
 21
-1118.061833958578
  0
LINE
  5
153
  8
WINDOW
  6
HIDDEN
 62
  256
 10
35083.17213434991
 20
-1123.061833958578
 11
35083.17213434991
 21
-1053.061833958571
  0
LINE
  5
154
  8
WINDOW
  6
HIDDEN
 62
  256
 10
35075.17213434991
 20
-1123.061833958578
 11
35083.17213434991
 21
-1123.061833958578
  0
LINE
  5
155
  8
WINDOW
  6
HIDDEN
 62
  256
 10
35075.17213434991
 20
-1053.061833958575
 11
35083.17213434991
 21
-1053.061833958571
  0
LINE
  5
156
  8
WALL
  6
BYLAYER
 62
  256
 10
34720.17213434991
 20
-1058.061833958578
 11
34715.17213434991
 21
-1058.061833958578
  0
LINE
  5
157
  8
WALL
  6
BYLAYER
 62
  256
 10
34720.17213434991
 20
-1118.061833958578
 11
34715.17213434991
 21
-1118.061833958578
  0
LINE
  5
158
  8
WINDOW
  6
HIDDEN
 62
  256
 10
34707.17213434991
 20
-1123.061833958578
 11
34707.17213434991
 21
-1053.061833958571
  0
LINE
  5
159
  8
WINDOW
  6
HIDDEN
 62
  256
 10
34715.17213434991
 20
-1123.061833958578
 11
34707.17213434991
 21
-1123.061833958578
  0
LINE
  5
15A
  8
WINDOW
  6
HIDDEN
 62
  256
 10
34715.17213434991
 20
-1053.061833958575
 11
34707.17213434991
 21
-1053.061833958571
  0
LINE
  5
15B
  8
WALL
  6
BYLAYER
 62
  256
 10
34720.17213434991
 20
-1299.838517310309
 11
34715.17213434991
 21
-1299.838517310309
  0
LINE
  5
15C
  8
WALL
  6
BYLAYER
 62
  256
 10
34720.17213434991
 20
-1359.838517310309
 11
34715.17213434991
 21
-1359.838517310309
  0
LINE
  5
15D
  8
WINDOW
  6
HIDDEN
 62
  256
 10
34707.17213434991
 20
-1364.838517310309
 11
34707.17213434991
 21
-1294.838517310302
  0
LINE
  5
15E
  8
WINDOW
  6
HIDDEN
 62
  256
 10
34715.17213434991
 20
-1364.838517310309
 11
34707.17213434991
 21
-1364.838517310309
  0
LINE
  5
15F
  8
WINDOW
  6
HIDDEN
 62
  256
 10
34715.17213434991
 20
-1294.838517310305
 11
34707.17213434991
 21
-1294.838517310302
  0
LINE
  5
160
  8
WALL
  6
BYLAYER
 62
  256
 10
34720.17213434989
 20
-1191.06184431583
 11
34715.17213434991
 21
-1191.06184431583
  0
LINE
  5
161
  8
WALL
  6
BYLAYER
 62
  256
 10
34720.17213434989
 20
-1251.06184431583
 11
34715.17213434991
 21
-1251.06184431583
  0
LINE
  5
162
  8
WINDOW
  6
HIDDEN
 62
  256
 10
34707.17213434991
 20
-1256.06184431583
 11
34707.17213434989
 21
-1186.061844315823
  0
LINE
  5
163
  8
WINDOW
  6
HIDDEN
 62
  256
 10
34715.17213434991
 20
-1256.06184431583
 11
34707.17213434991
 21
-1256.06184431583
  0
LINE
  5
164
  8
WINDOW
  6
HIDDEN
 62
  256
 10
34715.17213434991
 20
-1186.061844315826
 11
34707.17213434989
 21
-1186.061844315823
  0
LINE
  5
165
  8
WALL
  6
BYLAYER
 62
  256
 10
34720.17213886096
 20
-1372.061854673089
 11
34720.17213886096
 21
-1288.061854673089
  0
LINE
  5
166
  8
STAIR
  6
BYLAYER
 62
  256
 10
34761.17213886097
 20
-1288.061854673093
 11
34761.17213886097
 21
-1329.061854673093
  0
LINE
  5
167
  8
STAIR
  6
BYLAYER
 62
  256
 10
34761.17213886097
 20
-1331.061854673096
 11
34761.17213886097
 21
-1372.061854673096
  0
LINE
  5
168
  8
STAIR
  6
HIDDEN
 62
  256
 10
34771.17213886097
 20
-1331.061854673096
 11
34771.17213886097
 21
-1372.061854673096
  0
LINE
  5
169
  8
STAIR
  6
HIDDEN
 62
  256
 10
34781.17213886097
 20
-1331.061854673096
 11
34781.17213886097
 21
-1372.061854673096
  0
LINE
  5
16A
  8
STAIR
  6
HIDDEN
 62
  256
 10
34791.17213886097
 20
-1331.061854673096
 11
34791.17213886097
 21
-1372.061854673096
  0
LINE
  5
16B
  8
STAIR
  6
HIDDEN
 62
  256
 10
34781.17213886097
 20
-1331.061854673096
 11
34781.17213886097
 21
-1372.061854673096
  0
LINE
  5
16C
  8
STAIR
  6
BYLAYER
 62
  256
 10
34851.17213886097
 20
-1288.061854673093
 11
34851.17213886097
 21
-1329.061854673093
  0
LINE
  5
16D
  8
WALL
  6
BYLAYER
 62
  256
 10
34892.17213886097
 20
-1342.061833958577
 11
34892.17213886097
 21
-1377.061833958578
  0
LINE
  5
16E
  8
RAIL
  6
BYLAYER
 62
  256
 10
34851.17213886097
 20
-1329.061854673093
 11
34761.17213886097
 21
-1329.061854673093
  0
LINE
  5
16F
  8
RAIL
  6
BYLAYER
 62
  256
 10
34851.17213886097
 20
-1331.061854673093
 11
34761.17213886097
 21
-1331.061854673093
  0
LINE
  5
170
  8
RAIL
  6
BYLAYER
 62
  256
 10
34851.17213886097
 20
-1331.061854673093
 11
34851.17213886097
 21
-1329.061854673093
  0
LINE
  5
171
  8
RAIL
  6
BYLAYER
 62
  256
 10
34761.17213886097
 20
-1331.061854673096
 11
34761.17213886097
 21
-1329.061854673093
  0
LINE
  5
172
  8
STAIR
  6
BYLAYER
 62
  256
 10
34771.17213886097
 20
-1329.061854673093
 11
34771.17213886097
 21
-1288.061854673093
  0
LINE
  5
173
  8
STAIR
  6
BYLAYER
 62
  256
 10
34781.17213886097
 20
-1329.061854673093
 11
34781.17213886097
 21
-1288.061854673093
  0
LINE
  5
174
  8
STAIR
  6
BYLAYER
 62
  256
 10
34791.17213886097
 20
-1329.061854673093
 11
34791.17213886097
 21
-1288.061854673093
  0
LINE
  5
175
  8
STAIR
  6
BYLAYER
 62
  256
 10
34801.17213886097
 20
-1329.061854673093
 11
34801.17213886097
 21
-1288.061854673093
  0
LINE
  5
176
  8
STAIR
  6
BYLAYER
 62
  256
 10
34811.17213886097
 20
-1329.061854673093
 11
34811.17213886097
 21
-1288.061854673093
  0
LINE
  5
177
  8
STAIR
  6
BYLAYER
 62
  256
 10
34821.17213886097
 20
-1329.061854673093
 11
34821.17213886097
 21
-1288.061854673093
  0
LINE
  5
178
  8
STAIR
  6
BYLAYER
 62
  256
 10
34831.17213886097
 20
-1329.061854673093
 11
34831.17213886097
 21
-1288.061854673093
  0
LINE
  5
179
  8
STAIR
  6
BYLAYER
 62
  256
 10
34841.17213886097
 20
-1329.061854673093
 11
34841.17213886097
 21
-1288.061854673093
  0
LINE
  5
17A
  8
RAIL
  6
BYLAYER
 62
  256
 10
34844.01296205459
 20
-1308.561854673096
 11
34738.14423116561
 21
-1308.561854673089
  0
LINE
  5
17B
  8
RAIL
  6
BYLAYER
 62
  256
 10
34738.14423116561
 20
-1308.561854673089
 11
34738.14423116563
 21
-1351.561854673093
  0
LINE
  5
17C
  8
RAIL
  6
HIDDEN
 62
  256
 10
34738.14423116563
 20
-1351.561854673093
 11
34791.17213886096
 21
-1351.561854673093
  0
LINE
  5
17D
  8
RAIL
  6
HIDDEN
 62
  256
 10
34791.17213886097
 20
-1351.561854673093
 11
34781.17213886097
 21
-1331.061854673093
  0
LINE
  5
17E
  8
RAIL
  6
HIDDEN
 62
  256
 10
34781.17213886097
 20
-1331.061854673093
 11
34781.17213886097
 21
-1342.703539542084
  0
LINE
  5
17F
  8
RAIL
  6
HIDDEN
 62
  256
 10
34781.17213886097
 20
-1342.703539542084
 11
34791.17213886097
 21
-1351.561854673093
  0
LINE
  5
180
  8
RAIL
  6
HIDDEN
 62
  256
 10
34791.17213886097
 20
-1351.561854673093
 11
34781.17213886097
 21
-1372.061854673096
  0
LINE
  5
181
  8
RAIL
  6
HIDDEN
 62
  256
 10
34781.17213886097
 20
-1360.420169804101
 11
34791.17213886097
 21
-1351.561854673093
  0
LINE
  5
182
  8
RAIL
  6
HIDDEN
 62
  256
 10
34781.17213886097
 20
-1360.420169804101
 11
34781.17213886097
 21
-1372.061854673096
  0
LINE
  5
183
  8
WALL
  6
BYLAYER
 62
  256
 10
34887.17215957548
 20
-1372.061854673093
 11
34720.17213886096
 21
-1372.061854673093
  0
LINE
  5
184
  8
WALL
  6
BYLAYER
 62
  256
 10
34720.17213886096
 20
-1288.061854673089
 11
34851.17213434991
 21
-1288.061854673089
  0
LINE
  5
185
  8
WALL
  6
BYLAYER
 62
  256
 10
34720.17213886096
 20
-1283.061854673082
 11
34846.17213434991
 21
-1283.061854673082
  0
INSERT
  5
186
  8
DOOR
  6
BYLAYER
 62
  256
  2
DOOR40
 10
34851.17213434991
 20
-1164.546426873094
 30
0
 41
-1.028571428571428
 42
1.028571428571428
 43
1.028571428571428
 50
90
 70
    1
 71
    1
 44
0
 45
0
  0
LINE
  5
187
  8
WALL
  6
BYLAYER
 62
  256
 10
34851.17213434991
 20
-1164.546426873094
 11
34846.17213434991
 21
-1164.546426873094
  0
LINE
  5
188
  8
WALL
  6
BYLAYER
 62
  256
 10
34851.17213434991
 20
-1205.689284015951
 11
34846.17213434991
 21
-1205.689284015951
  0
LINE
  5
189
  8
WALL
  6
BYLAYER
 62
  256
 10
34939.17213434989
 20
-1164.061833958578
 11
34944.17213434989
 21
-1164.061833958578
  0
LINE
  5
18A
  8
WALL
  6
BYLAYER
 62
  256
 10
34939.17213434989
 20
-1194.918976815717
 11
34944.17213434989
 21
-1194.918976815717
  0
INSERT
  5
18B
  8
DOOR
  6
BYLAYER
 62
  256
  2
DOOR40
 10
34939.17213434989
 20
-1164.061833958578
 30
0
 41
0.7714285714284634
 42
0.7714285714284634
 43
0.7714285714284634
 50
270
 70
    1
 71
    1
 44
0
 45
0
  0
LINE
  5
18C
  8
WALL
  6
BYLAYER
 62
  256
 10
35004.67213434989
 20
-1159.061833958578
 11
35004.67213434991
 21
-1243.061833958578
  0
LINE
  5
18D
  8
WALL
  6
BYLAYER
 62
  256
 10
35009.67213434989
 20
-1159.061833958578
 11
35009.67213434991
 21
-1243.061833958578
  0
LINE
  5
18E
  8
WALL
  6
BYLAYER
 62
  256
 10
35065.17213434991
 20
-1154.061833958578
 11
35065.17213434991
 21
-1159.061833958578
  0
LINE
  5
18F
  8
WALL
  6
BYLAYER
 62
  256
 10
35034.31499149276
 20
-1154.061833958575
 11
35034.31499149276
 21
-1159.061833958575
  0
INSERT
  5
190
  8
DOOR
  6
BYLAYER
 62
  256
  2
DOOR40
 10
35065.17213434991
 20
-1154.061833958575
 30
0
 41
0.7714285714284634
 42
0.7714285714284634
 43
0.7714285714284634
 50
180
 70
    1
 71
    1
 44
0
 45
0
  0
TEXT
  5
191
  8
TEXT-1
  6
BYLAYER
 62
  256
 10
34928.74022147062
 20
-1303.689126870846
 30
0
 40
7.009105888449128
  1
VERANDA 
 50
0
 41
1
 51
0
  7
ROOM TEXT
 71
    0
 72
    1
 11
34953.7693274229
 21
-1300.184573926621
 31
0
210
0
220
0
230
1
 73
    2
  0
TEXT
  5
192
  8
TEXT-1
  6
BYLAYER
 62
  256
 10
34760.10293574919
 20
-1223.593208310002
 30
0
 40
7.009105888449128
  1
BED ROOM
 50
0
 41
1
 51
0
  7
ROOM TEXT
 71
    0
 72
    1
 11
34786.7600093379
 21
-1220.088655365777
 31
0
210
0
220
0
230
1
 73
    2
  0
TEXT
  5
193
  8
TEXT-1
  6
BYLAYER
 62
  256
 10
34760.10293574919
 20
-1087.484480970659
 30
0
 40
7.009105888449128
  1
BED ROOM
 50
0
 41
1
 51
0
  7
ROOM TEXT
 71
    0
 72
    1
 11
34786.7600093379
 21
-1083.979928026435
 31
0
210
0
220
0
230
1
 73
    2
  0
ENDSEC
  0
EOF
