{
  "accessors": [
    {
      "bufferView": 0,
      "componentType": 5126,
      "count": 372,
      "max": [
        90.2300033569336,
        3.0,
        66.52999877929688
      ],
      "min": [
        56.34000015258789,
        0.0,
        35.65999984741211
      ],
      "type": "VEC3"
    }
  ],
  "asset": {
    "generator": "Plan2Scene",
    "version": "2.0"
  },
  "bufferViews": [
    {
      "buffer": 0,
      "byteLength": 4464,
      "target": 34962
    }
  ],
  "buffers": [
    {
      "byteLength": 4464,
      "uri": "giraffe360_demo_residential.bin"
    }
  ],
  "meshes": [
    {
      "name": "Room",
      "primitives": [
        {
          "attributes": {
            "POSITION": 0
          },
          "mode": 4
        }
      ]
    }
  ],
  "nodes": [
    {
      "mesh": 0
    }
  ],
  "scene": 0,
  "scenes": [
    {
      "nodes": [
        0
      ]
    }
  ]
}
